%TF.GenerationSoftware,KiCad,Pcbnew,5.1.10*%
%TF.CreationDate,2022-04-07T11:00:07+02:00*%
%TF.ProjectId,breakoutPcb,62726561-6b6f-4757-9450-63622e6b6963,rev?*%
%TF.SameCoordinates,Original*%
%TF.FileFunction,Soldermask,Top*%
%TF.FilePolarity,Negative*%
%FSLAX46Y46*%
G04 Gerber Fmt 4.6, Leading zero omitted, Abs format (unit mm)*
G04 Created by KiCad (PCBNEW 5.1.10) date 2022-04-07 11:00:07*
%MOMM*%
%LPD*%
G01*
G04 APERTURE LIST*
%ADD10C,5.600000*%
%ADD11C,4.000000*%
%ADD12C,1.600000*%
%ADD13R,1.600000X1.600000*%
%ADD14C,2.250000*%
%ADD15C,2.050000*%
%ADD16O,1.500000X1.500000*%
G04 APERTURE END LIST*
D10*
%TO.C,REF\u002A\u002A*%
X62230000Y-91440000D03*
%TD*%
%TO.C,REF\u002A\u002A*%
X90170000Y-91440000D03*
%TD*%
%TO.C,REF\u002A\u002A*%
X55880000Y-76200000D03*
%TD*%
D11*
%TO.C,J1*%
X63700000Y-60810000D03*
X88700000Y-60810000D03*
D12*
X80355000Y-59390000D03*
X77585000Y-59390000D03*
X74815000Y-59390000D03*
X72045000Y-59390000D03*
X81740000Y-62230000D03*
X78970000Y-62230000D03*
X76200000Y-62230000D03*
X73430000Y-62230000D03*
D13*
X70660000Y-62230000D03*
%TD*%
%TO.C,JP1*%
G36*
G01*
X63100000Y-82099998D02*
X63100000Y-83000002D01*
G75*
G02*
X62850002Y-83250000I-249998J0D01*
G01*
X62324998Y-83250000D01*
G75*
G02*
X62075000Y-83000002I0J249998D01*
G01*
X62075000Y-82099998D01*
G75*
G02*
X62324998Y-81850000I249998J0D01*
G01*
X62850002Y-81850000D01*
G75*
G02*
X63100000Y-82099998I0J-249998D01*
G01*
G37*
G36*
G01*
X64925000Y-82099998D02*
X64925000Y-83000002D01*
G75*
G02*
X64675002Y-83250000I-249998J0D01*
G01*
X64149998Y-83250000D01*
G75*
G02*
X63900000Y-83000002I0J249998D01*
G01*
X63900000Y-82099998D01*
G75*
G02*
X64149998Y-81850000I249998J0D01*
G01*
X64675002Y-81850000D01*
G75*
G02*
X64925000Y-82099998I0J-249998D01*
G01*
G37*
%TD*%
D14*
%TO.C,J5*%
X92710000Y-85090000D03*
X92710000Y-80010000D03*
X97790000Y-80010000D03*
X97790000Y-85090000D03*
D15*
X95250000Y-82550000D03*
%TD*%
D14*
%TO.C,J4*%
X92710000Y-72390000D03*
X92710000Y-67310000D03*
X97790000Y-67310000D03*
X97790000Y-72390000D03*
D15*
X95250000Y-69850000D03*
%TD*%
D14*
%TO.C,J3*%
X68580000Y-97790000D03*
X68580000Y-92710000D03*
X73660000Y-92710000D03*
X73660000Y-97790000D03*
D15*
X71120000Y-95250000D03*
%TD*%
D14*
%TO.C,J2*%
X78740000Y-97790000D03*
X78740000Y-92710000D03*
X83820000Y-92710000D03*
X83820000Y-97790000D03*
D15*
X81280000Y-95250000D03*
%TD*%
D16*
%TO.C,CRT1*%
X80538837Y-67190312D03*
X84018314Y-69965102D03*
X85949279Y-73974791D03*
X85949279Y-78425209D03*
X80538837Y-85209688D03*
X71861163Y-85209688D03*
X68381686Y-82434898D03*
X66450721Y-78425209D03*
X66450721Y-73974791D03*
X68381686Y-69965102D03*
X71861163Y-67190312D03*
X76200000Y-66200000D03*
%TD*%
M02*
