%TF.GenerationSoftware,KiCad,Pcbnew,5.1.10*%
%TF.CreationDate,2022-05-03T17:12:01+02:00*%
%TF.ProjectId,breakoutPcb,62726561-6b6f-4757-9450-63622e6b6963,rev?*%
%TF.SameCoordinates,Original*%
%TF.FileFunction,Copper,L1,Top*%
%TF.FilePolarity,Positive*%
%FSLAX46Y46*%
G04 Gerber Fmt 4.6, Leading zero omitted, Abs format (unit mm)*
G04 Created by KiCad (PCBNEW 5.1.10) date 2022-05-03 17:12:01*
%MOMM*%
%LPD*%
G01*
G04 APERTURE LIST*
%TA.AperFunction,ComponentPad*%
%ADD10C,6.400000*%
%TD*%
%TA.AperFunction,ComponentPad*%
%ADD11C,4.000000*%
%TD*%
%TA.AperFunction,ComponentPad*%
%ADD12C,2.000000*%
%TD*%
%TA.AperFunction,ComponentPad*%
%ADD13R,2.000000X1.600000*%
%TD*%
%TA.AperFunction,ComponentPad*%
%ADD14O,2.000000X2.000000*%
%TD*%
%TA.AperFunction,ComponentPad*%
%ADD15C,1.600000*%
%TD*%
%TA.AperFunction,ComponentPad*%
%ADD16C,2.250000*%
%TD*%
%TA.AperFunction,ComponentPad*%
%ADD17C,2.050000*%
%TD*%
%TA.AperFunction,Conductor*%
%ADD18C,1.000000*%
%TD*%
%TA.AperFunction,Conductor*%
%ADD19C,0.250000*%
%TD*%
%TA.AperFunction,Conductor*%
%ADD20C,0.254000*%
%TD*%
%TA.AperFunction,Conductor*%
%ADD21C,0.100000*%
%TD*%
G04 APERTURE END LIST*
D10*
%TO.P,REF\u002A\u002A,1*%
%TO.N,GND*%
X56200000Y-76200000D03*
%TD*%
D11*
%TO.P,J1,0*%
%TO.N,GND*%
X63760000Y-59200000D03*
X88760000Y-59200000D03*
D12*
%TO.P,J1,9*%
%TO.N,Net-(C2-Pad2)*%
X80415000Y-57780000D03*
%TO.P,J1,8*%
%TO.N,GND*%
X77645000Y-57780000D03*
%TO.P,J1,7*%
%TO.N,Net-(C7-Pad1)*%
X74875000Y-57780000D03*
%TO.P,J1,6*%
%TO.N,Net-(C6-Pad1)*%
X72105000Y-57780000D03*
%TO.P,J1,5*%
%TO.N,Net-(C1-Pad2)*%
X81800000Y-60620000D03*
%TO.P,J1,4*%
%TO.N,Net-(C3-Pad2)*%
X79030000Y-60620000D03*
%TO.P,J1,3*%
%TO.N,Net-(C5-Pad2)*%
X76260000Y-60620000D03*
%TO.P,J1,2*%
%TO.N,Net-(C4-Pad1)*%
X73490000Y-60620000D03*
D13*
%TO.P,J1,1*%
%TO.N,Net-(C8-Pad1)*%
X70720000Y-60620000D03*
%TD*%
D10*
%TO.P,REF\u002A\u002A,1*%
%TO.N,GND*%
X62200000Y-91800000D03*
%TD*%
%TO.P,REF\u002A\u002A,1*%
%TO.N,GND*%
X90200000Y-91800000D03*
%TD*%
D14*
%TO.P,CRT1,14*%
%TO.N,Net-(C1-Pad2)*%
X80538837Y-67190312D03*
%TO.P,CRT1,13*%
%TO.N,Net-(CRT1-Pad13)*%
X84018314Y-69965102D03*
%TO.P,CRT1,12*%
%TO.N,Net-(C2-Pad2)*%
X85949279Y-73974791D03*
%TO.P,CRT1,11*%
%TO.N,Net-(CRT1-Pad11)*%
X85949279Y-78425209D03*
%TO.P,CRT1,9*%
%TO.N,Net-(CRT1-Pad9)*%
X80538837Y-85209688D03*
%TO.P,CRT1,7*%
%TO.N,Net-(CRT1-Pad7)*%
X71861163Y-85209688D03*
%TO.P,CRT1,6*%
%TO.N,Net-(C8-Pad1)*%
X68381686Y-82434898D03*
%TO.P,CRT1,5*%
%TO.N,Net-(C7-Pad1)*%
X66450721Y-78425209D03*
%TO.P,CRT1,4*%
%TO.N,Net-(C6-Pad1)*%
X66450721Y-73974791D03*
%TO.P,CRT1,3*%
%TO.N,Net-(C4-Pad1)*%
X68381686Y-69965102D03*
%TO.P,CRT1,2*%
%TO.N,Net-(C5-Pad2)*%
X71861163Y-67190312D03*
%TO.P,CRT1,1*%
%TO.N,Net-(C3-Pad2)*%
X76200000Y-66200000D03*
%TD*%
D15*
%TO.P,C8,2*%
%TO.N,GND*%
X54690000Y-68580000D03*
%TO.P,C8,1*%
%TO.N,Net-(C8-Pad1)*%
X59690000Y-68580000D03*
%TD*%
%TO.P,C7,2*%
%TO.N,GND*%
X79295000Y-82550000D03*
%TO.P,C7,1*%
%TO.N,Net-(C7-Pad1)*%
X74295000Y-82550000D03*
%TD*%
%TO.P,C6,2*%
%TO.N,GND*%
X69215000Y-79295000D03*
%TO.P,C6,1*%
%TO.N,Net-(C6-Pad1)*%
X69215000Y-74295000D03*
%TD*%
%TO.P,C5,2*%
%TO.N,Net-(C5-Pad2)*%
X76200000Y-69930000D03*
%TO.P,C5,1*%
%TO.N,GND*%
X76200000Y-74930000D03*
%TD*%
%TO.P,C4,2*%
%TO.N,GND*%
X72390000Y-76120000D03*
%TO.P,C4,1*%
%TO.N,Net-(C4-Pad1)*%
X72390000Y-71120000D03*
%TD*%
%TO.P,C3,2*%
%TO.N,Net-(C3-Pad2)*%
X80010000Y-69930000D03*
%TO.P,C3,1*%
%TO.N,GND*%
X80010000Y-74930000D03*
%TD*%
%TO.P,C2,2*%
%TO.N,Net-(C2-Pad2)*%
X82470000Y-78740000D03*
%TO.P,C2,1*%
%TO.N,GND*%
X77470000Y-78740000D03*
%TD*%
%TO.P,JP1,2*%
%TO.N,GND*%
%TA.AperFunction,SMDPad,CuDef*%
G36*
G01*
X63100000Y-82099998D02*
X63100000Y-83000002D01*
G75*
G02*
X62850002Y-83250000I-249998J0D01*
G01*
X62324998Y-83250000D01*
G75*
G02*
X62075000Y-83000002I0J249998D01*
G01*
X62075000Y-82099998D01*
G75*
G02*
X62324998Y-81850000I249998J0D01*
G01*
X62850002Y-81850000D01*
G75*
G02*
X63100000Y-82099998I0J-249998D01*
G01*
G37*
%TD.AperFunction*%
%TO.P,JP1,1*%
%TO.N,Net-(C8-Pad1)*%
%TA.AperFunction,SMDPad,CuDef*%
G36*
G01*
X64925000Y-82099998D02*
X64925000Y-83000002D01*
G75*
G02*
X64675002Y-83250000I-249998J0D01*
G01*
X64149998Y-83250000D01*
G75*
G02*
X63900000Y-83000002I0J249998D01*
G01*
X63900000Y-82099998D01*
G75*
G02*
X64149998Y-81850000I249998J0D01*
G01*
X64675002Y-81850000D01*
G75*
G02*
X64925000Y-82099998I0J-249998D01*
G01*
G37*
%TD.AperFunction*%
%TD*%
D16*
%TO.P,J5,2*%
%TO.N,GND*%
X92660000Y-84740000D03*
X92660000Y-79660000D03*
X97740000Y-79660000D03*
X97740000Y-84740000D03*
D17*
%TO.P,J5,1*%
%TO.N,Net-(CRT1-Pad11)*%
X95200000Y-82200000D03*
%TD*%
D16*
%TO.P,J4,2*%
%TO.N,GND*%
X92660000Y-72740000D03*
X92660000Y-67660000D03*
X97740000Y-67660000D03*
X97740000Y-72740000D03*
D17*
%TO.P,J4,1*%
%TO.N,Net-(CRT1-Pad13)*%
X95200000Y-70200000D03*
%TD*%
D16*
%TO.P,J3,2*%
%TO.N,GND*%
X67660000Y-97740000D03*
X67660000Y-92660000D03*
X72740000Y-92660000D03*
X72740000Y-97740000D03*
D17*
%TO.P,J3,1*%
%TO.N,Net-(CRT1-Pad7)*%
X70200000Y-95200000D03*
%TD*%
D16*
%TO.P,J2,2*%
%TO.N,GND*%
X79660000Y-97740000D03*
X79660000Y-92660000D03*
X84740000Y-92660000D03*
X84740000Y-97740000D03*
D17*
%TO.P,J2,1*%
%TO.N,Net-(CRT1-Pad9)*%
X82200000Y-95200000D03*
%TD*%
D18*
%TO.N,Net-(C1-Pad2)*%
X81740000Y-64310000D02*
X81740000Y-60680000D01*
X81740000Y-60680000D02*
X81800000Y-60620000D01*
X80538837Y-65511163D02*
X81740000Y-64310000D01*
X80538837Y-67190312D02*
X80538837Y-65511163D01*
%TO.N,Net-(C2-Pad2)*%
X85949279Y-73974791D02*
X87534070Y-72390000D01*
X87534070Y-72390000D02*
X87534070Y-64674070D01*
X87534070Y-64674070D02*
X85090000Y-62230000D01*
X85090000Y-62230000D02*
X85090000Y-59690000D01*
X83180000Y-57780000D02*
X80415000Y-57780000D01*
X85090000Y-59690000D02*
X83180000Y-57780000D01*
%TO.N,Net-(C3-Pad2)*%
X78970000Y-60680000D02*
X79030000Y-60620000D01*
X78970000Y-64540000D02*
X78970000Y-60680000D01*
X77310000Y-66200000D02*
X78970000Y-64540000D01*
X76200000Y-66200000D02*
X77310000Y-66200000D01*
X76200000Y-66200000D02*
X76280000Y-66200000D01*
D19*
%TO.N,Net-(C4-Pad1)*%
X73430000Y-60680000D02*
X73490000Y-60620000D01*
D18*
X68381686Y-67508314D02*
X68381686Y-69965102D01*
X70661153Y-65228847D02*
X68381686Y-67508314D01*
X70661153Y-64801777D02*
X70661153Y-65228847D01*
X71791173Y-64098827D02*
X71364103Y-64098827D01*
X73490000Y-62400000D02*
X71791173Y-64098827D01*
X71364103Y-64098827D02*
X70661153Y-64801777D01*
X73490000Y-60620000D02*
X73490000Y-62400000D01*
D19*
%TO.N,GND*%
X62587500Y-84732500D02*
X59690000Y-87630000D01*
X62587500Y-82550000D02*
X62587500Y-84732500D01*
X59690000Y-87630000D02*
X59690000Y-88900000D01*
X63500000Y-92710000D02*
X68580000Y-92710000D01*
X59690000Y-88900000D02*
X63500000Y-92710000D01*
D18*
X63760000Y-59510000D02*
X63760000Y-59200000D01*
X54690000Y-68580000D02*
X63760000Y-59510000D01*
X80809999Y-75729999D02*
X87159999Y-75729999D01*
X80010000Y-74930000D02*
X80809999Y-75729999D01*
X91090000Y-79660000D02*
X92660000Y-79660000D01*
X87159999Y-75729999D02*
X91090000Y-79660000D01*
X69215000Y-79295000D02*
X72390000Y-76120000D01*
D19*
%TO.N,Net-(C5-Pad2)*%
X76200000Y-60680000D02*
X76260000Y-60620000D01*
D18*
X76260000Y-62170000D02*
X76260000Y-60620000D01*
X73660000Y-64770000D02*
X76260000Y-62170000D01*
X73660000Y-65391475D02*
X73660000Y-64770000D01*
X71861163Y-67190312D02*
X73660000Y-65391475D01*
%TO.N,Net-(C6-Pad1)*%
X68894791Y-73974791D02*
X69215000Y-74295000D01*
D19*
%TO.N,Net-(C8-Pad1)*%
X70660000Y-60680000D02*
X70720000Y-60620000D01*
D18*
X64527602Y-82434898D02*
X64412500Y-82550000D01*
X66155102Y-82434898D02*
X62230000Y-78509796D01*
X68381686Y-82434898D02*
X66155102Y-82434898D01*
X66155102Y-82434898D02*
X64527602Y-82434898D01*
X62230000Y-78509796D02*
X62230000Y-67310000D01*
X68920000Y-60620000D02*
X70720000Y-60620000D01*
X62230000Y-67310000D02*
X68920000Y-60620000D01*
X60960000Y-67310000D02*
X59690000Y-68580000D01*
X62230000Y-67310000D02*
X60960000Y-67310000D01*
%TD*%
D20*
%TO.N,GND*%
X78586855Y-52270745D02*
X80480493Y-52536026D01*
X82347069Y-52950917D01*
X84174780Y-53512797D01*
X85952073Y-54218113D01*
X87667710Y-55062405D01*
X89310844Y-56040335D01*
X90871087Y-57145722D01*
X92338575Y-58371576D01*
X93704030Y-59710147D01*
X94958818Y-61152972D01*
X96095007Y-62690930D01*
X97105414Y-64314296D01*
X97929806Y-65908673D01*
X97682350Y-65892424D01*
X97338620Y-65937634D01*
X97010315Y-66049034D01*
X96805921Y-66158286D01*
X96695074Y-66435469D01*
X97740000Y-67480395D01*
X97754143Y-67466253D01*
X97933748Y-67645858D01*
X97919605Y-67660000D01*
X98964531Y-68704926D01*
X99022530Y-68681732D01*
X99322270Y-69591904D01*
X99774191Y-71449861D01*
X100077069Y-73337851D01*
X100228988Y-75243935D01*
X100228988Y-77156065D01*
X100077069Y-79062149D01*
X99774191Y-80950139D01*
X99322270Y-82808096D01*
X99022530Y-83718268D01*
X98964531Y-83695074D01*
X97919605Y-84740000D01*
X97933748Y-84754143D01*
X97754143Y-84933748D01*
X97740000Y-84919605D01*
X96695074Y-85964531D01*
X96805921Y-86241714D01*
X97116840Y-86395089D01*
X97451705Y-86484860D01*
X97797650Y-86507576D01*
X97930435Y-86490111D01*
X97105414Y-88085704D01*
X96095007Y-89709070D01*
X94958818Y-91247028D01*
X93998183Y-92351619D01*
X94053480Y-91824305D01*
X93984178Y-91072062D01*
X93769452Y-90347792D01*
X93417555Y-89679330D01*
X93390548Y-89638912D01*
X92900881Y-89278724D01*
X90379605Y-91800000D01*
X90393748Y-91814143D01*
X90214143Y-91993748D01*
X90200000Y-91979605D01*
X87678724Y-94500881D01*
X88038912Y-94990548D01*
X88702882Y-95350849D01*
X89424385Y-95574694D01*
X90175695Y-95653480D01*
X90327336Y-95639510D01*
X89310844Y-96359665D01*
X87667710Y-97337595D01*
X86492229Y-97916068D01*
X86507576Y-97682350D01*
X86462366Y-97338620D01*
X86350966Y-97010315D01*
X86241714Y-96805921D01*
X85964531Y-96695074D01*
X84919605Y-97740000D01*
X84933748Y-97754143D01*
X84754143Y-97933748D01*
X84740000Y-97919605D01*
X83695074Y-98964531D01*
X83720054Y-99026996D01*
X82347069Y-99449083D01*
X80480493Y-99863974D01*
X78586855Y-100129255D01*
X76678127Y-100243246D01*
X74766375Y-100205229D01*
X72863688Y-100015443D01*
X70982094Y-99675088D01*
X69133489Y-99186316D01*
X68679983Y-99026904D01*
X68704926Y-98964531D01*
X71695074Y-98964531D01*
X71805921Y-99241714D01*
X72116840Y-99395089D01*
X72451705Y-99484860D01*
X72797650Y-99507576D01*
X73141380Y-99462366D01*
X73469685Y-99350966D01*
X73674079Y-99241714D01*
X73784926Y-98964531D01*
X78615074Y-98964531D01*
X78725921Y-99241714D01*
X79036840Y-99395089D01*
X79371705Y-99484860D01*
X79717650Y-99507576D01*
X80061380Y-99462366D01*
X80389685Y-99350966D01*
X80594079Y-99241714D01*
X80704926Y-98964531D01*
X79660000Y-97919605D01*
X78615074Y-98964531D01*
X73784926Y-98964531D01*
X72740000Y-97919605D01*
X71695074Y-98964531D01*
X68704926Y-98964531D01*
X67660000Y-97919605D01*
X67645858Y-97933748D01*
X67466253Y-97754143D01*
X67480395Y-97740000D01*
X66435469Y-96695074D01*
X66158286Y-96805921D01*
X66004911Y-97116840D01*
X65915140Y-97451705D01*
X65892424Y-97797650D01*
X65908765Y-97921894D01*
X65581714Y-97776800D01*
X63901000Y-96864968D01*
X62298044Y-95822485D01*
X62063229Y-95641686D01*
X62175695Y-95653480D01*
X62927938Y-95584178D01*
X63652208Y-95369452D01*
X64320670Y-95017555D01*
X64361088Y-94990548D01*
X64721276Y-94500881D01*
X62200000Y-91979605D01*
X62185858Y-91993748D01*
X62006253Y-91814143D01*
X62020395Y-91800000D01*
X62379605Y-91800000D01*
X64900881Y-94321276D01*
X65390548Y-93961088D01*
X65432091Y-93884531D01*
X66615074Y-93884531D01*
X66725921Y-94161714D01*
X67036840Y-94315089D01*
X67371705Y-94404860D01*
X67717650Y-94427576D01*
X68061380Y-94382366D01*
X68389685Y-94270966D01*
X68594079Y-94161714D01*
X68704925Y-93884533D01*
X68765279Y-93944887D01*
X68722620Y-93987546D01*
X68514469Y-94299065D01*
X68371093Y-94645207D01*
X68298000Y-95012669D01*
X68298000Y-95387331D01*
X68371093Y-95754793D01*
X68514469Y-96100935D01*
X68722620Y-96412454D01*
X68765279Y-96455113D01*
X68704925Y-96515467D01*
X68594079Y-96238286D01*
X68283160Y-96084911D01*
X67948295Y-95995140D01*
X67602350Y-95972424D01*
X67258620Y-96017634D01*
X66930315Y-96129034D01*
X66725921Y-96238286D01*
X66615074Y-96515469D01*
X67660000Y-97560395D01*
X67674143Y-97546253D01*
X67853748Y-97725858D01*
X67839605Y-97740000D01*
X68884531Y-98784926D01*
X69161714Y-98674079D01*
X69315089Y-98363160D01*
X69404860Y-98028295D01*
X69427576Y-97682350D01*
X69382366Y-97338620D01*
X69270966Y-97010315D01*
X69161714Y-96805921D01*
X68884533Y-96695075D01*
X68944887Y-96634721D01*
X68987546Y-96677380D01*
X69299065Y-96885531D01*
X69645207Y-97028907D01*
X70012669Y-97102000D01*
X70387331Y-97102000D01*
X70754793Y-97028907D01*
X71100935Y-96885531D01*
X71412454Y-96677380D01*
X71455113Y-96634721D01*
X71515467Y-96695075D01*
X71238286Y-96805921D01*
X71084911Y-97116840D01*
X70995140Y-97451705D01*
X70972424Y-97797650D01*
X71017634Y-98141380D01*
X71129034Y-98469685D01*
X71238286Y-98674079D01*
X71515469Y-98784926D01*
X72560395Y-97740000D01*
X72919605Y-97740000D01*
X73964531Y-98784926D01*
X74241714Y-98674079D01*
X74395089Y-98363160D01*
X74484860Y-98028295D01*
X74500004Y-97797650D01*
X77892424Y-97797650D01*
X77937634Y-98141380D01*
X78049034Y-98469685D01*
X78158286Y-98674079D01*
X78435469Y-98784926D01*
X79480395Y-97740000D01*
X78435469Y-96695074D01*
X78158286Y-96805921D01*
X78004911Y-97116840D01*
X77915140Y-97451705D01*
X77892424Y-97797650D01*
X74500004Y-97797650D01*
X74507576Y-97682350D01*
X74462366Y-97338620D01*
X74350966Y-97010315D01*
X74241714Y-96805921D01*
X73964531Y-96695074D01*
X72919605Y-97740000D01*
X72560395Y-97740000D01*
X72546253Y-97725858D01*
X72725858Y-97546253D01*
X72740000Y-97560395D01*
X73784926Y-96515469D01*
X73674079Y-96238286D01*
X73363160Y-96084911D01*
X73028295Y-95995140D01*
X72682350Y-95972424D01*
X72338620Y-96017634D01*
X72010315Y-96129034D01*
X71805921Y-96238286D01*
X71695075Y-96515467D01*
X71634721Y-96455113D01*
X71677380Y-96412454D01*
X71885531Y-96100935D01*
X72028907Y-95754793D01*
X72102000Y-95387331D01*
X72102000Y-95012669D01*
X72028907Y-94645207D01*
X71885531Y-94299065D01*
X71677380Y-93987546D01*
X71634721Y-93944887D01*
X71695075Y-93884533D01*
X71805921Y-94161714D01*
X72116840Y-94315089D01*
X72451705Y-94404860D01*
X72797650Y-94427576D01*
X73141380Y-94382366D01*
X73469685Y-94270966D01*
X73674079Y-94161714D01*
X73784926Y-93884531D01*
X78615074Y-93884531D01*
X78725921Y-94161714D01*
X79036840Y-94315089D01*
X79371705Y-94404860D01*
X79717650Y-94427576D01*
X80061380Y-94382366D01*
X80389685Y-94270966D01*
X80594079Y-94161714D01*
X80704925Y-93884533D01*
X80765279Y-93944887D01*
X80722620Y-93987546D01*
X80514469Y-94299065D01*
X80371093Y-94645207D01*
X80298000Y-95012669D01*
X80298000Y-95387331D01*
X80371093Y-95754793D01*
X80514469Y-96100935D01*
X80722620Y-96412454D01*
X80765279Y-96455113D01*
X80704925Y-96515467D01*
X80594079Y-96238286D01*
X80283160Y-96084911D01*
X79948295Y-95995140D01*
X79602350Y-95972424D01*
X79258620Y-96017634D01*
X78930315Y-96129034D01*
X78725921Y-96238286D01*
X78615074Y-96515469D01*
X79660000Y-97560395D01*
X79674143Y-97546253D01*
X79853748Y-97725858D01*
X79839605Y-97740000D01*
X80884531Y-98784926D01*
X81161714Y-98674079D01*
X81315089Y-98363160D01*
X81404860Y-98028295D01*
X81427576Y-97682350D01*
X81382366Y-97338620D01*
X81270966Y-97010315D01*
X81161714Y-96805921D01*
X80884533Y-96695075D01*
X80944887Y-96634721D01*
X80987546Y-96677380D01*
X81299065Y-96885531D01*
X81645207Y-97028907D01*
X82012669Y-97102000D01*
X82387331Y-97102000D01*
X82754793Y-97028907D01*
X83100935Y-96885531D01*
X83412454Y-96677380D01*
X83455113Y-96634721D01*
X83515467Y-96695075D01*
X83238286Y-96805921D01*
X83084911Y-97116840D01*
X82995140Y-97451705D01*
X82972424Y-97797650D01*
X83017634Y-98141380D01*
X83129034Y-98469685D01*
X83238286Y-98674079D01*
X83515469Y-98784926D01*
X84560395Y-97740000D01*
X84546253Y-97725858D01*
X84725858Y-97546253D01*
X84740000Y-97560395D01*
X85784926Y-96515469D01*
X85674079Y-96238286D01*
X85363160Y-96084911D01*
X85028295Y-95995140D01*
X84682350Y-95972424D01*
X84338620Y-96017634D01*
X84010315Y-96129034D01*
X83805921Y-96238286D01*
X83695075Y-96515467D01*
X83634721Y-96455113D01*
X83677380Y-96412454D01*
X83885531Y-96100935D01*
X84028907Y-95754793D01*
X84102000Y-95387331D01*
X84102000Y-95012669D01*
X84028907Y-94645207D01*
X83885531Y-94299065D01*
X83677380Y-93987546D01*
X83634721Y-93944887D01*
X83695075Y-93884533D01*
X83805921Y-94161714D01*
X84116840Y-94315089D01*
X84451705Y-94404860D01*
X84797650Y-94427576D01*
X85141380Y-94382366D01*
X85469685Y-94270966D01*
X85674079Y-94161714D01*
X85784926Y-93884531D01*
X84740000Y-92839605D01*
X84725858Y-92853748D01*
X84546253Y-92674143D01*
X84560395Y-92660000D01*
X84919605Y-92660000D01*
X85964531Y-93704926D01*
X86241714Y-93594079D01*
X86395089Y-93283160D01*
X86484860Y-92948295D01*
X86494939Y-92794800D01*
X86630548Y-93252208D01*
X86982445Y-93920670D01*
X87009452Y-93961088D01*
X87499119Y-94321276D01*
X90020395Y-91800000D01*
X87499119Y-89278724D01*
X87009452Y-89638912D01*
X86649151Y-90302882D01*
X86425306Y-91024385D01*
X86346520Y-91775695D01*
X86364417Y-91969955D01*
X86350966Y-91930315D01*
X86241714Y-91725921D01*
X85964531Y-91615074D01*
X84919605Y-92660000D01*
X84560395Y-92660000D01*
X83515469Y-91615074D01*
X83238286Y-91725921D01*
X83084911Y-92036840D01*
X82995140Y-92371705D01*
X82972424Y-92717650D01*
X83017634Y-93061380D01*
X83129034Y-93389685D01*
X83238286Y-93594079D01*
X83515467Y-93704925D01*
X83455113Y-93765279D01*
X83412454Y-93722620D01*
X83100935Y-93514469D01*
X82754793Y-93371093D01*
X82387331Y-93298000D01*
X82012669Y-93298000D01*
X81645207Y-93371093D01*
X81299065Y-93514469D01*
X80987546Y-93722620D01*
X80944887Y-93765279D01*
X80884533Y-93704925D01*
X81161714Y-93594079D01*
X81315089Y-93283160D01*
X81404860Y-92948295D01*
X81427576Y-92602350D01*
X81382366Y-92258620D01*
X81270966Y-91930315D01*
X81161714Y-91725921D01*
X80884531Y-91615074D01*
X79839605Y-92660000D01*
X79853748Y-92674143D01*
X79674143Y-92853748D01*
X79660000Y-92839605D01*
X78615074Y-93884531D01*
X73784926Y-93884531D01*
X72740000Y-92839605D01*
X72725858Y-92853748D01*
X72546253Y-92674143D01*
X72560395Y-92660000D01*
X72919605Y-92660000D01*
X73964531Y-93704926D01*
X74241714Y-93594079D01*
X74395089Y-93283160D01*
X74484860Y-92948295D01*
X74500004Y-92717650D01*
X77892424Y-92717650D01*
X77937634Y-93061380D01*
X78049034Y-93389685D01*
X78158286Y-93594079D01*
X78435469Y-93704926D01*
X79480395Y-92660000D01*
X78435469Y-91615074D01*
X78158286Y-91725921D01*
X78004911Y-92036840D01*
X77915140Y-92371705D01*
X77892424Y-92717650D01*
X74500004Y-92717650D01*
X74507576Y-92602350D01*
X74462366Y-92258620D01*
X74350966Y-91930315D01*
X74241714Y-91725921D01*
X73964531Y-91615074D01*
X72919605Y-92660000D01*
X72560395Y-92660000D01*
X71515469Y-91615074D01*
X71238286Y-91725921D01*
X71084911Y-92036840D01*
X70995140Y-92371705D01*
X70972424Y-92717650D01*
X71017634Y-93061380D01*
X71129034Y-93389685D01*
X71238286Y-93594079D01*
X71515467Y-93704925D01*
X71455113Y-93765279D01*
X71412454Y-93722620D01*
X71100935Y-93514469D01*
X70754793Y-93371093D01*
X70387331Y-93298000D01*
X70012669Y-93298000D01*
X69645207Y-93371093D01*
X69299065Y-93514469D01*
X68987546Y-93722620D01*
X68944887Y-93765279D01*
X68884533Y-93704925D01*
X69161714Y-93594079D01*
X69315089Y-93283160D01*
X69404860Y-92948295D01*
X69427576Y-92602350D01*
X69382366Y-92258620D01*
X69270966Y-91930315D01*
X69161714Y-91725921D01*
X68884531Y-91615074D01*
X67839605Y-92660000D01*
X67853748Y-92674143D01*
X67674143Y-92853748D01*
X67660000Y-92839605D01*
X66615074Y-93884531D01*
X65432091Y-93884531D01*
X65750849Y-93297118D01*
X65903798Y-92804128D01*
X65937634Y-93061380D01*
X66049034Y-93389685D01*
X66158286Y-93594079D01*
X66435469Y-93704926D01*
X67480395Y-92660000D01*
X66435469Y-91615074D01*
X66158286Y-91725921D01*
X66038288Y-91969179D01*
X66053480Y-91824305D01*
X66017658Y-91435469D01*
X66615074Y-91435469D01*
X67660000Y-92480395D01*
X68704926Y-91435469D01*
X71695074Y-91435469D01*
X72740000Y-92480395D01*
X73784926Y-91435469D01*
X78615074Y-91435469D01*
X79660000Y-92480395D01*
X80704926Y-91435469D01*
X83695074Y-91435469D01*
X84740000Y-92480395D01*
X85784926Y-91435469D01*
X85674079Y-91158286D01*
X85363160Y-91004911D01*
X85028295Y-90915140D01*
X84682350Y-90892424D01*
X84338620Y-90937634D01*
X84010315Y-91049034D01*
X83805921Y-91158286D01*
X83695074Y-91435469D01*
X80704926Y-91435469D01*
X80594079Y-91158286D01*
X80283160Y-91004911D01*
X79948295Y-90915140D01*
X79602350Y-90892424D01*
X79258620Y-90937634D01*
X78930315Y-91049034D01*
X78725921Y-91158286D01*
X78615074Y-91435469D01*
X73784926Y-91435469D01*
X73674079Y-91158286D01*
X73363160Y-91004911D01*
X73028295Y-90915140D01*
X72682350Y-90892424D01*
X72338620Y-90937634D01*
X72010315Y-91049034D01*
X71805921Y-91158286D01*
X71695074Y-91435469D01*
X68704926Y-91435469D01*
X68594079Y-91158286D01*
X68283160Y-91004911D01*
X67948295Y-90915140D01*
X67602350Y-90892424D01*
X67258620Y-90937634D01*
X66930315Y-91049034D01*
X66725921Y-91158286D01*
X66615074Y-91435469D01*
X66017658Y-91435469D01*
X65984178Y-91072062D01*
X65769452Y-90347792D01*
X65417555Y-89679330D01*
X65390548Y-89638912D01*
X64900881Y-89278724D01*
X62379605Y-91800000D01*
X62020395Y-91800000D01*
X59499119Y-89278724D01*
X59009452Y-89638912D01*
X58649151Y-90302882D01*
X58425306Y-91024385D01*
X58346520Y-91775695D01*
X58399158Y-92347059D01*
X58054230Y-91980917D01*
X56857795Y-90489346D01*
X55913806Y-89099119D01*
X59678724Y-89099119D01*
X62200000Y-91620395D01*
X64721276Y-89099119D01*
X87678724Y-89099119D01*
X90200000Y-91620395D01*
X92721276Y-89099119D01*
X92361088Y-88609452D01*
X91697118Y-88249151D01*
X90975615Y-88025306D01*
X90224305Y-87946520D01*
X89472062Y-88015822D01*
X88747792Y-88230548D01*
X88079330Y-88582445D01*
X88038912Y-88609452D01*
X87678724Y-89099119D01*
X64721276Y-89099119D01*
X64361088Y-88609452D01*
X63697118Y-88249151D01*
X62975615Y-88025306D01*
X62224305Y-87946520D01*
X61472062Y-88015822D01*
X60747792Y-88230548D01*
X60079330Y-88582445D01*
X60038912Y-88609452D01*
X59678724Y-89099119D01*
X55913806Y-89099119D01*
X55783648Y-88907434D01*
X54838580Y-87245181D01*
X54028565Y-85513097D01*
X53845945Y-85024820D01*
X69984163Y-85024820D01*
X69984163Y-85394556D01*
X70056295Y-85757189D01*
X70197787Y-86098781D01*
X70403202Y-86406206D01*
X70664645Y-86667649D01*
X70972070Y-86873064D01*
X71313662Y-87014556D01*
X71676295Y-87086688D01*
X72046031Y-87086688D01*
X72408664Y-87014556D01*
X72750256Y-86873064D01*
X73057681Y-86667649D01*
X73319124Y-86406206D01*
X73524539Y-86098781D01*
X73666031Y-85757189D01*
X73738163Y-85394556D01*
X73738163Y-85024820D01*
X73666031Y-84662187D01*
X73524539Y-84320595D01*
X73319124Y-84013170D01*
X73057681Y-83751727D01*
X72750256Y-83546312D01*
X72408664Y-83404820D01*
X72046031Y-83332688D01*
X71676295Y-83332688D01*
X71313662Y-83404820D01*
X70972070Y-83546312D01*
X70664645Y-83751727D01*
X70403202Y-84013170D01*
X70197787Y-84320595D01*
X70056295Y-84662187D01*
X69984163Y-85024820D01*
X53845945Y-85024820D01*
X53358725Y-83722133D01*
X53223795Y-83250000D01*
X61436928Y-83250000D01*
X61449188Y-83374482D01*
X61485498Y-83494180D01*
X61544463Y-83604494D01*
X61623815Y-83701185D01*
X61720506Y-83780537D01*
X61830820Y-83839502D01*
X61950518Y-83875812D01*
X62075000Y-83888072D01*
X62301750Y-83885000D01*
X62460500Y-83726250D01*
X62460500Y-82677000D01*
X61598750Y-82677000D01*
X61440000Y-82835750D01*
X61436928Y-83250000D01*
X53223795Y-83250000D01*
X52833296Y-81883611D01*
X52826524Y-81850000D01*
X61436928Y-81850000D01*
X61440000Y-82264250D01*
X61598750Y-82423000D01*
X62460500Y-82423000D01*
X62460500Y-81373750D01*
X62301750Y-81215000D01*
X62075000Y-81211928D01*
X61950518Y-81224188D01*
X61830820Y-81260498D01*
X61720506Y-81319463D01*
X61623815Y-81398815D01*
X61544463Y-81495506D01*
X61485498Y-81605820D01*
X61449188Y-81725518D01*
X61436928Y-81850000D01*
X52826524Y-81850000D01*
X52455598Y-80009156D01*
X52322749Y-78900881D01*
X53678724Y-78900881D01*
X54038912Y-79390548D01*
X54702882Y-79750849D01*
X55424385Y-79974694D01*
X56175695Y-80053480D01*
X56927938Y-79984178D01*
X57652208Y-79769452D01*
X58320670Y-79417555D01*
X58361088Y-79390548D01*
X58721276Y-78900881D01*
X56200000Y-76379605D01*
X53678724Y-78900881D01*
X52322749Y-78900881D01*
X52228020Y-78110618D01*
X52152000Y-76200000D01*
X52152967Y-76175695D01*
X52346520Y-76175695D01*
X52415822Y-76927938D01*
X52630548Y-77652208D01*
X52982445Y-78320670D01*
X53009452Y-78361088D01*
X53499119Y-78721276D01*
X56020395Y-76200000D01*
X56379605Y-76200000D01*
X58900881Y-78721276D01*
X59390548Y-78361088D01*
X59750849Y-77697118D01*
X59974694Y-76975615D01*
X60053480Y-76224305D01*
X59984178Y-75472062D01*
X59769452Y-74747792D01*
X59417555Y-74079330D01*
X59390548Y-74038912D01*
X58900881Y-73678724D01*
X56379605Y-76200000D01*
X56020395Y-76200000D01*
X53499119Y-73678724D01*
X53009452Y-74038912D01*
X52649151Y-74702882D01*
X52425306Y-75424385D01*
X52346520Y-76175695D01*
X52152967Y-76175695D01*
X52228020Y-74289382D01*
X52322748Y-73499119D01*
X53678724Y-73499119D01*
X56200000Y-76020395D01*
X58721276Y-73499119D01*
X58361088Y-73009452D01*
X57697118Y-72649151D01*
X56975615Y-72425306D01*
X56224305Y-72346520D01*
X55472062Y-72415822D01*
X54747792Y-72630548D01*
X54079330Y-72982445D01*
X54038912Y-73009452D01*
X53678724Y-73499119D01*
X52322748Y-73499119D01*
X52455598Y-72390844D01*
X52833296Y-70516389D01*
X53102991Y-69572702D01*
X53876903Y-69572702D01*
X53948486Y-69816671D01*
X54203996Y-69937571D01*
X54478184Y-70006300D01*
X54760512Y-70020217D01*
X55040130Y-69978787D01*
X55306292Y-69883603D01*
X55431514Y-69816671D01*
X55503097Y-69572702D01*
X54690000Y-68759605D01*
X53876903Y-69572702D01*
X53102991Y-69572702D01*
X53289649Y-68919571D01*
X53291213Y-68930130D01*
X53386397Y-69196292D01*
X53453329Y-69321514D01*
X53697298Y-69393097D01*
X54510395Y-68580000D01*
X54869605Y-68580000D01*
X55682702Y-69393097D01*
X55926671Y-69321514D01*
X56047571Y-69066004D01*
X56116300Y-68791816D01*
X56130217Y-68509488D01*
X56116192Y-68414830D01*
X58013000Y-68414830D01*
X58013000Y-68745170D01*
X58077446Y-69069163D01*
X58203862Y-69374357D01*
X58387389Y-69649025D01*
X58620975Y-69882611D01*
X58895643Y-70066138D01*
X59200837Y-70192554D01*
X59524830Y-70257000D01*
X59855170Y-70257000D01*
X60179163Y-70192554D01*
X60484357Y-70066138D01*
X60759025Y-69882611D01*
X60853001Y-69788635D01*
X60853000Y-78442156D01*
X60846338Y-78509796D01*
X60862067Y-78669488D01*
X60872925Y-78779734D01*
X60951663Y-79039300D01*
X61079527Y-79278516D01*
X61251603Y-79488192D01*
X61304146Y-79531313D01*
X62986301Y-81213468D01*
X62873250Y-81215000D01*
X62714500Y-81373750D01*
X62714500Y-82423000D01*
X62734500Y-82423000D01*
X62734500Y-82677000D01*
X62714500Y-82677000D01*
X62714500Y-83726250D01*
X62873250Y-83885000D01*
X63100000Y-83888072D01*
X63224482Y-83875812D01*
X63344180Y-83839502D01*
X63376974Y-83821973D01*
X63521514Y-83940595D01*
X63717091Y-84045132D01*
X63929304Y-84109507D01*
X64149998Y-84131243D01*
X64675002Y-84131243D01*
X64895696Y-84109507D01*
X65107909Y-84045132D01*
X65303486Y-83940595D01*
X65460303Y-83811898D01*
X66087472Y-83811898D01*
X66155101Y-83818559D01*
X66222731Y-83811898D01*
X67104207Y-83811898D01*
X67185168Y-83892859D01*
X67492593Y-84098274D01*
X67834185Y-84239766D01*
X68196818Y-84311898D01*
X68566554Y-84311898D01*
X68929187Y-84239766D01*
X69270779Y-84098274D01*
X69578204Y-83892859D01*
X69839647Y-83631416D01*
X70045062Y-83323991D01*
X70186554Y-82982399D01*
X70258686Y-82619766D01*
X70258686Y-82384830D01*
X72618000Y-82384830D01*
X72618000Y-82715170D01*
X72682446Y-83039163D01*
X72808862Y-83344357D01*
X72992389Y-83619025D01*
X73225975Y-83852611D01*
X73500643Y-84036138D01*
X73805837Y-84162554D01*
X74129830Y-84227000D01*
X74460170Y-84227000D01*
X74784163Y-84162554D01*
X75089357Y-84036138D01*
X75364025Y-83852611D01*
X75597611Y-83619025D01*
X75648608Y-83542702D01*
X78481903Y-83542702D01*
X78553486Y-83786671D01*
X78808996Y-83907571D01*
X79083184Y-83976300D01*
X79116122Y-83977924D01*
X79080876Y-84013170D01*
X78875461Y-84320595D01*
X78733969Y-84662187D01*
X78661837Y-85024820D01*
X78661837Y-85394556D01*
X78733969Y-85757189D01*
X78875461Y-86098781D01*
X79080876Y-86406206D01*
X79342319Y-86667649D01*
X79649744Y-86873064D01*
X79991336Y-87014556D01*
X80353969Y-87086688D01*
X80723705Y-87086688D01*
X81086338Y-87014556D01*
X81427930Y-86873064D01*
X81735355Y-86667649D01*
X81996798Y-86406206D01*
X82202213Y-86098781D01*
X82257821Y-85964531D01*
X91615074Y-85964531D01*
X91725921Y-86241714D01*
X92036840Y-86395089D01*
X92371705Y-86484860D01*
X92717650Y-86507576D01*
X93061380Y-86462366D01*
X93389685Y-86350966D01*
X93594079Y-86241714D01*
X93704926Y-85964531D01*
X92660000Y-84919605D01*
X91615074Y-85964531D01*
X82257821Y-85964531D01*
X82343705Y-85757189D01*
X82415837Y-85394556D01*
X82415837Y-85024820D01*
X82370651Y-84797650D01*
X90892424Y-84797650D01*
X90937634Y-85141380D01*
X91049034Y-85469685D01*
X91158286Y-85674079D01*
X91435469Y-85784926D01*
X92480395Y-84740000D01*
X91435469Y-83695074D01*
X91158286Y-83805921D01*
X91004911Y-84116840D01*
X90915140Y-84451705D01*
X90892424Y-84797650D01*
X82370651Y-84797650D01*
X82343705Y-84662187D01*
X82202213Y-84320595D01*
X81996798Y-84013170D01*
X81735355Y-83751727D01*
X81427930Y-83546312D01*
X81086338Y-83404820D01*
X80723705Y-83332688D01*
X80391342Y-83332688D01*
X80531671Y-83291514D01*
X80652571Y-83036004D01*
X80721300Y-82761816D01*
X80735217Y-82479488D01*
X80693787Y-82199870D01*
X80598603Y-81933708D01*
X80531671Y-81808486D01*
X80287702Y-81736903D01*
X79474605Y-82550000D01*
X79488748Y-82564143D01*
X79309143Y-82743748D01*
X79295000Y-82729605D01*
X78481903Y-83542702D01*
X75648608Y-83542702D01*
X75781138Y-83344357D01*
X75907554Y-83039163D01*
X75972000Y-82715170D01*
X75972000Y-82620512D01*
X77854783Y-82620512D01*
X77896213Y-82900130D01*
X77991397Y-83166292D01*
X78058329Y-83291514D01*
X78302298Y-83363097D01*
X79115395Y-82550000D01*
X78302298Y-81736903D01*
X78058329Y-81808486D01*
X77937429Y-82063996D01*
X77868700Y-82338184D01*
X77854783Y-82620512D01*
X75972000Y-82620512D01*
X75972000Y-82384830D01*
X75907554Y-82060837D01*
X75781138Y-81755643D01*
X75648609Y-81557298D01*
X78481903Y-81557298D01*
X79295000Y-82370395D01*
X80108097Y-81557298D01*
X80036514Y-81313329D01*
X79781004Y-81192429D01*
X79506816Y-81123700D01*
X79224488Y-81109783D01*
X78944870Y-81151213D01*
X78678708Y-81246397D01*
X78553486Y-81313329D01*
X78481903Y-81557298D01*
X75648609Y-81557298D01*
X75597611Y-81480975D01*
X75364025Y-81247389D01*
X75089357Y-81063862D01*
X74784163Y-80937446D01*
X74518141Y-80884531D01*
X91615074Y-80884531D01*
X91725921Y-81161714D01*
X92036840Y-81315089D01*
X92371705Y-81404860D01*
X92717650Y-81427576D01*
X93061380Y-81382366D01*
X93389685Y-81270966D01*
X93594079Y-81161714D01*
X93704925Y-80884533D01*
X93765279Y-80944887D01*
X93722620Y-80987546D01*
X93514469Y-81299065D01*
X93371093Y-81645207D01*
X93298000Y-82012669D01*
X93298000Y-82387331D01*
X93371093Y-82754793D01*
X93514469Y-83100935D01*
X93722620Y-83412454D01*
X93765279Y-83455113D01*
X93704925Y-83515467D01*
X93594079Y-83238286D01*
X93283160Y-83084911D01*
X92948295Y-82995140D01*
X92602350Y-82972424D01*
X92258620Y-83017634D01*
X91930315Y-83129034D01*
X91725921Y-83238286D01*
X91615074Y-83515469D01*
X92660000Y-84560395D01*
X92674143Y-84546253D01*
X92853748Y-84725858D01*
X92839605Y-84740000D01*
X93884531Y-85784926D01*
X94161714Y-85674079D01*
X94315089Y-85363160D01*
X94404860Y-85028295D01*
X94427576Y-84682350D01*
X94382366Y-84338620D01*
X94270966Y-84010315D01*
X94161714Y-83805921D01*
X93884533Y-83695075D01*
X93944887Y-83634721D01*
X93987546Y-83677380D01*
X94299065Y-83885531D01*
X94645207Y-84028907D01*
X95012669Y-84102000D01*
X95387331Y-84102000D01*
X95754793Y-84028907D01*
X96100935Y-83885531D01*
X96412454Y-83677380D01*
X96455113Y-83634721D01*
X96515467Y-83695075D01*
X96238286Y-83805921D01*
X96084911Y-84116840D01*
X95995140Y-84451705D01*
X95972424Y-84797650D01*
X96017634Y-85141380D01*
X96129034Y-85469685D01*
X96238286Y-85674079D01*
X96515469Y-85784926D01*
X97560395Y-84740000D01*
X97546253Y-84725858D01*
X97725858Y-84546253D01*
X97740000Y-84560395D01*
X98784926Y-83515469D01*
X98674079Y-83238286D01*
X98363160Y-83084911D01*
X98028295Y-82995140D01*
X97682350Y-82972424D01*
X97338620Y-83017634D01*
X97010315Y-83129034D01*
X96805921Y-83238286D01*
X96695075Y-83515467D01*
X96634721Y-83455113D01*
X96677380Y-83412454D01*
X96885531Y-83100935D01*
X97028907Y-82754793D01*
X97102000Y-82387331D01*
X97102000Y-82012669D01*
X97028907Y-81645207D01*
X96885531Y-81299065D01*
X96677380Y-80987546D01*
X96634721Y-80944887D01*
X96695075Y-80884533D01*
X96805921Y-81161714D01*
X97116840Y-81315089D01*
X97451705Y-81404860D01*
X97797650Y-81427576D01*
X98141380Y-81382366D01*
X98469685Y-81270966D01*
X98674079Y-81161714D01*
X98784926Y-80884531D01*
X97740000Y-79839605D01*
X97725858Y-79853748D01*
X97546253Y-79674143D01*
X97560395Y-79660000D01*
X97919605Y-79660000D01*
X98964531Y-80704926D01*
X99241714Y-80594079D01*
X99395089Y-80283160D01*
X99484860Y-79948295D01*
X99507576Y-79602350D01*
X99462366Y-79258620D01*
X99350966Y-78930315D01*
X99241714Y-78725921D01*
X98964531Y-78615074D01*
X97919605Y-79660000D01*
X97560395Y-79660000D01*
X96515469Y-78615074D01*
X96238286Y-78725921D01*
X96084911Y-79036840D01*
X95995140Y-79371705D01*
X95972424Y-79717650D01*
X96017634Y-80061380D01*
X96129034Y-80389685D01*
X96238286Y-80594079D01*
X96515467Y-80704925D01*
X96455113Y-80765279D01*
X96412454Y-80722620D01*
X96100935Y-80514469D01*
X95754793Y-80371093D01*
X95387331Y-80298000D01*
X95012669Y-80298000D01*
X94645207Y-80371093D01*
X94299065Y-80514469D01*
X93987546Y-80722620D01*
X93944887Y-80765279D01*
X93884533Y-80704925D01*
X94161714Y-80594079D01*
X94315089Y-80283160D01*
X94404860Y-79948295D01*
X94427576Y-79602350D01*
X94382366Y-79258620D01*
X94270966Y-78930315D01*
X94161714Y-78725921D01*
X93884531Y-78615074D01*
X92839605Y-79660000D01*
X92853748Y-79674143D01*
X92674143Y-79853748D01*
X92660000Y-79839605D01*
X91615074Y-80884531D01*
X74518141Y-80884531D01*
X74460170Y-80873000D01*
X74129830Y-80873000D01*
X73805837Y-80937446D01*
X73500643Y-81063862D01*
X73225975Y-81247389D01*
X72992389Y-81480975D01*
X72808862Y-81755643D01*
X72682446Y-82060837D01*
X72618000Y-82384830D01*
X70258686Y-82384830D01*
X70258686Y-82250030D01*
X70186554Y-81887397D01*
X70045062Y-81545805D01*
X69839647Y-81238380D01*
X69578204Y-80976937D01*
X69270779Y-80771522D01*
X69169301Y-80729489D01*
X69285512Y-80735217D01*
X69565130Y-80693787D01*
X69831292Y-80598603D01*
X69956514Y-80531671D01*
X70028097Y-80287702D01*
X69215000Y-79474605D01*
X68401903Y-80287702D01*
X68473486Y-80531671D01*
X68528914Y-80557898D01*
X68196818Y-80557898D01*
X67834185Y-80630030D01*
X67492593Y-80771522D01*
X67185168Y-80976937D01*
X67104207Y-81057898D01*
X66725474Y-81057898D01*
X65893716Y-80226140D01*
X65903220Y-80230077D01*
X66265853Y-80302209D01*
X66635589Y-80302209D01*
X66998222Y-80230077D01*
X67339814Y-80088585D01*
X67647239Y-79883170D01*
X67834406Y-79696003D01*
X67911397Y-79911292D01*
X67978329Y-80036514D01*
X68222298Y-80108097D01*
X69035395Y-79295000D01*
X69394605Y-79295000D01*
X70207702Y-80108097D01*
X70451671Y-80036514D01*
X70572571Y-79781004D01*
X70584678Y-79732702D01*
X76656903Y-79732702D01*
X76728486Y-79976671D01*
X76983996Y-80097571D01*
X77258184Y-80166300D01*
X77540512Y-80180217D01*
X77820130Y-80138787D01*
X78086292Y-80043603D01*
X78211514Y-79976671D01*
X78283097Y-79732702D01*
X77470000Y-78919605D01*
X76656903Y-79732702D01*
X70584678Y-79732702D01*
X70641300Y-79506816D01*
X70655217Y-79224488D01*
X70613787Y-78944870D01*
X70565739Y-78810512D01*
X76029783Y-78810512D01*
X76071213Y-79090130D01*
X76166397Y-79356292D01*
X76233329Y-79481514D01*
X76477298Y-79553097D01*
X77290395Y-78740000D01*
X77649605Y-78740000D01*
X78462702Y-79553097D01*
X78706671Y-79481514D01*
X78827571Y-79226004D01*
X78896300Y-78951816D01*
X78910217Y-78669488D01*
X78896192Y-78574830D01*
X80793000Y-78574830D01*
X80793000Y-78905170D01*
X80857446Y-79229163D01*
X80983862Y-79534357D01*
X81167389Y-79809025D01*
X81400975Y-80042611D01*
X81675643Y-80226138D01*
X81980837Y-80352554D01*
X82304830Y-80417000D01*
X82635170Y-80417000D01*
X82959163Y-80352554D01*
X83264357Y-80226138D01*
X83539025Y-80042611D01*
X83772611Y-79809025D01*
X83956138Y-79534357D01*
X84082554Y-79229163D01*
X84138988Y-78945448D01*
X84144411Y-78972710D01*
X84285903Y-79314302D01*
X84491318Y-79621727D01*
X84752761Y-79883170D01*
X85060186Y-80088585D01*
X85401778Y-80230077D01*
X85764411Y-80302209D01*
X86134147Y-80302209D01*
X86496780Y-80230077D01*
X86838372Y-80088585D01*
X87145797Y-79883170D01*
X87311317Y-79717650D01*
X90892424Y-79717650D01*
X90937634Y-80061380D01*
X91049034Y-80389685D01*
X91158286Y-80594079D01*
X91435469Y-80704926D01*
X92480395Y-79660000D01*
X91435469Y-78615074D01*
X91158286Y-78725921D01*
X91004911Y-79036840D01*
X90915140Y-79371705D01*
X90892424Y-79717650D01*
X87311317Y-79717650D01*
X87407240Y-79621727D01*
X87612655Y-79314302D01*
X87754147Y-78972710D01*
X87826279Y-78610077D01*
X87826279Y-78435469D01*
X91615074Y-78435469D01*
X92660000Y-79480395D01*
X93704926Y-78435469D01*
X96695074Y-78435469D01*
X97740000Y-79480395D01*
X98784926Y-78435469D01*
X98674079Y-78158286D01*
X98363160Y-78004911D01*
X98028295Y-77915140D01*
X97682350Y-77892424D01*
X97338620Y-77937634D01*
X97010315Y-78049034D01*
X96805921Y-78158286D01*
X96695074Y-78435469D01*
X93704926Y-78435469D01*
X93594079Y-78158286D01*
X93283160Y-78004911D01*
X92948295Y-77915140D01*
X92602350Y-77892424D01*
X92258620Y-77937634D01*
X91930315Y-78049034D01*
X91725921Y-78158286D01*
X91615074Y-78435469D01*
X87826279Y-78435469D01*
X87826279Y-78240341D01*
X87754147Y-77877708D01*
X87612655Y-77536116D01*
X87407240Y-77228691D01*
X87145797Y-76967248D01*
X86838372Y-76761833D01*
X86496780Y-76620341D01*
X86134147Y-76548209D01*
X85764411Y-76548209D01*
X85401778Y-76620341D01*
X85060186Y-76761833D01*
X84752761Y-76967248D01*
X84491318Y-77228691D01*
X84285903Y-77536116D01*
X84144411Y-77877708D01*
X84074202Y-78230674D01*
X83956138Y-77945643D01*
X83772611Y-77670975D01*
X83539025Y-77437389D01*
X83264357Y-77253862D01*
X82959163Y-77127446D01*
X82635170Y-77063000D01*
X82304830Y-77063000D01*
X81980837Y-77127446D01*
X81675643Y-77253862D01*
X81400975Y-77437389D01*
X81167389Y-77670975D01*
X80983862Y-77945643D01*
X80857446Y-78250837D01*
X80793000Y-78574830D01*
X78896192Y-78574830D01*
X78868787Y-78389870D01*
X78773603Y-78123708D01*
X78706671Y-77998486D01*
X78462702Y-77926903D01*
X77649605Y-78740000D01*
X77290395Y-78740000D01*
X76477298Y-77926903D01*
X76233329Y-77998486D01*
X76112429Y-78253996D01*
X76043700Y-78528184D01*
X76029783Y-78810512D01*
X70565739Y-78810512D01*
X70518603Y-78678708D01*
X70451671Y-78553486D01*
X70207702Y-78481903D01*
X69394605Y-79295000D01*
X69035395Y-79295000D01*
X69021253Y-79280858D01*
X69200858Y-79101253D01*
X69215000Y-79115395D01*
X70028097Y-78302298D01*
X69956514Y-78058329D01*
X69701004Y-77937429D01*
X69426816Y-77868700D01*
X69144488Y-77854783D01*
X68864870Y-77896213D01*
X68598708Y-77991397D01*
X68473486Y-78058329D01*
X68401903Y-78302296D01*
X68324685Y-78225078D01*
X68255589Y-77877708D01*
X68201572Y-77747298D01*
X76656903Y-77747298D01*
X77470000Y-78560395D01*
X78283097Y-77747298D01*
X78211514Y-77503329D01*
X77956004Y-77382429D01*
X77681816Y-77313700D01*
X77399488Y-77299783D01*
X77119870Y-77341213D01*
X76853708Y-77436397D01*
X76728486Y-77503329D01*
X76656903Y-77747298D01*
X68201572Y-77747298D01*
X68114097Y-77536116D01*
X67908682Y-77228691D01*
X67792693Y-77112702D01*
X71576903Y-77112702D01*
X71648486Y-77356671D01*
X71903996Y-77477571D01*
X72178184Y-77546300D01*
X72460512Y-77560217D01*
X72740130Y-77518787D01*
X73006292Y-77423603D01*
X73131514Y-77356671D01*
X73203097Y-77112702D01*
X72390000Y-76299605D01*
X71576903Y-77112702D01*
X67792693Y-77112702D01*
X67647239Y-76967248D01*
X67339814Y-76761833D01*
X66998222Y-76620341D01*
X66635589Y-76548209D01*
X66265853Y-76548209D01*
X65903220Y-76620341D01*
X65561628Y-76761833D01*
X65254203Y-76967248D01*
X64992760Y-77228691D01*
X64787345Y-77536116D01*
X64645853Y-77877708D01*
X64573721Y-78240341D01*
X64573721Y-78610077D01*
X64645853Y-78972710D01*
X64649790Y-78982215D01*
X63607000Y-77939425D01*
X63607000Y-76190512D01*
X70949783Y-76190512D01*
X70991213Y-76470130D01*
X71086397Y-76736292D01*
X71153329Y-76861514D01*
X71397298Y-76933097D01*
X72210395Y-76120000D01*
X72569605Y-76120000D01*
X73382702Y-76933097D01*
X73626671Y-76861514D01*
X73747571Y-76606004D01*
X73816300Y-76331816D01*
X73830217Y-76049488D01*
X73811432Y-75922702D01*
X75386903Y-75922702D01*
X75458486Y-76166671D01*
X75713996Y-76287571D01*
X75988184Y-76356300D01*
X76270512Y-76370217D01*
X76550130Y-76328787D01*
X76816292Y-76233603D01*
X76941514Y-76166671D01*
X77013097Y-75922702D01*
X79196903Y-75922702D01*
X79268486Y-76166671D01*
X79523996Y-76287571D01*
X79798184Y-76356300D01*
X80080512Y-76370217D01*
X80360130Y-76328787D01*
X80626292Y-76233603D01*
X80751514Y-76166671D01*
X80823097Y-75922702D01*
X80010000Y-75109605D01*
X79196903Y-75922702D01*
X77013097Y-75922702D01*
X76200000Y-75109605D01*
X75386903Y-75922702D01*
X73811432Y-75922702D01*
X73788787Y-75769870D01*
X73693603Y-75503708D01*
X73626671Y-75378486D01*
X73382702Y-75306903D01*
X72569605Y-76120000D01*
X72210395Y-76120000D01*
X71397298Y-75306903D01*
X71153329Y-75378486D01*
X71032429Y-75633996D01*
X70963700Y-75908184D01*
X70949783Y-76190512D01*
X63607000Y-76190512D01*
X63607000Y-73789923D01*
X64573721Y-73789923D01*
X64573721Y-74159659D01*
X64645853Y-74522292D01*
X64787345Y-74863884D01*
X64992760Y-75171309D01*
X65254203Y-75432752D01*
X65561628Y-75638167D01*
X65903220Y-75779659D01*
X66265853Y-75851791D01*
X66635589Y-75851791D01*
X66998222Y-75779659D01*
X67339814Y-75638167D01*
X67647239Y-75432752D01*
X67833713Y-75246278D01*
X67912389Y-75364025D01*
X68145975Y-75597611D01*
X68420643Y-75781138D01*
X68725837Y-75907554D01*
X69049830Y-75972000D01*
X69380170Y-75972000D01*
X69704163Y-75907554D01*
X70009357Y-75781138D01*
X70284025Y-75597611D01*
X70517611Y-75364025D01*
X70675786Y-75127298D01*
X71576903Y-75127298D01*
X72390000Y-75940395D01*
X73203097Y-75127298D01*
X73165897Y-75000512D01*
X74759783Y-75000512D01*
X74801213Y-75280130D01*
X74896397Y-75546292D01*
X74963329Y-75671514D01*
X75207298Y-75743097D01*
X76020395Y-74930000D01*
X76379605Y-74930000D01*
X77192702Y-75743097D01*
X77436671Y-75671514D01*
X77557571Y-75416004D01*
X77626300Y-75141816D01*
X77633265Y-75000512D01*
X78569783Y-75000512D01*
X78611213Y-75280130D01*
X78706397Y-75546292D01*
X78773329Y-75671514D01*
X79017298Y-75743097D01*
X79830395Y-74930000D01*
X80189605Y-74930000D01*
X81002702Y-75743097D01*
X81246671Y-75671514D01*
X81367571Y-75416004D01*
X81436300Y-75141816D01*
X81450217Y-74859488D01*
X81408787Y-74579870D01*
X81313603Y-74313708D01*
X81246671Y-74188486D01*
X81002702Y-74116903D01*
X80189605Y-74930000D01*
X79830395Y-74930000D01*
X79017298Y-74116903D01*
X78773329Y-74188486D01*
X78652429Y-74443996D01*
X78583700Y-74718184D01*
X78569783Y-75000512D01*
X77633265Y-75000512D01*
X77640217Y-74859488D01*
X77598787Y-74579870D01*
X77503603Y-74313708D01*
X77436671Y-74188486D01*
X77192702Y-74116903D01*
X76379605Y-74930000D01*
X76020395Y-74930000D01*
X75207298Y-74116903D01*
X74963329Y-74188486D01*
X74842429Y-74443996D01*
X74773700Y-74718184D01*
X74759783Y-75000512D01*
X73165897Y-75000512D01*
X73131514Y-74883329D01*
X72876004Y-74762429D01*
X72601816Y-74693700D01*
X72319488Y-74679783D01*
X72039870Y-74721213D01*
X71773708Y-74816397D01*
X71648486Y-74883329D01*
X71576903Y-75127298D01*
X70675786Y-75127298D01*
X70701138Y-75089357D01*
X70827554Y-74784163D01*
X70892000Y-74460170D01*
X70892000Y-74129830D01*
X70853704Y-73937298D01*
X75386903Y-73937298D01*
X76200000Y-74750395D01*
X77013097Y-73937298D01*
X79196903Y-73937298D01*
X80010000Y-74750395D01*
X80823097Y-73937298D01*
X80751514Y-73693329D01*
X80496004Y-73572429D01*
X80221816Y-73503700D01*
X79939488Y-73489783D01*
X79659870Y-73531213D01*
X79393708Y-73626397D01*
X79268486Y-73693329D01*
X79196903Y-73937298D01*
X77013097Y-73937298D01*
X76941514Y-73693329D01*
X76686004Y-73572429D01*
X76411816Y-73503700D01*
X76129488Y-73489783D01*
X75849870Y-73531213D01*
X75583708Y-73626397D01*
X75458486Y-73693329D01*
X75386903Y-73937298D01*
X70853704Y-73937298D01*
X70827554Y-73805837D01*
X70701138Y-73500643D01*
X70517611Y-73225975D01*
X70284025Y-72992389D01*
X70009357Y-72808862D01*
X69704163Y-72682446D01*
X69380170Y-72618000D01*
X69165666Y-72618000D01*
X69164730Y-72617716D01*
X68894791Y-72591129D01*
X68624852Y-72617716D01*
X68365287Y-72696454D01*
X68126070Y-72824319D01*
X68005542Y-72923234D01*
X67908682Y-72778273D01*
X67647239Y-72516830D01*
X67339814Y-72311415D01*
X66998222Y-72169923D01*
X66635589Y-72097791D01*
X66265853Y-72097791D01*
X65903220Y-72169923D01*
X65561628Y-72311415D01*
X65254203Y-72516830D01*
X64992760Y-72778273D01*
X64787345Y-73085698D01*
X64645853Y-73427290D01*
X64573721Y-73789923D01*
X63607000Y-73789923D01*
X63607000Y-67880371D01*
X69298337Y-62189035D01*
X69382763Y-62234162D01*
X69548078Y-62284310D01*
X69720000Y-62301243D01*
X71641386Y-62301243D01*
X71212535Y-62730093D01*
X71094164Y-62741752D01*
X70834598Y-62820490D01*
X70595382Y-62948354D01*
X70385706Y-63120430D01*
X70342582Y-63172977D01*
X69735299Y-63780260D01*
X69682756Y-63823381D01*
X69510680Y-64033057D01*
X69417527Y-64207333D01*
X69382816Y-64272273D01*
X69304078Y-64531838D01*
X69292419Y-64650209D01*
X67455832Y-66486797D01*
X67403289Y-66529918D01*
X67231213Y-66739594D01*
X67134584Y-66920373D01*
X67103349Y-66978810D01*
X67024611Y-67238375D01*
X66998024Y-67508314D01*
X67004686Y-67575954D01*
X67004686Y-68687623D01*
X66923725Y-68768584D01*
X66718310Y-69076009D01*
X66576818Y-69417601D01*
X66504686Y-69780234D01*
X66504686Y-70149970D01*
X66576818Y-70512603D01*
X66718310Y-70854195D01*
X66923725Y-71161620D01*
X67185168Y-71423063D01*
X67492593Y-71628478D01*
X67834185Y-71769970D01*
X68196818Y-71842102D01*
X68566554Y-71842102D01*
X68929187Y-71769970D01*
X69270779Y-71628478D01*
X69578204Y-71423063D01*
X69839647Y-71161620D01*
X69977819Y-70954830D01*
X70713000Y-70954830D01*
X70713000Y-71285170D01*
X70777446Y-71609163D01*
X70903862Y-71914357D01*
X71087389Y-72189025D01*
X71320975Y-72422611D01*
X71595643Y-72606138D01*
X71900837Y-72732554D01*
X72224830Y-72797000D01*
X72555170Y-72797000D01*
X72879163Y-72732554D01*
X73184357Y-72606138D01*
X73459025Y-72422611D01*
X73692611Y-72189025D01*
X73876138Y-71914357D01*
X74002554Y-71609163D01*
X74067000Y-71285170D01*
X74067000Y-70954830D01*
X74002554Y-70630837D01*
X73876138Y-70325643D01*
X73692611Y-70050975D01*
X73459025Y-69817389D01*
X73380365Y-69764830D01*
X74523000Y-69764830D01*
X74523000Y-70095170D01*
X74587446Y-70419163D01*
X74713862Y-70724357D01*
X74897389Y-70999025D01*
X75130975Y-71232611D01*
X75405643Y-71416138D01*
X75710837Y-71542554D01*
X76034830Y-71607000D01*
X76365170Y-71607000D01*
X76689163Y-71542554D01*
X76994357Y-71416138D01*
X77269025Y-71232611D01*
X77502611Y-70999025D01*
X77686138Y-70724357D01*
X77812554Y-70419163D01*
X77877000Y-70095170D01*
X77877000Y-69764830D01*
X77812554Y-69440837D01*
X77686138Y-69135643D01*
X77502611Y-68860975D01*
X77269025Y-68627389D01*
X76994357Y-68443862D01*
X76689163Y-68317446D01*
X76365170Y-68253000D01*
X76034830Y-68253000D01*
X75710837Y-68317446D01*
X75405643Y-68443862D01*
X75130975Y-68627389D01*
X74897389Y-68860975D01*
X74713862Y-69135643D01*
X74587446Y-69440837D01*
X74523000Y-69764830D01*
X73380365Y-69764830D01*
X73184357Y-69633862D01*
X72879163Y-69507446D01*
X72555170Y-69443000D01*
X72224830Y-69443000D01*
X71900837Y-69507446D01*
X71595643Y-69633862D01*
X71320975Y-69817389D01*
X71087389Y-70050975D01*
X70903862Y-70325643D01*
X70777446Y-70630837D01*
X70713000Y-70954830D01*
X69977819Y-70954830D01*
X70045062Y-70854195D01*
X70186554Y-70512603D01*
X70258686Y-70149970D01*
X70258686Y-69780234D01*
X70186554Y-69417601D01*
X70045062Y-69076009D01*
X69839647Y-68768584D01*
X69758686Y-68687623D01*
X69758686Y-68078685D01*
X70068967Y-67768405D01*
X70197787Y-68079405D01*
X70403202Y-68386830D01*
X70664645Y-68648273D01*
X70972070Y-68853688D01*
X71313662Y-68995180D01*
X71676295Y-69067312D01*
X72046031Y-69067312D01*
X72408664Y-68995180D01*
X72750256Y-68853688D01*
X73057681Y-68648273D01*
X73319124Y-68386830D01*
X73524539Y-68079405D01*
X73666031Y-67737813D01*
X73738163Y-67375180D01*
X73738163Y-67260684D01*
X74371276Y-66627570D01*
X74395132Y-66747501D01*
X74536624Y-67089093D01*
X74742039Y-67396518D01*
X75003482Y-67657961D01*
X75310907Y-67863376D01*
X75652499Y-68004868D01*
X76015132Y-68077000D01*
X76384868Y-68077000D01*
X76747501Y-68004868D01*
X77089093Y-67863376D01*
X77396518Y-67657961D01*
X77488387Y-67566092D01*
X77579939Y-67557075D01*
X77740683Y-67508314D01*
X77839505Y-67478337D01*
X78078721Y-67350473D01*
X78288397Y-67178397D01*
X78331521Y-67125850D01*
X78713958Y-66743413D01*
X78661837Y-67005444D01*
X78661837Y-67375180D01*
X78733969Y-67737813D01*
X78875461Y-68079405D01*
X79080876Y-68386830D01*
X79169044Y-68474998D01*
X78940975Y-68627389D01*
X78707389Y-68860975D01*
X78523862Y-69135643D01*
X78397446Y-69440837D01*
X78333000Y-69764830D01*
X78333000Y-70095170D01*
X78397446Y-70419163D01*
X78523862Y-70724357D01*
X78707389Y-70999025D01*
X78940975Y-71232611D01*
X79215643Y-71416138D01*
X79520837Y-71542554D01*
X79844830Y-71607000D01*
X80175170Y-71607000D01*
X80499163Y-71542554D01*
X80804357Y-71416138D01*
X81079025Y-71232611D01*
X81312611Y-70999025D01*
X81496138Y-70724357D01*
X81622554Y-70419163D01*
X81687000Y-70095170D01*
X81687000Y-69780234D01*
X82141314Y-69780234D01*
X82141314Y-70149970D01*
X82213446Y-70512603D01*
X82354938Y-70854195D01*
X82560353Y-71161620D01*
X82821796Y-71423063D01*
X83129221Y-71628478D01*
X83470813Y-71769970D01*
X83833446Y-71842102D01*
X84203182Y-71842102D01*
X84565815Y-71769970D01*
X84907407Y-71628478D01*
X85214832Y-71423063D01*
X85476275Y-71161620D01*
X85681690Y-70854195D01*
X85823182Y-70512603D01*
X85895314Y-70149970D01*
X85895314Y-69780234D01*
X85823182Y-69417601D01*
X85681690Y-69076009D01*
X85476275Y-68768584D01*
X85214832Y-68507141D01*
X84907407Y-68301726D01*
X84565815Y-68160234D01*
X84203182Y-68088102D01*
X83833446Y-68088102D01*
X83470813Y-68160234D01*
X83129221Y-68301726D01*
X82821796Y-68507141D01*
X82560353Y-68768584D01*
X82354938Y-69076009D01*
X82213446Y-69417601D01*
X82141314Y-69780234D01*
X81687000Y-69780234D01*
X81687000Y-69764830D01*
X81622554Y-69440837D01*
X81496138Y-69135643D01*
X81333795Y-68892680D01*
X81427930Y-68853688D01*
X81735355Y-68648273D01*
X81996798Y-68386830D01*
X82202213Y-68079405D01*
X82343705Y-67737813D01*
X82415837Y-67375180D01*
X82415837Y-67005444D01*
X82343705Y-66642811D01*
X82202213Y-66301219D01*
X81999513Y-65997858D01*
X82665859Y-65331512D01*
X82718396Y-65288397D01*
X82890473Y-65078721D01*
X83018337Y-64839505D01*
X83059939Y-64702360D01*
X83097075Y-64579940D01*
X83123662Y-64310001D01*
X83117000Y-64242361D01*
X83117000Y-61957479D01*
X83257961Y-61816518D01*
X83463376Y-61509093D01*
X83604868Y-61167501D01*
X83677000Y-60804868D01*
X83677000Y-60435132D01*
X83624668Y-60172040D01*
X83713001Y-60260373D01*
X83713000Y-62162360D01*
X83706338Y-62230000D01*
X83727016Y-62439939D01*
X83732925Y-62499938D01*
X83811663Y-62759504D01*
X83939527Y-62998720D01*
X84111603Y-63208396D01*
X84164146Y-63251517D01*
X86157071Y-65244443D01*
X86157070Y-71819628D01*
X85878907Y-72097791D01*
X85764411Y-72097791D01*
X85401778Y-72169923D01*
X85060186Y-72311415D01*
X84752761Y-72516830D01*
X84491318Y-72778273D01*
X84285903Y-73085698D01*
X84144411Y-73427290D01*
X84072279Y-73789923D01*
X84072279Y-74159659D01*
X84144411Y-74522292D01*
X84285903Y-74863884D01*
X84491318Y-75171309D01*
X84752761Y-75432752D01*
X85060186Y-75638167D01*
X85401778Y-75779659D01*
X85764411Y-75851791D01*
X86134147Y-75851791D01*
X86496780Y-75779659D01*
X86838372Y-75638167D01*
X87145797Y-75432752D01*
X87407240Y-75171309D01*
X87612655Y-74863884D01*
X87754147Y-74522292D01*
X87826279Y-74159659D01*
X87826279Y-74045163D01*
X87906911Y-73964531D01*
X91615074Y-73964531D01*
X91725921Y-74241714D01*
X92036840Y-74395089D01*
X92371705Y-74484860D01*
X92717650Y-74507576D01*
X93061380Y-74462366D01*
X93389685Y-74350966D01*
X93594079Y-74241714D01*
X93704926Y-73964531D01*
X96695074Y-73964531D01*
X96805921Y-74241714D01*
X97116840Y-74395089D01*
X97451705Y-74484860D01*
X97797650Y-74507576D01*
X98141380Y-74462366D01*
X98469685Y-74350966D01*
X98674079Y-74241714D01*
X98784926Y-73964531D01*
X97740000Y-72919605D01*
X96695074Y-73964531D01*
X93704926Y-73964531D01*
X92660000Y-72919605D01*
X91615074Y-73964531D01*
X87906911Y-73964531D01*
X88459930Y-73411512D01*
X88512466Y-73368397D01*
X88684543Y-73158721D01*
X88812407Y-72919505D01*
X88849371Y-72797650D01*
X90892424Y-72797650D01*
X90937634Y-73141380D01*
X91049034Y-73469685D01*
X91158286Y-73674079D01*
X91435469Y-73784926D01*
X92480395Y-72740000D01*
X91435469Y-71695074D01*
X91158286Y-71805921D01*
X91004911Y-72116840D01*
X90915140Y-72451705D01*
X90892424Y-72797650D01*
X88849371Y-72797650D01*
X88869118Y-72732554D01*
X88891145Y-72659940D01*
X88917732Y-72390000D01*
X88911070Y-72322360D01*
X88911070Y-68884531D01*
X91615074Y-68884531D01*
X91725921Y-69161714D01*
X92036840Y-69315089D01*
X92371705Y-69404860D01*
X92717650Y-69427576D01*
X93061380Y-69382366D01*
X93389685Y-69270966D01*
X93594079Y-69161714D01*
X93704925Y-68884533D01*
X93765279Y-68944887D01*
X93722620Y-68987546D01*
X93514469Y-69299065D01*
X93371093Y-69645207D01*
X93298000Y-70012669D01*
X93298000Y-70387331D01*
X93371093Y-70754793D01*
X93514469Y-71100935D01*
X93722620Y-71412454D01*
X93765279Y-71455113D01*
X93704925Y-71515467D01*
X93594079Y-71238286D01*
X93283160Y-71084911D01*
X92948295Y-70995140D01*
X92602350Y-70972424D01*
X92258620Y-71017634D01*
X91930315Y-71129034D01*
X91725921Y-71238286D01*
X91615074Y-71515469D01*
X92660000Y-72560395D01*
X92674143Y-72546253D01*
X92853748Y-72725858D01*
X92839605Y-72740000D01*
X93884531Y-73784926D01*
X94161714Y-73674079D01*
X94315089Y-73363160D01*
X94404860Y-73028295D01*
X94427576Y-72682350D01*
X94382366Y-72338620D01*
X94270966Y-72010315D01*
X94161714Y-71805921D01*
X93884533Y-71695075D01*
X93944887Y-71634721D01*
X93987546Y-71677380D01*
X94299065Y-71885531D01*
X94645207Y-72028907D01*
X95012669Y-72102000D01*
X95387331Y-72102000D01*
X95754793Y-72028907D01*
X96100935Y-71885531D01*
X96412454Y-71677380D01*
X96455113Y-71634721D01*
X96515467Y-71695075D01*
X96238286Y-71805921D01*
X96084911Y-72116840D01*
X95995140Y-72451705D01*
X95972424Y-72797650D01*
X96017634Y-73141380D01*
X96129034Y-73469685D01*
X96238286Y-73674079D01*
X96515469Y-73784926D01*
X97560395Y-72740000D01*
X97919605Y-72740000D01*
X98964531Y-73784926D01*
X99241714Y-73674079D01*
X99395089Y-73363160D01*
X99484860Y-73028295D01*
X99507576Y-72682350D01*
X99462366Y-72338620D01*
X99350966Y-72010315D01*
X99241714Y-71805921D01*
X98964531Y-71695074D01*
X97919605Y-72740000D01*
X97560395Y-72740000D01*
X97546253Y-72725858D01*
X97725858Y-72546253D01*
X97740000Y-72560395D01*
X98784926Y-71515469D01*
X98674079Y-71238286D01*
X98363160Y-71084911D01*
X98028295Y-70995140D01*
X97682350Y-70972424D01*
X97338620Y-71017634D01*
X97010315Y-71129034D01*
X96805921Y-71238286D01*
X96695075Y-71515467D01*
X96634721Y-71455113D01*
X96677380Y-71412454D01*
X96885531Y-71100935D01*
X97028907Y-70754793D01*
X97102000Y-70387331D01*
X97102000Y-70012669D01*
X97028907Y-69645207D01*
X96885531Y-69299065D01*
X96677380Y-68987546D01*
X96634721Y-68944887D01*
X96695075Y-68884533D01*
X96805921Y-69161714D01*
X97116840Y-69315089D01*
X97451705Y-69404860D01*
X97797650Y-69427576D01*
X98141380Y-69382366D01*
X98469685Y-69270966D01*
X98674079Y-69161714D01*
X98784926Y-68884531D01*
X97740000Y-67839605D01*
X97725858Y-67853748D01*
X97546253Y-67674143D01*
X97560395Y-67660000D01*
X96515469Y-66615074D01*
X96238286Y-66725921D01*
X96084911Y-67036840D01*
X95995140Y-67371705D01*
X95972424Y-67717650D01*
X96017634Y-68061380D01*
X96129034Y-68389685D01*
X96238286Y-68594079D01*
X96515467Y-68704925D01*
X96455113Y-68765279D01*
X96412454Y-68722620D01*
X96100935Y-68514469D01*
X95754793Y-68371093D01*
X95387331Y-68298000D01*
X95012669Y-68298000D01*
X94645207Y-68371093D01*
X94299065Y-68514469D01*
X93987546Y-68722620D01*
X93944887Y-68765279D01*
X93884533Y-68704925D01*
X94161714Y-68594079D01*
X94315089Y-68283160D01*
X94404860Y-67948295D01*
X94427576Y-67602350D01*
X94382366Y-67258620D01*
X94270966Y-66930315D01*
X94161714Y-66725921D01*
X93884531Y-66615074D01*
X92839605Y-67660000D01*
X92853748Y-67674143D01*
X92674143Y-67853748D01*
X92660000Y-67839605D01*
X91615074Y-68884531D01*
X88911070Y-68884531D01*
X88911070Y-67717650D01*
X90892424Y-67717650D01*
X90937634Y-68061380D01*
X91049034Y-68389685D01*
X91158286Y-68594079D01*
X91435469Y-68704926D01*
X92480395Y-67660000D01*
X91435469Y-66615074D01*
X91158286Y-66725921D01*
X91004911Y-67036840D01*
X90915140Y-67371705D01*
X90892424Y-67717650D01*
X88911070Y-67717650D01*
X88911070Y-66435469D01*
X91615074Y-66435469D01*
X92660000Y-67480395D01*
X93704926Y-66435469D01*
X93594079Y-66158286D01*
X93283160Y-66004911D01*
X92948295Y-65915140D01*
X92602350Y-65892424D01*
X92258620Y-65937634D01*
X91930315Y-66049034D01*
X91725921Y-66158286D01*
X91615074Y-66435469D01*
X88911070Y-66435469D01*
X88911070Y-64741710D01*
X88917732Y-64674070D01*
X88891145Y-64404130D01*
X88812407Y-64144565D01*
X88787959Y-64098827D01*
X88684543Y-63905349D01*
X88512467Y-63695673D01*
X88459925Y-63652553D01*
X86467000Y-61659629D01*
X86467000Y-61047499D01*
X87092106Y-61047499D01*
X87308228Y-61414258D01*
X87768105Y-61654938D01*
X88266098Y-61801275D01*
X88783071Y-61847648D01*
X89299159Y-61792273D01*
X89794526Y-61637279D01*
X90211772Y-61414258D01*
X90427894Y-61047499D01*
X88760000Y-59379605D01*
X87092106Y-61047499D01*
X86467000Y-61047499D01*
X86467000Y-60504455D01*
X86545742Y-60651772D01*
X86912501Y-60867894D01*
X88580395Y-59200000D01*
X88939605Y-59200000D01*
X90607499Y-60867894D01*
X90974258Y-60651772D01*
X91214938Y-60191895D01*
X91361275Y-59693902D01*
X91407648Y-59176929D01*
X91352273Y-58660841D01*
X91197279Y-58165474D01*
X90974258Y-57748228D01*
X90607499Y-57532106D01*
X88939605Y-59200000D01*
X88580395Y-59200000D01*
X86912501Y-57532106D01*
X86545742Y-57748228D01*
X86305062Y-58208105D01*
X86158725Y-58706098D01*
X86149380Y-58810281D01*
X86068397Y-58711603D01*
X86015855Y-58668483D01*
X84699873Y-57352501D01*
X87092106Y-57352501D01*
X88760000Y-59020395D01*
X90427894Y-57352501D01*
X90211772Y-56985742D01*
X89751895Y-56745062D01*
X89253902Y-56598725D01*
X88736929Y-56552352D01*
X88220841Y-56607727D01*
X87725474Y-56762721D01*
X87308228Y-56985742D01*
X87092106Y-57352501D01*
X84699873Y-57352501D01*
X84201521Y-56854150D01*
X84158397Y-56801603D01*
X83948721Y-56629527D01*
X83709505Y-56501663D01*
X83449939Y-56422925D01*
X83247640Y-56403000D01*
X83180000Y-56396338D01*
X83112360Y-56403000D01*
X81692479Y-56403000D01*
X81611518Y-56322039D01*
X81304093Y-56116624D01*
X80962501Y-55975132D01*
X80599868Y-55903000D01*
X80230132Y-55903000D01*
X79867499Y-55975132D01*
X79525907Y-56116624D01*
X79218482Y-56322039D01*
X78957039Y-56583482D01*
X78793125Y-56828796D01*
X78780413Y-56824192D01*
X77824605Y-57780000D01*
X77838748Y-57794143D01*
X77659143Y-57973748D01*
X77645000Y-57959605D01*
X77630858Y-57973748D01*
X77451253Y-57794143D01*
X77465395Y-57780000D01*
X76509587Y-56824192D01*
X76496875Y-56828796D01*
X76373791Y-56644587D01*
X76689192Y-56644587D01*
X77645000Y-57600395D01*
X78600808Y-56644587D01*
X78505044Y-56380186D01*
X78215429Y-56239296D01*
X77903892Y-56157616D01*
X77582405Y-56138282D01*
X77263325Y-56182039D01*
X76958912Y-56287205D01*
X76784956Y-56380186D01*
X76689192Y-56644587D01*
X76373791Y-56644587D01*
X76332961Y-56583482D01*
X76071518Y-56322039D01*
X75764093Y-56116624D01*
X75422501Y-55975132D01*
X75059868Y-55903000D01*
X74690132Y-55903000D01*
X74327499Y-55975132D01*
X73985907Y-56116624D01*
X73678482Y-56322039D01*
X73490000Y-56510521D01*
X73301518Y-56322039D01*
X72994093Y-56116624D01*
X72652501Y-55975132D01*
X72289868Y-55903000D01*
X71920132Y-55903000D01*
X71557499Y-55975132D01*
X71215907Y-56116624D01*
X70908482Y-56322039D01*
X70647039Y-56583482D01*
X70441624Y-56890907D01*
X70300132Y-57232499D01*
X70228000Y-57595132D01*
X70228000Y-57964868D01*
X70300132Y-58327501D01*
X70441624Y-58669093D01*
X70621808Y-58938757D01*
X69720000Y-58938757D01*
X69548078Y-58955690D01*
X69382763Y-59005838D01*
X69230408Y-59087273D01*
X69096867Y-59196867D01*
X69059007Y-59243000D01*
X68987640Y-59243000D01*
X68920000Y-59236338D01*
X68650060Y-59262925D01*
X68539912Y-59296338D01*
X68390495Y-59341663D01*
X68151279Y-59469527D01*
X67941603Y-59641603D01*
X67898483Y-59694145D01*
X61659629Y-65933000D01*
X61027636Y-65933000D01*
X60959999Y-65926338D01*
X60892362Y-65933000D01*
X60892360Y-65933000D01*
X60690061Y-65952925D01*
X60430495Y-66031663D01*
X60191279Y-66159527D01*
X59981603Y-66331603D01*
X59938485Y-66384143D01*
X59393507Y-66929122D01*
X59200837Y-66967446D01*
X58895643Y-67093862D01*
X58620975Y-67277389D01*
X58387389Y-67510975D01*
X58203862Y-67785643D01*
X58077446Y-68090837D01*
X58013000Y-68414830D01*
X56116192Y-68414830D01*
X56088787Y-68229870D01*
X55993603Y-67963708D01*
X55926671Y-67838486D01*
X55682702Y-67766903D01*
X54869605Y-68580000D01*
X54510395Y-68580000D01*
X54496253Y-68565858D01*
X54675858Y-68386253D01*
X54690000Y-68400395D01*
X55503097Y-67587298D01*
X55431514Y-67343329D01*
X55176004Y-67222429D01*
X54901816Y-67153700D01*
X54619488Y-67139783D01*
X54339870Y-67181213D01*
X54073708Y-67276397D01*
X53948486Y-67343329D01*
X53876903Y-67587296D01*
X53796633Y-67507026D01*
X54028565Y-66886903D01*
X54838580Y-65154819D01*
X55783648Y-63492566D01*
X56857795Y-61910654D01*
X57550158Y-61047499D01*
X62092106Y-61047499D01*
X62308228Y-61414258D01*
X62768105Y-61654938D01*
X63266098Y-61801275D01*
X63783071Y-61847648D01*
X64299159Y-61792273D01*
X64794526Y-61637279D01*
X65211772Y-61414258D01*
X65427894Y-61047499D01*
X63760000Y-59379605D01*
X62092106Y-61047499D01*
X57550158Y-61047499D01*
X58054230Y-60419083D01*
X59180945Y-59223071D01*
X61112352Y-59223071D01*
X61167727Y-59739159D01*
X61322721Y-60234526D01*
X61545742Y-60651772D01*
X61912501Y-60867894D01*
X63580395Y-59200000D01*
X63939605Y-59200000D01*
X65607499Y-60867894D01*
X65974258Y-60651772D01*
X66214938Y-60191895D01*
X66361275Y-59693902D01*
X66407648Y-59176929D01*
X66352273Y-58660841D01*
X66197279Y-58165474D01*
X65974258Y-57748228D01*
X65607499Y-57532106D01*
X63939605Y-59200000D01*
X63580395Y-59200000D01*
X61912501Y-57532106D01*
X61545742Y-57748228D01*
X61305062Y-58208105D01*
X61158725Y-58706098D01*
X61112352Y-59223071D01*
X59180945Y-59223071D01*
X59365388Y-59027285D01*
X60782980Y-57744058D01*
X61291520Y-57352501D01*
X62092106Y-57352501D01*
X63760000Y-59020395D01*
X65427894Y-57352501D01*
X65211772Y-56985742D01*
X64751895Y-56745062D01*
X64253902Y-56598725D01*
X63736929Y-56552352D01*
X63220841Y-56607727D01*
X62725474Y-56762721D01*
X62308228Y-56985742D01*
X62092106Y-57352501D01*
X61291520Y-57352501D01*
X62298044Y-56577515D01*
X63901000Y-55535032D01*
X65581714Y-54623200D01*
X67329560Y-53847783D01*
X69133489Y-53213684D01*
X70982094Y-52724912D01*
X72863688Y-52384557D01*
X74766375Y-52194771D01*
X76678127Y-52156754D01*
X78586855Y-52270745D01*
%TA.AperFunction,Conductor*%
D21*
G36*
X78586855Y-52270745D02*
G01*
X80480493Y-52536026D01*
X82347069Y-52950917D01*
X84174780Y-53512797D01*
X85952073Y-54218113D01*
X87667710Y-55062405D01*
X89310844Y-56040335D01*
X90871087Y-57145722D01*
X92338575Y-58371576D01*
X93704030Y-59710147D01*
X94958818Y-61152972D01*
X96095007Y-62690930D01*
X97105414Y-64314296D01*
X97929806Y-65908673D01*
X97682350Y-65892424D01*
X97338620Y-65937634D01*
X97010315Y-66049034D01*
X96805921Y-66158286D01*
X96695074Y-66435469D01*
X97740000Y-67480395D01*
X97754143Y-67466253D01*
X97933748Y-67645858D01*
X97919605Y-67660000D01*
X98964531Y-68704926D01*
X99022530Y-68681732D01*
X99322270Y-69591904D01*
X99774191Y-71449861D01*
X100077069Y-73337851D01*
X100228988Y-75243935D01*
X100228988Y-77156065D01*
X100077069Y-79062149D01*
X99774191Y-80950139D01*
X99322270Y-82808096D01*
X99022530Y-83718268D01*
X98964531Y-83695074D01*
X97919605Y-84740000D01*
X97933748Y-84754143D01*
X97754143Y-84933748D01*
X97740000Y-84919605D01*
X96695074Y-85964531D01*
X96805921Y-86241714D01*
X97116840Y-86395089D01*
X97451705Y-86484860D01*
X97797650Y-86507576D01*
X97930435Y-86490111D01*
X97105414Y-88085704D01*
X96095007Y-89709070D01*
X94958818Y-91247028D01*
X93998183Y-92351619D01*
X94053480Y-91824305D01*
X93984178Y-91072062D01*
X93769452Y-90347792D01*
X93417555Y-89679330D01*
X93390548Y-89638912D01*
X92900881Y-89278724D01*
X90379605Y-91800000D01*
X90393748Y-91814143D01*
X90214143Y-91993748D01*
X90200000Y-91979605D01*
X87678724Y-94500881D01*
X88038912Y-94990548D01*
X88702882Y-95350849D01*
X89424385Y-95574694D01*
X90175695Y-95653480D01*
X90327336Y-95639510D01*
X89310844Y-96359665D01*
X87667710Y-97337595D01*
X86492229Y-97916068D01*
X86507576Y-97682350D01*
X86462366Y-97338620D01*
X86350966Y-97010315D01*
X86241714Y-96805921D01*
X85964531Y-96695074D01*
X84919605Y-97740000D01*
X84933748Y-97754143D01*
X84754143Y-97933748D01*
X84740000Y-97919605D01*
X83695074Y-98964531D01*
X83720054Y-99026996D01*
X82347069Y-99449083D01*
X80480493Y-99863974D01*
X78586855Y-100129255D01*
X76678127Y-100243246D01*
X74766375Y-100205229D01*
X72863688Y-100015443D01*
X70982094Y-99675088D01*
X69133489Y-99186316D01*
X68679983Y-99026904D01*
X68704926Y-98964531D01*
X71695074Y-98964531D01*
X71805921Y-99241714D01*
X72116840Y-99395089D01*
X72451705Y-99484860D01*
X72797650Y-99507576D01*
X73141380Y-99462366D01*
X73469685Y-99350966D01*
X73674079Y-99241714D01*
X73784926Y-98964531D01*
X78615074Y-98964531D01*
X78725921Y-99241714D01*
X79036840Y-99395089D01*
X79371705Y-99484860D01*
X79717650Y-99507576D01*
X80061380Y-99462366D01*
X80389685Y-99350966D01*
X80594079Y-99241714D01*
X80704926Y-98964531D01*
X79660000Y-97919605D01*
X78615074Y-98964531D01*
X73784926Y-98964531D01*
X72740000Y-97919605D01*
X71695074Y-98964531D01*
X68704926Y-98964531D01*
X67660000Y-97919605D01*
X67645858Y-97933748D01*
X67466253Y-97754143D01*
X67480395Y-97740000D01*
X66435469Y-96695074D01*
X66158286Y-96805921D01*
X66004911Y-97116840D01*
X65915140Y-97451705D01*
X65892424Y-97797650D01*
X65908765Y-97921894D01*
X65581714Y-97776800D01*
X63901000Y-96864968D01*
X62298044Y-95822485D01*
X62063229Y-95641686D01*
X62175695Y-95653480D01*
X62927938Y-95584178D01*
X63652208Y-95369452D01*
X64320670Y-95017555D01*
X64361088Y-94990548D01*
X64721276Y-94500881D01*
X62200000Y-91979605D01*
X62185858Y-91993748D01*
X62006253Y-91814143D01*
X62020395Y-91800000D01*
X62379605Y-91800000D01*
X64900881Y-94321276D01*
X65390548Y-93961088D01*
X65432091Y-93884531D01*
X66615074Y-93884531D01*
X66725921Y-94161714D01*
X67036840Y-94315089D01*
X67371705Y-94404860D01*
X67717650Y-94427576D01*
X68061380Y-94382366D01*
X68389685Y-94270966D01*
X68594079Y-94161714D01*
X68704925Y-93884533D01*
X68765279Y-93944887D01*
X68722620Y-93987546D01*
X68514469Y-94299065D01*
X68371093Y-94645207D01*
X68298000Y-95012669D01*
X68298000Y-95387331D01*
X68371093Y-95754793D01*
X68514469Y-96100935D01*
X68722620Y-96412454D01*
X68765279Y-96455113D01*
X68704925Y-96515467D01*
X68594079Y-96238286D01*
X68283160Y-96084911D01*
X67948295Y-95995140D01*
X67602350Y-95972424D01*
X67258620Y-96017634D01*
X66930315Y-96129034D01*
X66725921Y-96238286D01*
X66615074Y-96515469D01*
X67660000Y-97560395D01*
X67674143Y-97546253D01*
X67853748Y-97725858D01*
X67839605Y-97740000D01*
X68884531Y-98784926D01*
X69161714Y-98674079D01*
X69315089Y-98363160D01*
X69404860Y-98028295D01*
X69427576Y-97682350D01*
X69382366Y-97338620D01*
X69270966Y-97010315D01*
X69161714Y-96805921D01*
X68884533Y-96695075D01*
X68944887Y-96634721D01*
X68987546Y-96677380D01*
X69299065Y-96885531D01*
X69645207Y-97028907D01*
X70012669Y-97102000D01*
X70387331Y-97102000D01*
X70754793Y-97028907D01*
X71100935Y-96885531D01*
X71412454Y-96677380D01*
X71455113Y-96634721D01*
X71515467Y-96695075D01*
X71238286Y-96805921D01*
X71084911Y-97116840D01*
X70995140Y-97451705D01*
X70972424Y-97797650D01*
X71017634Y-98141380D01*
X71129034Y-98469685D01*
X71238286Y-98674079D01*
X71515469Y-98784926D01*
X72560395Y-97740000D01*
X72919605Y-97740000D01*
X73964531Y-98784926D01*
X74241714Y-98674079D01*
X74395089Y-98363160D01*
X74484860Y-98028295D01*
X74500004Y-97797650D01*
X77892424Y-97797650D01*
X77937634Y-98141380D01*
X78049034Y-98469685D01*
X78158286Y-98674079D01*
X78435469Y-98784926D01*
X79480395Y-97740000D01*
X78435469Y-96695074D01*
X78158286Y-96805921D01*
X78004911Y-97116840D01*
X77915140Y-97451705D01*
X77892424Y-97797650D01*
X74500004Y-97797650D01*
X74507576Y-97682350D01*
X74462366Y-97338620D01*
X74350966Y-97010315D01*
X74241714Y-96805921D01*
X73964531Y-96695074D01*
X72919605Y-97740000D01*
X72560395Y-97740000D01*
X72546253Y-97725858D01*
X72725858Y-97546253D01*
X72740000Y-97560395D01*
X73784926Y-96515469D01*
X73674079Y-96238286D01*
X73363160Y-96084911D01*
X73028295Y-95995140D01*
X72682350Y-95972424D01*
X72338620Y-96017634D01*
X72010315Y-96129034D01*
X71805921Y-96238286D01*
X71695075Y-96515467D01*
X71634721Y-96455113D01*
X71677380Y-96412454D01*
X71885531Y-96100935D01*
X72028907Y-95754793D01*
X72102000Y-95387331D01*
X72102000Y-95012669D01*
X72028907Y-94645207D01*
X71885531Y-94299065D01*
X71677380Y-93987546D01*
X71634721Y-93944887D01*
X71695075Y-93884533D01*
X71805921Y-94161714D01*
X72116840Y-94315089D01*
X72451705Y-94404860D01*
X72797650Y-94427576D01*
X73141380Y-94382366D01*
X73469685Y-94270966D01*
X73674079Y-94161714D01*
X73784926Y-93884531D01*
X78615074Y-93884531D01*
X78725921Y-94161714D01*
X79036840Y-94315089D01*
X79371705Y-94404860D01*
X79717650Y-94427576D01*
X80061380Y-94382366D01*
X80389685Y-94270966D01*
X80594079Y-94161714D01*
X80704925Y-93884533D01*
X80765279Y-93944887D01*
X80722620Y-93987546D01*
X80514469Y-94299065D01*
X80371093Y-94645207D01*
X80298000Y-95012669D01*
X80298000Y-95387331D01*
X80371093Y-95754793D01*
X80514469Y-96100935D01*
X80722620Y-96412454D01*
X80765279Y-96455113D01*
X80704925Y-96515467D01*
X80594079Y-96238286D01*
X80283160Y-96084911D01*
X79948295Y-95995140D01*
X79602350Y-95972424D01*
X79258620Y-96017634D01*
X78930315Y-96129034D01*
X78725921Y-96238286D01*
X78615074Y-96515469D01*
X79660000Y-97560395D01*
X79674143Y-97546253D01*
X79853748Y-97725858D01*
X79839605Y-97740000D01*
X80884531Y-98784926D01*
X81161714Y-98674079D01*
X81315089Y-98363160D01*
X81404860Y-98028295D01*
X81427576Y-97682350D01*
X81382366Y-97338620D01*
X81270966Y-97010315D01*
X81161714Y-96805921D01*
X80884533Y-96695075D01*
X80944887Y-96634721D01*
X80987546Y-96677380D01*
X81299065Y-96885531D01*
X81645207Y-97028907D01*
X82012669Y-97102000D01*
X82387331Y-97102000D01*
X82754793Y-97028907D01*
X83100935Y-96885531D01*
X83412454Y-96677380D01*
X83455113Y-96634721D01*
X83515467Y-96695075D01*
X83238286Y-96805921D01*
X83084911Y-97116840D01*
X82995140Y-97451705D01*
X82972424Y-97797650D01*
X83017634Y-98141380D01*
X83129034Y-98469685D01*
X83238286Y-98674079D01*
X83515469Y-98784926D01*
X84560395Y-97740000D01*
X84546253Y-97725858D01*
X84725858Y-97546253D01*
X84740000Y-97560395D01*
X85784926Y-96515469D01*
X85674079Y-96238286D01*
X85363160Y-96084911D01*
X85028295Y-95995140D01*
X84682350Y-95972424D01*
X84338620Y-96017634D01*
X84010315Y-96129034D01*
X83805921Y-96238286D01*
X83695075Y-96515467D01*
X83634721Y-96455113D01*
X83677380Y-96412454D01*
X83885531Y-96100935D01*
X84028907Y-95754793D01*
X84102000Y-95387331D01*
X84102000Y-95012669D01*
X84028907Y-94645207D01*
X83885531Y-94299065D01*
X83677380Y-93987546D01*
X83634721Y-93944887D01*
X83695075Y-93884533D01*
X83805921Y-94161714D01*
X84116840Y-94315089D01*
X84451705Y-94404860D01*
X84797650Y-94427576D01*
X85141380Y-94382366D01*
X85469685Y-94270966D01*
X85674079Y-94161714D01*
X85784926Y-93884531D01*
X84740000Y-92839605D01*
X84725858Y-92853748D01*
X84546253Y-92674143D01*
X84560395Y-92660000D01*
X84919605Y-92660000D01*
X85964531Y-93704926D01*
X86241714Y-93594079D01*
X86395089Y-93283160D01*
X86484860Y-92948295D01*
X86494939Y-92794800D01*
X86630548Y-93252208D01*
X86982445Y-93920670D01*
X87009452Y-93961088D01*
X87499119Y-94321276D01*
X90020395Y-91800000D01*
X87499119Y-89278724D01*
X87009452Y-89638912D01*
X86649151Y-90302882D01*
X86425306Y-91024385D01*
X86346520Y-91775695D01*
X86364417Y-91969955D01*
X86350966Y-91930315D01*
X86241714Y-91725921D01*
X85964531Y-91615074D01*
X84919605Y-92660000D01*
X84560395Y-92660000D01*
X83515469Y-91615074D01*
X83238286Y-91725921D01*
X83084911Y-92036840D01*
X82995140Y-92371705D01*
X82972424Y-92717650D01*
X83017634Y-93061380D01*
X83129034Y-93389685D01*
X83238286Y-93594079D01*
X83515467Y-93704925D01*
X83455113Y-93765279D01*
X83412454Y-93722620D01*
X83100935Y-93514469D01*
X82754793Y-93371093D01*
X82387331Y-93298000D01*
X82012669Y-93298000D01*
X81645207Y-93371093D01*
X81299065Y-93514469D01*
X80987546Y-93722620D01*
X80944887Y-93765279D01*
X80884533Y-93704925D01*
X81161714Y-93594079D01*
X81315089Y-93283160D01*
X81404860Y-92948295D01*
X81427576Y-92602350D01*
X81382366Y-92258620D01*
X81270966Y-91930315D01*
X81161714Y-91725921D01*
X80884531Y-91615074D01*
X79839605Y-92660000D01*
X79853748Y-92674143D01*
X79674143Y-92853748D01*
X79660000Y-92839605D01*
X78615074Y-93884531D01*
X73784926Y-93884531D01*
X72740000Y-92839605D01*
X72725858Y-92853748D01*
X72546253Y-92674143D01*
X72560395Y-92660000D01*
X72919605Y-92660000D01*
X73964531Y-93704926D01*
X74241714Y-93594079D01*
X74395089Y-93283160D01*
X74484860Y-92948295D01*
X74500004Y-92717650D01*
X77892424Y-92717650D01*
X77937634Y-93061380D01*
X78049034Y-93389685D01*
X78158286Y-93594079D01*
X78435469Y-93704926D01*
X79480395Y-92660000D01*
X78435469Y-91615074D01*
X78158286Y-91725921D01*
X78004911Y-92036840D01*
X77915140Y-92371705D01*
X77892424Y-92717650D01*
X74500004Y-92717650D01*
X74507576Y-92602350D01*
X74462366Y-92258620D01*
X74350966Y-91930315D01*
X74241714Y-91725921D01*
X73964531Y-91615074D01*
X72919605Y-92660000D01*
X72560395Y-92660000D01*
X71515469Y-91615074D01*
X71238286Y-91725921D01*
X71084911Y-92036840D01*
X70995140Y-92371705D01*
X70972424Y-92717650D01*
X71017634Y-93061380D01*
X71129034Y-93389685D01*
X71238286Y-93594079D01*
X71515467Y-93704925D01*
X71455113Y-93765279D01*
X71412454Y-93722620D01*
X71100935Y-93514469D01*
X70754793Y-93371093D01*
X70387331Y-93298000D01*
X70012669Y-93298000D01*
X69645207Y-93371093D01*
X69299065Y-93514469D01*
X68987546Y-93722620D01*
X68944887Y-93765279D01*
X68884533Y-93704925D01*
X69161714Y-93594079D01*
X69315089Y-93283160D01*
X69404860Y-92948295D01*
X69427576Y-92602350D01*
X69382366Y-92258620D01*
X69270966Y-91930315D01*
X69161714Y-91725921D01*
X68884531Y-91615074D01*
X67839605Y-92660000D01*
X67853748Y-92674143D01*
X67674143Y-92853748D01*
X67660000Y-92839605D01*
X66615074Y-93884531D01*
X65432091Y-93884531D01*
X65750849Y-93297118D01*
X65903798Y-92804128D01*
X65937634Y-93061380D01*
X66049034Y-93389685D01*
X66158286Y-93594079D01*
X66435469Y-93704926D01*
X67480395Y-92660000D01*
X66435469Y-91615074D01*
X66158286Y-91725921D01*
X66038288Y-91969179D01*
X66053480Y-91824305D01*
X66017658Y-91435469D01*
X66615074Y-91435469D01*
X67660000Y-92480395D01*
X68704926Y-91435469D01*
X71695074Y-91435469D01*
X72740000Y-92480395D01*
X73784926Y-91435469D01*
X78615074Y-91435469D01*
X79660000Y-92480395D01*
X80704926Y-91435469D01*
X83695074Y-91435469D01*
X84740000Y-92480395D01*
X85784926Y-91435469D01*
X85674079Y-91158286D01*
X85363160Y-91004911D01*
X85028295Y-90915140D01*
X84682350Y-90892424D01*
X84338620Y-90937634D01*
X84010315Y-91049034D01*
X83805921Y-91158286D01*
X83695074Y-91435469D01*
X80704926Y-91435469D01*
X80594079Y-91158286D01*
X80283160Y-91004911D01*
X79948295Y-90915140D01*
X79602350Y-90892424D01*
X79258620Y-90937634D01*
X78930315Y-91049034D01*
X78725921Y-91158286D01*
X78615074Y-91435469D01*
X73784926Y-91435469D01*
X73674079Y-91158286D01*
X73363160Y-91004911D01*
X73028295Y-90915140D01*
X72682350Y-90892424D01*
X72338620Y-90937634D01*
X72010315Y-91049034D01*
X71805921Y-91158286D01*
X71695074Y-91435469D01*
X68704926Y-91435469D01*
X68594079Y-91158286D01*
X68283160Y-91004911D01*
X67948295Y-90915140D01*
X67602350Y-90892424D01*
X67258620Y-90937634D01*
X66930315Y-91049034D01*
X66725921Y-91158286D01*
X66615074Y-91435469D01*
X66017658Y-91435469D01*
X65984178Y-91072062D01*
X65769452Y-90347792D01*
X65417555Y-89679330D01*
X65390548Y-89638912D01*
X64900881Y-89278724D01*
X62379605Y-91800000D01*
X62020395Y-91800000D01*
X59499119Y-89278724D01*
X59009452Y-89638912D01*
X58649151Y-90302882D01*
X58425306Y-91024385D01*
X58346520Y-91775695D01*
X58399158Y-92347059D01*
X58054230Y-91980917D01*
X56857795Y-90489346D01*
X55913806Y-89099119D01*
X59678724Y-89099119D01*
X62200000Y-91620395D01*
X64721276Y-89099119D01*
X87678724Y-89099119D01*
X90200000Y-91620395D01*
X92721276Y-89099119D01*
X92361088Y-88609452D01*
X91697118Y-88249151D01*
X90975615Y-88025306D01*
X90224305Y-87946520D01*
X89472062Y-88015822D01*
X88747792Y-88230548D01*
X88079330Y-88582445D01*
X88038912Y-88609452D01*
X87678724Y-89099119D01*
X64721276Y-89099119D01*
X64361088Y-88609452D01*
X63697118Y-88249151D01*
X62975615Y-88025306D01*
X62224305Y-87946520D01*
X61472062Y-88015822D01*
X60747792Y-88230548D01*
X60079330Y-88582445D01*
X60038912Y-88609452D01*
X59678724Y-89099119D01*
X55913806Y-89099119D01*
X55783648Y-88907434D01*
X54838580Y-87245181D01*
X54028565Y-85513097D01*
X53845945Y-85024820D01*
X69984163Y-85024820D01*
X69984163Y-85394556D01*
X70056295Y-85757189D01*
X70197787Y-86098781D01*
X70403202Y-86406206D01*
X70664645Y-86667649D01*
X70972070Y-86873064D01*
X71313662Y-87014556D01*
X71676295Y-87086688D01*
X72046031Y-87086688D01*
X72408664Y-87014556D01*
X72750256Y-86873064D01*
X73057681Y-86667649D01*
X73319124Y-86406206D01*
X73524539Y-86098781D01*
X73666031Y-85757189D01*
X73738163Y-85394556D01*
X73738163Y-85024820D01*
X73666031Y-84662187D01*
X73524539Y-84320595D01*
X73319124Y-84013170D01*
X73057681Y-83751727D01*
X72750256Y-83546312D01*
X72408664Y-83404820D01*
X72046031Y-83332688D01*
X71676295Y-83332688D01*
X71313662Y-83404820D01*
X70972070Y-83546312D01*
X70664645Y-83751727D01*
X70403202Y-84013170D01*
X70197787Y-84320595D01*
X70056295Y-84662187D01*
X69984163Y-85024820D01*
X53845945Y-85024820D01*
X53358725Y-83722133D01*
X53223795Y-83250000D01*
X61436928Y-83250000D01*
X61449188Y-83374482D01*
X61485498Y-83494180D01*
X61544463Y-83604494D01*
X61623815Y-83701185D01*
X61720506Y-83780537D01*
X61830820Y-83839502D01*
X61950518Y-83875812D01*
X62075000Y-83888072D01*
X62301750Y-83885000D01*
X62460500Y-83726250D01*
X62460500Y-82677000D01*
X61598750Y-82677000D01*
X61440000Y-82835750D01*
X61436928Y-83250000D01*
X53223795Y-83250000D01*
X52833296Y-81883611D01*
X52826524Y-81850000D01*
X61436928Y-81850000D01*
X61440000Y-82264250D01*
X61598750Y-82423000D01*
X62460500Y-82423000D01*
X62460500Y-81373750D01*
X62301750Y-81215000D01*
X62075000Y-81211928D01*
X61950518Y-81224188D01*
X61830820Y-81260498D01*
X61720506Y-81319463D01*
X61623815Y-81398815D01*
X61544463Y-81495506D01*
X61485498Y-81605820D01*
X61449188Y-81725518D01*
X61436928Y-81850000D01*
X52826524Y-81850000D01*
X52455598Y-80009156D01*
X52322749Y-78900881D01*
X53678724Y-78900881D01*
X54038912Y-79390548D01*
X54702882Y-79750849D01*
X55424385Y-79974694D01*
X56175695Y-80053480D01*
X56927938Y-79984178D01*
X57652208Y-79769452D01*
X58320670Y-79417555D01*
X58361088Y-79390548D01*
X58721276Y-78900881D01*
X56200000Y-76379605D01*
X53678724Y-78900881D01*
X52322749Y-78900881D01*
X52228020Y-78110618D01*
X52152000Y-76200000D01*
X52152967Y-76175695D01*
X52346520Y-76175695D01*
X52415822Y-76927938D01*
X52630548Y-77652208D01*
X52982445Y-78320670D01*
X53009452Y-78361088D01*
X53499119Y-78721276D01*
X56020395Y-76200000D01*
X56379605Y-76200000D01*
X58900881Y-78721276D01*
X59390548Y-78361088D01*
X59750849Y-77697118D01*
X59974694Y-76975615D01*
X60053480Y-76224305D01*
X59984178Y-75472062D01*
X59769452Y-74747792D01*
X59417555Y-74079330D01*
X59390548Y-74038912D01*
X58900881Y-73678724D01*
X56379605Y-76200000D01*
X56020395Y-76200000D01*
X53499119Y-73678724D01*
X53009452Y-74038912D01*
X52649151Y-74702882D01*
X52425306Y-75424385D01*
X52346520Y-76175695D01*
X52152967Y-76175695D01*
X52228020Y-74289382D01*
X52322748Y-73499119D01*
X53678724Y-73499119D01*
X56200000Y-76020395D01*
X58721276Y-73499119D01*
X58361088Y-73009452D01*
X57697118Y-72649151D01*
X56975615Y-72425306D01*
X56224305Y-72346520D01*
X55472062Y-72415822D01*
X54747792Y-72630548D01*
X54079330Y-72982445D01*
X54038912Y-73009452D01*
X53678724Y-73499119D01*
X52322748Y-73499119D01*
X52455598Y-72390844D01*
X52833296Y-70516389D01*
X53102991Y-69572702D01*
X53876903Y-69572702D01*
X53948486Y-69816671D01*
X54203996Y-69937571D01*
X54478184Y-70006300D01*
X54760512Y-70020217D01*
X55040130Y-69978787D01*
X55306292Y-69883603D01*
X55431514Y-69816671D01*
X55503097Y-69572702D01*
X54690000Y-68759605D01*
X53876903Y-69572702D01*
X53102991Y-69572702D01*
X53289649Y-68919571D01*
X53291213Y-68930130D01*
X53386397Y-69196292D01*
X53453329Y-69321514D01*
X53697298Y-69393097D01*
X54510395Y-68580000D01*
X54869605Y-68580000D01*
X55682702Y-69393097D01*
X55926671Y-69321514D01*
X56047571Y-69066004D01*
X56116300Y-68791816D01*
X56130217Y-68509488D01*
X56116192Y-68414830D01*
X58013000Y-68414830D01*
X58013000Y-68745170D01*
X58077446Y-69069163D01*
X58203862Y-69374357D01*
X58387389Y-69649025D01*
X58620975Y-69882611D01*
X58895643Y-70066138D01*
X59200837Y-70192554D01*
X59524830Y-70257000D01*
X59855170Y-70257000D01*
X60179163Y-70192554D01*
X60484357Y-70066138D01*
X60759025Y-69882611D01*
X60853001Y-69788635D01*
X60853000Y-78442156D01*
X60846338Y-78509796D01*
X60862067Y-78669488D01*
X60872925Y-78779734D01*
X60951663Y-79039300D01*
X61079527Y-79278516D01*
X61251603Y-79488192D01*
X61304146Y-79531313D01*
X62986301Y-81213468D01*
X62873250Y-81215000D01*
X62714500Y-81373750D01*
X62714500Y-82423000D01*
X62734500Y-82423000D01*
X62734500Y-82677000D01*
X62714500Y-82677000D01*
X62714500Y-83726250D01*
X62873250Y-83885000D01*
X63100000Y-83888072D01*
X63224482Y-83875812D01*
X63344180Y-83839502D01*
X63376974Y-83821973D01*
X63521514Y-83940595D01*
X63717091Y-84045132D01*
X63929304Y-84109507D01*
X64149998Y-84131243D01*
X64675002Y-84131243D01*
X64895696Y-84109507D01*
X65107909Y-84045132D01*
X65303486Y-83940595D01*
X65460303Y-83811898D01*
X66087472Y-83811898D01*
X66155101Y-83818559D01*
X66222731Y-83811898D01*
X67104207Y-83811898D01*
X67185168Y-83892859D01*
X67492593Y-84098274D01*
X67834185Y-84239766D01*
X68196818Y-84311898D01*
X68566554Y-84311898D01*
X68929187Y-84239766D01*
X69270779Y-84098274D01*
X69578204Y-83892859D01*
X69839647Y-83631416D01*
X70045062Y-83323991D01*
X70186554Y-82982399D01*
X70258686Y-82619766D01*
X70258686Y-82384830D01*
X72618000Y-82384830D01*
X72618000Y-82715170D01*
X72682446Y-83039163D01*
X72808862Y-83344357D01*
X72992389Y-83619025D01*
X73225975Y-83852611D01*
X73500643Y-84036138D01*
X73805837Y-84162554D01*
X74129830Y-84227000D01*
X74460170Y-84227000D01*
X74784163Y-84162554D01*
X75089357Y-84036138D01*
X75364025Y-83852611D01*
X75597611Y-83619025D01*
X75648608Y-83542702D01*
X78481903Y-83542702D01*
X78553486Y-83786671D01*
X78808996Y-83907571D01*
X79083184Y-83976300D01*
X79116122Y-83977924D01*
X79080876Y-84013170D01*
X78875461Y-84320595D01*
X78733969Y-84662187D01*
X78661837Y-85024820D01*
X78661837Y-85394556D01*
X78733969Y-85757189D01*
X78875461Y-86098781D01*
X79080876Y-86406206D01*
X79342319Y-86667649D01*
X79649744Y-86873064D01*
X79991336Y-87014556D01*
X80353969Y-87086688D01*
X80723705Y-87086688D01*
X81086338Y-87014556D01*
X81427930Y-86873064D01*
X81735355Y-86667649D01*
X81996798Y-86406206D01*
X82202213Y-86098781D01*
X82257821Y-85964531D01*
X91615074Y-85964531D01*
X91725921Y-86241714D01*
X92036840Y-86395089D01*
X92371705Y-86484860D01*
X92717650Y-86507576D01*
X93061380Y-86462366D01*
X93389685Y-86350966D01*
X93594079Y-86241714D01*
X93704926Y-85964531D01*
X92660000Y-84919605D01*
X91615074Y-85964531D01*
X82257821Y-85964531D01*
X82343705Y-85757189D01*
X82415837Y-85394556D01*
X82415837Y-85024820D01*
X82370651Y-84797650D01*
X90892424Y-84797650D01*
X90937634Y-85141380D01*
X91049034Y-85469685D01*
X91158286Y-85674079D01*
X91435469Y-85784926D01*
X92480395Y-84740000D01*
X91435469Y-83695074D01*
X91158286Y-83805921D01*
X91004911Y-84116840D01*
X90915140Y-84451705D01*
X90892424Y-84797650D01*
X82370651Y-84797650D01*
X82343705Y-84662187D01*
X82202213Y-84320595D01*
X81996798Y-84013170D01*
X81735355Y-83751727D01*
X81427930Y-83546312D01*
X81086338Y-83404820D01*
X80723705Y-83332688D01*
X80391342Y-83332688D01*
X80531671Y-83291514D01*
X80652571Y-83036004D01*
X80721300Y-82761816D01*
X80735217Y-82479488D01*
X80693787Y-82199870D01*
X80598603Y-81933708D01*
X80531671Y-81808486D01*
X80287702Y-81736903D01*
X79474605Y-82550000D01*
X79488748Y-82564143D01*
X79309143Y-82743748D01*
X79295000Y-82729605D01*
X78481903Y-83542702D01*
X75648608Y-83542702D01*
X75781138Y-83344357D01*
X75907554Y-83039163D01*
X75972000Y-82715170D01*
X75972000Y-82620512D01*
X77854783Y-82620512D01*
X77896213Y-82900130D01*
X77991397Y-83166292D01*
X78058329Y-83291514D01*
X78302298Y-83363097D01*
X79115395Y-82550000D01*
X78302298Y-81736903D01*
X78058329Y-81808486D01*
X77937429Y-82063996D01*
X77868700Y-82338184D01*
X77854783Y-82620512D01*
X75972000Y-82620512D01*
X75972000Y-82384830D01*
X75907554Y-82060837D01*
X75781138Y-81755643D01*
X75648609Y-81557298D01*
X78481903Y-81557298D01*
X79295000Y-82370395D01*
X80108097Y-81557298D01*
X80036514Y-81313329D01*
X79781004Y-81192429D01*
X79506816Y-81123700D01*
X79224488Y-81109783D01*
X78944870Y-81151213D01*
X78678708Y-81246397D01*
X78553486Y-81313329D01*
X78481903Y-81557298D01*
X75648609Y-81557298D01*
X75597611Y-81480975D01*
X75364025Y-81247389D01*
X75089357Y-81063862D01*
X74784163Y-80937446D01*
X74518141Y-80884531D01*
X91615074Y-80884531D01*
X91725921Y-81161714D01*
X92036840Y-81315089D01*
X92371705Y-81404860D01*
X92717650Y-81427576D01*
X93061380Y-81382366D01*
X93389685Y-81270966D01*
X93594079Y-81161714D01*
X93704925Y-80884533D01*
X93765279Y-80944887D01*
X93722620Y-80987546D01*
X93514469Y-81299065D01*
X93371093Y-81645207D01*
X93298000Y-82012669D01*
X93298000Y-82387331D01*
X93371093Y-82754793D01*
X93514469Y-83100935D01*
X93722620Y-83412454D01*
X93765279Y-83455113D01*
X93704925Y-83515467D01*
X93594079Y-83238286D01*
X93283160Y-83084911D01*
X92948295Y-82995140D01*
X92602350Y-82972424D01*
X92258620Y-83017634D01*
X91930315Y-83129034D01*
X91725921Y-83238286D01*
X91615074Y-83515469D01*
X92660000Y-84560395D01*
X92674143Y-84546253D01*
X92853748Y-84725858D01*
X92839605Y-84740000D01*
X93884531Y-85784926D01*
X94161714Y-85674079D01*
X94315089Y-85363160D01*
X94404860Y-85028295D01*
X94427576Y-84682350D01*
X94382366Y-84338620D01*
X94270966Y-84010315D01*
X94161714Y-83805921D01*
X93884533Y-83695075D01*
X93944887Y-83634721D01*
X93987546Y-83677380D01*
X94299065Y-83885531D01*
X94645207Y-84028907D01*
X95012669Y-84102000D01*
X95387331Y-84102000D01*
X95754793Y-84028907D01*
X96100935Y-83885531D01*
X96412454Y-83677380D01*
X96455113Y-83634721D01*
X96515467Y-83695075D01*
X96238286Y-83805921D01*
X96084911Y-84116840D01*
X95995140Y-84451705D01*
X95972424Y-84797650D01*
X96017634Y-85141380D01*
X96129034Y-85469685D01*
X96238286Y-85674079D01*
X96515469Y-85784926D01*
X97560395Y-84740000D01*
X97546253Y-84725858D01*
X97725858Y-84546253D01*
X97740000Y-84560395D01*
X98784926Y-83515469D01*
X98674079Y-83238286D01*
X98363160Y-83084911D01*
X98028295Y-82995140D01*
X97682350Y-82972424D01*
X97338620Y-83017634D01*
X97010315Y-83129034D01*
X96805921Y-83238286D01*
X96695075Y-83515467D01*
X96634721Y-83455113D01*
X96677380Y-83412454D01*
X96885531Y-83100935D01*
X97028907Y-82754793D01*
X97102000Y-82387331D01*
X97102000Y-82012669D01*
X97028907Y-81645207D01*
X96885531Y-81299065D01*
X96677380Y-80987546D01*
X96634721Y-80944887D01*
X96695075Y-80884533D01*
X96805921Y-81161714D01*
X97116840Y-81315089D01*
X97451705Y-81404860D01*
X97797650Y-81427576D01*
X98141380Y-81382366D01*
X98469685Y-81270966D01*
X98674079Y-81161714D01*
X98784926Y-80884531D01*
X97740000Y-79839605D01*
X97725858Y-79853748D01*
X97546253Y-79674143D01*
X97560395Y-79660000D01*
X97919605Y-79660000D01*
X98964531Y-80704926D01*
X99241714Y-80594079D01*
X99395089Y-80283160D01*
X99484860Y-79948295D01*
X99507576Y-79602350D01*
X99462366Y-79258620D01*
X99350966Y-78930315D01*
X99241714Y-78725921D01*
X98964531Y-78615074D01*
X97919605Y-79660000D01*
X97560395Y-79660000D01*
X96515469Y-78615074D01*
X96238286Y-78725921D01*
X96084911Y-79036840D01*
X95995140Y-79371705D01*
X95972424Y-79717650D01*
X96017634Y-80061380D01*
X96129034Y-80389685D01*
X96238286Y-80594079D01*
X96515467Y-80704925D01*
X96455113Y-80765279D01*
X96412454Y-80722620D01*
X96100935Y-80514469D01*
X95754793Y-80371093D01*
X95387331Y-80298000D01*
X95012669Y-80298000D01*
X94645207Y-80371093D01*
X94299065Y-80514469D01*
X93987546Y-80722620D01*
X93944887Y-80765279D01*
X93884533Y-80704925D01*
X94161714Y-80594079D01*
X94315089Y-80283160D01*
X94404860Y-79948295D01*
X94427576Y-79602350D01*
X94382366Y-79258620D01*
X94270966Y-78930315D01*
X94161714Y-78725921D01*
X93884531Y-78615074D01*
X92839605Y-79660000D01*
X92853748Y-79674143D01*
X92674143Y-79853748D01*
X92660000Y-79839605D01*
X91615074Y-80884531D01*
X74518141Y-80884531D01*
X74460170Y-80873000D01*
X74129830Y-80873000D01*
X73805837Y-80937446D01*
X73500643Y-81063862D01*
X73225975Y-81247389D01*
X72992389Y-81480975D01*
X72808862Y-81755643D01*
X72682446Y-82060837D01*
X72618000Y-82384830D01*
X70258686Y-82384830D01*
X70258686Y-82250030D01*
X70186554Y-81887397D01*
X70045062Y-81545805D01*
X69839647Y-81238380D01*
X69578204Y-80976937D01*
X69270779Y-80771522D01*
X69169301Y-80729489D01*
X69285512Y-80735217D01*
X69565130Y-80693787D01*
X69831292Y-80598603D01*
X69956514Y-80531671D01*
X70028097Y-80287702D01*
X69215000Y-79474605D01*
X68401903Y-80287702D01*
X68473486Y-80531671D01*
X68528914Y-80557898D01*
X68196818Y-80557898D01*
X67834185Y-80630030D01*
X67492593Y-80771522D01*
X67185168Y-80976937D01*
X67104207Y-81057898D01*
X66725474Y-81057898D01*
X65893716Y-80226140D01*
X65903220Y-80230077D01*
X66265853Y-80302209D01*
X66635589Y-80302209D01*
X66998222Y-80230077D01*
X67339814Y-80088585D01*
X67647239Y-79883170D01*
X67834406Y-79696003D01*
X67911397Y-79911292D01*
X67978329Y-80036514D01*
X68222298Y-80108097D01*
X69035395Y-79295000D01*
X69394605Y-79295000D01*
X70207702Y-80108097D01*
X70451671Y-80036514D01*
X70572571Y-79781004D01*
X70584678Y-79732702D01*
X76656903Y-79732702D01*
X76728486Y-79976671D01*
X76983996Y-80097571D01*
X77258184Y-80166300D01*
X77540512Y-80180217D01*
X77820130Y-80138787D01*
X78086292Y-80043603D01*
X78211514Y-79976671D01*
X78283097Y-79732702D01*
X77470000Y-78919605D01*
X76656903Y-79732702D01*
X70584678Y-79732702D01*
X70641300Y-79506816D01*
X70655217Y-79224488D01*
X70613787Y-78944870D01*
X70565739Y-78810512D01*
X76029783Y-78810512D01*
X76071213Y-79090130D01*
X76166397Y-79356292D01*
X76233329Y-79481514D01*
X76477298Y-79553097D01*
X77290395Y-78740000D01*
X77649605Y-78740000D01*
X78462702Y-79553097D01*
X78706671Y-79481514D01*
X78827571Y-79226004D01*
X78896300Y-78951816D01*
X78910217Y-78669488D01*
X78896192Y-78574830D01*
X80793000Y-78574830D01*
X80793000Y-78905170D01*
X80857446Y-79229163D01*
X80983862Y-79534357D01*
X81167389Y-79809025D01*
X81400975Y-80042611D01*
X81675643Y-80226138D01*
X81980837Y-80352554D01*
X82304830Y-80417000D01*
X82635170Y-80417000D01*
X82959163Y-80352554D01*
X83264357Y-80226138D01*
X83539025Y-80042611D01*
X83772611Y-79809025D01*
X83956138Y-79534357D01*
X84082554Y-79229163D01*
X84138988Y-78945448D01*
X84144411Y-78972710D01*
X84285903Y-79314302D01*
X84491318Y-79621727D01*
X84752761Y-79883170D01*
X85060186Y-80088585D01*
X85401778Y-80230077D01*
X85764411Y-80302209D01*
X86134147Y-80302209D01*
X86496780Y-80230077D01*
X86838372Y-80088585D01*
X87145797Y-79883170D01*
X87311317Y-79717650D01*
X90892424Y-79717650D01*
X90937634Y-80061380D01*
X91049034Y-80389685D01*
X91158286Y-80594079D01*
X91435469Y-80704926D01*
X92480395Y-79660000D01*
X91435469Y-78615074D01*
X91158286Y-78725921D01*
X91004911Y-79036840D01*
X90915140Y-79371705D01*
X90892424Y-79717650D01*
X87311317Y-79717650D01*
X87407240Y-79621727D01*
X87612655Y-79314302D01*
X87754147Y-78972710D01*
X87826279Y-78610077D01*
X87826279Y-78435469D01*
X91615074Y-78435469D01*
X92660000Y-79480395D01*
X93704926Y-78435469D01*
X96695074Y-78435469D01*
X97740000Y-79480395D01*
X98784926Y-78435469D01*
X98674079Y-78158286D01*
X98363160Y-78004911D01*
X98028295Y-77915140D01*
X97682350Y-77892424D01*
X97338620Y-77937634D01*
X97010315Y-78049034D01*
X96805921Y-78158286D01*
X96695074Y-78435469D01*
X93704926Y-78435469D01*
X93594079Y-78158286D01*
X93283160Y-78004911D01*
X92948295Y-77915140D01*
X92602350Y-77892424D01*
X92258620Y-77937634D01*
X91930315Y-78049034D01*
X91725921Y-78158286D01*
X91615074Y-78435469D01*
X87826279Y-78435469D01*
X87826279Y-78240341D01*
X87754147Y-77877708D01*
X87612655Y-77536116D01*
X87407240Y-77228691D01*
X87145797Y-76967248D01*
X86838372Y-76761833D01*
X86496780Y-76620341D01*
X86134147Y-76548209D01*
X85764411Y-76548209D01*
X85401778Y-76620341D01*
X85060186Y-76761833D01*
X84752761Y-76967248D01*
X84491318Y-77228691D01*
X84285903Y-77536116D01*
X84144411Y-77877708D01*
X84074202Y-78230674D01*
X83956138Y-77945643D01*
X83772611Y-77670975D01*
X83539025Y-77437389D01*
X83264357Y-77253862D01*
X82959163Y-77127446D01*
X82635170Y-77063000D01*
X82304830Y-77063000D01*
X81980837Y-77127446D01*
X81675643Y-77253862D01*
X81400975Y-77437389D01*
X81167389Y-77670975D01*
X80983862Y-77945643D01*
X80857446Y-78250837D01*
X80793000Y-78574830D01*
X78896192Y-78574830D01*
X78868787Y-78389870D01*
X78773603Y-78123708D01*
X78706671Y-77998486D01*
X78462702Y-77926903D01*
X77649605Y-78740000D01*
X77290395Y-78740000D01*
X76477298Y-77926903D01*
X76233329Y-77998486D01*
X76112429Y-78253996D01*
X76043700Y-78528184D01*
X76029783Y-78810512D01*
X70565739Y-78810512D01*
X70518603Y-78678708D01*
X70451671Y-78553486D01*
X70207702Y-78481903D01*
X69394605Y-79295000D01*
X69035395Y-79295000D01*
X69021253Y-79280858D01*
X69200858Y-79101253D01*
X69215000Y-79115395D01*
X70028097Y-78302298D01*
X69956514Y-78058329D01*
X69701004Y-77937429D01*
X69426816Y-77868700D01*
X69144488Y-77854783D01*
X68864870Y-77896213D01*
X68598708Y-77991397D01*
X68473486Y-78058329D01*
X68401903Y-78302296D01*
X68324685Y-78225078D01*
X68255589Y-77877708D01*
X68201572Y-77747298D01*
X76656903Y-77747298D01*
X77470000Y-78560395D01*
X78283097Y-77747298D01*
X78211514Y-77503329D01*
X77956004Y-77382429D01*
X77681816Y-77313700D01*
X77399488Y-77299783D01*
X77119870Y-77341213D01*
X76853708Y-77436397D01*
X76728486Y-77503329D01*
X76656903Y-77747298D01*
X68201572Y-77747298D01*
X68114097Y-77536116D01*
X67908682Y-77228691D01*
X67792693Y-77112702D01*
X71576903Y-77112702D01*
X71648486Y-77356671D01*
X71903996Y-77477571D01*
X72178184Y-77546300D01*
X72460512Y-77560217D01*
X72740130Y-77518787D01*
X73006292Y-77423603D01*
X73131514Y-77356671D01*
X73203097Y-77112702D01*
X72390000Y-76299605D01*
X71576903Y-77112702D01*
X67792693Y-77112702D01*
X67647239Y-76967248D01*
X67339814Y-76761833D01*
X66998222Y-76620341D01*
X66635589Y-76548209D01*
X66265853Y-76548209D01*
X65903220Y-76620341D01*
X65561628Y-76761833D01*
X65254203Y-76967248D01*
X64992760Y-77228691D01*
X64787345Y-77536116D01*
X64645853Y-77877708D01*
X64573721Y-78240341D01*
X64573721Y-78610077D01*
X64645853Y-78972710D01*
X64649790Y-78982215D01*
X63607000Y-77939425D01*
X63607000Y-76190512D01*
X70949783Y-76190512D01*
X70991213Y-76470130D01*
X71086397Y-76736292D01*
X71153329Y-76861514D01*
X71397298Y-76933097D01*
X72210395Y-76120000D01*
X72569605Y-76120000D01*
X73382702Y-76933097D01*
X73626671Y-76861514D01*
X73747571Y-76606004D01*
X73816300Y-76331816D01*
X73830217Y-76049488D01*
X73811432Y-75922702D01*
X75386903Y-75922702D01*
X75458486Y-76166671D01*
X75713996Y-76287571D01*
X75988184Y-76356300D01*
X76270512Y-76370217D01*
X76550130Y-76328787D01*
X76816292Y-76233603D01*
X76941514Y-76166671D01*
X77013097Y-75922702D01*
X79196903Y-75922702D01*
X79268486Y-76166671D01*
X79523996Y-76287571D01*
X79798184Y-76356300D01*
X80080512Y-76370217D01*
X80360130Y-76328787D01*
X80626292Y-76233603D01*
X80751514Y-76166671D01*
X80823097Y-75922702D01*
X80010000Y-75109605D01*
X79196903Y-75922702D01*
X77013097Y-75922702D01*
X76200000Y-75109605D01*
X75386903Y-75922702D01*
X73811432Y-75922702D01*
X73788787Y-75769870D01*
X73693603Y-75503708D01*
X73626671Y-75378486D01*
X73382702Y-75306903D01*
X72569605Y-76120000D01*
X72210395Y-76120000D01*
X71397298Y-75306903D01*
X71153329Y-75378486D01*
X71032429Y-75633996D01*
X70963700Y-75908184D01*
X70949783Y-76190512D01*
X63607000Y-76190512D01*
X63607000Y-73789923D01*
X64573721Y-73789923D01*
X64573721Y-74159659D01*
X64645853Y-74522292D01*
X64787345Y-74863884D01*
X64992760Y-75171309D01*
X65254203Y-75432752D01*
X65561628Y-75638167D01*
X65903220Y-75779659D01*
X66265853Y-75851791D01*
X66635589Y-75851791D01*
X66998222Y-75779659D01*
X67339814Y-75638167D01*
X67647239Y-75432752D01*
X67833713Y-75246278D01*
X67912389Y-75364025D01*
X68145975Y-75597611D01*
X68420643Y-75781138D01*
X68725837Y-75907554D01*
X69049830Y-75972000D01*
X69380170Y-75972000D01*
X69704163Y-75907554D01*
X70009357Y-75781138D01*
X70284025Y-75597611D01*
X70517611Y-75364025D01*
X70675786Y-75127298D01*
X71576903Y-75127298D01*
X72390000Y-75940395D01*
X73203097Y-75127298D01*
X73165897Y-75000512D01*
X74759783Y-75000512D01*
X74801213Y-75280130D01*
X74896397Y-75546292D01*
X74963329Y-75671514D01*
X75207298Y-75743097D01*
X76020395Y-74930000D01*
X76379605Y-74930000D01*
X77192702Y-75743097D01*
X77436671Y-75671514D01*
X77557571Y-75416004D01*
X77626300Y-75141816D01*
X77633265Y-75000512D01*
X78569783Y-75000512D01*
X78611213Y-75280130D01*
X78706397Y-75546292D01*
X78773329Y-75671514D01*
X79017298Y-75743097D01*
X79830395Y-74930000D01*
X80189605Y-74930000D01*
X81002702Y-75743097D01*
X81246671Y-75671514D01*
X81367571Y-75416004D01*
X81436300Y-75141816D01*
X81450217Y-74859488D01*
X81408787Y-74579870D01*
X81313603Y-74313708D01*
X81246671Y-74188486D01*
X81002702Y-74116903D01*
X80189605Y-74930000D01*
X79830395Y-74930000D01*
X79017298Y-74116903D01*
X78773329Y-74188486D01*
X78652429Y-74443996D01*
X78583700Y-74718184D01*
X78569783Y-75000512D01*
X77633265Y-75000512D01*
X77640217Y-74859488D01*
X77598787Y-74579870D01*
X77503603Y-74313708D01*
X77436671Y-74188486D01*
X77192702Y-74116903D01*
X76379605Y-74930000D01*
X76020395Y-74930000D01*
X75207298Y-74116903D01*
X74963329Y-74188486D01*
X74842429Y-74443996D01*
X74773700Y-74718184D01*
X74759783Y-75000512D01*
X73165897Y-75000512D01*
X73131514Y-74883329D01*
X72876004Y-74762429D01*
X72601816Y-74693700D01*
X72319488Y-74679783D01*
X72039870Y-74721213D01*
X71773708Y-74816397D01*
X71648486Y-74883329D01*
X71576903Y-75127298D01*
X70675786Y-75127298D01*
X70701138Y-75089357D01*
X70827554Y-74784163D01*
X70892000Y-74460170D01*
X70892000Y-74129830D01*
X70853704Y-73937298D01*
X75386903Y-73937298D01*
X76200000Y-74750395D01*
X77013097Y-73937298D01*
X79196903Y-73937298D01*
X80010000Y-74750395D01*
X80823097Y-73937298D01*
X80751514Y-73693329D01*
X80496004Y-73572429D01*
X80221816Y-73503700D01*
X79939488Y-73489783D01*
X79659870Y-73531213D01*
X79393708Y-73626397D01*
X79268486Y-73693329D01*
X79196903Y-73937298D01*
X77013097Y-73937298D01*
X76941514Y-73693329D01*
X76686004Y-73572429D01*
X76411816Y-73503700D01*
X76129488Y-73489783D01*
X75849870Y-73531213D01*
X75583708Y-73626397D01*
X75458486Y-73693329D01*
X75386903Y-73937298D01*
X70853704Y-73937298D01*
X70827554Y-73805837D01*
X70701138Y-73500643D01*
X70517611Y-73225975D01*
X70284025Y-72992389D01*
X70009357Y-72808862D01*
X69704163Y-72682446D01*
X69380170Y-72618000D01*
X69165666Y-72618000D01*
X69164730Y-72617716D01*
X68894791Y-72591129D01*
X68624852Y-72617716D01*
X68365287Y-72696454D01*
X68126070Y-72824319D01*
X68005542Y-72923234D01*
X67908682Y-72778273D01*
X67647239Y-72516830D01*
X67339814Y-72311415D01*
X66998222Y-72169923D01*
X66635589Y-72097791D01*
X66265853Y-72097791D01*
X65903220Y-72169923D01*
X65561628Y-72311415D01*
X65254203Y-72516830D01*
X64992760Y-72778273D01*
X64787345Y-73085698D01*
X64645853Y-73427290D01*
X64573721Y-73789923D01*
X63607000Y-73789923D01*
X63607000Y-67880371D01*
X69298337Y-62189035D01*
X69382763Y-62234162D01*
X69548078Y-62284310D01*
X69720000Y-62301243D01*
X71641386Y-62301243D01*
X71212535Y-62730093D01*
X71094164Y-62741752D01*
X70834598Y-62820490D01*
X70595382Y-62948354D01*
X70385706Y-63120430D01*
X70342582Y-63172977D01*
X69735299Y-63780260D01*
X69682756Y-63823381D01*
X69510680Y-64033057D01*
X69417527Y-64207333D01*
X69382816Y-64272273D01*
X69304078Y-64531838D01*
X69292419Y-64650209D01*
X67455832Y-66486797D01*
X67403289Y-66529918D01*
X67231213Y-66739594D01*
X67134584Y-66920373D01*
X67103349Y-66978810D01*
X67024611Y-67238375D01*
X66998024Y-67508314D01*
X67004686Y-67575954D01*
X67004686Y-68687623D01*
X66923725Y-68768584D01*
X66718310Y-69076009D01*
X66576818Y-69417601D01*
X66504686Y-69780234D01*
X66504686Y-70149970D01*
X66576818Y-70512603D01*
X66718310Y-70854195D01*
X66923725Y-71161620D01*
X67185168Y-71423063D01*
X67492593Y-71628478D01*
X67834185Y-71769970D01*
X68196818Y-71842102D01*
X68566554Y-71842102D01*
X68929187Y-71769970D01*
X69270779Y-71628478D01*
X69578204Y-71423063D01*
X69839647Y-71161620D01*
X69977819Y-70954830D01*
X70713000Y-70954830D01*
X70713000Y-71285170D01*
X70777446Y-71609163D01*
X70903862Y-71914357D01*
X71087389Y-72189025D01*
X71320975Y-72422611D01*
X71595643Y-72606138D01*
X71900837Y-72732554D01*
X72224830Y-72797000D01*
X72555170Y-72797000D01*
X72879163Y-72732554D01*
X73184357Y-72606138D01*
X73459025Y-72422611D01*
X73692611Y-72189025D01*
X73876138Y-71914357D01*
X74002554Y-71609163D01*
X74067000Y-71285170D01*
X74067000Y-70954830D01*
X74002554Y-70630837D01*
X73876138Y-70325643D01*
X73692611Y-70050975D01*
X73459025Y-69817389D01*
X73380365Y-69764830D01*
X74523000Y-69764830D01*
X74523000Y-70095170D01*
X74587446Y-70419163D01*
X74713862Y-70724357D01*
X74897389Y-70999025D01*
X75130975Y-71232611D01*
X75405643Y-71416138D01*
X75710837Y-71542554D01*
X76034830Y-71607000D01*
X76365170Y-71607000D01*
X76689163Y-71542554D01*
X76994357Y-71416138D01*
X77269025Y-71232611D01*
X77502611Y-70999025D01*
X77686138Y-70724357D01*
X77812554Y-70419163D01*
X77877000Y-70095170D01*
X77877000Y-69764830D01*
X77812554Y-69440837D01*
X77686138Y-69135643D01*
X77502611Y-68860975D01*
X77269025Y-68627389D01*
X76994357Y-68443862D01*
X76689163Y-68317446D01*
X76365170Y-68253000D01*
X76034830Y-68253000D01*
X75710837Y-68317446D01*
X75405643Y-68443862D01*
X75130975Y-68627389D01*
X74897389Y-68860975D01*
X74713862Y-69135643D01*
X74587446Y-69440837D01*
X74523000Y-69764830D01*
X73380365Y-69764830D01*
X73184357Y-69633862D01*
X72879163Y-69507446D01*
X72555170Y-69443000D01*
X72224830Y-69443000D01*
X71900837Y-69507446D01*
X71595643Y-69633862D01*
X71320975Y-69817389D01*
X71087389Y-70050975D01*
X70903862Y-70325643D01*
X70777446Y-70630837D01*
X70713000Y-70954830D01*
X69977819Y-70954830D01*
X70045062Y-70854195D01*
X70186554Y-70512603D01*
X70258686Y-70149970D01*
X70258686Y-69780234D01*
X70186554Y-69417601D01*
X70045062Y-69076009D01*
X69839647Y-68768584D01*
X69758686Y-68687623D01*
X69758686Y-68078685D01*
X70068967Y-67768405D01*
X70197787Y-68079405D01*
X70403202Y-68386830D01*
X70664645Y-68648273D01*
X70972070Y-68853688D01*
X71313662Y-68995180D01*
X71676295Y-69067312D01*
X72046031Y-69067312D01*
X72408664Y-68995180D01*
X72750256Y-68853688D01*
X73057681Y-68648273D01*
X73319124Y-68386830D01*
X73524539Y-68079405D01*
X73666031Y-67737813D01*
X73738163Y-67375180D01*
X73738163Y-67260684D01*
X74371276Y-66627570D01*
X74395132Y-66747501D01*
X74536624Y-67089093D01*
X74742039Y-67396518D01*
X75003482Y-67657961D01*
X75310907Y-67863376D01*
X75652499Y-68004868D01*
X76015132Y-68077000D01*
X76384868Y-68077000D01*
X76747501Y-68004868D01*
X77089093Y-67863376D01*
X77396518Y-67657961D01*
X77488387Y-67566092D01*
X77579939Y-67557075D01*
X77740683Y-67508314D01*
X77839505Y-67478337D01*
X78078721Y-67350473D01*
X78288397Y-67178397D01*
X78331521Y-67125850D01*
X78713958Y-66743413D01*
X78661837Y-67005444D01*
X78661837Y-67375180D01*
X78733969Y-67737813D01*
X78875461Y-68079405D01*
X79080876Y-68386830D01*
X79169044Y-68474998D01*
X78940975Y-68627389D01*
X78707389Y-68860975D01*
X78523862Y-69135643D01*
X78397446Y-69440837D01*
X78333000Y-69764830D01*
X78333000Y-70095170D01*
X78397446Y-70419163D01*
X78523862Y-70724357D01*
X78707389Y-70999025D01*
X78940975Y-71232611D01*
X79215643Y-71416138D01*
X79520837Y-71542554D01*
X79844830Y-71607000D01*
X80175170Y-71607000D01*
X80499163Y-71542554D01*
X80804357Y-71416138D01*
X81079025Y-71232611D01*
X81312611Y-70999025D01*
X81496138Y-70724357D01*
X81622554Y-70419163D01*
X81687000Y-70095170D01*
X81687000Y-69780234D01*
X82141314Y-69780234D01*
X82141314Y-70149970D01*
X82213446Y-70512603D01*
X82354938Y-70854195D01*
X82560353Y-71161620D01*
X82821796Y-71423063D01*
X83129221Y-71628478D01*
X83470813Y-71769970D01*
X83833446Y-71842102D01*
X84203182Y-71842102D01*
X84565815Y-71769970D01*
X84907407Y-71628478D01*
X85214832Y-71423063D01*
X85476275Y-71161620D01*
X85681690Y-70854195D01*
X85823182Y-70512603D01*
X85895314Y-70149970D01*
X85895314Y-69780234D01*
X85823182Y-69417601D01*
X85681690Y-69076009D01*
X85476275Y-68768584D01*
X85214832Y-68507141D01*
X84907407Y-68301726D01*
X84565815Y-68160234D01*
X84203182Y-68088102D01*
X83833446Y-68088102D01*
X83470813Y-68160234D01*
X83129221Y-68301726D01*
X82821796Y-68507141D01*
X82560353Y-68768584D01*
X82354938Y-69076009D01*
X82213446Y-69417601D01*
X82141314Y-69780234D01*
X81687000Y-69780234D01*
X81687000Y-69764830D01*
X81622554Y-69440837D01*
X81496138Y-69135643D01*
X81333795Y-68892680D01*
X81427930Y-68853688D01*
X81735355Y-68648273D01*
X81996798Y-68386830D01*
X82202213Y-68079405D01*
X82343705Y-67737813D01*
X82415837Y-67375180D01*
X82415837Y-67005444D01*
X82343705Y-66642811D01*
X82202213Y-66301219D01*
X81999513Y-65997858D01*
X82665859Y-65331512D01*
X82718396Y-65288397D01*
X82890473Y-65078721D01*
X83018337Y-64839505D01*
X83059939Y-64702360D01*
X83097075Y-64579940D01*
X83123662Y-64310001D01*
X83117000Y-64242361D01*
X83117000Y-61957479D01*
X83257961Y-61816518D01*
X83463376Y-61509093D01*
X83604868Y-61167501D01*
X83677000Y-60804868D01*
X83677000Y-60435132D01*
X83624668Y-60172040D01*
X83713001Y-60260373D01*
X83713000Y-62162360D01*
X83706338Y-62230000D01*
X83727016Y-62439939D01*
X83732925Y-62499938D01*
X83811663Y-62759504D01*
X83939527Y-62998720D01*
X84111603Y-63208396D01*
X84164146Y-63251517D01*
X86157071Y-65244443D01*
X86157070Y-71819628D01*
X85878907Y-72097791D01*
X85764411Y-72097791D01*
X85401778Y-72169923D01*
X85060186Y-72311415D01*
X84752761Y-72516830D01*
X84491318Y-72778273D01*
X84285903Y-73085698D01*
X84144411Y-73427290D01*
X84072279Y-73789923D01*
X84072279Y-74159659D01*
X84144411Y-74522292D01*
X84285903Y-74863884D01*
X84491318Y-75171309D01*
X84752761Y-75432752D01*
X85060186Y-75638167D01*
X85401778Y-75779659D01*
X85764411Y-75851791D01*
X86134147Y-75851791D01*
X86496780Y-75779659D01*
X86838372Y-75638167D01*
X87145797Y-75432752D01*
X87407240Y-75171309D01*
X87612655Y-74863884D01*
X87754147Y-74522292D01*
X87826279Y-74159659D01*
X87826279Y-74045163D01*
X87906911Y-73964531D01*
X91615074Y-73964531D01*
X91725921Y-74241714D01*
X92036840Y-74395089D01*
X92371705Y-74484860D01*
X92717650Y-74507576D01*
X93061380Y-74462366D01*
X93389685Y-74350966D01*
X93594079Y-74241714D01*
X93704926Y-73964531D01*
X96695074Y-73964531D01*
X96805921Y-74241714D01*
X97116840Y-74395089D01*
X97451705Y-74484860D01*
X97797650Y-74507576D01*
X98141380Y-74462366D01*
X98469685Y-74350966D01*
X98674079Y-74241714D01*
X98784926Y-73964531D01*
X97740000Y-72919605D01*
X96695074Y-73964531D01*
X93704926Y-73964531D01*
X92660000Y-72919605D01*
X91615074Y-73964531D01*
X87906911Y-73964531D01*
X88459930Y-73411512D01*
X88512466Y-73368397D01*
X88684543Y-73158721D01*
X88812407Y-72919505D01*
X88849371Y-72797650D01*
X90892424Y-72797650D01*
X90937634Y-73141380D01*
X91049034Y-73469685D01*
X91158286Y-73674079D01*
X91435469Y-73784926D01*
X92480395Y-72740000D01*
X91435469Y-71695074D01*
X91158286Y-71805921D01*
X91004911Y-72116840D01*
X90915140Y-72451705D01*
X90892424Y-72797650D01*
X88849371Y-72797650D01*
X88869118Y-72732554D01*
X88891145Y-72659940D01*
X88917732Y-72390000D01*
X88911070Y-72322360D01*
X88911070Y-68884531D01*
X91615074Y-68884531D01*
X91725921Y-69161714D01*
X92036840Y-69315089D01*
X92371705Y-69404860D01*
X92717650Y-69427576D01*
X93061380Y-69382366D01*
X93389685Y-69270966D01*
X93594079Y-69161714D01*
X93704925Y-68884533D01*
X93765279Y-68944887D01*
X93722620Y-68987546D01*
X93514469Y-69299065D01*
X93371093Y-69645207D01*
X93298000Y-70012669D01*
X93298000Y-70387331D01*
X93371093Y-70754793D01*
X93514469Y-71100935D01*
X93722620Y-71412454D01*
X93765279Y-71455113D01*
X93704925Y-71515467D01*
X93594079Y-71238286D01*
X93283160Y-71084911D01*
X92948295Y-70995140D01*
X92602350Y-70972424D01*
X92258620Y-71017634D01*
X91930315Y-71129034D01*
X91725921Y-71238286D01*
X91615074Y-71515469D01*
X92660000Y-72560395D01*
X92674143Y-72546253D01*
X92853748Y-72725858D01*
X92839605Y-72740000D01*
X93884531Y-73784926D01*
X94161714Y-73674079D01*
X94315089Y-73363160D01*
X94404860Y-73028295D01*
X94427576Y-72682350D01*
X94382366Y-72338620D01*
X94270966Y-72010315D01*
X94161714Y-71805921D01*
X93884533Y-71695075D01*
X93944887Y-71634721D01*
X93987546Y-71677380D01*
X94299065Y-71885531D01*
X94645207Y-72028907D01*
X95012669Y-72102000D01*
X95387331Y-72102000D01*
X95754793Y-72028907D01*
X96100935Y-71885531D01*
X96412454Y-71677380D01*
X96455113Y-71634721D01*
X96515467Y-71695075D01*
X96238286Y-71805921D01*
X96084911Y-72116840D01*
X95995140Y-72451705D01*
X95972424Y-72797650D01*
X96017634Y-73141380D01*
X96129034Y-73469685D01*
X96238286Y-73674079D01*
X96515469Y-73784926D01*
X97560395Y-72740000D01*
X97919605Y-72740000D01*
X98964531Y-73784926D01*
X99241714Y-73674079D01*
X99395089Y-73363160D01*
X99484860Y-73028295D01*
X99507576Y-72682350D01*
X99462366Y-72338620D01*
X99350966Y-72010315D01*
X99241714Y-71805921D01*
X98964531Y-71695074D01*
X97919605Y-72740000D01*
X97560395Y-72740000D01*
X97546253Y-72725858D01*
X97725858Y-72546253D01*
X97740000Y-72560395D01*
X98784926Y-71515469D01*
X98674079Y-71238286D01*
X98363160Y-71084911D01*
X98028295Y-70995140D01*
X97682350Y-70972424D01*
X97338620Y-71017634D01*
X97010315Y-71129034D01*
X96805921Y-71238286D01*
X96695075Y-71515467D01*
X96634721Y-71455113D01*
X96677380Y-71412454D01*
X96885531Y-71100935D01*
X97028907Y-70754793D01*
X97102000Y-70387331D01*
X97102000Y-70012669D01*
X97028907Y-69645207D01*
X96885531Y-69299065D01*
X96677380Y-68987546D01*
X96634721Y-68944887D01*
X96695075Y-68884533D01*
X96805921Y-69161714D01*
X97116840Y-69315089D01*
X97451705Y-69404860D01*
X97797650Y-69427576D01*
X98141380Y-69382366D01*
X98469685Y-69270966D01*
X98674079Y-69161714D01*
X98784926Y-68884531D01*
X97740000Y-67839605D01*
X97725858Y-67853748D01*
X97546253Y-67674143D01*
X97560395Y-67660000D01*
X96515469Y-66615074D01*
X96238286Y-66725921D01*
X96084911Y-67036840D01*
X95995140Y-67371705D01*
X95972424Y-67717650D01*
X96017634Y-68061380D01*
X96129034Y-68389685D01*
X96238286Y-68594079D01*
X96515467Y-68704925D01*
X96455113Y-68765279D01*
X96412454Y-68722620D01*
X96100935Y-68514469D01*
X95754793Y-68371093D01*
X95387331Y-68298000D01*
X95012669Y-68298000D01*
X94645207Y-68371093D01*
X94299065Y-68514469D01*
X93987546Y-68722620D01*
X93944887Y-68765279D01*
X93884533Y-68704925D01*
X94161714Y-68594079D01*
X94315089Y-68283160D01*
X94404860Y-67948295D01*
X94427576Y-67602350D01*
X94382366Y-67258620D01*
X94270966Y-66930315D01*
X94161714Y-66725921D01*
X93884531Y-66615074D01*
X92839605Y-67660000D01*
X92853748Y-67674143D01*
X92674143Y-67853748D01*
X92660000Y-67839605D01*
X91615074Y-68884531D01*
X88911070Y-68884531D01*
X88911070Y-67717650D01*
X90892424Y-67717650D01*
X90937634Y-68061380D01*
X91049034Y-68389685D01*
X91158286Y-68594079D01*
X91435469Y-68704926D01*
X92480395Y-67660000D01*
X91435469Y-66615074D01*
X91158286Y-66725921D01*
X91004911Y-67036840D01*
X90915140Y-67371705D01*
X90892424Y-67717650D01*
X88911070Y-67717650D01*
X88911070Y-66435469D01*
X91615074Y-66435469D01*
X92660000Y-67480395D01*
X93704926Y-66435469D01*
X93594079Y-66158286D01*
X93283160Y-66004911D01*
X92948295Y-65915140D01*
X92602350Y-65892424D01*
X92258620Y-65937634D01*
X91930315Y-66049034D01*
X91725921Y-66158286D01*
X91615074Y-66435469D01*
X88911070Y-66435469D01*
X88911070Y-64741710D01*
X88917732Y-64674070D01*
X88891145Y-64404130D01*
X88812407Y-64144565D01*
X88787959Y-64098827D01*
X88684543Y-63905349D01*
X88512467Y-63695673D01*
X88459925Y-63652553D01*
X86467000Y-61659629D01*
X86467000Y-61047499D01*
X87092106Y-61047499D01*
X87308228Y-61414258D01*
X87768105Y-61654938D01*
X88266098Y-61801275D01*
X88783071Y-61847648D01*
X89299159Y-61792273D01*
X89794526Y-61637279D01*
X90211772Y-61414258D01*
X90427894Y-61047499D01*
X88760000Y-59379605D01*
X87092106Y-61047499D01*
X86467000Y-61047499D01*
X86467000Y-60504455D01*
X86545742Y-60651772D01*
X86912501Y-60867894D01*
X88580395Y-59200000D01*
X88939605Y-59200000D01*
X90607499Y-60867894D01*
X90974258Y-60651772D01*
X91214938Y-60191895D01*
X91361275Y-59693902D01*
X91407648Y-59176929D01*
X91352273Y-58660841D01*
X91197279Y-58165474D01*
X90974258Y-57748228D01*
X90607499Y-57532106D01*
X88939605Y-59200000D01*
X88580395Y-59200000D01*
X86912501Y-57532106D01*
X86545742Y-57748228D01*
X86305062Y-58208105D01*
X86158725Y-58706098D01*
X86149380Y-58810281D01*
X86068397Y-58711603D01*
X86015855Y-58668483D01*
X84699873Y-57352501D01*
X87092106Y-57352501D01*
X88760000Y-59020395D01*
X90427894Y-57352501D01*
X90211772Y-56985742D01*
X89751895Y-56745062D01*
X89253902Y-56598725D01*
X88736929Y-56552352D01*
X88220841Y-56607727D01*
X87725474Y-56762721D01*
X87308228Y-56985742D01*
X87092106Y-57352501D01*
X84699873Y-57352501D01*
X84201521Y-56854150D01*
X84158397Y-56801603D01*
X83948721Y-56629527D01*
X83709505Y-56501663D01*
X83449939Y-56422925D01*
X83247640Y-56403000D01*
X83180000Y-56396338D01*
X83112360Y-56403000D01*
X81692479Y-56403000D01*
X81611518Y-56322039D01*
X81304093Y-56116624D01*
X80962501Y-55975132D01*
X80599868Y-55903000D01*
X80230132Y-55903000D01*
X79867499Y-55975132D01*
X79525907Y-56116624D01*
X79218482Y-56322039D01*
X78957039Y-56583482D01*
X78793125Y-56828796D01*
X78780413Y-56824192D01*
X77824605Y-57780000D01*
X77838748Y-57794143D01*
X77659143Y-57973748D01*
X77645000Y-57959605D01*
X77630858Y-57973748D01*
X77451253Y-57794143D01*
X77465395Y-57780000D01*
X76509587Y-56824192D01*
X76496875Y-56828796D01*
X76373791Y-56644587D01*
X76689192Y-56644587D01*
X77645000Y-57600395D01*
X78600808Y-56644587D01*
X78505044Y-56380186D01*
X78215429Y-56239296D01*
X77903892Y-56157616D01*
X77582405Y-56138282D01*
X77263325Y-56182039D01*
X76958912Y-56287205D01*
X76784956Y-56380186D01*
X76689192Y-56644587D01*
X76373791Y-56644587D01*
X76332961Y-56583482D01*
X76071518Y-56322039D01*
X75764093Y-56116624D01*
X75422501Y-55975132D01*
X75059868Y-55903000D01*
X74690132Y-55903000D01*
X74327499Y-55975132D01*
X73985907Y-56116624D01*
X73678482Y-56322039D01*
X73490000Y-56510521D01*
X73301518Y-56322039D01*
X72994093Y-56116624D01*
X72652501Y-55975132D01*
X72289868Y-55903000D01*
X71920132Y-55903000D01*
X71557499Y-55975132D01*
X71215907Y-56116624D01*
X70908482Y-56322039D01*
X70647039Y-56583482D01*
X70441624Y-56890907D01*
X70300132Y-57232499D01*
X70228000Y-57595132D01*
X70228000Y-57964868D01*
X70300132Y-58327501D01*
X70441624Y-58669093D01*
X70621808Y-58938757D01*
X69720000Y-58938757D01*
X69548078Y-58955690D01*
X69382763Y-59005838D01*
X69230408Y-59087273D01*
X69096867Y-59196867D01*
X69059007Y-59243000D01*
X68987640Y-59243000D01*
X68920000Y-59236338D01*
X68650060Y-59262925D01*
X68539912Y-59296338D01*
X68390495Y-59341663D01*
X68151279Y-59469527D01*
X67941603Y-59641603D01*
X67898483Y-59694145D01*
X61659629Y-65933000D01*
X61027636Y-65933000D01*
X60959999Y-65926338D01*
X60892362Y-65933000D01*
X60892360Y-65933000D01*
X60690061Y-65952925D01*
X60430495Y-66031663D01*
X60191279Y-66159527D01*
X59981603Y-66331603D01*
X59938485Y-66384143D01*
X59393507Y-66929122D01*
X59200837Y-66967446D01*
X58895643Y-67093862D01*
X58620975Y-67277389D01*
X58387389Y-67510975D01*
X58203862Y-67785643D01*
X58077446Y-68090837D01*
X58013000Y-68414830D01*
X56116192Y-68414830D01*
X56088787Y-68229870D01*
X55993603Y-67963708D01*
X55926671Y-67838486D01*
X55682702Y-67766903D01*
X54869605Y-68580000D01*
X54510395Y-68580000D01*
X54496253Y-68565858D01*
X54675858Y-68386253D01*
X54690000Y-68400395D01*
X55503097Y-67587298D01*
X55431514Y-67343329D01*
X55176004Y-67222429D01*
X54901816Y-67153700D01*
X54619488Y-67139783D01*
X54339870Y-67181213D01*
X54073708Y-67276397D01*
X53948486Y-67343329D01*
X53876903Y-67587296D01*
X53796633Y-67507026D01*
X54028565Y-66886903D01*
X54838580Y-65154819D01*
X55783648Y-63492566D01*
X56857795Y-61910654D01*
X57550158Y-61047499D01*
X62092106Y-61047499D01*
X62308228Y-61414258D01*
X62768105Y-61654938D01*
X63266098Y-61801275D01*
X63783071Y-61847648D01*
X64299159Y-61792273D01*
X64794526Y-61637279D01*
X65211772Y-61414258D01*
X65427894Y-61047499D01*
X63760000Y-59379605D01*
X62092106Y-61047499D01*
X57550158Y-61047499D01*
X58054230Y-60419083D01*
X59180945Y-59223071D01*
X61112352Y-59223071D01*
X61167727Y-59739159D01*
X61322721Y-60234526D01*
X61545742Y-60651772D01*
X61912501Y-60867894D01*
X63580395Y-59200000D01*
X63939605Y-59200000D01*
X65607499Y-60867894D01*
X65974258Y-60651772D01*
X66214938Y-60191895D01*
X66361275Y-59693902D01*
X66407648Y-59176929D01*
X66352273Y-58660841D01*
X66197279Y-58165474D01*
X65974258Y-57748228D01*
X65607499Y-57532106D01*
X63939605Y-59200000D01*
X63580395Y-59200000D01*
X61912501Y-57532106D01*
X61545742Y-57748228D01*
X61305062Y-58208105D01*
X61158725Y-58706098D01*
X61112352Y-59223071D01*
X59180945Y-59223071D01*
X59365388Y-59027285D01*
X60782980Y-57744058D01*
X61291520Y-57352501D01*
X62092106Y-57352501D01*
X63760000Y-59020395D01*
X65427894Y-57352501D01*
X65211772Y-56985742D01*
X64751895Y-56745062D01*
X64253902Y-56598725D01*
X63736929Y-56552352D01*
X63220841Y-56607727D01*
X62725474Y-56762721D01*
X62308228Y-56985742D01*
X62092106Y-57352501D01*
X61291520Y-57352501D01*
X62298044Y-56577515D01*
X63901000Y-55535032D01*
X65581714Y-54623200D01*
X67329560Y-53847783D01*
X69133489Y-53213684D01*
X70982094Y-52724912D01*
X72863688Y-52384557D01*
X74766375Y-52194771D01*
X76678127Y-52156754D01*
X78586855Y-52270745D01*
G37*
%TD.AperFunction*%
%TD*%
M02*
