%TF.GenerationSoftware,KiCad,Pcbnew,5.1.10*%
%TF.CreationDate,2022-04-29T11:23:04+02:00*%
%TF.ProjectId,breakoutPcb,62726561-6b6f-4757-9450-63622e6b6963,rev?*%
%TF.SameCoordinates,Original*%
%TF.FileFunction,Copper,L2,Bot*%
%TF.FilePolarity,Positive*%
%FSLAX46Y46*%
G04 Gerber Fmt 4.6, Leading zero omitted, Abs format (unit mm)*
G04 Created by KiCad (PCBNEW 5.1.10) date 2022-04-29 11:23:04*
%MOMM*%
%LPD*%
G01*
G04 APERTURE LIST*
%TA.AperFunction,ComponentPad*%
%ADD10C,6.400000*%
%TD*%
%TA.AperFunction,ComponentPad*%
%ADD11O,1.500000X1.500000*%
%TD*%
%TA.AperFunction,ComponentPad*%
%ADD12C,1.600000*%
%TD*%
%TA.AperFunction,ComponentPad*%
%ADD13C,4.000000*%
%TD*%
%TA.AperFunction,ComponentPad*%
%ADD14R,1.600000X1.600000*%
%TD*%
%TA.AperFunction,ComponentPad*%
%ADD15C,2.250000*%
%TD*%
%TA.AperFunction,ComponentPad*%
%ADD16C,2.050000*%
%TD*%
%TA.AperFunction,Conductor*%
%ADD17C,0.250000*%
%TD*%
%TA.AperFunction,Conductor*%
%ADD18C,1.000000*%
%TD*%
%TA.AperFunction,Conductor*%
%ADD19C,0.254000*%
%TD*%
%TA.AperFunction,Conductor*%
%ADD20C,0.100000*%
%TD*%
G04 APERTURE END LIST*
D10*
%TO.P,REF\u002A\u002A,1*%
%TO.N,GND*%
X62200000Y-91800000D03*
%TD*%
%TO.P,REF\u002A\u002A,1*%
%TO.N,GND*%
X90200000Y-91800000D03*
%TD*%
D11*
%TO.P,CRT1,14*%
%TO.N,Net-(C1-Pad2)*%
X80538837Y-67190312D03*
%TO.P,CRT1,13*%
%TO.N,Net-(CRT1-Pad13)*%
X84018314Y-69965102D03*
%TO.P,CRT1,12*%
%TO.N,Net-(C2-Pad2)*%
X85949279Y-73974791D03*
%TO.P,CRT1,11*%
%TO.N,Net-(CRT1-Pad11)*%
X85949279Y-78425209D03*
%TO.P,CRT1,9*%
%TO.N,Net-(CRT1-Pad9)*%
X80538837Y-85209688D03*
%TO.P,CRT1,7*%
%TO.N,Net-(CRT1-Pad7)*%
X71861163Y-85209688D03*
%TO.P,CRT1,6*%
%TO.N,Net-(C8-Pad1)*%
X68381686Y-82434898D03*
%TO.P,CRT1,5*%
%TO.N,Net-(C7-Pad1)*%
X66450721Y-78425209D03*
%TO.P,CRT1,4*%
%TO.N,Net-(C6-Pad1)*%
X66450721Y-73974791D03*
%TO.P,CRT1,3*%
%TO.N,Net-(C4-Pad1)*%
X68381686Y-69965102D03*
%TO.P,CRT1,2*%
%TO.N,Net-(C5-Pad2)*%
X71861163Y-67190312D03*
%TO.P,CRT1,1*%
%TO.N,Net-(C3-Pad2)*%
X76200000Y-66200000D03*
%TD*%
D12*
%TO.P,C8,2*%
%TO.N,GND*%
X54690000Y-68580000D03*
%TO.P,C8,1*%
%TO.N,Net-(C8-Pad1)*%
X59690000Y-68580000D03*
%TD*%
%TO.P,C7,2*%
%TO.N,GND*%
X79295000Y-82550000D03*
%TO.P,C7,1*%
%TO.N,Net-(C7-Pad1)*%
X74295000Y-82550000D03*
%TD*%
%TO.P,C6,2*%
%TO.N,GND*%
X69215000Y-79295000D03*
%TO.P,C6,1*%
%TO.N,Net-(C6-Pad1)*%
X69215000Y-74295000D03*
%TD*%
%TO.P,C5,2*%
%TO.N,Net-(C5-Pad2)*%
X76200000Y-69930000D03*
%TO.P,C5,1*%
%TO.N,GND*%
X76200000Y-74930000D03*
%TD*%
%TO.P,C4,2*%
%TO.N,GND*%
X72390000Y-76120000D03*
%TO.P,C4,1*%
%TO.N,Net-(C4-Pad1)*%
X72390000Y-71120000D03*
%TD*%
%TO.P,C3,2*%
%TO.N,Net-(C3-Pad2)*%
X80010000Y-69930000D03*
%TO.P,C3,1*%
%TO.N,GND*%
X80010000Y-74930000D03*
%TD*%
%TO.P,C2,2*%
%TO.N,Net-(C2-Pad2)*%
X82470000Y-78740000D03*
%TO.P,C2,1*%
%TO.N,GND*%
X77470000Y-78740000D03*
%TD*%
D13*
%TO.P,J1,0*%
%TO.N,GND*%
X63760000Y-59200000D03*
X88760000Y-59200000D03*
D12*
%TO.P,J1,9*%
%TO.N,Net-(C2-Pad2)*%
X80415000Y-57780000D03*
%TO.P,J1,8*%
%TO.N,GND*%
X77645000Y-57780000D03*
%TO.P,J1,7*%
%TO.N,Net-(C7-Pad1)*%
X74875000Y-57780000D03*
%TO.P,J1,6*%
%TO.N,Net-(C6-Pad1)*%
X72105000Y-57780000D03*
%TO.P,J1,5*%
%TO.N,Net-(C1-Pad2)*%
X81800000Y-60620000D03*
%TO.P,J1,4*%
%TO.N,Net-(C3-Pad2)*%
X79030000Y-60620000D03*
%TO.P,J1,3*%
%TO.N,Net-(C5-Pad2)*%
X76260000Y-60620000D03*
%TO.P,J1,2*%
%TO.N,Net-(C4-Pad1)*%
X73490000Y-60620000D03*
D14*
%TO.P,J1,1*%
%TO.N,Net-(C8-Pad1)*%
X70720000Y-60620000D03*
%TD*%
%TO.P,JP2,2*%
%TO.N,GND*%
%TA.AperFunction,SMDPad,CuDef*%
G36*
G01*
X63100000Y-78289998D02*
X63100000Y-79190002D01*
G75*
G02*
X62850002Y-79440000I-249998J0D01*
G01*
X62324998Y-79440000D01*
G75*
G02*
X62075000Y-79190002I0J249998D01*
G01*
X62075000Y-78289998D01*
G75*
G02*
X62324998Y-78040000I249998J0D01*
G01*
X62850002Y-78040000D01*
G75*
G02*
X63100000Y-78289998I0J-249998D01*
G01*
G37*
%TD.AperFunction*%
%TO.P,JP2,1*%
%TO.N,Net-(C7-Pad1)*%
%TA.AperFunction,SMDPad,CuDef*%
G36*
G01*
X64925000Y-78289998D02*
X64925000Y-79190002D01*
G75*
G02*
X64675002Y-79440000I-249998J0D01*
G01*
X64149998Y-79440000D01*
G75*
G02*
X63900000Y-79190002I0J249998D01*
G01*
X63900000Y-78289998D01*
G75*
G02*
X64149998Y-78040000I249998J0D01*
G01*
X64675002Y-78040000D01*
G75*
G02*
X64925000Y-78289998I0J-249998D01*
G01*
G37*
%TD.AperFunction*%
%TD*%
D15*
%TO.P,J5,2*%
%TO.N,GND*%
X92660000Y-84740000D03*
X92660000Y-79660000D03*
X97740000Y-79660000D03*
X97740000Y-84740000D03*
D16*
%TO.P,J5,1*%
%TO.N,Net-(CRT1-Pad11)*%
X95200000Y-82200000D03*
%TD*%
D15*
%TO.P,J4,2*%
%TO.N,GND*%
X92660000Y-72740000D03*
X92660000Y-67660000D03*
X97740000Y-67660000D03*
X97740000Y-72740000D03*
D16*
%TO.P,J4,1*%
%TO.N,Net-(CRT1-Pad13)*%
X95200000Y-70200000D03*
%TD*%
D15*
%TO.P,J3,2*%
%TO.N,GND*%
X67660000Y-97740000D03*
X67660000Y-92660000D03*
X72740000Y-92660000D03*
X72740000Y-97740000D03*
D16*
%TO.P,J3,1*%
%TO.N,Net-(CRT1-Pad7)*%
X70200000Y-95200000D03*
%TD*%
D15*
%TO.P,J2,2*%
%TO.N,GND*%
X79660000Y-97740000D03*
X79660000Y-92660000D03*
X84740000Y-92660000D03*
X84740000Y-97740000D03*
D16*
%TO.P,J2,1*%
%TO.N,Net-(CRT1-Pad9)*%
X82200000Y-95200000D03*
%TD*%
D17*
%TO.N,GND*%
X92625010Y-79690000D02*
X92710000Y-79690000D01*
X92710000Y-80330000D02*
X92529999Y-80510001D01*
X92710000Y-67310000D02*
X97790000Y-67310000D01*
X97790000Y-67310000D02*
X97790000Y-72390000D01*
X97790000Y-72390000D02*
X92710000Y-72390000D01*
X92710000Y-74930000D02*
X92710000Y-72390000D01*
X88700000Y-60810000D02*
X82550000Y-54660000D01*
X92710000Y-64820000D02*
X88700000Y-60810000D01*
X92710000Y-67310000D02*
X92710000Y-64820000D01*
X63500000Y-92710000D02*
X68580000Y-92710000D01*
X92710000Y-76200000D02*
X92710000Y-74930000D01*
X92705000Y-76195000D02*
X92710000Y-76200000D01*
X92710000Y-80010000D02*
X92710000Y-76200000D01*
X92710000Y-80010000D02*
X97790000Y-80010000D01*
X97790000Y-80010000D02*
X97790000Y-85090000D01*
X97790000Y-85090000D02*
X92710000Y-85090000D01*
D18*
X89340000Y-92660000D02*
X90200000Y-91800000D01*
X84740000Y-92660000D02*
X89340000Y-92660000D01*
X90200000Y-87200000D02*
X92660000Y-84740000D01*
X90200000Y-91800000D02*
X90200000Y-87200000D01*
X92660000Y-67660000D02*
X97740000Y-67660000D01*
X97740000Y-67660000D02*
X97740000Y-72740000D01*
X97740000Y-72740000D02*
X92660000Y-72740000D01*
X92660000Y-72740000D02*
X92660000Y-79660000D01*
X92660000Y-79660000D02*
X97740000Y-79660000D01*
X97740000Y-79660000D02*
X97740000Y-84740000D01*
X97740000Y-84740000D02*
X92660000Y-84740000D01*
X77470000Y-76200000D02*
X76200000Y-74930000D01*
X77470000Y-78740000D02*
X77470000Y-76200000D01*
X76200000Y-74930000D02*
X80010000Y-74930000D01*
X73580000Y-74930000D02*
X72390000Y-76120000D01*
X76200000Y-74930000D02*
X73580000Y-74930000D01*
X72390000Y-76120000D02*
X69215000Y-79295000D01*
X79295000Y-80565000D02*
X77470000Y-78740000D01*
X79295000Y-82550000D02*
X79295000Y-80565000D01*
X92444790Y-72524790D02*
X92660000Y-72740000D01*
X82415210Y-72524790D02*
X92444790Y-72524790D01*
X80010000Y-74930000D02*
X82415210Y-72524790D01*
X77645000Y-55070000D02*
X78055000Y-54660000D01*
X77645000Y-57780000D02*
X77645000Y-55070000D01*
X82550000Y-54660000D02*
X78055000Y-54660000D01*
X82550000Y-54660000D02*
X83235000Y-54660000D01*
X83235000Y-54660000D02*
X92710000Y-64135000D01*
X92710000Y-67610000D02*
X92660000Y-67660000D01*
X92710000Y-64135000D02*
X92710000Y-67610000D01*
X84740000Y-92660000D02*
X84740000Y-97740000D01*
X84740000Y-97740000D02*
X67660000Y-97740000D01*
X79660000Y-97740000D02*
X79660000Y-92660000D01*
X72740000Y-97740000D02*
X72740000Y-92660000D01*
X67660000Y-97740000D02*
X67660000Y-92660000D01*
X63060000Y-92660000D02*
X62200000Y-91800000D01*
X67660000Y-92660000D02*
X63060000Y-92660000D01*
X62200000Y-79127500D02*
X62587500Y-78740000D01*
X62200000Y-91800000D02*
X62200000Y-79127500D01*
X54690000Y-84290000D02*
X62200000Y-91800000D01*
X54690000Y-68580000D02*
X54690000Y-84290000D01*
D17*
%TO.N,Net-(C6-Pad1)*%
X70490000Y-57780000D02*
X72105000Y-57780000D01*
D18*
X66460001Y-73965511D02*
X66460001Y-62444999D01*
X66450721Y-73974791D02*
X66460001Y-73965511D01*
X66460001Y-62444999D02*
X67945000Y-60960000D01*
X67945000Y-60960000D02*
X67945000Y-59690000D01*
X69855000Y-57780000D02*
X72105000Y-57780000D01*
X67945000Y-59690000D02*
X69855000Y-57780000D01*
D17*
%TO.N,Net-(C7-Pad1)*%
X63500000Y-75474488D02*
X63500000Y-66040000D01*
D18*
X74875000Y-55935000D02*
X74930000Y-55880000D01*
X74875000Y-57780000D02*
X74875000Y-55935000D01*
X74875000Y-55935000D02*
X74875000Y-54665000D01*
X74820000Y-54610000D02*
X66365190Y-54610000D01*
X74875000Y-54665000D02*
X74820000Y-54610000D01*
X65945145Y-54805785D02*
X65672731Y-54938506D01*
X66219210Y-54676564D02*
X65945145Y-54805785D01*
X66365190Y-54610000D02*
X66219210Y-54676564D01*
X64803986Y-56171204D02*
X62792794Y-56171204D01*
X62792794Y-56171204D02*
X59690000Y-59273998D01*
X66365190Y-54610000D02*
X64803986Y-56171204D01*
X59690000Y-59273998D02*
X59690000Y-62865000D01*
X63545256Y-66720256D02*
X63545256Y-75519744D01*
X59690000Y-62865000D02*
X63545256Y-66720256D01*
D17*
X63500000Y-75474488D02*
X63545256Y-75519744D01*
D18*
X66450721Y-78425209D02*
X63545256Y-75519744D01*
X64727291Y-78425209D02*
X64412500Y-78740000D01*
X66450721Y-78425209D02*
X64727291Y-78425209D01*
D17*
%TO.N,Net-(CRT1-Pad13)*%
X94850000Y-69850000D02*
X95200000Y-70200000D01*
D18*
X84253212Y-70200000D02*
X84018314Y-69965102D01*
X95200000Y-70200000D02*
X84253212Y-70200000D01*
%TO.N,Net-(CRT1-Pad11)*%
X95200000Y-82200000D02*
X89820000Y-82200000D01*
X86045209Y-78425209D02*
X85949279Y-78425209D01*
X89820000Y-82200000D02*
X86045209Y-78425209D01*
%TO.N,Net-(CRT1-Pad9)*%
X82200000Y-86870851D02*
X80538837Y-85209688D01*
X82200000Y-95200000D02*
X82200000Y-86870851D01*
%TO.N,Net-(CRT1-Pad7)*%
X70200000Y-86870851D02*
X71861163Y-85209688D01*
X70200000Y-95200000D02*
X70200000Y-86870851D01*
%TD*%
D19*
%TO.N,GND*%
X82171978Y-71480351D02*
X82503065Y-71811438D01*
X82892382Y-72071572D01*
X83324969Y-72250755D01*
X83784200Y-72342102D01*
X84220383Y-72342102D01*
X84102943Y-72459542D01*
X83842809Y-72848859D01*
X83663626Y-73281446D01*
X83572279Y-73740677D01*
X83572279Y-74208905D01*
X83663626Y-74668136D01*
X83842809Y-75100723D01*
X84102943Y-75490040D01*
X84434030Y-75821127D01*
X84823347Y-76081261D01*
X85110009Y-76200000D01*
X84823347Y-76318739D01*
X84434030Y-76578873D01*
X84102943Y-76909960D01*
X84090651Y-76928355D01*
X84017122Y-76854826D01*
X83619615Y-76589221D01*
X83177930Y-76406268D01*
X82709039Y-76313000D01*
X82230961Y-76313000D01*
X81762070Y-76406268D01*
X81320385Y-76589221D01*
X80922878Y-76854826D01*
X80584826Y-77192878D01*
X80319221Y-77590385D01*
X80136268Y-78032070D01*
X80043000Y-78500961D01*
X80043000Y-78979039D01*
X80136268Y-79447930D01*
X80319221Y-79889615D01*
X80584826Y-80287122D01*
X80922878Y-80625174D01*
X81320385Y-80890779D01*
X81762070Y-81073732D01*
X82230961Y-81167000D01*
X82709039Y-81167000D01*
X83177930Y-81073732D01*
X83619615Y-80890779D01*
X84017122Y-80625174D01*
X84355174Y-80287122D01*
X84392998Y-80230513D01*
X84434030Y-80271545D01*
X84823347Y-80531679D01*
X85255934Y-80710862D01*
X85339442Y-80727473D01*
X88242099Y-83630131D01*
X88308707Y-83711293D01*
X88460881Y-83836179D01*
X88632584Y-83977093D01*
X88832138Y-84083756D01*
X89002094Y-84174599D01*
X89403035Y-84296224D01*
X89715513Y-84327000D01*
X89715515Y-84327000D01*
X89820000Y-84337291D01*
X89924485Y-84327000D01*
X90948571Y-84327000D01*
X90915140Y-84451705D01*
X90892424Y-84797650D01*
X90937634Y-85141380D01*
X91049034Y-85469685D01*
X91158286Y-85674079D01*
X91435469Y-85784926D01*
X92480395Y-84740000D01*
X92466253Y-84725858D01*
X92645858Y-84546253D01*
X92660000Y-84560395D01*
X92674143Y-84546253D01*
X92853748Y-84725858D01*
X92839605Y-84740000D01*
X93884531Y-85784926D01*
X94161714Y-85674079D01*
X94315089Y-85363160D01*
X94404860Y-85028295D01*
X94423216Y-84748750D01*
X94426440Y-84750085D01*
X94938801Y-84852000D01*
X95461199Y-84852000D01*
X95973560Y-84750085D01*
X95975603Y-84749239D01*
X95972424Y-84797650D01*
X96017634Y-85141380D01*
X96129034Y-85469685D01*
X96238286Y-85674079D01*
X96515469Y-85784926D01*
X97560395Y-84740000D01*
X97546253Y-84725858D01*
X97725858Y-84546253D01*
X97740000Y-84560395D01*
X97754143Y-84546253D01*
X97887911Y-84680021D01*
X97801026Y-84886864D01*
X97754143Y-84933748D01*
X97740000Y-84919605D01*
X96695074Y-85964531D01*
X96805921Y-86241714D01*
X97116840Y-86395089D01*
X97133587Y-86399579D01*
X96453424Y-87715018D01*
X95474529Y-89287755D01*
X94373775Y-90777747D01*
X93996979Y-91211008D01*
X93984178Y-91072062D01*
X93769452Y-90347792D01*
X93417555Y-89679330D01*
X93390548Y-89638912D01*
X92900881Y-89278724D01*
X90379605Y-91800000D01*
X90393748Y-91814143D01*
X90214143Y-91993748D01*
X90200000Y-91979605D01*
X87678724Y-94500881D01*
X88038912Y-94990548D01*
X88702882Y-95350849D01*
X89214423Y-95509554D01*
X88901948Y-95730933D01*
X87310059Y-96678364D01*
X86391683Y-97130312D01*
X86350966Y-97010315D01*
X86241714Y-96805921D01*
X85964531Y-96695074D01*
X84919605Y-97740000D01*
X84933748Y-97754143D01*
X84891298Y-97796592D01*
X84674670Y-97882560D01*
X84546253Y-97754143D01*
X84560395Y-97740000D01*
X84546253Y-97725858D01*
X84725858Y-97546253D01*
X84740000Y-97560395D01*
X85784926Y-96515469D01*
X85674079Y-96238286D01*
X85363160Y-96084911D01*
X85028295Y-95995140D01*
X84748750Y-95976784D01*
X84750085Y-95973560D01*
X84852000Y-95461199D01*
X84852000Y-94938801D01*
X84750085Y-94426440D01*
X84749239Y-94424397D01*
X84797650Y-94427576D01*
X85141380Y-94382366D01*
X85469685Y-94270966D01*
X85674079Y-94161714D01*
X85784926Y-93884531D01*
X84740000Y-92839605D01*
X84725858Y-92853748D01*
X84546253Y-92674143D01*
X84560395Y-92660000D01*
X84919605Y-92660000D01*
X85964531Y-93704926D01*
X86241714Y-93594079D01*
X86395089Y-93283160D01*
X86484860Y-92948295D01*
X86494939Y-92794800D01*
X86630548Y-93252208D01*
X86982445Y-93920670D01*
X87009452Y-93961088D01*
X87499119Y-94321276D01*
X90020395Y-91800000D01*
X87499119Y-89278724D01*
X87009452Y-89638912D01*
X86649151Y-90302882D01*
X86425306Y-91024385D01*
X86346520Y-91775695D01*
X86364417Y-91969955D01*
X86350966Y-91930315D01*
X86241714Y-91725921D01*
X85964531Y-91615074D01*
X84919605Y-92660000D01*
X84560395Y-92660000D01*
X84546253Y-92645858D01*
X84725858Y-92466253D01*
X84740000Y-92480395D01*
X85784926Y-91435469D01*
X85674079Y-91158286D01*
X85363160Y-91004911D01*
X85028295Y-90915140D01*
X84682350Y-90892424D01*
X84338620Y-90937634D01*
X84327000Y-90941577D01*
X84327000Y-89099119D01*
X87678724Y-89099119D01*
X90200000Y-91620395D01*
X92721276Y-89099119D01*
X92361088Y-88609452D01*
X91697118Y-88249151D01*
X90975615Y-88025306D01*
X90224305Y-87946520D01*
X89472062Y-88015822D01*
X88747792Y-88230548D01*
X88079330Y-88582445D01*
X88038912Y-88609452D01*
X87678724Y-89099119D01*
X84327000Y-89099119D01*
X84327000Y-86975328D01*
X84337290Y-86870850D01*
X84327000Y-86766373D01*
X84327000Y-86766364D01*
X84296224Y-86453886D01*
X84174599Y-86052945D01*
X84127341Y-85964531D01*
X91615074Y-85964531D01*
X91725921Y-86241714D01*
X92036840Y-86395089D01*
X92371705Y-86484860D01*
X92717650Y-86507576D01*
X93061380Y-86462366D01*
X93389685Y-86350966D01*
X93594079Y-86241714D01*
X93704926Y-85964531D01*
X92660000Y-84919605D01*
X91615074Y-85964531D01*
X84127341Y-85964531D01*
X83977093Y-85683436D01*
X83711293Y-85359558D01*
X83630131Y-85292950D01*
X82803960Y-84466780D01*
X82645307Y-84083756D01*
X82385173Y-83694439D01*
X82054086Y-83363352D01*
X81664769Y-83103218D01*
X81232182Y-82924035D01*
X80772951Y-82832688D01*
X80703535Y-82832688D01*
X80721300Y-82761816D01*
X80735217Y-82479488D01*
X80693787Y-82199870D01*
X80598603Y-81933708D01*
X80531671Y-81808486D01*
X80287702Y-81736903D01*
X79474605Y-82550000D01*
X79488748Y-82564143D01*
X79309143Y-82743748D01*
X79295000Y-82729605D01*
X78481903Y-83542702D01*
X78553486Y-83786671D01*
X78612284Y-83814492D01*
X78432367Y-84083756D01*
X78253184Y-84516343D01*
X78161837Y-84975574D01*
X78161837Y-85443802D01*
X78253184Y-85903033D01*
X78432367Y-86335620D01*
X78692501Y-86724937D01*
X79023588Y-87056024D01*
X79412905Y-87316158D01*
X79795929Y-87474811D01*
X80073001Y-87751883D01*
X80073001Y-90948571D01*
X79948295Y-90915140D01*
X79602350Y-90892424D01*
X79258620Y-90937634D01*
X78930315Y-91049034D01*
X78725921Y-91158286D01*
X78615074Y-91435469D01*
X79660000Y-92480395D01*
X79674143Y-92466253D01*
X79853748Y-92645858D01*
X79839605Y-92660000D01*
X79853748Y-92674143D01*
X79674143Y-92853748D01*
X79660000Y-92839605D01*
X78615074Y-93884531D01*
X78725921Y-94161714D01*
X79036840Y-94315089D01*
X79371705Y-94404860D01*
X79651250Y-94423216D01*
X79649915Y-94426440D01*
X79548000Y-94938801D01*
X79548000Y-95461199D01*
X79649915Y-95973560D01*
X79650761Y-95975603D01*
X79602350Y-95972424D01*
X79258620Y-96017634D01*
X78930315Y-96129034D01*
X78725921Y-96238286D01*
X78615074Y-96515469D01*
X79660000Y-97560395D01*
X79674143Y-97546253D01*
X79853748Y-97725858D01*
X79839605Y-97740000D01*
X80884531Y-98784926D01*
X81161714Y-98674079D01*
X81315089Y-98363160D01*
X81404860Y-98028295D01*
X81423216Y-97748750D01*
X81426440Y-97750085D01*
X81938801Y-97852000D01*
X82461199Y-97852000D01*
X82973560Y-97750085D01*
X82975603Y-97749239D01*
X82972424Y-97797650D01*
X83017634Y-98141380D01*
X83115202Y-98428921D01*
X82155356Y-98723999D01*
X80668995Y-99054379D01*
X80704926Y-98964531D01*
X79660000Y-97919605D01*
X78615074Y-98964531D01*
X78725921Y-99241714D01*
X78901697Y-99328423D01*
X78512415Y-99382958D01*
X76663215Y-99493395D01*
X74811087Y-99456563D01*
X73514151Y-99327198D01*
X73674079Y-99241714D01*
X73784926Y-98964531D01*
X72740000Y-97919605D01*
X71695074Y-98964531D01*
X71728680Y-99048567D01*
X71144828Y-98942956D01*
X69353876Y-98469427D01*
X69276146Y-98442104D01*
X69315089Y-98363160D01*
X69404860Y-98028295D01*
X69423216Y-97748750D01*
X69426440Y-97750085D01*
X69938801Y-97852000D01*
X70461199Y-97852000D01*
X70973560Y-97750085D01*
X70975603Y-97749239D01*
X70972424Y-97797650D01*
X71017634Y-98141380D01*
X71129034Y-98469685D01*
X71238286Y-98674079D01*
X71515469Y-98784926D01*
X72560395Y-97740000D01*
X72919605Y-97740000D01*
X73964531Y-98784926D01*
X74241714Y-98674079D01*
X74395089Y-98363160D01*
X74484860Y-98028295D01*
X74500004Y-97797650D01*
X77892424Y-97797650D01*
X77937634Y-98141380D01*
X78049034Y-98469685D01*
X78158286Y-98674079D01*
X78435469Y-98784926D01*
X79480395Y-97740000D01*
X78435469Y-96695074D01*
X78158286Y-96805921D01*
X78004911Y-97116840D01*
X77915140Y-97451705D01*
X77892424Y-97797650D01*
X74500004Y-97797650D01*
X74507576Y-97682350D01*
X74462366Y-97338620D01*
X74350966Y-97010315D01*
X74241714Y-96805921D01*
X73964531Y-96695074D01*
X72919605Y-97740000D01*
X72560395Y-97740000D01*
X72546253Y-97725858D01*
X72725858Y-97546253D01*
X72740000Y-97560395D01*
X73784926Y-96515469D01*
X73674079Y-96238286D01*
X73363160Y-96084911D01*
X73028295Y-95995140D01*
X72748750Y-95976784D01*
X72750085Y-95973560D01*
X72852000Y-95461199D01*
X72852000Y-94938801D01*
X72750085Y-94426440D01*
X72749239Y-94424397D01*
X72797650Y-94427576D01*
X73141380Y-94382366D01*
X73469685Y-94270966D01*
X73674079Y-94161714D01*
X73784926Y-93884531D01*
X72740000Y-92839605D01*
X72725858Y-92853748D01*
X72546253Y-92674143D01*
X72560395Y-92660000D01*
X72919605Y-92660000D01*
X73964531Y-93704926D01*
X74241714Y-93594079D01*
X74395089Y-93283160D01*
X74484860Y-92948295D01*
X74500004Y-92717650D01*
X77892424Y-92717650D01*
X77937634Y-93061380D01*
X78049034Y-93389685D01*
X78158286Y-93594079D01*
X78435469Y-93704926D01*
X79480395Y-92660000D01*
X78435469Y-91615074D01*
X78158286Y-91725921D01*
X78004911Y-92036840D01*
X77915140Y-92371705D01*
X77892424Y-92717650D01*
X74500004Y-92717650D01*
X74507576Y-92602350D01*
X74462366Y-92258620D01*
X74350966Y-91930315D01*
X74241714Y-91725921D01*
X73964531Y-91615074D01*
X72919605Y-92660000D01*
X72560395Y-92660000D01*
X72546253Y-92645858D01*
X72725858Y-92466253D01*
X72740000Y-92480395D01*
X73784926Y-91435469D01*
X73674079Y-91158286D01*
X73363160Y-91004911D01*
X73028295Y-90915140D01*
X72682350Y-90892424D01*
X72338620Y-90937634D01*
X72327000Y-90941577D01*
X72327000Y-87751882D01*
X72604071Y-87474811D01*
X72987095Y-87316158D01*
X73376412Y-87056024D01*
X73707499Y-86724937D01*
X73967633Y-86335620D01*
X74146816Y-85903033D01*
X74238163Y-85443802D01*
X74238163Y-84977000D01*
X74534039Y-84977000D01*
X75002930Y-84883732D01*
X75444615Y-84700779D01*
X75842122Y-84435174D01*
X76180174Y-84097122D01*
X76445779Y-83699615D01*
X76628732Y-83257930D01*
X76722000Y-82789039D01*
X76722000Y-82620512D01*
X77854783Y-82620512D01*
X77896213Y-82900130D01*
X77991397Y-83166292D01*
X78058329Y-83291514D01*
X78302298Y-83363097D01*
X79115395Y-82550000D01*
X78302298Y-81736903D01*
X78058329Y-81808486D01*
X77937429Y-82063996D01*
X77868700Y-82338184D01*
X77854783Y-82620512D01*
X76722000Y-82620512D01*
X76722000Y-82310961D01*
X76628732Y-81842070D01*
X76510775Y-81557298D01*
X78481903Y-81557298D01*
X79295000Y-82370395D01*
X80108097Y-81557298D01*
X80036514Y-81313329D01*
X79781004Y-81192429D01*
X79506816Y-81123700D01*
X79224488Y-81109783D01*
X78944870Y-81151213D01*
X78678708Y-81246397D01*
X78553486Y-81313329D01*
X78481903Y-81557298D01*
X76510775Y-81557298D01*
X76445779Y-81400385D01*
X76180174Y-81002878D01*
X75842122Y-80664826D01*
X75444615Y-80399221D01*
X75002930Y-80216268D01*
X74534039Y-80123000D01*
X74055961Y-80123000D01*
X73587070Y-80216268D01*
X73145385Y-80399221D01*
X72747878Y-80664826D01*
X72409826Y-81002878D01*
X72144221Y-81400385D01*
X71961268Y-81842070D01*
X71868000Y-82310961D01*
X71868000Y-82789039D01*
X71876682Y-82832688D01*
X71627049Y-82832688D01*
X71167818Y-82924035D01*
X70735231Y-83103218D01*
X70655690Y-83156366D01*
X70667339Y-83128243D01*
X70758686Y-82669012D01*
X70758686Y-82200784D01*
X70667339Y-81741553D01*
X70488156Y-81308966D01*
X70228022Y-80919649D01*
X69896935Y-80588562D01*
X69876110Y-80574647D01*
X69956514Y-80531671D01*
X70028097Y-80287702D01*
X69215000Y-79474605D01*
X69200858Y-79488748D01*
X69021253Y-79309143D01*
X69035395Y-79295000D01*
X69394605Y-79295000D01*
X70207702Y-80108097D01*
X70451671Y-80036514D01*
X70572571Y-79781004D01*
X70584678Y-79732702D01*
X76656903Y-79732702D01*
X76728486Y-79976671D01*
X76983996Y-80097571D01*
X77258184Y-80166300D01*
X77540512Y-80180217D01*
X77820130Y-80138787D01*
X78086292Y-80043603D01*
X78211514Y-79976671D01*
X78283097Y-79732702D01*
X77470000Y-78919605D01*
X76656903Y-79732702D01*
X70584678Y-79732702D01*
X70641300Y-79506816D01*
X70655217Y-79224488D01*
X70613787Y-78944870D01*
X70565739Y-78810512D01*
X76029783Y-78810512D01*
X76071213Y-79090130D01*
X76166397Y-79356292D01*
X76233329Y-79481514D01*
X76477298Y-79553097D01*
X77290395Y-78740000D01*
X77649605Y-78740000D01*
X78462702Y-79553097D01*
X78706671Y-79481514D01*
X78827571Y-79226004D01*
X78896300Y-78951816D01*
X78910217Y-78669488D01*
X78868787Y-78389870D01*
X78773603Y-78123708D01*
X78706671Y-77998486D01*
X78462702Y-77926903D01*
X77649605Y-78740000D01*
X77290395Y-78740000D01*
X76477298Y-77926903D01*
X76233329Y-77998486D01*
X76112429Y-78253996D01*
X76043700Y-78528184D01*
X76029783Y-78810512D01*
X70565739Y-78810512D01*
X70518603Y-78678708D01*
X70451671Y-78553486D01*
X70207702Y-78481903D01*
X69394605Y-79295000D01*
X69035395Y-79295000D01*
X69021253Y-79280858D01*
X69200858Y-79101253D01*
X69215000Y-79115395D01*
X70028097Y-78302298D01*
X69956514Y-78058329D01*
X69701004Y-77937429D01*
X69426816Y-77868700D01*
X69144488Y-77854783D01*
X68864870Y-77896213D01*
X68775428Y-77928199D01*
X68739445Y-77747298D01*
X76656903Y-77747298D01*
X77470000Y-78560395D01*
X78283097Y-77747298D01*
X78211514Y-77503329D01*
X77956004Y-77382429D01*
X77681816Y-77313700D01*
X77399488Y-77299783D01*
X77119870Y-77341213D01*
X76853708Y-77436397D01*
X76728486Y-77503329D01*
X76656903Y-77747298D01*
X68739445Y-77747298D01*
X68736374Y-77731864D01*
X68557191Y-77299277D01*
X68432526Y-77112702D01*
X71576903Y-77112702D01*
X71648486Y-77356671D01*
X71903996Y-77477571D01*
X72178184Y-77546300D01*
X72460512Y-77560217D01*
X72740130Y-77518787D01*
X73006292Y-77423603D01*
X73131514Y-77356671D01*
X73203097Y-77112702D01*
X72390000Y-76299605D01*
X71576903Y-77112702D01*
X68432526Y-77112702D01*
X68297057Y-76909960D01*
X67965970Y-76578873D01*
X67576653Y-76318739D01*
X67289991Y-76200000D01*
X67571217Y-76083513D01*
X67667878Y-76180174D01*
X68065385Y-76445779D01*
X68507070Y-76628732D01*
X68975961Y-76722000D01*
X69454039Y-76722000D01*
X69922930Y-76628732D01*
X70364615Y-76445779D01*
X70762122Y-76180174D01*
X70960049Y-75982247D01*
X70949783Y-76190512D01*
X70991213Y-76470130D01*
X71086397Y-76736292D01*
X71153329Y-76861514D01*
X71397298Y-76933097D01*
X72210395Y-76120000D01*
X72569605Y-76120000D01*
X73382702Y-76933097D01*
X73626671Y-76861514D01*
X73747571Y-76606004D01*
X73816300Y-76331816D01*
X73830217Y-76049488D01*
X73811432Y-75922702D01*
X75386903Y-75922702D01*
X75458486Y-76166671D01*
X75713996Y-76287571D01*
X75988184Y-76356300D01*
X76270512Y-76370217D01*
X76550130Y-76328787D01*
X76816292Y-76233603D01*
X76941514Y-76166671D01*
X77013097Y-75922702D01*
X79196903Y-75922702D01*
X79268486Y-76166671D01*
X79523996Y-76287571D01*
X79798184Y-76356300D01*
X80080512Y-76370217D01*
X80360130Y-76328787D01*
X80626292Y-76233603D01*
X80751514Y-76166671D01*
X80823097Y-75922702D01*
X80010000Y-75109605D01*
X79196903Y-75922702D01*
X77013097Y-75922702D01*
X76200000Y-75109605D01*
X75386903Y-75922702D01*
X73811432Y-75922702D01*
X73788787Y-75769870D01*
X73693603Y-75503708D01*
X73626671Y-75378486D01*
X73382702Y-75306903D01*
X72569605Y-76120000D01*
X72210395Y-76120000D01*
X72196253Y-76105858D01*
X72375858Y-75926253D01*
X72390000Y-75940395D01*
X73203097Y-75127298D01*
X73165897Y-75000512D01*
X74759783Y-75000512D01*
X74801213Y-75280130D01*
X74896397Y-75546292D01*
X74963329Y-75671514D01*
X75207298Y-75743097D01*
X76020395Y-74930000D01*
X76379605Y-74930000D01*
X77192702Y-75743097D01*
X77436671Y-75671514D01*
X77557571Y-75416004D01*
X77626300Y-75141816D01*
X77633265Y-75000512D01*
X78569783Y-75000512D01*
X78611213Y-75280130D01*
X78706397Y-75546292D01*
X78773329Y-75671514D01*
X79017298Y-75743097D01*
X79830395Y-74930000D01*
X80189605Y-74930000D01*
X81002702Y-75743097D01*
X81246671Y-75671514D01*
X81367571Y-75416004D01*
X81436300Y-75141816D01*
X81450217Y-74859488D01*
X81408787Y-74579870D01*
X81313603Y-74313708D01*
X81246671Y-74188486D01*
X81002702Y-74116903D01*
X80189605Y-74930000D01*
X79830395Y-74930000D01*
X79017298Y-74116903D01*
X78773329Y-74188486D01*
X78652429Y-74443996D01*
X78583700Y-74718184D01*
X78569783Y-75000512D01*
X77633265Y-75000512D01*
X77640217Y-74859488D01*
X77598787Y-74579870D01*
X77503603Y-74313708D01*
X77436671Y-74188486D01*
X77192702Y-74116903D01*
X76379605Y-74930000D01*
X76020395Y-74930000D01*
X75207298Y-74116903D01*
X74963329Y-74188486D01*
X74842429Y-74443996D01*
X74773700Y-74718184D01*
X74759783Y-75000512D01*
X73165897Y-75000512D01*
X73131514Y-74883329D01*
X72876004Y-74762429D01*
X72601816Y-74693700D01*
X72319488Y-74679783D01*
X72039870Y-74721213D01*
X71773708Y-74816397D01*
X71648486Y-74883329D01*
X71576903Y-75127296D01*
X71520557Y-75070950D01*
X71548732Y-75002930D01*
X71642000Y-74534039D01*
X71642000Y-74055961D01*
X71618397Y-73937298D01*
X75386903Y-73937298D01*
X76200000Y-74750395D01*
X77013097Y-73937298D01*
X79196903Y-73937298D01*
X80010000Y-74750395D01*
X80823097Y-73937298D01*
X80751514Y-73693329D01*
X80496004Y-73572429D01*
X80221816Y-73503700D01*
X79939488Y-73489783D01*
X79659870Y-73531213D01*
X79393708Y-73626397D01*
X79268486Y-73693329D01*
X79196903Y-73937298D01*
X77013097Y-73937298D01*
X76941514Y-73693329D01*
X76686004Y-73572429D01*
X76411816Y-73503700D01*
X76129488Y-73489783D01*
X75849870Y-73531213D01*
X75583708Y-73626397D01*
X75458486Y-73693329D01*
X75386903Y-73937298D01*
X71618397Y-73937298D01*
X71548732Y-73587070D01*
X71454447Y-73359447D01*
X71682070Y-73453732D01*
X72150961Y-73547000D01*
X72629039Y-73547000D01*
X73097930Y-73453732D01*
X73539615Y-73270779D01*
X73937122Y-73005174D01*
X74275174Y-72667122D01*
X74540779Y-72269615D01*
X74712511Y-71855019D01*
X75050385Y-72080779D01*
X75492070Y-72263732D01*
X75960961Y-72357000D01*
X76439039Y-72357000D01*
X76907930Y-72263732D01*
X77349615Y-72080779D01*
X77747122Y-71815174D01*
X78085174Y-71477122D01*
X78105000Y-71447450D01*
X78124826Y-71477122D01*
X78462878Y-71815174D01*
X78860385Y-72080779D01*
X79302070Y-72263732D01*
X79770961Y-72357000D01*
X80249039Y-72357000D01*
X80717930Y-72263732D01*
X81159615Y-72080779D01*
X81557122Y-71815174D01*
X81895174Y-71477122D01*
X82032497Y-71271603D01*
X82171978Y-71480351D01*
%TA.AperFunction,Conductor*%
D20*
G36*
X82171978Y-71480351D02*
G01*
X82503065Y-71811438D01*
X82892382Y-72071572D01*
X83324969Y-72250755D01*
X83784200Y-72342102D01*
X84220383Y-72342102D01*
X84102943Y-72459542D01*
X83842809Y-72848859D01*
X83663626Y-73281446D01*
X83572279Y-73740677D01*
X83572279Y-74208905D01*
X83663626Y-74668136D01*
X83842809Y-75100723D01*
X84102943Y-75490040D01*
X84434030Y-75821127D01*
X84823347Y-76081261D01*
X85110009Y-76200000D01*
X84823347Y-76318739D01*
X84434030Y-76578873D01*
X84102943Y-76909960D01*
X84090651Y-76928355D01*
X84017122Y-76854826D01*
X83619615Y-76589221D01*
X83177930Y-76406268D01*
X82709039Y-76313000D01*
X82230961Y-76313000D01*
X81762070Y-76406268D01*
X81320385Y-76589221D01*
X80922878Y-76854826D01*
X80584826Y-77192878D01*
X80319221Y-77590385D01*
X80136268Y-78032070D01*
X80043000Y-78500961D01*
X80043000Y-78979039D01*
X80136268Y-79447930D01*
X80319221Y-79889615D01*
X80584826Y-80287122D01*
X80922878Y-80625174D01*
X81320385Y-80890779D01*
X81762070Y-81073732D01*
X82230961Y-81167000D01*
X82709039Y-81167000D01*
X83177930Y-81073732D01*
X83619615Y-80890779D01*
X84017122Y-80625174D01*
X84355174Y-80287122D01*
X84392998Y-80230513D01*
X84434030Y-80271545D01*
X84823347Y-80531679D01*
X85255934Y-80710862D01*
X85339442Y-80727473D01*
X88242099Y-83630131D01*
X88308707Y-83711293D01*
X88460881Y-83836179D01*
X88632584Y-83977093D01*
X88832138Y-84083756D01*
X89002094Y-84174599D01*
X89403035Y-84296224D01*
X89715513Y-84327000D01*
X89715515Y-84327000D01*
X89820000Y-84337291D01*
X89924485Y-84327000D01*
X90948571Y-84327000D01*
X90915140Y-84451705D01*
X90892424Y-84797650D01*
X90937634Y-85141380D01*
X91049034Y-85469685D01*
X91158286Y-85674079D01*
X91435469Y-85784926D01*
X92480395Y-84740000D01*
X92466253Y-84725858D01*
X92645858Y-84546253D01*
X92660000Y-84560395D01*
X92674143Y-84546253D01*
X92853748Y-84725858D01*
X92839605Y-84740000D01*
X93884531Y-85784926D01*
X94161714Y-85674079D01*
X94315089Y-85363160D01*
X94404860Y-85028295D01*
X94423216Y-84748750D01*
X94426440Y-84750085D01*
X94938801Y-84852000D01*
X95461199Y-84852000D01*
X95973560Y-84750085D01*
X95975603Y-84749239D01*
X95972424Y-84797650D01*
X96017634Y-85141380D01*
X96129034Y-85469685D01*
X96238286Y-85674079D01*
X96515469Y-85784926D01*
X97560395Y-84740000D01*
X97546253Y-84725858D01*
X97725858Y-84546253D01*
X97740000Y-84560395D01*
X97754143Y-84546253D01*
X97887911Y-84680021D01*
X97801026Y-84886864D01*
X97754143Y-84933748D01*
X97740000Y-84919605D01*
X96695074Y-85964531D01*
X96805921Y-86241714D01*
X97116840Y-86395089D01*
X97133587Y-86399579D01*
X96453424Y-87715018D01*
X95474529Y-89287755D01*
X94373775Y-90777747D01*
X93996979Y-91211008D01*
X93984178Y-91072062D01*
X93769452Y-90347792D01*
X93417555Y-89679330D01*
X93390548Y-89638912D01*
X92900881Y-89278724D01*
X90379605Y-91800000D01*
X90393748Y-91814143D01*
X90214143Y-91993748D01*
X90200000Y-91979605D01*
X87678724Y-94500881D01*
X88038912Y-94990548D01*
X88702882Y-95350849D01*
X89214423Y-95509554D01*
X88901948Y-95730933D01*
X87310059Y-96678364D01*
X86391683Y-97130312D01*
X86350966Y-97010315D01*
X86241714Y-96805921D01*
X85964531Y-96695074D01*
X84919605Y-97740000D01*
X84933748Y-97754143D01*
X84891298Y-97796592D01*
X84674670Y-97882560D01*
X84546253Y-97754143D01*
X84560395Y-97740000D01*
X84546253Y-97725858D01*
X84725858Y-97546253D01*
X84740000Y-97560395D01*
X85784926Y-96515469D01*
X85674079Y-96238286D01*
X85363160Y-96084911D01*
X85028295Y-95995140D01*
X84748750Y-95976784D01*
X84750085Y-95973560D01*
X84852000Y-95461199D01*
X84852000Y-94938801D01*
X84750085Y-94426440D01*
X84749239Y-94424397D01*
X84797650Y-94427576D01*
X85141380Y-94382366D01*
X85469685Y-94270966D01*
X85674079Y-94161714D01*
X85784926Y-93884531D01*
X84740000Y-92839605D01*
X84725858Y-92853748D01*
X84546253Y-92674143D01*
X84560395Y-92660000D01*
X84919605Y-92660000D01*
X85964531Y-93704926D01*
X86241714Y-93594079D01*
X86395089Y-93283160D01*
X86484860Y-92948295D01*
X86494939Y-92794800D01*
X86630548Y-93252208D01*
X86982445Y-93920670D01*
X87009452Y-93961088D01*
X87499119Y-94321276D01*
X90020395Y-91800000D01*
X87499119Y-89278724D01*
X87009452Y-89638912D01*
X86649151Y-90302882D01*
X86425306Y-91024385D01*
X86346520Y-91775695D01*
X86364417Y-91969955D01*
X86350966Y-91930315D01*
X86241714Y-91725921D01*
X85964531Y-91615074D01*
X84919605Y-92660000D01*
X84560395Y-92660000D01*
X84546253Y-92645858D01*
X84725858Y-92466253D01*
X84740000Y-92480395D01*
X85784926Y-91435469D01*
X85674079Y-91158286D01*
X85363160Y-91004911D01*
X85028295Y-90915140D01*
X84682350Y-90892424D01*
X84338620Y-90937634D01*
X84327000Y-90941577D01*
X84327000Y-89099119D01*
X87678724Y-89099119D01*
X90200000Y-91620395D01*
X92721276Y-89099119D01*
X92361088Y-88609452D01*
X91697118Y-88249151D01*
X90975615Y-88025306D01*
X90224305Y-87946520D01*
X89472062Y-88015822D01*
X88747792Y-88230548D01*
X88079330Y-88582445D01*
X88038912Y-88609452D01*
X87678724Y-89099119D01*
X84327000Y-89099119D01*
X84327000Y-86975328D01*
X84337290Y-86870850D01*
X84327000Y-86766373D01*
X84327000Y-86766364D01*
X84296224Y-86453886D01*
X84174599Y-86052945D01*
X84127341Y-85964531D01*
X91615074Y-85964531D01*
X91725921Y-86241714D01*
X92036840Y-86395089D01*
X92371705Y-86484860D01*
X92717650Y-86507576D01*
X93061380Y-86462366D01*
X93389685Y-86350966D01*
X93594079Y-86241714D01*
X93704926Y-85964531D01*
X92660000Y-84919605D01*
X91615074Y-85964531D01*
X84127341Y-85964531D01*
X83977093Y-85683436D01*
X83711293Y-85359558D01*
X83630131Y-85292950D01*
X82803960Y-84466780D01*
X82645307Y-84083756D01*
X82385173Y-83694439D01*
X82054086Y-83363352D01*
X81664769Y-83103218D01*
X81232182Y-82924035D01*
X80772951Y-82832688D01*
X80703535Y-82832688D01*
X80721300Y-82761816D01*
X80735217Y-82479488D01*
X80693787Y-82199870D01*
X80598603Y-81933708D01*
X80531671Y-81808486D01*
X80287702Y-81736903D01*
X79474605Y-82550000D01*
X79488748Y-82564143D01*
X79309143Y-82743748D01*
X79295000Y-82729605D01*
X78481903Y-83542702D01*
X78553486Y-83786671D01*
X78612284Y-83814492D01*
X78432367Y-84083756D01*
X78253184Y-84516343D01*
X78161837Y-84975574D01*
X78161837Y-85443802D01*
X78253184Y-85903033D01*
X78432367Y-86335620D01*
X78692501Y-86724937D01*
X79023588Y-87056024D01*
X79412905Y-87316158D01*
X79795929Y-87474811D01*
X80073001Y-87751883D01*
X80073001Y-90948571D01*
X79948295Y-90915140D01*
X79602350Y-90892424D01*
X79258620Y-90937634D01*
X78930315Y-91049034D01*
X78725921Y-91158286D01*
X78615074Y-91435469D01*
X79660000Y-92480395D01*
X79674143Y-92466253D01*
X79853748Y-92645858D01*
X79839605Y-92660000D01*
X79853748Y-92674143D01*
X79674143Y-92853748D01*
X79660000Y-92839605D01*
X78615074Y-93884531D01*
X78725921Y-94161714D01*
X79036840Y-94315089D01*
X79371705Y-94404860D01*
X79651250Y-94423216D01*
X79649915Y-94426440D01*
X79548000Y-94938801D01*
X79548000Y-95461199D01*
X79649915Y-95973560D01*
X79650761Y-95975603D01*
X79602350Y-95972424D01*
X79258620Y-96017634D01*
X78930315Y-96129034D01*
X78725921Y-96238286D01*
X78615074Y-96515469D01*
X79660000Y-97560395D01*
X79674143Y-97546253D01*
X79853748Y-97725858D01*
X79839605Y-97740000D01*
X80884531Y-98784926D01*
X81161714Y-98674079D01*
X81315089Y-98363160D01*
X81404860Y-98028295D01*
X81423216Y-97748750D01*
X81426440Y-97750085D01*
X81938801Y-97852000D01*
X82461199Y-97852000D01*
X82973560Y-97750085D01*
X82975603Y-97749239D01*
X82972424Y-97797650D01*
X83017634Y-98141380D01*
X83115202Y-98428921D01*
X82155356Y-98723999D01*
X80668995Y-99054379D01*
X80704926Y-98964531D01*
X79660000Y-97919605D01*
X78615074Y-98964531D01*
X78725921Y-99241714D01*
X78901697Y-99328423D01*
X78512415Y-99382958D01*
X76663215Y-99493395D01*
X74811087Y-99456563D01*
X73514151Y-99327198D01*
X73674079Y-99241714D01*
X73784926Y-98964531D01*
X72740000Y-97919605D01*
X71695074Y-98964531D01*
X71728680Y-99048567D01*
X71144828Y-98942956D01*
X69353876Y-98469427D01*
X69276146Y-98442104D01*
X69315089Y-98363160D01*
X69404860Y-98028295D01*
X69423216Y-97748750D01*
X69426440Y-97750085D01*
X69938801Y-97852000D01*
X70461199Y-97852000D01*
X70973560Y-97750085D01*
X70975603Y-97749239D01*
X70972424Y-97797650D01*
X71017634Y-98141380D01*
X71129034Y-98469685D01*
X71238286Y-98674079D01*
X71515469Y-98784926D01*
X72560395Y-97740000D01*
X72919605Y-97740000D01*
X73964531Y-98784926D01*
X74241714Y-98674079D01*
X74395089Y-98363160D01*
X74484860Y-98028295D01*
X74500004Y-97797650D01*
X77892424Y-97797650D01*
X77937634Y-98141380D01*
X78049034Y-98469685D01*
X78158286Y-98674079D01*
X78435469Y-98784926D01*
X79480395Y-97740000D01*
X78435469Y-96695074D01*
X78158286Y-96805921D01*
X78004911Y-97116840D01*
X77915140Y-97451705D01*
X77892424Y-97797650D01*
X74500004Y-97797650D01*
X74507576Y-97682350D01*
X74462366Y-97338620D01*
X74350966Y-97010315D01*
X74241714Y-96805921D01*
X73964531Y-96695074D01*
X72919605Y-97740000D01*
X72560395Y-97740000D01*
X72546253Y-97725858D01*
X72725858Y-97546253D01*
X72740000Y-97560395D01*
X73784926Y-96515469D01*
X73674079Y-96238286D01*
X73363160Y-96084911D01*
X73028295Y-95995140D01*
X72748750Y-95976784D01*
X72750085Y-95973560D01*
X72852000Y-95461199D01*
X72852000Y-94938801D01*
X72750085Y-94426440D01*
X72749239Y-94424397D01*
X72797650Y-94427576D01*
X73141380Y-94382366D01*
X73469685Y-94270966D01*
X73674079Y-94161714D01*
X73784926Y-93884531D01*
X72740000Y-92839605D01*
X72725858Y-92853748D01*
X72546253Y-92674143D01*
X72560395Y-92660000D01*
X72919605Y-92660000D01*
X73964531Y-93704926D01*
X74241714Y-93594079D01*
X74395089Y-93283160D01*
X74484860Y-92948295D01*
X74500004Y-92717650D01*
X77892424Y-92717650D01*
X77937634Y-93061380D01*
X78049034Y-93389685D01*
X78158286Y-93594079D01*
X78435469Y-93704926D01*
X79480395Y-92660000D01*
X78435469Y-91615074D01*
X78158286Y-91725921D01*
X78004911Y-92036840D01*
X77915140Y-92371705D01*
X77892424Y-92717650D01*
X74500004Y-92717650D01*
X74507576Y-92602350D01*
X74462366Y-92258620D01*
X74350966Y-91930315D01*
X74241714Y-91725921D01*
X73964531Y-91615074D01*
X72919605Y-92660000D01*
X72560395Y-92660000D01*
X72546253Y-92645858D01*
X72725858Y-92466253D01*
X72740000Y-92480395D01*
X73784926Y-91435469D01*
X73674079Y-91158286D01*
X73363160Y-91004911D01*
X73028295Y-90915140D01*
X72682350Y-90892424D01*
X72338620Y-90937634D01*
X72327000Y-90941577D01*
X72327000Y-87751882D01*
X72604071Y-87474811D01*
X72987095Y-87316158D01*
X73376412Y-87056024D01*
X73707499Y-86724937D01*
X73967633Y-86335620D01*
X74146816Y-85903033D01*
X74238163Y-85443802D01*
X74238163Y-84977000D01*
X74534039Y-84977000D01*
X75002930Y-84883732D01*
X75444615Y-84700779D01*
X75842122Y-84435174D01*
X76180174Y-84097122D01*
X76445779Y-83699615D01*
X76628732Y-83257930D01*
X76722000Y-82789039D01*
X76722000Y-82620512D01*
X77854783Y-82620512D01*
X77896213Y-82900130D01*
X77991397Y-83166292D01*
X78058329Y-83291514D01*
X78302298Y-83363097D01*
X79115395Y-82550000D01*
X78302298Y-81736903D01*
X78058329Y-81808486D01*
X77937429Y-82063996D01*
X77868700Y-82338184D01*
X77854783Y-82620512D01*
X76722000Y-82620512D01*
X76722000Y-82310961D01*
X76628732Y-81842070D01*
X76510775Y-81557298D01*
X78481903Y-81557298D01*
X79295000Y-82370395D01*
X80108097Y-81557298D01*
X80036514Y-81313329D01*
X79781004Y-81192429D01*
X79506816Y-81123700D01*
X79224488Y-81109783D01*
X78944870Y-81151213D01*
X78678708Y-81246397D01*
X78553486Y-81313329D01*
X78481903Y-81557298D01*
X76510775Y-81557298D01*
X76445779Y-81400385D01*
X76180174Y-81002878D01*
X75842122Y-80664826D01*
X75444615Y-80399221D01*
X75002930Y-80216268D01*
X74534039Y-80123000D01*
X74055961Y-80123000D01*
X73587070Y-80216268D01*
X73145385Y-80399221D01*
X72747878Y-80664826D01*
X72409826Y-81002878D01*
X72144221Y-81400385D01*
X71961268Y-81842070D01*
X71868000Y-82310961D01*
X71868000Y-82789039D01*
X71876682Y-82832688D01*
X71627049Y-82832688D01*
X71167818Y-82924035D01*
X70735231Y-83103218D01*
X70655690Y-83156366D01*
X70667339Y-83128243D01*
X70758686Y-82669012D01*
X70758686Y-82200784D01*
X70667339Y-81741553D01*
X70488156Y-81308966D01*
X70228022Y-80919649D01*
X69896935Y-80588562D01*
X69876110Y-80574647D01*
X69956514Y-80531671D01*
X70028097Y-80287702D01*
X69215000Y-79474605D01*
X69200858Y-79488748D01*
X69021253Y-79309143D01*
X69035395Y-79295000D01*
X69394605Y-79295000D01*
X70207702Y-80108097D01*
X70451671Y-80036514D01*
X70572571Y-79781004D01*
X70584678Y-79732702D01*
X76656903Y-79732702D01*
X76728486Y-79976671D01*
X76983996Y-80097571D01*
X77258184Y-80166300D01*
X77540512Y-80180217D01*
X77820130Y-80138787D01*
X78086292Y-80043603D01*
X78211514Y-79976671D01*
X78283097Y-79732702D01*
X77470000Y-78919605D01*
X76656903Y-79732702D01*
X70584678Y-79732702D01*
X70641300Y-79506816D01*
X70655217Y-79224488D01*
X70613787Y-78944870D01*
X70565739Y-78810512D01*
X76029783Y-78810512D01*
X76071213Y-79090130D01*
X76166397Y-79356292D01*
X76233329Y-79481514D01*
X76477298Y-79553097D01*
X77290395Y-78740000D01*
X77649605Y-78740000D01*
X78462702Y-79553097D01*
X78706671Y-79481514D01*
X78827571Y-79226004D01*
X78896300Y-78951816D01*
X78910217Y-78669488D01*
X78868787Y-78389870D01*
X78773603Y-78123708D01*
X78706671Y-77998486D01*
X78462702Y-77926903D01*
X77649605Y-78740000D01*
X77290395Y-78740000D01*
X76477298Y-77926903D01*
X76233329Y-77998486D01*
X76112429Y-78253996D01*
X76043700Y-78528184D01*
X76029783Y-78810512D01*
X70565739Y-78810512D01*
X70518603Y-78678708D01*
X70451671Y-78553486D01*
X70207702Y-78481903D01*
X69394605Y-79295000D01*
X69035395Y-79295000D01*
X69021253Y-79280858D01*
X69200858Y-79101253D01*
X69215000Y-79115395D01*
X70028097Y-78302298D01*
X69956514Y-78058329D01*
X69701004Y-77937429D01*
X69426816Y-77868700D01*
X69144488Y-77854783D01*
X68864870Y-77896213D01*
X68775428Y-77928199D01*
X68739445Y-77747298D01*
X76656903Y-77747298D01*
X77470000Y-78560395D01*
X78283097Y-77747298D01*
X78211514Y-77503329D01*
X77956004Y-77382429D01*
X77681816Y-77313700D01*
X77399488Y-77299783D01*
X77119870Y-77341213D01*
X76853708Y-77436397D01*
X76728486Y-77503329D01*
X76656903Y-77747298D01*
X68739445Y-77747298D01*
X68736374Y-77731864D01*
X68557191Y-77299277D01*
X68432526Y-77112702D01*
X71576903Y-77112702D01*
X71648486Y-77356671D01*
X71903996Y-77477571D01*
X72178184Y-77546300D01*
X72460512Y-77560217D01*
X72740130Y-77518787D01*
X73006292Y-77423603D01*
X73131514Y-77356671D01*
X73203097Y-77112702D01*
X72390000Y-76299605D01*
X71576903Y-77112702D01*
X68432526Y-77112702D01*
X68297057Y-76909960D01*
X67965970Y-76578873D01*
X67576653Y-76318739D01*
X67289991Y-76200000D01*
X67571217Y-76083513D01*
X67667878Y-76180174D01*
X68065385Y-76445779D01*
X68507070Y-76628732D01*
X68975961Y-76722000D01*
X69454039Y-76722000D01*
X69922930Y-76628732D01*
X70364615Y-76445779D01*
X70762122Y-76180174D01*
X70960049Y-75982247D01*
X70949783Y-76190512D01*
X70991213Y-76470130D01*
X71086397Y-76736292D01*
X71153329Y-76861514D01*
X71397298Y-76933097D01*
X72210395Y-76120000D01*
X72569605Y-76120000D01*
X73382702Y-76933097D01*
X73626671Y-76861514D01*
X73747571Y-76606004D01*
X73816300Y-76331816D01*
X73830217Y-76049488D01*
X73811432Y-75922702D01*
X75386903Y-75922702D01*
X75458486Y-76166671D01*
X75713996Y-76287571D01*
X75988184Y-76356300D01*
X76270512Y-76370217D01*
X76550130Y-76328787D01*
X76816292Y-76233603D01*
X76941514Y-76166671D01*
X77013097Y-75922702D01*
X79196903Y-75922702D01*
X79268486Y-76166671D01*
X79523996Y-76287571D01*
X79798184Y-76356300D01*
X80080512Y-76370217D01*
X80360130Y-76328787D01*
X80626292Y-76233603D01*
X80751514Y-76166671D01*
X80823097Y-75922702D01*
X80010000Y-75109605D01*
X79196903Y-75922702D01*
X77013097Y-75922702D01*
X76200000Y-75109605D01*
X75386903Y-75922702D01*
X73811432Y-75922702D01*
X73788787Y-75769870D01*
X73693603Y-75503708D01*
X73626671Y-75378486D01*
X73382702Y-75306903D01*
X72569605Y-76120000D01*
X72210395Y-76120000D01*
X72196253Y-76105858D01*
X72375858Y-75926253D01*
X72390000Y-75940395D01*
X73203097Y-75127298D01*
X73165897Y-75000512D01*
X74759783Y-75000512D01*
X74801213Y-75280130D01*
X74896397Y-75546292D01*
X74963329Y-75671514D01*
X75207298Y-75743097D01*
X76020395Y-74930000D01*
X76379605Y-74930000D01*
X77192702Y-75743097D01*
X77436671Y-75671514D01*
X77557571Y-75416004D01*
X77626300Y-75141816D01*
X77633265Y-75000512D01*
X78569783Y-75000512D01*
X78611213Y-75280130D01*
X78706397Y-75546292D01*
X78773329Y-75671514D01*
X79017298Y-75743097D01*
X79830395Y-74930000D01*
X80189605Y-74930000D01*
X81002702Y-75743097D01*
X81246671Y-75671514D01*
X81367571Y-75416004D01*
X81436300Y-75141816D01*
X81450217Y-74859488D01*
X81408787Y-74579870D01*
X81313603Y-74313708D01*
X81246671Y-74188486D01*
X81002702Y-74116903D01*
X80189605Y-74930000D01*
X79830395Y-74930000D01*
X79017298Y-74116903D01*
X78773329Y-74188486D01*
X78652429Y-74443996D01*
X78583700Y-74718184D01*
X78569783Y-75000512D01*
X77633265Y-75000512D01*
X77640217Y-74859488D01*
X77598787Y-74579870D01*
X77503603Y-74313708D01*
X77436671Y-74188486D01*
X77192702Y-74116903D01*
X76379605Y-74930000D01*
X76020395Y-74930000D01*
X75207298Y-74116903D01*
X74963329Y-74188486D01*
X74842429Y-74443996D01*
X74773700Y-74718184D01*
X74759783Y-75000512D01*
X73165897Y-75000512D01*
X73131514Y-74883329D01*
X72876004Y-74762429D01*
X72601816Y-74693700D01*
X72319488Y-74679783D01*
X72039870Y-74721213D01*
X71773708Y-74816397D01*
X71648486Y-74883329D01*
X71576903Y-75127296D01*
X71520557Y-75070950D01*
X71548732Y-75002930D01*
X71642000Y-74534039D01*
X71642000Y-74055961D01*
X71618397Y-73937298D01*
X75386903Y-73937298D01*
X76200000Y-74750395D01*
X77013097Y-73937298D01*
X79196903Y-73937298D01*
X80010000Y-74750395D01*
X80823097Y-73937298D01*
X80751514Y-73693329D01*
X80496004Y-73572429D01*
X80221816Y-73503700D01*
X79939488Y-73489783D01*
X79659870Y-73531213D01*
X79393708Y-73626397D01*
X79268486Y-73693329D01*
X79196903Y-73937298D01*
X77013097Y-73937298D01*
X76941514Y-73693329D01*
X76686004Y-73572429D01*
X76411816Y-73503700D01*
X76129488Y-73489783D01*
X75849870Y-73531213D01*
X75583708Y-73626397D01*
X75458486Y-73693329D01*
X75386903Y-73937298D01*
X71618397Y-73937298D01*
X71548732Y-73587070D01*
X71454447Y-73359447D01*
X71682070Y-73453732D01*
X72150961Y-73547000D01*
X72629039Y-73547000D01*
X73097930Y-73453732D01*
X73539615Y-73270779D01*
X73937122Y-73005174D01*
X74275174Y-72667122D01*
X74540779Y-72269615D01*
X74712511Y-71855019D01*
X75050385Y-72080779D01*
X75492070Y-72263732D01*
X75960961Y-72357000D01*
X76439039Y-72357000D01*
X76907930Y-72263732D01*
X77349615Y-72080779D01*
X77747122Y-71815174D01*
X78085174Y-71477122D01*
X78105000Y-71447450D01*
X78124826Y-71477122D01*
X78462878Y-71815174D01*
X78860385Y-72080779D01*
X79302070Y-72263732D01*
X79770961Y-72357000D01*
X80249039Y-72357000D01*
X80717930Y-72263732D01*
X81159615Y-72080779D01*
X81557122Y-71815174D01*
X81895174Y-71477122D01*
X82032497Y-71271603D01*
X82171978Y-71480351D01*
G37*
%TD.AperFunction*%
D19*
X57563000Y-62760515D02*
X57552709Y-62865000D01*
X57593777Y-63281965D01*
X57715401Y-63682905D01*
X57839109Y-63914347D01*
X57912908Y-64052415D01*
X58178708Y-64376293D01*
X58259870Y-64442901D01*
X59980131Y-66163163D01*
X59929039Y-66153000D01*
X59450961Y-66153000D01*
X58982070Y-66246268D01*
X58540385Y-66429221D01*
X58142878Y-66694826D01*
X57804826Y-67032878D01*
X57539221Y-67430385D01*
X57356268Y-67872070D01*
X57263000Y-68340961D01*
X57263000Y-68819039D01*
X57356268Y-69287930D01*
X57539221Y-69729615D01*
X57804826Y-70127122D01*
X58142878Y-70465174D01*
X58540385Y-70730779D01*
X58982070Y-70913732D01*
X59450961Y-71007000D01*
X59929039Y-71007000D01*
X60397930Y-70913732D01*
X60839615Y-70730779D01*
X61237122Y-70465174D01*
X61418256Y-70284040D01*
X61418257Y-75415249D01*
X61407965Y-75519744D01*
X61449033Y-75936709D01*
X61570657Y-76337649D01*
X61738937Y-76652479D01*
X61768164Y-76707159D01*
X62033964Y-77031037D01*
X62115126Y-77097645D01*
X62460498Y-77443017D01*
X62460498Y-77471605D01*
X62428402Y-77531652D01*
X62301750Y-77405000D01*
X62075000Y-77401928D01*
X61950518Y-77414188D01*
X61830820Y-77450498D01*
X61720506Y-77509463D01*
X61623815Y-77588815D01*
X61544463Y-77685506D01*
X61485498Y-77795820D01*
X61449188Y-77915518D01*
X61436928Y-78040000D01*
X61440000Y-78454250D01*
X61598750Y-78613000D01*
X62265128Y-78613000D01*
X62265128Y-78867000D01*
X61598750Y-78867000D01*
X61440000Y-79025750D01*
X61436928Y-79440000D01*
X61449188Y-79564482D01*
X61485498Y-79684180D01*
X61544463Y-79794494D01*
X61623815Y-79891185D01*
X61720506Y-79970537D01*
X61830820Y-80029502D01*
X61950518Y-80065812D01*
X62075000Y-80078072D01*
X62301750Y-80075000D01*
X62428402Y-79948348D01*
X62460498Y-80008395D01*
X62460498Y-80075000D01*
X62496099Y-80075000D01*
X62582786Y-80237180D01*
X62817194Y-80522806D01*
X63102820Y-80757214D01*
X63428689Y-80931395D01*
X63782278Y-81038655D01*
X64149998Y-81074872D01*
X64675002Y-81074872D01*
X65042722Y-81038655D01*
X65396311Y-80931395D01*
X65722180Y-80757214D01*
X65774508Y-80714270D01*
X66216607Y-80802209D01*
X66652790Y-80802209D01*
X66535350Y-80919649D01*
X66275216Y-81308966D01*
X66096033Y-81741553D01*
X66004686Y-82200784D01*
X66004686Y-82669012D01*
X66096033Y-83128243D01*
X66275216Y-83560830D01*
X66535350Y-83950147D01*
X66866437Y-84281234D01*
X67255754Y-84541368D01*
X67688341Y-84720551D01*
X68147572Y-84811898D01*
X68615800Y-84811898D01*
X69075031Y-84720551D01*
X69507618Y-84541368D01*
X69549308Y-84513512D01*
X68769869Y-85292950D01*
X68688708Y-85359558D01*
X68622102Y-85440718D01*
X68622101Y-85440719D01*
X68422908Y-85683436D01*
X68225401Y-86052946D01*
X68103777Y-86453886D01*
X68062709Y-86870851D01*
X68073001Y-86975346D01*
X68073001Y-90948571D01*
X67948295Y-90915140D01*
X67602350Y-90892424D01*
X67258620Y-90937634D01*
X66930315Y-91049034D01*
X66725921Y-91158286D01*
X66615074Y-91435469D01*
X67660000Y-92480395D01*
X67674143Y-92466253D01*
X67853748Y-92645858D01*
X67839605Y-92660000D01*
X67853748Y-92674143D01*
X67674143Y-92853748D01*
X67660000Y-92839605D01*
X66615074Y-93884531D01*
X66725921Y-94161714D01*
X67036840Y-94315089D01*
X67371705Y-94404860D01*
X67651250Y-94423216D01*
X67649915Y-94426440D01*
X67548000Y-94938801D01*
X67548000Y-95461199D01*
X67649915Y-95973560D01*
X67650761Y-95975603D01*
X67602350Y-95972424D01*
X67258620Y-96017634D01*
X66930315Y-96129034D01*
X66725921Y-96238286D01*
X66615074Y-96515469D01*
X67660000Y-97560395D01*
X67674143Y-97546253D01*
X67853748Y-97725858D01*
X67839605Y-97740000D01*
X67853748Y-97754143D01*
X67714663Y-97893227D01*
X67606208Y-97855104D01*
X67536121Y-97824011D01*
X67466253Y-97754143D01*
X67480395Y-97740000D01*
X66435469Y-96695074D01*
X66158286Y-96805921D01*
X66004911Y-97116840D01*
X65998235Y-97141741D01*
X65912873Y-97103871D01*
X64284576Y-96220477D01*
X63187746Y-95507152D01*
X63652208Y-95369452D01*
X64320670Y-95017555D01*
X64361088Y-94990548D01*
X64721276Y-94500881D01*
X62200000Y-91979605D01*
X62185858Y-91993748D01*
X62006253Y-91814143D01*
X62020395Y-91800000D01*
X62379605Y-91800000D01*
X64900881Y-94321276D01*
X65390548Y-93961088D01*
X65750849Y-93297118D01*
X65903798Y-92804128D01*
X65937634Y-93061380D01*
X66049034Y-93389685D01*
X66158286Y-93594079D01*
X66435469Y-93704926D01*
X67480395Y-92660000D01*
X66435469Y-91615074D01*
X66158286Y-91725921D01*
X66038288Y-91969179D01*
X66053480Y-91824305D01*
X65984178Y-91072062D01*
X65769452Y-90347792D01*
X65417555Y-89679330D01*
X65390548Y-89638912D01*
X64900881Y-89278724D01*
X62379605Y-91800000D01*
X62020395Y-91800000D01*
X59499119Y-89278724D01*
X59009452Y-89638912D01*
X58649151Y-90302882D01*
X58425306Y-91024385D01*
X58404768Y-91220232D01*
X57461033Y-90043696D01*
X56819649Y-89099119D01*
X59678724Y-89099119D01*
X62200000Y-91620395D01*
X64721276Y-89099119D01*
X64361088Y-88609452D01*
X63697118Y-88249151D01*
X62975615Y-88025306D01*
X62224305Y-87946520D01*
X61472062Y-88015822D01*
X60747792Y-88230548D01*
X60079330Y-88582445D01*
X60038912Y-88609452D01*
X59678724Y-89099119D01*
X56819649Y-89099119D01*
X56420386Y-88511119D01*
X55504792Y-86900708D01*
X54720040Y-85222644D01*
X54071091Y-83487535D01*
X53562048Y-81706353D01*
X53196129Y-79890357D01*
X52975649Y-78051030D01*
X52902000Y-76200000D01*
X52975649Y-74348970D01*
X53196129Y-72509643D01*
X53562048Y-70693647D01*
X53879689Y-69582197D01*
X53948486Y-69816671D01*
X54203996Y-69937571D01*
X54478184Y-70006300D01*
X54760512Y-70020217D01*
X55040130Y-69978787D01*
X55306292Y-69883603D01*
X55431514Y-69816671D01*
X55503097Y-69572702D01*
X54690000Y-68759605D01*
X54675858Y-68773748D01*
X54496253Y-68594143D01*
X54510395Y-68580000D01*
X54869605Y-68580000D01*
X55682702Y-69393097D01*
X55926671Y-69321514D01*
X56047571Y-69066004D01*
X56116300Y-68791816D01*
X56130217Y-68509488D01*
X56088787Y-68229870D01*
X55993603Y-67963708D01*
X55926671Y-67838486D01*
X55682702Y-67766903D01*
X54869605Y-68580000D01*
X54510395Y-68580000D01*
X54496253Y-68565858D01*
X54675858Y-68386253D01*
X54690000Y-68400395D01*
X55503097Y-67587298D01*
X55431514Y-67343329D01*
X55176004Y-67222429D01*
X54901816Y-67153700D01*
X54734949Y-67145475D01*
X55504792Y-65499292D01*
X56420386Y-63888881D01*
X57461033Y-62356304D01*
X57563000Y-62229184D01*
X57563000Y-62760515D01*
%TA.AperFunction,Conductor*%
D20*
G36*
X57563000Y-62760515D02*
G01*
X57552709Y-62865000D01*
X57593777Y-63281965D01*
X57715401Y-63682905D01*
X57839109Y-63914347D01*
X57912908Y-64052415D01*
X58178708Y-64376293D01*
X58259870Y-64442901D01*
X59980131Y-66163163D01*
X59929039Y-66153000D01*
X59450961Y-66153000D01*
X58982070Y-66246268D01*
X58540385Y-66429221D01*
X58142878Y-66694826D01*
X57804826Y-67032878D01*
X57539221Y-67430385D01*
X57356268Y-67872070D01*
X57263000Y-68340961D01*
X57263000Y-68819039D01*
X57356268Y-69287930D01*
X57539221Y-69729615D01*
X57804826Y-70127122D01*
X58142878Y-70465174D01*
X58540385Y-70730779D01*
X58982070Y-70913732D01*
X59450961Y-71007000D01*
X59929039Y-71007000D01*
X60397930Y-70913732D01*
X60839615Y-70730779D01*
X61237122Y-70465174D01*
X61418256Y-70284040D01*
X61418257Y-75415249D01*
X61407965Y-75519744D01*
X61449033Y-75936709D01*
X61570657Y-76337649D01*
X61738937Y-76652479D01*
X61768164Y-76707159D01*
X62033964Y-77031037D01*
X62115126Y-77097645D01*
X62460498Y-77443017D01*
X62460498Y-77471605D01*
X62428402Y-77531652D01*
X62301750Y-77405000D01*
X62075000Y-77401928D01*
X61950518Y-77414188D01*
X61830820Y-77450498D01*
X61720506Y-77509463D01*
X61623815Y-77588815D01*
X61544463Y-77685506D01*
X61485498Y-77795820D01*
X61449188Y-77915518D01*
X61436928Y-78040000D01*
X61440000Y-78454250D01*
X61598750Y-78613000D01*
X62265128Y-78613000D01*
X62265128Y-78867000D01*
X61598750Y-78867000D01*
X61440000Y-79025750D01*
X61436928Y-79440000D01*
X61449188Y-79564482D01*
X61485498Y-79684180D01*
X61544463Y-79794494D01*
X61623815Y-79891185D01*
X61720506Y-79970537D01*
X61830820Y-80029502D01*
X61950518Y-80065812D01*
X62075000Y-80078072D01*
X62301750Y-80075000D01*
X62428402Y-79948348D01*
X62460498Y-80008395D01*
X62460498Y-80075000D01*
X62496099Y-80075000D01*
X62582786Y-80237180D01*
X62817194Y-80522806D01*
X63102820Y-80757214D01*
X63428689Y-80931395D01*
X63782278Y-81038655D01*
X64149998Y-81074872D01*
X64675002Y-81074872D01*
X65042722Y-81038655D01*
X65396311Y-80931395D01*
X65722180Y-80757214D01*
X65774508Y-80714270D01*
X66216607Y-80802209D01*
X66652790Y-80802209D01*
X66535350Y-80919649D01*
X66275216Y-81308966D01*
X66096033Y-81741553D01*
X66004686Y-82200784D01*
X66004686Y-82669012D01*
X66096033Y-83128243D01*
X66275216Y-83560830D01*
X66535350Y-83950147D01*
X66866437Y-84281234D01*
X67255754Y-84541368D01*
X67688341Y-84720551D01*
X68147572Y-84811898D01*
X68615800Y-84811898D01*
X69075031Y-84720551D01*
X69507618Y-84541368D01*
X69549308Y-84513512D01*
X68769869Y-85292950D01*
X68688708Y-85359558D01*
X68622102Y-85440718D01*
X68622101Y-85440719D01*
X68422908Y-85683436D01*
X68225401Y-86052946D01*
X68103777Y-86453886D01*
X68062709Y-86870851D01*
X68073001Y-86975346D01*
X68073001Y-90948571D01*
X67948295Y-90915140D01*
X67602350Y-90892424D01*
X67258620Y-90937634D01*
X66930315Y-91049034D01*
X66725921Y-91158286D01*
X66615074Y-91435469D01*
X67660000Y-92480395D01*
X67674143Y-92466253D01*
X67853748Y-92645858D01*
X67839605Y-92660000D01*
X67853748Y-92674143D01*
X67674143Y-92853748D01*
X67660000Y-92839605D01*
X66615074Y-93884531D01*
X66725921Y-94161714D01*
X67036840Y-94315089D01*
X67371705Y-94404860D01*
X67651250Y-94423216D01*
X67649915Y-94426440D01*
X67548000Y-94938801D01*
X67548000Y-95461199D01*
X67649915Y-95973560D01*
X67650761Y-95975603D01*
X67602350Y-95972424D01*
X67258620Y-96017634D01*
X66930315Y-96129034D01*
X66725921Y-96238286D01*
X66615074Y-96515469D01*
X67660000Y-97560395D01*
X67674143Y-97546253D01*
X67853748Y-97725858D01*
X67839605Y-97740000D01*
X67853748Y-97754143D01*
X67714663Y-97893227D01*
X67606208Y-97855104D01*
X67536121Y-97824011D01*
X67466253Y-97754143D01*
X67480395Y-97740000D01*
X66435469Y-96695074D01*
X66158286Y-96805921D01*
X66004911Y-97116840D01*
X65998235Y-97141741D01*
X65912873Y-97103871D01*
X64284576Y-96220477D01*
X63187746Y-95507152D01*
X63652208Y-95369452D01*
X64320670Y-95017555D01*
X64361088Y-94990548D01*
X64721276Y-94500881D01*
X62200000Y-91979605D01*
X62185858Y-91993748D01*
X62006253Y-91814143D01*
X62020395Y-91800000D01*
X62379605Y-91800000D01*
X64900881Y-94321276D01*
X65390548Y-93961088D01*
X65750849Y-93297118D01*
X65903798Y-92804128D01*
X65937634Y-93061380D01*
X66049034Y-93389685D01*
X66158286Y-93594079D01*
X66435469Y-93704926D01*
X67480395Y-92660000D01*
X66435469Y-91615074D01*
X66158286Y-91725921D01*
X66038288Y-91969179D01*
X66053480Y-91824305D01*
X65984178Y-91072062D01*
X65769452Y-90347792D01*
X65417555Y-89679330D01*
X65390548Y-89638912D01*
X64900881Y-89278724D01*
X62379605Y-91800000D01*
X62020395Y-91800000D01*
X59499119Y-89278724D01*
X59009452Y-89638912D01*
X58649151Y-90302882D01*
X58425306Y-91024385D01*
X58404768Y-91220232D01*
X57461033Y-90043696D01*
X56819649Y-89099119D01*
X59678724Y-89099119D01*
X62200000Y-91620395D01*
X64721276Y-89099119D01*
X64361088Y-88609452D01*
X63697118Y-88249151D01*
X62975615Y-88025306D01*
X62224305Y-87946520D01*
X61472062Y-88015822D01*
X60747792Y-88230548D01*
X60079330Y-88582445D01*
X60038912Y-88609452D01*
X59678724Y-89099119D01*
X56819649Y-89099119D01*
X56420386Y-88511119D01*
X55504792Y-86900708D01*
X54720040Y-85222644D01*
X54071091Y-83487535D01*
X53562048Y-81706353D01*
X53196129Y-79890357D01*
X52975649Y-78051030D01*
X52902000Y-76200000D01*
X52975649Y-74348970D01*
X53196129Y-72509643D01*
X53562048Y-70693647D01*
X53879689Y-69582197D01*
X53948486Y-69816671D01*
X54203996Y-69937571D01*
X54478184Y-70006300D01*
X54760512Y-70020217D01*
X55040130Y-69978787D01*
X55306292Y-69883603D01*
X55431514Y-69816671D01*
X55503097Y-69572702D01*
X54690000Y-68759605D01*
X54675858Y-68773748D01*
X54496253Y-68594143D01*
X54510395Y-68580000D01*
X54869605Y-68580000D01*
X55682702Y-69393097D01*
X55926671Y-69321514D01*
X56047571Y-69066004D01*
X56116300Y-68791816D01*
X56130217Y-68509488D01*
X56088787Y-68229870D01*
X55993603Y-67963708D01*
X55926671Y-67838486D01*
X55682702Y-67766903D01*
X54869605Y-68580000D01*
X54510395Y-68580000D01*
X54496253Y-68565858D01*
X54675858Y-68386253D01*
X54690000Y-68400395D01*
X55503097Y-67587298D01*
X55431514Y-67343329D01*
X55176004Y-67222429D01*
X54901816Y-67153700D01*
X54734949Y-67145475D01*
X55504792Y-65499292D01*
X56420386Y-63888881D01*
X57461033Y-62356304D01*
X57563000Y-62229184D01*
X57563000Y-62760515D01*
G37*
%TD.AperFunction*%
D19*
X98601141Y-69797995D02*
X99038968Y-71598007D01*
X99060710Y-71733537D01*
X98964531Y-71695074D01*
X97919605Y-72740000D01*
X98964531Y-73784926D01*
X99241714Y-73674079D01*
X99336732Y-73481461D01*
X99479581Y-75273753D01*
X99479581Y-77126247D01*
X99337762Y-78905612D01*
X99241714Y-78725921D01*
X98964531Y-78615074D01*
X97919605Y-79660000D01*
X98964531Y-80704926D01*
X99060710Y-80666463D01*
X99038968Y-80801993D01*
X98601141Y-82602005D01*
X98431076Y-83118414D01*
X98363160Y-83084911D01*
X98028295Y-82995140D01*
X97748750Y-82976784D01*
X97750085Y-82973560D01*
X97852000Y-82461199D01*
X97852000Y-81938801D01*
X97750085Y-81426440D01*
X97749239Y-81424397D01*
X97797650Y-81427576D01*
X98141380Y-81382366D01*
X98469685Y-81270966D01*
X98674079Y-81161714D01*
X98784926Y-80884531D01*
X97740000Y-79839605D01*
X97725858Y-79853748D01*
X97546253Y-79674143D01*
X97560395Y-79660000D01*
X96515469Y-78615074D01*
X96238286Y-78725921D01*
X96084911Y-79036840D01*
X95995140Y-79371705D01*
X95976784Y-79651250D01*
X95973560Y-79649915D01*
X95461199Y-79548000D01*
X94938801Y-79548000D01*
X94426440Y-79649915D01*
X94424397Y-79650761D01*
X94427576Y-79602350D01*
X94382366Y-79258620D01*
X94270966Y-78930315D01*
X94161714Y-78725921D01*
X93884531Y-78615074D01*
X92839605Y-79660000D01*
X92853748Y-79674143D01*
X92674143Y-79853748D01*
X92660000Y-79839605D01*
X92645858Y-79853748D01*
X92466253Y-79674143D01*
X92480395Y-79660000D01*
X91435469Y-78615074D01*
X91158286Y-78725921D01*
X91004911Y-79036840D01*
X90915140Y-79371705D01*
X90892424Y-79717650D01*
X90937634Y-80061380D01*
X90941577Y-80073000D01*
X90701032Y-80073000D01*
X89063501Y-78435469D01*
X91615074Y-78435469D01*
X92660000Y-79480395D01*
X93704926Y-78435469D01*
X96695074Y-78435469D01*
X97740000Y-79480395D01*
X98784926Y-78435469D01*
X98674079Y-78158286D01*
X98363160Y-78004911D01*
X98028295Y-77915140D01*
X97682350Y-77892424D01*
X97338620Y-77937634D01*
X97010315Y-78049034D01*
X96805921Y-78158286D01*
X96695074Y-78435469D01*
X93704926Y-78435469D01*
X93594079Y-78158286D01*
X93283160Y-78004911D01*
X92948295Y-77915140D01*
X92602350Y-77892424D01*
X92258620Y-77937634D01*
X91930315Y-78049034D01*
X91725921Y-78158286D01*
X91615074Y-78435469D01*
X89063501Y-78435469D01*
X88146570Y-77518539D01*
X88055749Y-77299277D01*
X87795615Y-76909960D01*
X87464528Y-76578873D01*
X87075211Y-76318739D01*
X86788549Y-76200000D01*
X87075211Y-76081261D01*
X87464528Y-75821127D01*
X87795615Y-75490040D01*
X88055749Y-75100723D01*
X88234932Y-74668136D01*
X88326279Y-74208905D01*
X88326279Y-73964531D01*
X91615074Y-73964531D01*
X91725921Y-74241714D01*
X92036840Y-74395089D01*
X92371705Y-74484860D01*
X92717650Y-74507576D01*
X93061380Y-74462366D01*
X93389685Y-74350966D01*
X93594079Y-74241714D01*
X93704926Y-73964531D01*
X96695074Y-73964531D01*
X96805921Y-74241714D01*
X97116840Y-74395089D01*
X97451705Y-74484860D01*
X97797650Y-74507576D01*
X98141380Y-74462366D01*
X98469685Y-74350966D01*
X98674079Y-74241714D01*
X98784926Y-73964531D01*
X97740000Y-72919605D01*
X96695074Y-73964531D01*
X93704926Y-73964531D01*
X92660000Y-72919605D01*
X91615074Y-73964531D01*
X88326279Y-73964531D01*
X88326279Y-73740677D01*
X88234932Y-73281446D01*
X88055749Y-72848859D01*
X87795615Y-72459542D01*
X87663073Y-72327000D01*
X90948571Y-72327000D01*
X90915140Y-72451705D01*
X90892424Y-72797650D01*
X90937634Y-73141380D01*
X91049034Y-73469685D01*
X91158286Y-73674079D01*
X91435469Y-73784926D01*
X92480395Y-72740000D01*
X92466253Y-72725858D01*
X92645858Y-72546253D01*
X92660000Y-72560395D01*
X92674143Y-72546253D01*
X92853748Y-72725858D01*
X92839605Y-72740000D01*
X93884531Y-73784926D01*
X94161714Y-73674079D01*
X94315089Y-73363160D01*
X94404860Y-73028295D01*
X94423216Y-72748750D01*
X94426440Y-72750085D01*
X94938801Y-72852000D01*
X95461199Y-72852000D01*
X95973560Y-72750085D01*
X95975603Y-72749239D01*
X95972424Y-72797650D01*
X96017634Y-73141380D01*
X96129034Y-73469685D01*
X96238286Y-73674079D01*
X96515469Y-73784926D01*
X97560395Y-72740000D01*
X97546253Y-72725858D01*
X97725858Y-72546253D01*
X97740000Y-72560395D01*
X98784926Y-71515469D01*
X98674079Y-71238286D01*
X98363160Y-71084911D01*
X98028295Y-70995140D01*
X97748750Y-70976784D01*
X97750085Y-70973560D01*
X97852000Y-70461199D01*
X97852000Y-69938801D01*
X97750085Y-69426440D01*
X97749239Y-69424397D01*
X97797650Y-69427576D01*
X98141380Y-69382366D01*
X98431811Y-69283817D01*
X98601141Y-69797995D01*
%TA.AperFunction,Conductor*%
D20*
G36*
X98601141Y-69797995D02*
G01*
X99038968Y-71598007D01*
X99060710Y-71733537D01*
X98964531Y-71695074D01*
X97919605Y-72740000D01*
X98964531Y-73784926D01*
X99241714Y-73674079D01*
X99336732Y-73481461D01*
X99479581Y-75273753D01*
X99479581Y-77126247D01*
X99337762Y-78905612D01*
X99241714Y-78725921D01*
X98964531Y-78615074D01*
X97919605Y-79660000D01*
X98964531Y-80704926D01*
X99060710Y-80666463D01*
X99038968Y-80801993D01*
X98601141Y-82602005D01*
X98431076Y-83118414D01*
X98363160Y-83084911D01*
X98028295Y-82995140D01*
X97748750Y-82976784D01*
X97750085Y-82973560D01*
X97852000Y-82461199D01*
X97852000Y-81938801D01*
X97750085Y-81426440D01*
X97749239Y-81424397D01*
X97797650Y-81427576D01*
X98141380Y-81382366D01*
X98469685Y-81270966D01*
X98674079Y-81161714D01*
X98784926Y-80884531D01*
X97740000Y-79839605D01*
X97725858Y-79853748D01*
X97546253Y-79674143D01*
X97560395Y-79660000D01*
X96515469Y-78615074D01*
X96238286Y-78725921D01*
X96084911Y-79036840D01*
X95995140Y-79371705D01*
X95976784Y-79651250D01*
X95973560Y-79649915D01*
X95461199Y-79548000D01*
X94938801Y-79548000D01*
X94426440Y-79649915D01*
X94424397Y-79650761D01*
X94427576Y-79602350D01*
X94382366Y-79258620D01*
X94270966Y-78930315D01*
X94161714Y-78725921D01*
X93884531Y-78615074D01*
X92839605Y-79660000D01*
X92853748Y-79674143D01*
X92674143Y-79853748D01*
X92660000Y-79839605D01*
X92645858Y-79853748D01*
X92466253Y-79674143D01*
X92480395Y-79660000D01*
X91435469Y-78615074D01*
X91158286Y-78725921D01*
X91004911Y-79036840D01*
X90915140Y-79371705D01*
X90892424Y-79717650D01*
X90937634Y-80061380D01*
X90941577Y-80073000D01*
X90701032Y-80073000D01*
X89063501Y-78435469D01*
X91615074Y-78435469D01*
X92660000Y-79480395D01*
X93704926Y-78435469D01*
X96695074Y-78435469D01*
X97740000Y-79480395D01*
X98784926Y-78435469D01*
X98674079Y-78158286D01*
X98363160Y-78004911D01*
X98028295Y-77915140D01*
X97682350Y-77892424D01*
X97338620Y-77937634D01*
X97010315Y-78049034D01*
X96805921Y-78158286D01*
X96695074Y-78435469D01*
X93704926Y-78435469D01*
X93594079Y-78158286D01*
X93283160Y-78004911D01*
X92948295Y-77915140D01*
X92602350Y-77892424D01*
X92258620Y-77937634D01*
X91930315Y-78049034D01*
X91725921Y-78158286D01*
X91615074Y-78435469D01*
X89063501Y-78435469D01*
X88146570Y-77518539D01*
X88055749Y-77299277D01*
X87795615Y-76909960D01*
X87464528Y-76578873D01*
X87075211Y-76318739D01*
X86788549Y-76200000D01*
X87075211Y-76081261D01*
X87464528Y-75821127D01*
X87795615Y-75490040D01*
X88055749Y-75100723D01*
X88234932Y-74668136D01*
X88326279Y-74208905D01*
X88326279Y-73964531D01*
X91615074Y-73964531D01*
X91725921Y-74241714D01*
X92036840Y-74395089D01*
X92371705Y-74484860D01*
X92717650Y-74507576D01*
X93061380Y-74462366D01*
X93389685Y-74350966D01*
X93594079Y-74241714D01*
X93704926Y-73964531D01*
X96695074Y-73964531D01*
X96805921Y-74241714D01*
X97116840Y-74395089D01*
X97451705Y-74484860D01*
X97797650Y-74507576D01*
X98141380Y-74462366D01*
X98469685Y-74350966D01*
X98674079Y-74241714D01*
X98784926Y-73964531D01*
X97740000Y-72919605D01*
X96695074Y-73964531D01*
X93704926Y-73964531D01*
X92660000Y-72919605D01*
X91615074Y-73964531D01*
X88326279Y-73964531D01*
X88326279Y-73740677D01*
X88234932Y-73281446D01*
X88055749Y-72848859D01*
X87795615Y-72459542D01*
X87663073Y-72327000D01*
X90948571Y-72327000D01*
X90915140Y-72451705D01*
X90892424Y-72797650D01*
X90937634Y-73141380D01*
X91049034Y-73469685D01*
X91158286Y-73674079D01*
X91435469Y-73784926D01*
X92480395Y-72740000D01*
X92466253Y-72725858D01*
X92645858Y-72546253D01*
X92660000Y-72560395D01*
X92674143Y-72546253D01*
X92853748Y-72725858D01*
X92839605Y-72740000D01*
X93884531Y-73784926D01*
X94161714Y-73674079D01*
X94315089Y-73363160D01*
X94404860Y-73028295D01*
X94423216Y-72748750D01*
X94426440Y-72750085D01*
X94938801Y-72852000D01*
X95461199Y-72852000D01*
X95973560Y-72750085D01*
X95975603Y-72749239D01*
X95972424Y-72797650D01*
X96017634Y-73141380D01*
X96129034Y-73469685D01*
X96238286Y-73674079D01*
X96515469Y-73784926D01*
X97560395Y-72740000D01*
X97546253Y-72725858D01*
X97725858Y-72546253D01*
X97740000Y-72560395D01*
X98784926Y-71515469D01*
X98674079Y-71238286D01*
X98363160Y-71084911D01*
X98028295Y-70995140D01*
X97748750Y-70976784D01*
X97750085Y-70973560D01*
X97852000Y-70461199D01*
X97852000Y-69938801D01*
X97750085Y-69426440D01*
X97749239Y-69424397D01*
X97797650Y-69427576D01*
X98141380Y-69382366D01*
X98431811Y-69283817D01*
X98601141Y-69797995D01*
G37*
%TD.AperFunction*%
D19*
X78512415Y-53017042D02*
X80346995Y-53274049D01*
X82155356Y-53676001D01*
X83926066Y-54220357D01*
X85647929Y-54903675D01*
X87310059Y-55721636D01*
X88710590Y-56555178D01*
X88220841Y-56607727D01*
X87725474Y-56762721D01*
X87308228Y-56985742D01*
X87092106Y-57352501D01*
X88760000Y-59020395D01*
X88774143Y-59006253D01*
X88953748Y-59185858D01*
X88939605Y-59200000D01*
X90607499Y-60867894D01*
X90974258Y-60651772D01*
X91214938Y-60191895D01*
X91361275Y-59693902D01*
X91407648Y-59176929D01*
X91352273Y-58660841D01*
X91294370Y-58475782D01*
X91835251Y-58927602D01*
X93158121Y-60224426D01*
X94373775Y-61622253D01*
X95474529Y-63112245D01*
X96453424Y-64684982D01*
X97136571Y-66006193D01*
X97010315Y-66049034D01*
X96805921Y-66158286D01*
X96695074Y-66435469D01*
X97740000Y-67480395D01*
X97754143Y-67466253D01*
X97801026Y-67513136D01*
X97887911Y-67719979D01*
X97754143Y-67853748D01*
X97740000Y-67839605D01*
X97725858Y-67853748D01*
X97546253Y-67674143D01*
X97560395Y-67660000D01*
X96515469Y-66615074D01*
X96238286Y-66725921D01*
X96084911Y-67036840D01*
X95995140Y-67371705D01*
X95976784Y-67651250D01*
X95973560Y-67649915D01*
X95461199Y-67548000D01*
X94938801Y-67548000D01*
X94426440Y-67649915D01*
X94424397Y-67650761D01*
X94427576Y-67602350D01*
X94382366Y-67258620D01*
X94270966Y-66930315D01*
X94161714Y-66725921D01*
X93884531Y-66615074D01*
X92839605Y-67660000D01*
X92853748Y-67674143D01*
X92674143Y-67853748D01*
X92660000Y-67839605D01*
X92645858Y-67853748D01*
X92466253Y-67674143D01*
X92480395Y-67660000D01*
X91435469Y-66615074D01*
X91158286Y-66725921D01*
X91004911Y-67036840D01*
X90915140Y-67371705D01*
X90892424Y-67717650D01*
X90937634Y-68061380D01*
X90941577Y-68073000D01*
X85465070Y-68073000D01*
X85144246Y-67858632D01*
X84711659Y-67679449D01*
X84252428Y-67588102D01*
X83784200Y-67588102D01*
X83324969Y-67679449D01*
X82892382Y-67858632D01*
X82812841Y-67911780D01*
X82824490Y-67883657D01*
X82915837Y-67424426D01*
X82915837Y-66956198D01*
X82824490Y-66496967D01*
X82799017Y-66435469D01*
X91615074Y-66435469D01*
X92660000Y-67480395D01*
X93704926Y-66435469D01*
X93594079Y-66158286D01*
X93283160Y-66004911D01*
X92948295Y-65915140D01*
X92602350Y-65892424D01*
X92258620Y-65937634D01*
X91930315Y-66049034D01*
X91725921Y-66158286D01*
X91615074Y-66435469D01*
X82799017Y-66435469D01*
X82645307Y-66064380D01*
X82385173Y-65675063D01*
X82054086Y-65343976D01*
X81664769Y-65083842D01*
X81232182Y-64904659D01*
X80772951Y-64813312D01*
X80304723Y-64813312D01*
X79845492Y-64904659D01*
X79412905Y-65083842D01*
X79023588Y-65343976D01*
X78692501Y-65675063D01*
X78558918Y-65874983D01*
X78485653Y-65506655D01*
X78306470Y-65074068D01*
X78046336Y-64684751D01*
X77715249Y-64353664D01*
X77325932Y-64093530D01*
X76893345Y-63914347D01*
X76434114Y-63823000D01*
X75965886Y-63823000D01*
X75506655Y-63914347D01*
X75074068Y-64093530D01*
X74684751Y-64353664D01*
X74353664Y-64684751D01*
X74093530Y-65074068D01*
X73914347Y-65506655D01*
X73841082Y-65874983D01*
X73707499Y-65675063D01*
X73376412Y-65343976D01*
X72987095Y-65083842D01*
X72554508Y-64904659D01*
X72095277Y-64813312D01*
X71627049Y-64813312D01*
X71167818Y-64904659D01*
X70735231Y-65083842D01*
X70345914Y-65343976D01*
X70014827Y-65675063D01*
X69754693Y-66064380D01*
X69575510Y-66496967D01*
X69484163Y-66956198D01*
X69484163Y-67424426D01*
X69575510Y-67883657D01*
X69587159Y-67911780D01*
X69507618Y-67858632D01*
X69075031Y-67679449D01*
X68615800Y-67588102D01*
X68587001Y-67588102D01*
X68587001Y-63326030D01*
X69091200Y-62821832D01*
X69294362Y-62930425D01*
X69601052Y-63023458D01*
X69920000Y-63054872D01*
X71520000Y-63054872D01*
X71838948Y-63023458D01*
X72145638Y-62930425D01*
X72398938Y-62795033D01*
X72782070Y-62953732D01*
X73250961Y-63047000D01*
X73729039Y-63047000D01*
X74197930Y-62953732D01*
X74639615Y-62770779D01*
X74875000Y-62613500D01*
X75110385Y-62770779D01*
X75552070Y-62953732D01*
X76020961Y-63047000D01*
X76499039Y-63047000D01*
X76967930Y-62953732D01*
X77409615Y-62770779D01*
X77645000Y-62613500D01*
X77880385Y-62770779D01*
X78322070Y-62953732D01*
X78790961Y-63047000D01*
X79269039Y-63047000D01*
X79737930Y-62953732D01*
X80179615Y-62770779D01*
X80415000Y-62613500D01*
X80650385Y-62770779D01*
X81092070Y-62953732D01*
X81560961Y-63047000D01*
X82039039Y-63047000D01*
X82507930Y-62953732D01*
X82949615Y-62770779D01*
X83347122Y-62505174D01*
X83685174Y-62167122D01*
X83950779Y-61769615D01*
X84133732Y-61327930D01*
X84189513Y-61047499D01*
X87092106Y-61047499D01*
X87308228Y-61414258D01*
X87768105Y-61654938D01*
X88266098Y-61801275D01*
X88783071Y-61847648D01*
X89299159Y-61792273D01*
X89794526Y-61637279D01*
X90211772Y-61414258D01*
X90427894Y-61047499D01*
X88760000Y-59379605D01*
X87092106Y-61047499D01*
X84189513Y-61047499D01*
X84227000Y-60859039D01*
X84227000Y-60380961D01*
X84133732Y-59912070D01*
X83950779Y-59470385D01*
X83785530Y-59223071D01*
X86112352Y-59223071D01*
X86167727Y-59739159D01*
X86322721Y-60234526D01*
X86545742Y-60651772D01*
X86912501Y-60867894D01*
X88580395Y-59200000D01*
X86912501Y-57532106D01*
X86545742Y-57748228D01*
X86305062Y-58208105D01*
X86158725Y-58706098D01*
X86112352Y-59223071D01*
X83785530Y-59223071D01*
X83685174Y-59072878D01*
X83347122Y-58734826D01*
X82949615Y-58469221D01*
X82767462Y-58393770D01*
X82842000Y-58019039D01*
X82842000Y-57540961D01*
X82748732Y-57072070D01*
X82565779Y-56630385D01*
X82300174Y-56232878D01*
X81962122Y-55894826D01*
X81564615Y-55629221D01*
X81122930Y-55446268D01*
X80654039Y-55353000D01*
X80175961Y-55353000D01*
X79707070Y-55446268D01*
X79265385Y-55629221D01*
X78867878Y-55894826D01*
X78529826Y-56232878D01*
X78337793Y-56520276D01*
X78131004Y-56422429D01*
X77856816Y-56353700D01*
X77574488Y-56339783D01*
X77294870Y-56381213D01*
X77028708Y-56476397D01*
X77002000Y-56490673D01*
X77002000Y-56376817D01*
X77026223Y-56296965D01*
X77067291Y-55880000D01*
X77026223Y-55463035D01*
X77002000Y-55383183D01*
X77002000Y-54769485D01*
X77012291Y-54665000D01*
X76995020Y-54489644D01*
X76971224Y-54248036D01*
X76849599Y-53847095D01*
X76652093Y-53477585D01*
X76386293Y-53153707D01*
X76356084Y-53128916D01*
X76331293Y-53098707D01*
X76110607Y-52917594D01*
X76663215Y-52906605D01*
X78512415Y-53017042D01*
%TA.AperFunction,Conductor*%
D20*
G36*
X78512415Y-53017042D02*
G01*
X80346995Y-53274049D01*
X82155356Y-53676001D01*
X83926066Y-54220357D01*
X85647929Y-54903675D01*
X87310059Y-55721636D01*
X88710590Y-56555178D01*
X88220841Y-56607727D01*
X87725474Y-56762721D01*
X87308228Y-56985742D01*
X87092106Y-57352501D01*
X88760000Y-59020395D01*
X88774143Y-59006253D01*
X88953748Y-59185858D01*
X88939605Y-59200000D01*
X90607499Y-60867894D01*
X90974258Y-60651772D01*
X91214938Y-60191895D01*
X91361275Y-59693902D01*
X91407648Y-59176929D01*
X91352273Y-58660841D01*
X91294370Y-58475782D01*
X91835251Y-58927602D01*
X93158121Y-60224426D01*
X94373775Y-61622253D01*
X95474529Y-63112245D01*
X96453424Y-64684982D01*
X97136571Y-66006193D01*
X97010315Y-66049034D01*
X96805921Y-66158286D01*
X96695074Y-66435469D01*
X97740000Y-67480395D01*
X97754143Y-67466253D01*
X97801026Y-67513136D01*
X97887911Y-67719979D01*
X97754143Y-67853748D01*
X97740000Y-67839605D01*
X97725858Y-67853748D01*
X97546253Y-67674143D01*
X97560395Y-67660000D01*
X96515469Y-66615074D01*
X96238286Y-66725921D01*
X96084911Y-67036840D01*
X95995140Y-67371705D01*
X95976784Y-67651250D01*
X95973560Y-67649915D01*
X95461199Y-67548000D01*
X94938801Y-67548000D01*
X94426440Y-67649915D01*
X94424397Y-67650761D01*
X94427576Y-67602350D01*
X94382366Y-67258620D01*
X94270966Y-66930315D01*
X94161714Y-66725921D01*
X93884531Y-66615074D01*
X92839605Y-67660000D01*
X92853748Y-67674143D01*
X92674143Y-67853748D01*
X92660000Y-67839605D01*
X92645858Y-67853748D01*
X92466253Y-67674143D01*
X92480395Y-67660000D01*
X91435469Y-66615074D01*
X91158286Y-66725921D01*
X91004911Y-67036840D01*
X90915140Y-67371705D01*
X90892424Y-67717650D01*
X90937634Y-68061380D01*
X90941577Y-68073000D01*
X85465070Y-68073000D01*
X85144246Y-67858632D01*
X84711659Y-67679449D01*
X84252428Y-67588102D01*
X83784200Y-67588102D01*
X83324969Y-67679449D01*
X82892382Y-67858632D01*
X82812841Y-67911780D01*
X82824490Y-67883657D01*
X82915837Y-67424426D01*
X82915837Y-66956198D01*
X82824490Y-66496967D01*
X82799017Y-66435469D01*
X91615074Y-66435469D01*
X92660000Y-67480395D01*
X93704926Y-66435469D01*
X93594079Y-66158286D01*
X93283160Y-66004911D01*
X92948295Y-65915140D01*
X92602350Y-65892424D01*
X92258620Y-65937634D01*
X91930315Y-66049034D01*
X91725921Y-66158286D01*
X91615074Y-66435469D01*
X82799017Y-66435469D01*
X82645307Y-66064380D01*
X82385173Y-65675063D01*
X82054086Y-65343976D01*
X81664769Y-65083842D01*
X81232182Y-64904659D01*
X80772951Y-64813312D01*
X80304723Y-64813312D01*
X79845492Y-64904659D01*
X79412905Y-65083842D01*
X79023588Y-65343976D01*
X78692501Y-65675063D01*
X78558918Y-65874983D01*
X78485653Y-65506655D01*
X78306470Y-65074068D01*
X78046336Y-64684751D01*
X77715249Y-64353664D01*
X77325932Y-64093530D01*
X76893345Y-63914347D01*
X76434114Y-63823000D01*
X75965886Y-63823000D01*
X75506655Y-63914347D01*
X75074068Y-64093530D01*
X74684751Y-64353664D01*
X74353664Y-64684751D01*
X74093530Y-65074068D01*
X73914347Y-65506655D01*
X73841082Y-65874983D01*
X73707499Y-65675063D01*
X73376412Y-65343976D01*
X72987095Y-65083842D01*
X72554508Y-64904659D01*
X72095277Y-64813312D01*
X71627049Y-64813312D01*
X71167818Y-64904659D01*
X70735231Y-65083842D01*
X70345914Y-65343976D01*
X70014827Y-65675063D01*
X69754693Y-66064380D01*
X69575510Y-66496967D01*
X69484163Y-66956198D01*
X69484163Y-67424426D01*
X69575510Y-67883657D01*
X69587159Y-67911780D01*
X69507618Y-67858632D01*
X69075031Y-67679449D01*
X68615800Y-67588102D01*
X68587001Y-67588102D01*
X68587001Y-63326030D01*
X69091200Y-62821832D01*
X69294362Y-62930425D01*
X69601052Y-63023458D01*
X69920000Y-63054872D01*
X71520000Y-63054872D01*
X71838948Y-63023458D01*
X72145638Y-62930425D01*
X72398938Y-62795033D01*
X72782070Y-62953732D01*
X73250961Y-63047000D01*
X73729039Y-63047000D01*
X74197930Y-62953732D01*
X74639615Y-62770779D01*
X74875000Y-62613500D01*
X75110385Y-62770779D01*
X75552070Y-62953732D01*
X76020961Y-63047000D01*
X76499039Y-63047000D01*
X76967930Y-62953732D01*
X77409615Y-62770779D01*
X77645000Y-62613500D01*
X77880385Y-62770779D01*
X78322070Y-62953732D01*
X78790961Y-63047000D01*
X79269039Y-63047000D01*
X79737930Y-62953732D01*
X80179615Y-62770779D01*
X80415000Y-62613500D01*
X80650385Y-62770779D01*
X81092070Y-62953732D01*
X81560961Y-63047000D01*
X82039039Y-63047000D01*
X82507930Y-62953732D01*
X82949615Y-62770779D01*
X83347122Y-62505174D01*
X83685174Y-62167122D01*
X83950779Y-61769615D01*
X84133732Y-61327930D01*
X84189513Y-61047499D01*
X87092106Y-61047499D01*
X87308228Y-61414258D01*
X87768105Y-61654938D01*
X88266098Y-61801275D01*
X88783071Y-61847648D01*
X89299159Y-61792273D01*
X89794526Y-61637279D01*
X90211772Y-61414258D01*
X90427894Y-61047499D01*
X88760000Y-59379605D01*
X87092106Y-61047499D01*
X84189513Y-61047499D01*
X84227000Y-60859039D01*
X84227000Y-60380961D01*
X84133732Y-59912070D01*
X83950779Y-59470385D01*
X83785530Y-59223071D01*
X86112352Y-59223071D01*
X86167727Y-59739159D01*
X86322721Y-60234526D01*
X86545742Y-60651772D01*
X86912501Y-60867894D01*
X88580395Y-59200000D01*
X86912501Y-57532106D01*
X86545742Y-57748228D01*
X86305062Y-58208105D01*
X86158725Y-58706098D01*
X86112352Y-59223071D01*
X83785530Y-59223071D01*
X83685174Y-59072878D01*
X83347122Y-58734826D01*
X82949615Y-58469221D01*
X82767462Y-58393770D01*
X82842000Y-58019039D01*
X82842000Y-57540961D01*
X82748732Y-57072070D01*
X82565779Y-56630385D01*
X82300174Y-56232878D01*
X81962122Y-55894826D01*
X81564615Y-55629221D01*
X81122930Y-55446268D01*
X80654039Y-55353000D01*
X80175961Y-55353000D01*
X79707070Y-55446268D01*
X79265385Y-55629221D01*
X78867878Y-55894826D01*
X78529826Y-56232878D01*
X78337793Y-56520276D01*
X78131004Y-56422429D01*
X77856816Y-56353700D01*
X77574488Y-56339783D01*
X77294870Y-56381213D01*
X77028708Y-56476397D01*
X77002000Y-56490673D01*
X77002000Y-56376817D01*
X77026223Y-56296965D01*
X77067291Y-55880000D01*
X77026223Y-55463035D01*
X77002000Y-55383183D01*
X77002000Y-54769485D01*
X77012291Y-54665000D01*
X76995020Y-54489644D01*
X76971224Y-54248036D01*
X76849599Y-53847095D01*
X76652093Y-53477585D01*
X76386293Y-53153707D01*
X76356084Y-53128916D01*
X76331293Y-53098707D01*
X76110607Y-52917594D01*
X76663215Y-52906605D01*
X78512415Y-53017042D01*
G37*
%TD.AperFunction*%
D19*
X63953748Y-59185858D02*
X63939605Y-59200000D01*
X63953748Y-59214143D01*
X63774143Y-59393748D01*
X63760000Y-59379605D01*
X62092106Y-61047499D01*
X62308228Y-61414258D01*
X62768105Y-61654938D01*
X63266098Y-61801275D01*
X63783071Y-61847648D01*
X64299159Y-61792273D01*
X64449572Y-61745211D01*
X64363778Y-62028034D01*
X64322710Y-62444999D01*
X64333002Y-62549494D01*
X64333002Y-64498677D01*
X64330224Y-64497192D01*
X61817000Y-61983969D01*
X61817000Y-60811618D01*
X61912501Y-60867894D01*
X63580395Y-59200000D01*
X63566253Y-59185858D01*
X63745858Y-59006253D01*
X63760000Y-59020395D01*
X63774143Y-59006253D01*
X63953748Y-59185858D01*
%TA.AperFunction,Conductor*%
D20*
G36*
X63953748Y-59185858D02*
G01*
X63939605Y-59200000D01*
X63953748Y-59214143D01*
X63774143Y-59393748D01*
X63760000Y-59379605D01*
X62092106Y-61047499D01*
X62308228Y-61414258D01*
X62768105Y-61654938D01*
X63266098Y-61801275D01*
X63783071Y-61847648D01*
X64299159Y-61792273D01*
X64449572Y-61745211D01*
X64363778Y-62028034D01*
X64322710Y-62444999D01*
X64333002Y-62549494D01*
X64333002Y-64498677D01*
X64330224Y-64497192D01*
X61817000Y-61983969D01*
X61817000Y-60811618D01*
X61912501Y-60867894D01*
X63580395Y-59200000D01*
X63566253Y-59185858D01*
X63745858Y-59006253D01*
X63760000Y-59020395D01*
X63774143Y-59006253D01*
X63953748Y-59185858D01*
G37*
%TD.AperFunction*%
D19*
X77838748Y-57765858D02*
X77824605Y-57780000D01*
X77838748Y-57794143D01*
X77659143Y-57973748D01*
X77645000Y-57959605D01*
X77630858Y-57973748D01*
X77451253Y-57794143D01*
X77465395Y-57780000D01*
X77451253Y-57765858D01*
X77630858Y-57586253D01*
X77645000Y-57600395D01*
X77659143Y-57586253D01*
X77838748Y-57765858D01*
%TA.AperFunction,Conductor*%
D20*
G36*
X77838748Y-57765858D02*
G01*
X77824605Y-57780000D01*
X77838748Y-57794143D01*
X77659143Y-57973748D01*
X77645000Y-57959605D01*
X77630858Y-57973748D01*
X77451253Y-57794143D01*
X77465395Y-57780000D01*
X77451253Y-57765858D01*
X77630858Y-57586253D01*
X77645000Y-57600395D01*
X77659143Y-57586253D01*
X77838748Y-57765858D01*
G37*
%TD.AperFunction*%
%TD*%
M02*
