M48
; DRILL file {KiCad 5.1.10} date Thu Apr  7 11:00:17 2022
; FORMAT={-:-/ absolute / metric / decimal}
; #@! TF.CreationDate,2022-04-07T11:00:17+02:00
; #@! TF.GenerationSoftware,Kicad,Pcbnew,5.1.10
; #@! TF.FileFunction,Plated,1,2,PTH
FMAT,2
METRIC
T1C1.000
T2C1.500
T3C1.700
T4C3.200
%
G90
G05
T1
X66.451Y-73.975
X66.451Y-78.425
X68.382Y-69.965
X68.382Y-82.435
X70.66Y-62.23
X71.861Y-67.19
X71.861Y-85.21
X72.045Y-59.39
X73.43Y-62.23
X74.815Y-59.39
X76.2Y-62.23
X76.2Y-66.2
X77.585Y-59.39
X78.97Y-62.23
X80.355Y-59.39
X80.539Y-67.19
X80.539Y-85.21
X81.74Y-62.23
X84.018Y-69.965
X85.949Y-73.975
X85.949Y-78.425
T2
X71.12Y-95.25
X81.28Y-95.25
X95.25Y-69.85
X95.25Y-82.55
T3
X68.58Y-92.71
X68.58Y-97.79
X73.66Y-92.71
X73.66Y-97.79
X78.74Y-92.71
X78.74Y-97.79
X83.82Y-92.71
X83.82Y-97.79
X92.71Y-67.31
X92.71Y-72.39
X92.71Y-80.01
X92.71Y-85.09
X97.79Y-67.31
X97.79Y-72.39
X97.79Y-80.01
X97.79Y-85.09
T4
X55.88Y-76.2
X62.23Y-91.44
X63.7Y-60.81
X88.7Y-60.81
X90.17Y-91.44
T0
M30
