%TF.GenerationSoftware,KiCad,Pcbnew,5.1.10*%
%TF.CreationDate,2022-04-07T11:00:07+02:00*%
%TF.ProjectId,breakoutPcb,62726561-6b6f-4757-9450-63622e6b6963,rev?*%
%TF.SameCoordinates,Original*%
%TF.FileFunction,Legend,Bot*%
%TF.FilePolarity,Positive*%
%FSLAX46Y46*%
G04 Gerber Fmt 4.6, Leading zero omitted, Abs format (unit mm)*
G04 Created by KiCad (PCBNEW 5.1.10) date 2022-04-07 11:00:07*
%MOMM*%
%LPD*%
G01*
G04 APERTURE LIST*
%ADD10C,0.120000*%
%ADD11C,0.150000*%
G04 APERTURE END LIST*
D10*
%TO.C,L4*%
X85530000Y-68910000D02*
X89730000Y-68910000D01*
X89730000Y-68910000D02*
X89730000Y-65710000D01*
X89730000Y-65710000D02*
X85530000Y-65710000D01*
X85530000Y-65710000D02*
X85530000Y-68910000D01*
%TO.C,L3*%
X90500000Y-79570000D02*
X90500000Y-75370000D01*
X90500000Y-75370000D02*
X87300000Y-75370000D01*
X87300000Y-75370000D02*
X87300000Y-79570000D01*
X87300000Y-79570000D02*
X90500000Y-79570000D01*
%TO.C,L2*%
X80450000Y-90500000D02*
X84650000Y-90500000D01*
X84650000Y-90500000D02*
X84650000Y-87300000D01*
X84650000Y-87300000D02*
X80450000Y-87300000D01*
X80450000Y-87300000D02*
X80450000Y-90500000D01*
%TO.C,L1*%
X70290000Y-90500000D02*
X74490000Y-90500000D01*
X74490000Y-90500000D02*
X74490000Y-87300000D01*
X74490000Y-87300000D02*
X70290000Y-87300000D01*
X70290000Y-87300000D02*
X70290000Y-90500000D01*
%TO.C,JP2*%
X63727064Y-79475000D02*
X63272936Y-79475000D01*
X63727064Y-78005000D02*
X63272936Y-78005000D01*
%TO.C,L4*%
D11*
X84752619Y-67476666D02*
X84752619Y-67952857D01*
X85752619Y-67952857D01*
X85419285Y-66714761D02*
X84752619Y-66714761D01*
X85800238Y-66952857D02*
X85085952Y-67190952D01*
X85085952Y-66571904D01*
%TO.C,L3*%
X89066666Y-80347380D02*
X89542857Y-80347380D01*
X89542857Y-79347380D01*
X88828571Y-79347380D02*
X88209523Y-79347380D01*
X88542857Y-79728333D01*
X88400000Y-79728333D01*
X88304761Y-79775952D01*
X88257142Y-79823571D01*
X88209523Y-79918809D01*
X88209523Y-80156904D01*
X88257142Y-80252142D01*
X88304761Y-80299761D01*
X88400000Y-80347380D01*
X88685714Y-80347380D01*
X88780952Y-80299761D01*
X88828571Y-80252142D01*
%TO.C,L2*%
X79672619Y-89066666D02*
X79672619Y-89542857D01*
X80672619Y-89542857D01*
X80577380Y-88780952D02*
X80625000Y-88733333D01*
X80672619Y-88638095D01*
X80672619Y-88400000D01*
X80625000Y-88304761D01*
X80577380Y-88257142D01*
X80482142Y-88209523D01*
X80386904Y-88209523D01*
X80244047Y-88257142D01*
X79672619Y-88828571D01*
X79672619Y-88209523D01*
%TO.C,L1*%
X69512619Y-89066666D02*
X69512619Y-89542857D01*
X70512619Y-89542857D01*
X69512619Y-88209523D02*
X69512619Y-88780952D01*
X69512619Y-88495238D02*
X70512619Y-88495238D01*
X70369761Y-88590476D01*
X70274523Y-88685714D01*
X70226904Y-88780952D01*
%TO.C,JP2*%
X64333333Y-76542380D02*
X64333333Y-77256666D01*
X64380952Y-77399523D01*
X64476190Y-77494761D01*
X64619047Y-77542380D01*
X64714285Y-77542380D01*
X63857142Y-77542380D02*
X63857142Y-76542380D01*
X63476190Y-76542380D01*
X63380952Y-76590000D01*
X63333333Y-76637619D01*
X63285714Y-76732857D01*
X63285714Y-76875714D01*
X63333333Y-76970952D01*
X63380952Y-77018571D01*
X63476190Y-77066190D01*
X63857142Y-77066190D01*
X62904761Y-76637619D02*
X62857142Y-76590000D01*
X62761904Y-76542380D01*
X62523809Y-76542380D01*
X62428571Y-76590000D01*
X62380952Y-76637619D01*
X62333333Y-76732857D01*
X62333333Y-76828095D01*
X62380952Y-76970952D01*
X62952380Y-77542380D01*
X62333333Y-77542380D01*
%TO.C,C4*%
X89066666Y-81857142D02*
X89114285Y-81904761D01*
X89257142Y-81952380D01*
X89352380Y-81952380D01*
X89495238Y-81904761D01*
X89590476Y-81809523D01*
X89638095Y-81714285D01*
X89685714Y-81523809D01*
X89685714Y-81380952D01*
X89638095Y-81190476D01*
X89590476Y-81095238D01*
X89495238Y-81000000D01*
X89352380Y-80952380D01*
X89257142Y-80952380D01*
X89114285Y-81000000D01*
X89066666Y-81047619D01*
X88209523Y-81285714D02*
X88209523Y-81952380D01*
X88447619Y-80904761D02*
X88685714Y-81619047D01*
X88066666Y-81619047D01*
%TO.C,C3*%
X87796666Y-69157142D02*
X87844285Y-69204761D01*
X87987142Y-69252380D01*
X88082380Y-69252380D01*
X88225238Y-69204761D01*
X88320476Y-69109523D01*
X88368095Y-69014285D01*
X88415714Y-68823809D01*
X88415714Y-68680952D01*
X88368095Y-68490476D01*
X88320476Y-68395238D01*
X88225238Y-68300000D01*
X88082380Y-68252380D01*
X87987142Y-68252380D01*
X87844285Y-68300000D01*
X87796666Y-68347619D01*
X87463333Y-68252380D02*
X86844285Y-68252380D01*
X87177619Y-68633333D01*
X87034761Y-68633333D01*
X86939523Y-68680952D01*
X86891904Y-68728571D01*
X86844285Y-68823809D01*
X86844285Y-69061904D01*
X86891904Y-69157142D01*
X86939523Y-69204761D01*
X87034761Y-69252380D01*
X87320476Y-69252380D01*
X87415714Y-69204761D01*
X87463333Y-69157142D01*
%TO.C,C2*%
X69987142Y-88733333D02*
X70034761Y-88685714D01*
X70082380Y-88542857D01*
X70082380Y-88447619D01*
X70034761Y-88304761D01*
X69939523Y-88209523D01*
X69844285Y-88161904D01*
X69653809Y-88114285D01*
X69510952Y-88114285D01*
X69320476Y-88161904D01*
X69225238Y-88209523D01*
X69130000Y-88304761D01*
X69082380Y-88447619D01*
X69082380Y-88542857D01*
X69130000Y-88685714D01*
X69177619Y-88733333D01*
X69177619Y-89114285D02*
X69130000Y-89161904D01*
X69082380Y-89257142D01*
X69082380Y-89495238D01*
X69130000Y-89590476D01*
X69177619Y-89638095D01*
X69272857Y-89685714D01*
X69368095Y-89685714D01*
X69510952Y-89638095D01*
X70082380Y-89066666D01*
X70082380Y-89685714D01*
%TO.C,C1*%
X80147142Y-88733333D02*
X80194761Y-88685714D01*
X80242380Y-88542857D01*
X80242380Y-88447619D01*
X80194761Y-88304761D01*
X80099523Y-88209523D01*
X80004285Y-88161904D01*
X79813809Y-88114285D01*
X79670952Y-88114285D01*
X79480476Y-88161904D01*
X79385238Y-88209523D01*
X79290000Y-88304761D01*
X79242380Y-88447619D01*
X79242380Y-88542857D01*
X79290000Y-88685714D01*
X79337619Y-88733333D01*
X80242380Y-89685714D02*
X80242380Y-89114285D01*
X80242380Y-89400000D02*
X79242380Y-89400000D01*
X79385238Y-89304761D01*
X79480476Y-89209523D01*
X79528095Y-89114285D01*
%TD*%
M02*
