%TF.GenerationSoftware,KiCad,Pcbnew,5.1.10*%
%TF.CreationDate,2022-04-07T14:12:36+02:00*%
%TF.ProjectId,breakoutPcb,62726561-6b6f-4757-9450-63622e6b6963,rev?*%
%TF.SameCoordinates,Original*%
%TF.FileFunction,Soldermask,Top*%
%TF.FilePolarity,Negative*%
%FSLAX46Y46*%
G04 Gerber Fmt 4.6, Leading zero omitted, Abs format (unit mm)*
G04 Created by KiCad (PCBNEW 5.1.10) date 2022-04-07 14:12:36*
%MOMM*%
%LPD*%
G01*
G04 APERTURE LIST*
%ADD10C,2.000000*%
%ADD11C,5.600000*%
%ADD12C,4.000000*%
%ADD13C,1.600000*%
%ADD14R,1.600000X1.600000*%
%ADD15C,2.250000*%
%ADD16C,2.050000*%
G04 APERTURE END LIST*
D10*
%TO.C,CRT1*%
X80538837Y-67190312D03*
X84018314Y-69965102D03*
X85949279Y-73974791D03*
X85949279Y-78425209D03*
X80538837Y-85209688D03*
X71861163Y-85209688D03*
X68381686Y-82434898D03*
X66450721Y-78425209D03*
X66450721Y-73974791D03*
X68381686Y-69965102D03*
X71861163Y-67190312D03*
X76200000Y-66200000D03*
%TD*%
D11*
%TO.C,REF\u002A\u002A*%
X62200000Y-91800000D03*
%TD*%
%TO.C,REF\u002A\u002A*%
X90200000Y-91800000D03*
%TD*%
%TO.C,REF\u002A\u002A*%
X56200000Y-76200000D03*
%TD*%
D12*
%TO.C,J1*%
X63760000Y-59200000D03*
X88760000Y-59200000D03*
D13*
X80415000Y-57780000D03*
X77645000Y-57780000D03*
X74875000Y-57780000D03*
X72105000Y-57780000D03*
X81800000Y-60620000D03*
X79030000Y-60620000D03*
X76260000Y-60620000D03*
X73490000Y-60620000D03*
D14*
X70720000Y-60620000D03*
%TD*%
%TO.C,JP1*%
G36*
G01*
X63100000Y-82099998D02*
X63100000Y-83000002D01*
G75*
G02*
X62850002Y-83250000I-249998J0D01*
G01*
X62324998Y-83250000D01*
G75*
G02*
X62075000Y-83000002I0J249998D01*
G01*
X62075000Y-82099998D01*
G75*
G02*
X62324998Y-81850000I249998J0D01*
G01*
X62850002Y-81850000D01*
G75*
G02*
X63100000Y-82099998I0J-249998D01*
G01*
G37*
G36*
G01*
X64925000Y-82099998D02*
X64925000Y-83000002D01*
G75*
G02*
X64675002Y-83250000I-249998J0D01*
G01*
X64149998Y-83250000D01*
G75*
G02*
X63900000Y-83000002I0J249998D01*
G01*
X63900000Y-82099998D01*
G75*
G02*
X64149998Y-81850000I249998J0D01*
G01*
X64675002Y-81850000D01*
G75*
G02*
X64925000Y-82099998I0J-249998D01*
G01*
G37*
%TD*%
D15*
%TO.C,J5*%
X92660000Y-84740000D03*
X92660000Y-79660000D03*
X97740000Y-79660000D03*
X97740000Y-84740000D03*
D16*
X95200000Y-82200000D03*
%TD*%
D15*
%TO.C,J4*%
X92660000Y-72740000D03*
X92660000Y-67660000D03*
X97740000Y-67660000D03*
X97740000Y-72740000D03*
D16*
X95200000Y-70200000D03*
%TD*%
D15*
%TO.C,J3*%
X67660000Y-97740000D03*
X67660000Y-92660000D03*
X72740000Y-92660000D03*
X72740000Y-97740000D03*
D16*
X70200000Y-95200000D03*
%TD*%
D15*
%TO.C,J2*%
X79660000Y-97740000D03*
X79660000Y-92660000D03*
X84740000Y-92660000D03*
X84740000Y-97740000D03*
D16*
X82200000Y-95200000D03*
%TD*%
M02*
