M48
; DRILL file {KiCad 5.1.10} date Thu May  5 11:04:21 2022
; FORMAT={-:-/ absolute / metric / decimal}
; #@! TF.CreationDate,2022-05-05T11:04:21+02:00
; #@! TF.GenerationSoftware,Kicad,Pcbnew,5.1.10
; #@! TF.FileFunction,Plated,1,2,PTH
FMAT,2
METRIC
T1C0.800
T2C1.500
T3C1.700
T4C3.200
%
G90
G05
T1
X54.69Y-68.58
X59.69Y-68.58
X69.215Y-74.295
X69.215Y-79.295
X72.39Y-71.12
X72.39Y-76.12
X74.295Y-82.55
X76.2Y-69.93
X76.2Y-74.93
X77.47Y-78.74
X79.295Y-82.55
X80.01Y-69.93
X80.01Y-74.93
X82.47Y-78.74
T2
X66.451Y-73.975
X66.451Y-78.425
X68.382Y-69.965
X68.382Y-82.435
X70.2Y-95.2
X70.72Y-60.62
X71.861Y-67.19
X71.861Y-85.21
X72.105Y-57.78
X73.49Y-60.62
X74.875Y-57.78
X76.2Y-66.2
X76.26Y-60.62
X77.645Y-57.78
X79.03Y-60.62
X80.415Y-57.78
X80.539Y-67.19
X80.539Y-85.21
X81.8Y-60.62
X82.2Y-95.2
X84.018Y-69.965
X85.949Y-73.975
X85.949Y-78.425
X95.2Y-70.2
X95.2Y-82.2
T3
X67.66Y-92.66
X67.66Y-97.74
X72.74Y-92.66
X72.74Y-97.74
X79.66Y-92.66
X79.66Y-97.74
X84.74Y-92.66
X84.74Y-97.74
X92.66Y-67.66
X92.66Y-72.74
X92.66Y-79.66
X92.66Y-84.74
X97.74Y-67.66
X97.74Y-72.74
X97.74Y-79.66
X97.74Y-84.74
T4
X56.2Y-76.2
X62.2Y-91.8
X63.76Y-59.2
X88.76Y-59.2
X90.2Y-91.8
T0
M30
