%TF.GenerationSoftware,KiCad,Pcbnew,5.1.10*%
%TF.CreationDate,2022-04-07T14:12:36+02:00*%
%TF.ProjectId,breakoutPcb,62726561-6b6f-4757-9450-63622e6b6963,rev?*%
%TF.SameCoordinates,Original*%
%TF.FileFunction,Copper,L2,Bot*%
%TF.FilePolarity,Positive*%
%FSLAX46Y46*%
G04 Gerber Fmt 4.6, Leading zero omitted, Abs format (unit mm)*
G04 Created by KiCad (PCBNEW 5.1.10) date 2022-04-07 14:12:36*
%MOMM*%
%LPD*%
G01*
G04 APERTURE LIST*
%TA.AperFunction,ComponentPad*%
%ADD10C,2.000000*%
%TD*%
%TA.AperFunction,ComponentPad*%
%ADD11C,5.600000*%
%TD*%
%TA.AperFunction,SMDPad,CuDef*%
%ADD12R,1.550000X1.300000*%
%TD*%
%TA.AperFunction,SMDPad,CuDef*%
%ADD13R,1.300000X1.550000*%
%TD*%
%TA.AperFunction,ComponentPad*%
%ADD14C,4.000000*%
%TD*%
%TA.AperFunction,ComponentPad*%
%ADD15C,1.600000*%
%TD*%
%TA.AperFunction,ComponentPad*%
%ADD16R,1.600000X1.600000*%
%TD*%
%TA.AperFunction,ComponentPad*%
%ADD17C,2.250000*%
%TD*%
%TA.AperFunction,ComponentPad*%
%ADD18C,2.050000*%
%TD*%
%TA.AperFunction,Conductor*%
%ADD19C,0.250000*%
%TD*%
%TA.AperFunction,Conductor*%
%ADD20C,0.254000*%
%TD*%
%TA.AperFunction,Conductor*%
%ADD21C,0.100000*%
%TD*%
G04 APERTURE END LIST*
D10*
%TO.P,CRT1,14*%
%TO.N,Net-(CRT1-Pad14)*%
X80538837Y-67190312D03*
%TO.P,CRT1,13*%
%TO.N,Net-(C3-Pad2)*%
X84018314Y-69965102D03*
%TO.P,CRT1,12*%
%TO.N,Net-(CRT1-Pad12)*%
X85949279Y-73974791D03*
%TO.P,CRT1,11*%
%TO.N,Net-(C4-Pad2)*%
X85949279Y-78425209D03*
%TO.P,CRT1,9*%
%TO.N,Net-(C1-Pad2)*%
X80538837Y-85209688D03*
%TO.P,CRT1,7*%
%TO.N,Net-(C2-Pad2)*%
X71861163Y-85209688D03*
%TO.P,CRT1,6*%
%TO.N,Net-(CRT1-Pad6)*%
X68381686Y-82434898D03*
%TO.P,CRT1,5*%
%TO.N,Net-(CRT1-Pad5)*%
X66450721Y-78425209D03*
%TO.P,CRT1,4*%
%TO.N,Net-(CRT1-Pad4)*%
X66450721Y-73974791D03*
%TO.P,CRT1,3*%
%TO.N,Net-(CRT1-Pad3)*%
X68381686Y-69965102D03*
%TO.P,CRT1,2*%
%TO.N,Net-(CRT1-Pad2)*%
X71861163Y-67190312D03*
%TO.P,CRT1,1*%
%TO.N,Net-(CRT1-Pad1)*%
X76200000Y-66200000D03*
%TD*%
D11*
%TO.P,REF\u002A\u002A,1*%
%TO.N,GND*%
X62200000Y-91800000D03*
%TD*%
%TO.P,REF\u002A\u002A,1*%
%TO.N,GND*%
X90200000Y-91800000D03*
%TD*%
%TO.P,REF\u002A\u002A,1*%
%TO.N,GND*%
X56200000Y-76200000D03*
%TD*%
D12*
%TO.P,L4,2*%
%TO.N,GND*%
X88905000Y-67310000D03*
%TO.P,L4,1*%
%TO.N,Net-(C3-Pad2)*%
X86355000Y-67310000D03*
%TD*%
D13*
%TO.P,L3,2*%
%TO.N,GND*%
X88900000Y-76195000D03*
%TO.P,L3,1*%
%TO.N,Net-(C4-Pad2)*%
X88900000Y-78745000D03*
%TD*%
D12*
%TO.P,L2,2*%
%TO.N,GND*%
X83825000Y-88900000D03*
%TO.P,L2,1*%
%TO.N,Net-(C1-Pad2)*%
X81275000Y-88900000D03*
%TD*%
%TO.P,L1,2*%
%TO.N,GND*%
X73665000Y-88900000D03*
%TO.P,L1,1*%
%TO.N,Net-(C2-Pad2)*%
X71115000Y-88900000D03*
%TD*%
D14*
%TO.P,J1,0*%
%TO.N,GND*%
X63760000Y-59200000D03*
X88760000Y-59200000D03*
D15*
%TO.P,J1,9*%
%TO.N,Net-(CRT1-Pad12)*%
X80415000Y-57780000D03*
%TO.P,J1,8*%
%TO.N,GND*%
X77645000Y-57780000D03*
%TO.P,J1,7*%
%TO.N,Net-(CRT1-Pad5)*%
X74875000Y-57780000D03*
%TO.P,J1,6*%
%TO.N,Net-(CRT1-Pad4)*%
X72105000Y-57780000D03*
%TO.P,J1,5*%
%TO.N,Net-(CRT1-Pad14)*%
X81800000Y-60620000D03*
%TO.P,J1,4*%
%TO.N,Net-(CRT1-Pad1)*%
X79030000Y-60620000D03*
%TO.P,J1,3*%
%TO.N,Net-(CRT1-Pad2)*%
X76260000Y-60620000D03*
%TO.P,J1,2*%
%TO.N,Net-(CRT1-Pad3)*%
X73490000Y-60620000D03*
D16*
%TO.P,J1,1*%
%TO.N,Net-(CRT1-Pad6)*%
X70720000Y-60620000D03*
%TD*%
%TO.P,JP2,2*%
%TO.N,GND*%
%TA.AperFunction,SMDPad,CuDef*%
G36*
G01*
X63100000Y-78289998D02*
X63100000Y-79190002D01*
G75*
G02*
X62850002Y-79440000I-249998J0D01*
G01*
X62324998Y-79440000D01*
G75*
G02*
X62075000Y-79190002I0J249998D01*
G01*
X62075000Y-78289998D01*
G75*
G02*
X62324998Y-78040000I249998J0D01*
G01*
X62850002Y-78040000D01*
G75*
G02*
X63100000Y-78289998I0J-249998D01*
G01*
G37*
%TD.AperFunction*%
%TO.P,JP2,1*%
%TO.N,Net-(CRT1-Pad5)*%
%TA.AperFunction,SMDPad,CuDef*%
G36*
G01*
X64925000Y-78289998D02*
X64925000Y-79190002D01*
G75*
G02*
X64675002Y-79440000I-249998J0D01*
G01*
X64149998Y-79440000D01*
G75*
G02*
X63900000Y-79190002I0J249998D01*
G01*
X63900000Y-78289998D01*
G75*
G02*
X64149998Y-78040000I249998J0D01*
G01*
X64675002Y-78040000D01*
G75*
G02*
X64925000Y-78289998I0J-249998D01*
G01*
G37*
%TD.AperFunction*%
%TD*%
D17*
%TO.P,J5,2*%
%TO.N,GND*%
X92660000Y-84740000D03*
X92660000Y-79660000D03*
X97740000Y-79660000D03*
X97740000Y-84740000D03*
D18*
%TO.P,J5,1*%
%TO.N,Net-(C4-Pad1)*%
X95200000Y-82200000D03*
%TD*%
D17*
%TO.P,J4,2*%
%TO.N,GND*%
X92660000Y-72740000D03*
X92660000Y-67660000D03*
X97740000Y-67660000D03*
X97740000Y-72740000D03*
D18*
%TO.P,J4,1*%
%TO.N,Net-(C3-Pad1)*%
X95200000Y-70200000D03*
%TD*%
D17*
%TO.P,J3,2*%
%TO.N,GND*%
X67660000Y-97740000D03*
X67660000Y-92660000D03*
X72740000Y-92660000D03*
X72740000Y-97740000D03*
D18*
%TO.P,J3,1*%
%TO.N,Net-(C2-Pad1)*%
X70200000Y-95200000D03*
%TD*%
D17*
%TO.P,J2,2*%
%TO.N,GND*%
X79660000Y-97740000D03*
X79660000Y-92660000D03*
X84740000Y-92660000D03*
X84740000Y-97740000D03*
D18*
%TO.P,J2,1*%
%TO.N,Net-(C1-Pad1)*%
X82200000Y-95200000D03*
%TD*%
%TO.P,C4,2*%
%TO.N,Net-(C4-Pad2)*%
%TA.AperFunction,SMDPad,CuDef*%
G36*
G01*
X88810000Y-82450000D02*
X88810000Y-82650000D01*
G75*
G02*
X88710000Y-82750000I-100000J0D01*
G01*
X88450000Y-82750000D01*
G75*
G02*
X88350000Y-82650000I0J100000D01*
G01*
X88350000Y-82450000D01*
G75*
G02*
X88450000Y-82350000I100000J0D01*
G01*
X88710000Y-82350000D01*
G75*
G02*
X88810000Y-82450000I0J-100000D01*
G01*
G37*
%TD.AperFunction*%
%TO.P,C4,1*%
%TO.N,Net-(C4-Pad1)*%
%TA.AperFunction,SMDPad,CuDef*%
G36*
G01*
X89450000Y-82450000D02*
X89450000Y-82650000D01*
G75*
G02*
X89350000Y-82750000I-100000J0D01*
G01*
X89090000Y-82750000D01*
G75*
G02*
X88990000Y-82650000I0J100000D01*
G01*
X88990000Y-82450000D01*
G75*
G02*
X89090000Y-82350000I100000J0D01*
G01*
X89350000Y-82350000D01*
G75*
G02*
X89450000Y-82450000I0J-100000D01*
G01*
G37*
%TD.AperFunction*%
%TD*%
%TO.P,C3,2*%
%TO.N,Net-(C3-Pad2)*%
%TA.AperFunction,SMDPad,CuDef*%
G36*
G01*
X87540000Y-69750000D02*
X87540000Y-69950000D01*
G75*
G02*
X87440000Y-70050000I-100000J0D01*
G01*
X87180000Y-70050000D01*
G75*
G02*
X87080000Y-69950000I0J100000D01*
G01*
X87080000Y-69750000D01*
G75*
G02*
X87180000Y-69650000I100000J0D01*
G01*
X87440000Y-69650000D01*
G75*
G02*
X87540000Y-69750000I0J-100000D01*
G01*
G37*
%TD.AperFunction*%
%TO.P,C3,1*%
%TO.N,Net-(C3-Pad1)*%
%TA.AperFunction,SMDPad,CuDef*%
G36*
G01*
X88180000Y-69750000D02*
X88180000Y-69950000D01*
G75*
G02*
X88080000Y-70050000I-100000J0D01*
G01*
X87820000Y-70050000D01*
G75*
G02*
X87720000Y-69950000I0J100000D01*
G01*
X87720000Y-69750000D01*
G75*
G02*
X87820000Y-69650000I100000J0D01*
G01*
X88080000Y-69650000D01*
G75*
G02*
X88180000Y-69750000I0J-100000D01*
G01*
G37*
%TD.AperFunction*%
%TD*%
%TO.P,C2,2*%
%TO.N,Net-(C2-Pad2)*%
%TA.AperFunction,SMDPad,CuDef*%
G36*
G01*
X68680000Y-88810000D02*
X68480000Y-88810000D01*
G75*
G02*
X68380000Y-88710000I0J100000D01*
G01*
X68380000Y-88450000D01*
G75*
G02*
X68480000Y-88350000I100000J0D01*
G01*
X68680000Y-88350000D01*
G75*
G02*
X68780000Y-88450000I0J-100000D01*
G01*
X68780000Y-88710000D01*
G75*
G02*
X68680000Y-88810000I-100000J0D01*
G01*
G37*
%TD.AperFunction*%
%TO.P,C2,1*%
%TO.N,Net-(C2-Pad1)*%
%TA.AperFunction,SMDPad,CuDef*%
G36*
G01*
X68680000Y-89450000D02*
X68480000Y-89450000D01*
G75*
G02*
X68380000Y-89350000I0J100000D01*
G01*
X68380000Y-89090000D01*
G75*
G02*
X68480000Y-88990000I100000J0D01*
G01*
X68680000Y-88990000D01*
G75*
G02*
X68780000Y-89090000I0J-100000D01*
G01*
X68780000Y-89350000D01*
G75*
G02*
X68680000Y-89450000I-100000J0D01*
G01*
G37*
%TD.AperFunction*%
%TD*%
%TO.P,C1,2*%
%TO.N,Net-(C1-Pad2)*%
%TA.AperFunction,SMDPad,CuDef*%
G36*
G01*
X78840000Y-88810000D02*
X78640000Y-88810000D01*
G75*
G02*
X78540000Y-88710000I0J100000D01*
G01*
X78540000Y-88450000D01*
G75*
G02*
X78640000Y-88350000I100000J0D01*
G01*
X78840000Y-88350000D01*
G75*
G02*
X78940000Y-88450000I0J-100000D01*
G01*
X78940000Y-88710000D01*
G75*
G02*
X78840000Y-88810000I-100000J0D01*
G01*
G37*
%TD.AperFunction*%
%TO.P,C1,1*%
%TO.N,Net-(C1-Pad1)*%
%TA.AperFunction,SMDPad,CuDef*%
G36*
G01*
X78840000Y-89450000D02*
X78640000Y-89450000D01*
G75*
G02*
X78540000Y-89350000I0J100000D01*
G01*
X78540000Y-89090000D01*
G75*
G02*
X78640000Y-88990000I100000J0D01*
G01*
X78840000Y-88990000D01*
G75*
G02*
X78940000Y-89090000I0J-100000D01*
G01*
X78940000Y-89350000D01*
G75*
G02*
X78840000Y-89450000I-100000J0D01*
G01*
G37*
%TD.AperFunction*%
%TD*%
D19*
%TO.N,Net-(C1-Pad2)*%
X81155000Y-88580000D02*
X81475000Y-88900000D01*
X78740000Y-88580000D02*
X81155000Y-88580000D01*
X81475000Y-86145851D02*
X80538837Y-85209688D01*
X81475000Y-88900000D02*
X81475000Y-86145851D01*
%TO.N,Net-(C1-Pad1)*%
X82200000Y-92680000D02*
X82200000Y-95200000D01*
X78740000Y-89220000D02*
X82200000Y-92680000D01*
%TO.N,Net-(C2-Pad2)*%
X70995000Y-88580000D02*
X71315000Y-88900000D01*
X68580000Y-88580000D02*
X70995000Y-88580000D01*
X71861163Y-88353837D02*
X71315000Y-88900000D01*
X71861163Y-85209688D02*
X71861163Y-88353837D01*
%TO.N,Net-(C2-Pad1)*%
X68495010Y-89220000D02*
X68580000Y-89220000D01*
X70200000Y-91790000D02*
X70200000Y-95200000D01*
X68580000Y-90170000D02*
X70200000Y-91790000D01*
X68580000Y-89220000D02*
X68580000Y-90170000D01*
%TO.N,Net-(C3-Pad2)*%
X86555000Y-67428416D02*
X86555000Y-67310000D01*
X84018314Y-69965102D02*
X86555000Y-67428416D01*
X86555000Y-69095000D02*
X87310000Y-69850000D01*
X86555000Y-67310000D02*
X86555000Y-69095000D01*
%TO.N,Net-(C3-Pad1)*%
X94850000Y-69850000D02*
X95200000Y-70200000D01*
X87950000Y-69850000D02*
X94850000Y-69850000D01*
%TO.N,Net-(C4-Pad2)*%
X85949279Y-78425209D02*
X88664990Y-81140920D01*
X88664990Y-81140920D02*
X88664990Y-82273952D01*
X88664990Y-82273952D02*
X88664990Y-82550000D01*
X88664990Y-78980010D02*
X88900000Y-78745000D01*
X88664990Y-81140920D02*
X88664990Y-78980010D01*
%TO.N,Net-(C4-Pad1)*%
X89220000Y-82550000D02*
X95250000Y-82550000D01*
%TO.N,Net-(CRT1-Pad4)*%
X70490000Y-57780000D02*
X72105000Y-57780000D01*
X68580000Y-63500000D02*
X68580000Y-59690000D01*
X64770000Y-67310000D02*
X68580000Y-63500000D01*
X64770000Y-72294070D02*
X64770000Y-67310000D01*
X68580000Y-59690000D02*
X70490000Y-57780000D01*
X66450721Y-73974791D02*
X64770000Y-72294070D01*
%TO.N,GND*%
X92625010Y-79690000D02*
X92710000Y-79690000D01*
X92710000Y-80330000D02*
X92529999Y-80510001D01*
X88705000Y-67310000D02*
X92710000Y-67310000D01*
X83820000Y-92710000D02*
X83820000Y-97790000D01*
X83820000Y-97790000D02*
X78740000Y-97790000D01*
X78740000Y-97790000D02*
X78740000Y-92710000D01*
X92710000Y-67310000D02*
X97790000Y-67310000D01*
X97790000Y-67310000D02*
X97790000Y-72390000D01*
X97790000Y-72390000D02*
X92710000Y-72390000D01*
X62587500Y-78740000D02*
X62587500Y-85447500D01*
X74930000Y-88900000D02*
X78740000Y-92710000D01*
X73465000Y-88900000D02*
X74930000Y-88900000D01*
X88240000Y-66845000D02*
X88705000Y-67310000D01*
X92710000Y-74930000D02*
X92710000Y-72390000D01*
X63700000Y-60810000D02*
X69900000Y-54610000D01*
X69900000Y-54610000D02*
X76200000Y-54610000D01*
X88700000Y-60810000D02*
X82550000Y-54660000D01*
X76250000Y-54660000D02*
X76200000Y-54610000D01*
X92710000Y-64820000D02*
X88700000Y-60810000D01*
X92710000Y-67310000D02*
X92710000Y-64820000D01*
X63500000Y-92710000D02*
X68580000Y-92710000D01*
X59690000Y-88900000D02*
X63500000Y-92710000D01*
X62587500Y-85447500D02*
X61872500Y-85447500D01*
X59690000Y-87630000D02*
X59690000Y-88900000D01*
X61872500Y-85447500D02*
X59690000Y-87630000D01*
X88900000Y-76195000D02*
X92705000Y-76195000D01*
X92710000Y-76200000D02*
X92710000Y-74930000D01*
X92705000Y-76195000D02*
X92710000Y-76200000D01*
X92710000Y-80010000D02*
X92710000Y-76200000D01*
X92710000Y-80010000D02*
X97790000Y-80010000D01*
X97790000Y-80010000D02*
X97790000Y-85090000D01*
X97790000Y-85090000D02*
X92710000Y-85090000D01*
X88900000Y-88900000D02*
X92710000Y-85090000D01*
X83625000Y-88900000D02*
X88900000Y-88900000D01*
X83820000Y-89095000D02*
X83625000Y-88900000D01*
X83820000Y-92710000D02*
X83820000Y-89095000D01*
X59690000Y-87630000D02*
X59690000Y-86360000D01*
X59690000Y-86360000D02*
X55880000Y-82550000D01*
X55880000Y-68630000D02*
X63700000Y-60810000D01*
X55880000Y-82550000D02*
X55880000Y-68630000D01*
X73660000Y-97790000D02*
X78740000Y-97790000D01*
X73660000Y-97790000D02*
X68580000Y-97790000D01*
X68580000Y-97790000D02*
X68580000Y-92710000D01*
X73660000Y-92710000D02*
X73660000Y-97790000D01*
X77645000Y-57780000D02*
X77645000Y-54785000D01*
X77520000Y-54660000D02*
X76250000Y-54660000D01*
X77645000Y-54785000D02*
X77520000Y-54660000D01*
X82550000Y-54660000D02*
X77520000Y-54660000D01*
%TO.N,Net-(CRT1-Pad5)*%
X63500000Y-75474488D02*
X66450721Y-78425209D01*
X66135930Y-78740000D02*
X66450721Y-78425209D01*
X64412500Y-78740000D02*
X66135930Y-78740000D01*
X63500000Y-75474488D02*
X63500000Y-66040000D01*
X66859990Y-62680010D02*
X66859990Y-60140010D01*
X63500000Y-66040000D02*
X66859990Y-62680010D01*
X66859990Y-60140010D02*
X71120000Y-55880000D01*
X71120000Y-55880000D02*
X74930000Y-55880000D01*
X74930000Y-57725000D02*
X74875000Y-57780000D01*
X74930000Y-55880000D02*
X74930000Y-57725000D01*
%TD*%
D20*
%TO.N,GND*%
X78210820Y-68434663D02*
X78498313Y-68864927D01*
X78864222Y-69230836D01*
X79294486Y-69518329D01*
X79772569Y-69716358D01*
X80280100Y-69817312D01*
X80797574Y-69817312D01*
X81305105Y-69716358D01*
X81396889Y-69678340D01*
X81391314Y-69706365D01*
X81391314Y-70223839D01*
X81492268Y-70731370D01*
X81690297Y-71209453D01*
X81977790Y-71639717D01*
X82343699Y-72005626D01*
X82773963Y-72293119D01*
X83252046Y-72491148D01*
X83719079Y-72584046D01*
X83621262Y-72730440D01*
X83423233Y-73208523D01*
X83322279Y-73716054D01*
X83322279Y-74233528D01*
X83423233Y-74741059D01*
X83621262Y-75219142D01*
X83908755Y-75649406D01*
X84274664Y-76015315D01*
X84551065Y-76200000D01*
X84274664Y-76384685D01*
X83908755Y-76750594D01*
X83621262Y-77180858D01*
X83423233Y-77658941D01*
X83322279Y-78166472D01*
X83322279Y-78683946D01*
X83423233Y-79191477D01*
X83621262Y-79669560D01*
X83908755Y-80099824D01*
X84274664Y-80465733D01*
X84704928Y-80753226D01*
X85183011Y-80951255D01*
X85690542Y-81052209D01*
X86098577Y-81052209D01*
X86843760Y-81797392D01*
X86748463Y-82111543D01*
X86715128Y-82450000D01*
X86715128Y-82650000D01*
X86748463Y-82988457D01*
X86847187Y-83313907D01*
X87007507Y-83613843D01*
X87223260Y-83876740D01*
X87486157Y-84092493D01*
X87786093Y-84252813D01*
X88111543Y-84351537D01*
X88450000Y-84384872D01*
X88710000Y-84384872D01*
X88900000Y-84366159D01*
X89090000Y-84384872D01*
X89350000Y-84384872D01*
X89688457Y-84351537D01*
X89851759Y-84302000D01*
X90955273Y-84302000D01*
X90915140Y-84451705D01*
X90892424Y-84797650D01*
X90937634Y-85141380D01*
X91049034Y-85469685D01*
X91158286Y-85674079D01*
X91435469Y-85784926D01*
X92480395Y-84740000D01*
X92466253Y-84725858D01*
X92645858Y-84546253D01*
X92660000Y-84560395D01*
X92674143Y-84546253D01*
X92853748Y-84725858D01*
X92839605Y-84740000D01*
X93884531Y-85784926D01*
X94161714Y-85674079D01*
X94315089Y-85363160D01*
X94404860Y-85028295D01*
X94423216Y-84748750D01*
X94426440Y-84750085D01*
X94938801Y-84852000D01*
X95461199Y-84852000D01*
X95973560Y-84750085D01*
X95975603Y-84749239D01*
X95972424Y-84797650D01*
X96017634Y-85141380D01*
X96129034Y-85469685D01*
X96238286Y-85674079D01*
X96515469Y-85784926D01*
X97145616Y-85154779D01*
X96878959Y-85780646D01*
X96695074Y-85964531D01*
X96741090Y-86079599D01*
X95943647Y-87599000D01*
X94962386Y-89150740D01*
X93859444Y-90618490D01*
X93540055Y-90979005D01*
X93392130Y-90486994D01*
X93074639Y-89889470D01*
X93065177Y-89875308D01*
X92616481Y-89563124D01*
X90379605Y-91800000D01*
X90393748Y-91814143D01*
X90214143Y-91993748D01*
X90200000Y-91979605D01*
X87963124Y-94216481D01*
X88275308Y-94665177D01*
X88871259Y-94985612D01*
X89019027Y-95030835D01*
X88384752Y-95468644D01*
X86794759Y-96386626D01*
X86062311Y-96734177D01*
X85964531Y-96695074D01*
X85801827Y-96857778D01*
X85136055Y-97173691D01*
X85120991Y-97179404D01*
X85784926Y-96515469D01*
X85674079Y-96238286D01*
X85363160Y-96084911D01*
X85028295Y-95995140D01*
X84748750Y-95976784D01*
X84750085Y-95973560D01*
X84852000Y-95461199D01*
X84852000Y-94938801D01*
X84750085Y-94426440D01*
X84749239Y-94424397D01*
X84797650Y-94427576D01*
X85141380Y-94382366D01*
X85469685Y-94270966D01*
X85674079Y-94161714D01*
X85784926Y-93884531D01*
X84740000Y-92839605D01*
X84725858Y-92853748D01*
X84546253Y-92674143D01*
X84560395Y-92660000D01*
X84919605Y-92660000D01*
X85964531Y-93704926D01*
X86241714Y-93594079D01*
X86395089Y-93283160D01*
X86484860Y-92948295D01*
X86507576Y-92602350D01*
X86462366Y-92258620D01*
X86350966Y-91930315D01*
X86276759Y-91791484D01*
X86748390Y-91791484D01*
X86813051Y-92465023D01*
X87007870Y-93113006D01*
X87325361Y-93710530D01*
X87334823Y-93724692D01*
X87783519Y-94036876D01*
X90020395Y-91800000D01*
X87783519Y-89563124D01*
X87334823Y-89875308D01*
X87014388Y-90471259D01*
X86816374Y-91118273D01*
X86748390Y-91791484D01*
X86276759Y-91791484D01*
X86241714Y-91725921D01*
X85964531Y-91615074D01*
X84919605Y-92660000D01*
X84560395Y-92660000D01*
X83734353Y-91833958D01*
X83663783Y-91701931D01*
X83499711Y-91502008D01*
X83499705Y-91502002D01*
X83445103Y-91435469D01*
X83695074Y-91435469D01*
X84740000Y-92480395D01*
X85784926Y-91435469D01*
X85674079Y-91158286D01*
X85363160Y-91004911D01*
X85028295Y-90915140D01*
X84682350Y-90892424D01*
X84338620Y-90937634D01*
X84010315Y-91049034D01*
X83805921Y-91158286D01*
X83695074Y-91435469D01*
X83445103Y-91435469D01*
X83444845Y-91435155D01*
X83377999Y-91380296D01*
X82924896Y-90927193D01*
X82958286Y-90909346D01*
X83206029Y-90706029D01*
X83409346Y-90458286D01*
X83560425Y-90175638D01*
X83565569Y-90158681D01*
X83698000Y-90026250D01*
X83698000Y-89027000D01*
X83952000Y-89027000D01*
X83952000Y-90026250D01*
X84110750Y-90185000D01*
X84600000Y-90188072D01*
X84724482Y-90175812D01*
X84844180Y-90139502D01*
X84954494Y-90080537D01*
X85051185Y-90001185D01*
X85130537Y-89904494D01*
X85189502Y-89794180D01*
X85225812Y-89674482D01*
X85238072Y-89550000D01*
X85236668Y-89383519D01*
X87963124Y-89383519D01*
X90200000Y-91620395D01*
X92436876Y-89383519D01*
X92124692Y-88934823D01*
X91528741Y-88614388D01*
X90881727Y-88416374D01*
X90208516Y-88348390D01*
X89534977Y-88413051D01*
X88886994Y-88607870D01*
X88289470Y-88925361D01*
X88275308Y-88934823D01*
X87963124Y-89383519D01*
X85236668Y-89383519D01*
X85235000Y-89185750D01*
X85076250Y-89027000D01*
X83952000Y-89027000D01*
X83698000Y-89027000D01*
X83684872Y-89027000D01*
X83684872Y-88773000D01*
X83698000Y-88773000D01*
X83698000Y-87773750D01*
X83952000Y-87773750D01*
X83952000Y-88773000D01*
X85076250Y-88773000D01*
X85235000Y-88614250D01*
X85238072Y-88250000D01*
X85225812Y-88125518D01*
X85189502Y-88005820D01*
X85130537Y-87895506D01*
X85051185Y-87798815D01*
X84954494Y-87719463D01*
X84844180Y-87660498D01*
X84724482Y-87624188D01*
X84600000Y-87611928D01*
X84110750Y-87615000D01*
X83952000Y-87773750D01*
X83698000Y-87773750D01*
X83565569Y-87641319D01*
X83560425Y-87624362D01*
X83409346Y-87341714D01*
X83227000Y-87119524D01*
X83227000Y-86231908D01*
X83235476Y-86145850D01*
X83227000Y-86059792D01*
X83227000Y-86059782D01*
X83217619Y-85964531D01*
X91615074Y-85964531D01*
X91725921Y-86241714D01*
X92036840Y-86395089D01*
X92371705Y-86484860D01*
X92717650Y-86507576D01*
X93061380Y-86462366D01*
X93389685Y-86350966D01*
X93594079Y-86241714D01*
X93704926Y-85964531D01*
X92660000Y-84919605D01*
X91615074Y-85964531D01*
X83217619Y-85964531D01*
X83201650Y-85802399D01*
X83139898Y-85598830D01*
X83165837Y-85468425D01*
X83165837Y-84950951D01*
X83064883Y-84443420D01*
X82866854Y-83965337D01*
X82579361Y-83535073D01*
X82213452Y-83169164D01*
X81783188Y-82881671D01*
X81305105Y-82683642D01*
X80797574Y-82582688D01*
X80280100Y-82582688D01*
X79772569Y-82683642D01*
X79294486Y-82881671D01*
X78864222Y-83169164D01*
X78498313Y-83535073D01*
X78210820Y-83965337D01*
X78012791Y-84443420D01*
X77911837Y-84950951D01*
X77911837Y-85468425D01*
X78012791Y-85975956D01*
X78210820Y-86454039D01*
X78401002Y-86738667D01*
X78301543Y-86748463D01*
X77976093Y-86847187D01*
X77676157Y-87007507D01*
X77413260Y-87223260D01*
X77197507Y-87486157D01*
X77037187Y-87786093D01*
X76938463Y-88111543D01*
X76905128Y-88450000D01*
X76905128Y-88710000D01*
X76923841Y-88899999D01*
X76905128Y-89090000D01*
X76905128Y-89350000D01*
X76938463Y-89688457D01*
X77037187Y-90013907D01*
X77197507Y-90313843D01*
X77413260Y-90576740D01*
X77676157Y-90792493D01*
X77976093Y-90952813D01*
X78003392Y-90961094D01*
X79785094Y-92742796D01*
X79674143Y-92853748D01*
X79660000Y-92839605D01*
X78615074Y-93884531D01*
X78725921Y-94161714D01*
X79036840Y-94315089D01*
X79371705Y-94404860D01*
X79651250Y-94423216D01*
X79649915Y-94426440D01*
X79548000Y-94938801D01*
X79548000Y-95461199D01*
X79649915Y-95973560D01*
X79650761Y-95975603D01*
X79602350Y-95972424D01*
X79258620Y-96017634D01*
X78930315Y-96129034D01*
X78725921Y-96238286D01*
X78615074Y-96515469D01*
X79660000Y-97560395D01*
X79674143Y-97546253D01*
X79853748Y-97725858D01*
X79839605Y-97740000D01*
X79853748Y-97754143D01*
X79674143Y-97933748D01*
X79660000Y-97919605D01*
X79645858Y-97933748D01*
X79466253Y-97754143D01*
X79480395Y-97740000D01*
X78435469Y-96695074D01*
X78158286Y-96805921D01*
X78004911Y-97116840D01*
X77915140Y-97451705D01*
X77892424Y-97797650D01*
X77937634Y-98141380D01*
X78049034Y-98469685D01*
X78158286Y-98674079D01*
X78435467Y-98784925D01*
X78332506Y-98887886D01*
X78034477Y-98924073D01*
X76200000Y-98998000D01*
X74365523Y-98924073D01*
X74067494Y-98887886D01*
X73964533Y-98784925D01*
X74241714Y-98674079D01*
X74395089Y-98363160D01*
X74484860Y-98028295D01*
X74507576Y-97682350D01*
X74462366Y-97338620D01*
X74350966Y-97010315D01*
X74241714Y-96805921D01*
X73964531Y-96695074D01*
X72919605Y-97740000D01*
X72933748Y-97754143D01*
X72754143Y-97933748D01*
X72740000Y-97919605D01*
X72725858Y-97933748D01*
X72546253Y-97754143D01*
X72560395Y-97740000D01*
X72546253Y-97725858D01*
X72725858Y-97546253D01*
X72740000Y-97560395D01*
X73784926Y-96515469D01*
X73674079Y-96238286D01*
X73363160Y-96084911D01*
X73028295Y-95995140D01*
X72748750Y-95976784D01*
X72750085Y-95973560D01*
X72852000Y-95461199D01*
X72852000Y-94938801D01*
X72750085Y-94426440D01*
X72749239Y-94424397D01*
X72797650Y-94427576D01*
X73141380Y-94382366D01*
X73469685Y-94270966D01*
X73674079Y-94161714D01*
X73784926Y-93884531D01*
X72740000Y-92839605D01*
X72725858Y-92853748D01*
X72546253Y-92674143D01*
X72560395Y-92660000D01*
X72919605Y-92660000D01*
X73964531Y-93704926D01*
X74241714Y-93594079D01*
X74395089Y-93283160D01*
X74484860Y-92948295D01*
X74500004Y-92717650D01*
X77892424Y-92717650D01*
X77937634Y-93061380D01*
X78049034Y-93389685D01*
X78158286Y-93594079D01*
X78435469Y-93704926D01*
X79480395Y-92660000D01*
X78435469Y-91615074D01*
X78158286Y-91725921D01*
X78004911Y-92036840D01*
X77915140Y-92371705D01*
X77892424Y-92717650D01*
X74500004Y-92717650D01*
X74507576Y-92602350D01*
X74462366Y-92258620D01*
X74350966Y-91930315D01*
X74241714Y-91725921D01*
X73964531Y-91615074D01*
X72919605Y-92660000D01*
X72560395Y-92660000D01*
X72546253Y-92645858D01*
X72725858Y-92466253D01*
X72740000Y-92480395D01*
X73784926Y-91435469D01*
X73674079Y-91158286D01*
X73363160Y-91004911D01*
X73028295Y-90915140D01*
X72808789Y-90900726D01*
X73046029Y-90706029D01*
X73249346Y-90458286D01*
X73400425Y-90175638D01*
X73405569Y-90158681D01*
X73538000Y-90026250D01*
X73538000Y-89027000D01*
X73792000Y-89027000D01*
X73792000Y-90026250D01*
X73950750Y-90185000D01*
X74440000Y-90188072D01*
X74564482Y-90175812D01*
X74684180Y-90139502D01*
X74794494Y-90080537D01*
X74891185Y-90001185D01*
X74970537Y-89904494D01*
X75029502Y-89794180D01*
X75065812Y-89674482D01*
X75078072Y-89550000D01*
X75075000Y-89185750D01*
X74916250Y-89027000D01*
X73792000Y-89027000D01*
X73538000Y-89027000D01*
X73524872Y-89027000D01*
X73524872Y-88904778D01*
X73587813Y-88697289D01*
X73613163Y-88439906D01*
X73613163Y-88439899D01*
X73621639Y-88353838D01*
X73613163Y-88267777D01*
X73613163Y-87773750D01*
X73792000Y-87773750D01*
X73792000Y-88773000D01*
X74916250Y-88773000D01*
X75075000Y-88614250D01*
X75078072Y-88250000D01*
X75065812Y-88125518D01*
X75029502Y-88005820D01*
X74970537Y-87895506D01*
X74891185Y-87798815D01*
X74794494Y-87719463D01*
X74684180Y-87660498D01*
X74564482Y-87624188D01*
X74440000Y-87611928D01*
X73950750Y-87615000D01*
X73792000Y-87773750D01*
X73613163Y-87773750D01*
X73613163Y-87172827D01*
X73901687Y-86884303D01*
X74189180Y-86454039D01*
X74387209Y-85975956D01*
X74488163Y-85468425D01*
X74488163Y-84950951D01*
X74387209Y-84443420D01*
X74189180Y-83965337D01*
X73901687Y-83535073D01*
X73535778Y-83169164D01*
X73105514Y-82881671D01*
X72627431Y-82683642D01*
X72119900Y-82582688D01*
X71602426Y-82582688D01*
X71094895Y-82683642D01*
X71003111Y-82721660D01*
X71008686Y-82693635D01*
X71008686Y-82176161D01*
X70907732Y-81668630D01*
X70709703Y-81190547D01*
X70422210Y-80760283D01*
X70056301Y-80394374D01*
X69626037Y-80106881D01*
X69147954Y-79908852D01*
X68680921Y-79815954D01*
X68778738Y-79669560D01*
X68976767Y-79191477D01*
X69077721Y-78683946D01*
X69077721Y-78166472D01*
X68976767Y-77658941D01*
X68778738Y-77180858D01*
X68491245Y-76750594D01*
X68125336Y-76384685D01*
X67848935Y-76200000D01*
X68125336Y-76015315D01*
X68491245Y-75649406D01*
X68778738Y-75219142D01*
X68976767Y-74741059D01*
X69077721Y-74233528D01*
X69077721Y-73716054D01*
X68976767Y-73208523D01*
X68778738Y-72730440D01*
X68680921Y-72584046D01*
X69147954Y-72491148D01*
X69626037Y-72293119D01*
X70056301Y-72005626D01*
X70422210Y-71639717D01*
X70709703Y-71209453D01*
X70907732Y-70731370D01*
X71008686Y-70223839D01*
X71008686Y-69706365D01*
X71003111Y-69678340D01*
X71094895Y-69716358D01*
X71602426Y-69817312D01*
X72119900Y-69817312D01*
X72627431Y-69716358D01*
X73105514Y-69518329D01*
X73535778Y-69230836D01*
X73901687Y-68864927D01*
X74189180Y-68434663D01*
X74344514Y-68059653D01*
X74525385Y-68240524D01*
X74955649Y-68528017D01*
X75433732Y-68726046D01*
X75941263Y-68827000D01*
X76458737Y-68827000D01*
X76966268Y-68726046D01*
X77444351Y-68528017D01*
X77874615Y-68240524D01*
X78055486Y-68059653D01*
X78210820Y-68434663D01*
%TA.AperFunction,Conductor*%
D21*
G36*
X78210820Y-68434663D02*
G01*
X78498313Y-68864927D01*
X78864222Y-69230836D01*
X79294486Y-69518329D01*
X79772569Y-69716358D01*
X80280100Y-69817312D01*
X80797574Y-69817312D01*
X81305105Y-69716358D01*
X81396889Y-69678340D01*
X81391314Y-69706365D01*
X81391314Y-70223839D01*
X81492268Y-70731370D01*
X81690297Y-71209453D01*
X81977790Y-71639717D01*
X82343699Y-72005626D01*
X82773963Y-72293119D01*
X83252046Y-72491148D01*
X83719079Y-72584046D01*
X83621262Y-72730440D01*
X83423233Y-73208523D01*
X83322279Y-73716054D01*
X83322279Y-74233528D01*
X83423233Y-74741059D01*
X83621262Y-75219142D01*
X83908755Y-75649406D01*
X84274664Y-76015315D01*
X84551065Y-76200000D01*
X84274664Y-76384685D01*
X83908755Y-76750594D01*
X83621262Y-77180858D01*
X83423233Y-77658941D01*
X83322279Y-78166472D01*
X83322279Y-78683946D01*
X83423233Y-79191477D01*
X83621262Y-79669560D01*
X83908755Y-80099824D01*
X84274664Y-80465733D01*
X84704928Y-80753226D01*
X85183011Y-80951255D01*
X85690542Y-81052209D01*
X86098577Y-81052209D01*
X86843760Y-81797392D01*
X86748463Y-82111543D01*
X86715128Y-82450000D01*
X86715128Y-82650000D01*
X86748463Y-82988457D01*
X86847187Y-83313907D01*
X87007507Y-83613843D01*
X87223260Y-83876740D01*
X87486157Y-84092493D01*
X87786093Y-84252813D01*
X88111543Y-84351537D01*
X88450000Y-84384872D01*
X88710000Y-84384872D01*
X88900000Y-84366159D01*
X89090000Y-84384872D01*
X89350000Y-84384872D01*
X89688457Y-84351537D01*
X89851759Y-84302000D01*
X90955273Y-84302000D01*
X90915140Y-84451705D01*
X90892424Y-84797650D01*
X90937634Y-85141380D01*
X91049034Y-85469685D01*
X91158286Y-85674079D01*
X91435469Y-85784926D01*
X92480395Y-84740000D01*
X92466253Y-84725858D01*
X92645858Y-84546253D01*
X92660000Y-84560395D01*
X92674143Y-84546253D01*
X92853748Y-84725858D01*
X92839605Y-84740000D01*
X93884531Y-85784926D01*
X94161714Y-85674079D01*
X94315089Y-85363160D01*
X94404860Y-85028295D01*
X94423216Y-84748750D01*
X94426440Y-84750085D01*
X94938801Y-84852000D01*
X95461199Y-84852000D01*
X95973560Y-84750085D01*
X95975603Y-84749239D01*
X95972424Y-84797650D01*
X96017634Y-85141380D01*
X96129034Y-85469685D01*
X96238286Y-85674079D01*
X96515469Y-85784926D01*
X97145616Y-85154779D01*
X96878959Y-85780646D01*
X96695074Y-85964531D01*
X96741090Y-86079599D01*
X95943647Y-87599000D01*
X94962386Y-89150740D01*
X93859444Y-90618490D01*
X93540055Y-90979005D01*
X93392130Y-90486994D01*
X93074639Y-89889470D01*
X93065177Y-89875308D01*
X92616481Y-89563124D01*
X90379605Y-91800000D01*
X90393748Y-91814143D01*
X90214143Y-91993748D01*
X90200000Y-91979605D01*
X87963124Y-94216481D01*
X88275308Y-94665177D01*
X88871259Y-94985612D01*
X89019027Y-95030835D01*
X88384752Y-95468644D01*
X86794759Y-96386626D01*
X86062311Y-96734177D01*
X85964531Y-96695074D01*
X85801827Y-96857778D01*
X85136055Y-97173691D01*
X85120991Y-97179404D01*
X85784926Y-96515469D01*
X85674079Y-96238286D01*
X85363160Y-96084911D01*
X85028295Y-95995140D01*
X84748750Y-95976784D01*
X84750085Y-95973560D01*
X84852000Y-95461199D01*
X84852000Y-94938801D01*
X84750085Y-94426440D01*
X84749239Y-94424397D01*
X84797650Y-94427576D01*
X85141380Y-94382366D01*
X85469685Y-94270966D01*
X85674079Y-94161714D01*
X85784926Y-93884531D01*
X84740000Y-92839605D01*
X84725858Y-92853748D01*
X84546253Y-92674143D01*
X84560395Y-92660000D01*
X84919605Y-92660000D01*
X85964531Y-93704926D01*
X86241714Y-93594079D01*
X86395089Y-93283160D01*
X86484860Y-92948295D01*
X86507576Y-92602350D01*
X86462366Y-92258620D01*
X86350966Y-91930315D01*
X86276759Y-91791484D01*
X86748390Y-91791484D01*
X86813051Y-92465023D01*
X87007870Y-93113006D01*
X87325361Y-93710530D01*
X87334823Y-93724692D01*
X87783519Y-94036876D01*
X90020395Y-91800000D01*
X87783519Y-89563124D01*
X87334823Y-89875308D01*
X87014388Y-90471259D01*
X86816374Y-91118273D01*
X86748390Y-91791484D01*
X86276759Y-91791484D01*
X86241714Y-91725921D01*
X85964531Y-91615074D01*
X84919605Y-92660000D01*
X84560395Y-92660000D01*
X83734353Y-91833958D01*
X83663783Y-91701931D01*
X83499711Y-91502008D01*
X83499705Y-91502002D01*
X83445103Y-91435469D01*
X83695074Y-91435469D01*
X84740000Y-92480395D01*
X85784926Y-91435469D01*
X85674079Y-91158286D01*
X85363160Y-91004911D01*
X85028295Y-90915140D01*
X84682350Y-90892424D01*
X84338620Y-90937634D01*
X84010315Y-91049034D01*
X83805921Y-91158286D01*
X83695074Y-91435469D01*
X83445103Y-91435469D01*
X83444845Y-91435155D01*
X83377999Y-91380296D01*
X82924896Y-90927193D01*
X82958286Y-90909346D01*
X83206029Y-90706029D01*
X83409346Y-90458286D01*
X83560425Y-90175638D01*
X83565569Y-90158681D01*
X83698000Y-90026250D01*
X83698000Y-89027000D01*
X83952000Y-89027000D01*
X83952000Y-90026250D01*
X84110750Y-90185000D01*
X84600000Y-90188072D01*
X84724482Y-90175812D01*
X84844180Y-90139502D01*
X84954494Y-90080537D01*
X85051185Y-90001185D01*
X85130537Y-89904494D01*
X85189502Y-89794180D01*
X85225812Y-89674482D01*
X85238072Y-89550000D01*
X85236668Y-89383519D01*
X87963124Y-89383519D01*
X90200000Y-91620395D01*
X92436876Y-89383519D01*
X92124692Y-88934823D01*
X91528741Y-88614388D01*
X90881727Y-88416374D01*
X90208516Y-88348390D01*
X89534977Y-88413051D01*
X88886994Y-88607870D01*
X88289470Y-88925361D01*
X88275308Y-88934823D01*
X87963124Y-89383519D01*
X85236668Y-89383519D01*
X85235000Y-89185750D01*
X85076250Y-89027000D01*
X83952000Y-89027000D01*
X83698000Y-89027000D01*
X83684872Y-89027000D01*
X83684872Y-88773000D01*
X83698000Y-88773000D01*
X83698000Y-87773750D01*
X83952000Y-87773750D01*
X83952000Y-88773000D01*
X85076250Y-88773000D01*
X85235000Y-88614250D01*
X85238072Y-88250000D01*
X85225812Y-88125518D01*
X85189502Y-88005820D01*
X85130537Y-87895506D01*
X85051185Y-87798815D01*
X84954494Y-87719463D01*
X84844180Y-87660498D01*
X84724482Y-87624188D01*
X84600000Y-87611928D01*
X84110750Y-87615000D01*
X83952000Y-87773750D01*
X83698000Y-87773750D01*
X83565569Y-87641319D01*
X83560425Y-87624362D01*
X83409346Y-87341714D01*
X83227000Y-87119524D01*
X83227000Y-86231908D01*
X83235476Y-86145850D01*
X83227000Y-86059792D01*
X83227000Y-86059782D01*
X83217619Y-85964531D01*
X91615074Y-85964531D01*
X91725921Y-86241714D01*
X92036840Y-86395089D01*
X92371705Y-86484860D01*
X92717650Y-86507576D01*
X93061380Y-86462366D01*
X93389685Y-86350966D01*
X93594079Y-86241714D01*
X93704926Y-85964531D01*
X92660000Y-84919605D01*
X91615074Y-85964531D01*
X83217619Y-85964531D01*
X83201650Y-85802399D01*
X83139898Y-85598830D01*
X83165837Y-85468425D01*
X83165837Y-84950951D01*
X83064883Y-84443420D01*
X82866854Y-83965337D01*
X82579361Y-83535073D01*
X82213452Y-83169164D01*
X81783188Y-82881671D01*
X81305105Y-82683642D01*
X80797574Y-82582688D01*
X80280100Y-82582688D01*
X79772569Y-82683642D01*
X79294486Y-82881671D01*
X78864222Y-83169164D01*
X78498313Y-83535073D01*
X78210820Y-83965337D01*
X78012791Y-84443420D01*
X77911837Y-84950951D01*
X77911837Y-85468425D01*
X78012791Y-85975956D01*
X78210820Y-86454039D01*
X78401002Y-86738667D01*
X78301543Y-86748463D01*
X77976093Y-86847187D01*
X77676157Y-87007507D01*
X77413260Y-87223260D01*
X77197507Y-87486157D01*
X77037187Y-87786093D01*
X76938463Y-88111543D01*
X76905128Y-88450000D01*
X76905128Y-88710000D01*
X76923841Y-88899999D01*
X76905128Y-89090000D01*
X76905128Y-89350000D01*
X76938463Y-89688457D01*
X77037187Y-90013907D01*
X77197507Y-90313843D01*
X77413260Y-90576740D01*
X77676157Y-90792493D01*
X77976093Y-90952813D01*
X78003392Y-90961094D01*
X79785094Y-92742796D01*
X79674143Y-92853748D01*
X79660000Y-92839605D01*
X78615074Y-93884531D01*
X78725921Y-94161714D01*
X79036840Y-94315089D01*
X79371705Y-94404860D01*
X79651250Y-94423216D01*
X79649915Y-94426440D01*
X79548000Y-94938801D01*
X79548000Y-95461199D01*
X79649915Y-95973560D01*
X79650761Y-95975603D01*
X79602350Y-95972424D01*
X79258620Y-96017634D01*
X78930315Y-96129034D01*
X78725921Y-96238286D01*
X78615074Y-96515469D01*
X79660000Y-97560395D01*
X79674143Y-97546253D01*
X79853748Y-97725858D01*
X79839605Y-97740000D01*
X79853748Y-97754143D01*
X79674143Y-97933748D01*
X79660000Y-97919605D01*
X79645858Y-97933748D01*
X79466253Y-97754143D01*
X79480395Y-97740000D01*
X78435469Y-96695074D01*
X78158286Y-96805921D01*
X78004911Y-97116840D01*
X77915140Y-97451705D01*
X77892424Y-97797650D01*
X77937634Y-98141380D01*
X78049034Y-98469685D01*
X78158286Y-98674079D01*
X78435467Y-98784925D01*
X78332506Y-98887886D01*
X78034477Y-98924073D01*
X76200000Y-98998000D01*
X74365523Y-98924073D01*
X74067494Y-98887886D01*
X73964533Y-98784925D01*
X74241714Y-98674079D01*
X74395089Y-98363160D01*
X74484860Y-98028295D01*
X74507576Y-97682350D01*
X74462366Y-97338620D01*
X74350966Y-97010315D01*
X74241714Y-96805921D01*
X73964531Y-96695074D01*
X72919605Y-97740000D01*
X72933748Y-97754143D01*
X72754143Y-97933748D01*
X72740000Y-97919605D01*
X72725858Y-97933748D01*
X72546253Y-97754143D01*
X72560395Y-97740000D01*
X72546253Y-97725858D01*
X72725858Y-97546253D01*
X72740000Y-97560395D01*
X73784926Y-96515469D01*
X73674079Y-96238286D01*
X73363160Y-96084911D01*
X73028295Y-95995140D01*
X72748750Y-95976784D01*
X72750085Y-95973560D01*
X72852000Y-95461199D01*
X72852000Y-94938801D01*
X72750085Y-94426440D01*
X72749239Y-94424397D01*
X72797650Y-94427576D01*
X73141380Y-94382366D01*
X73469685Y-94270966D01*
X73674079Y-94161714D01*
X73784926Y-93884531D01*
X72740000Y-92839605D01*
X72725858Y-92853748D01*
X72546253Y-92674143D01*
X72560395Y-92660000D01*
X72919605Y-92660000D01*
X73964531Y-93704926D01*
X74241714Y-93594079D01*
X74395089Y-93283160D01*
X74484860Y-92948295D01*
X74500004Y-92717650D01*
X77892424Y-92717650D01*
X77937634Y-93061380D01*
X78049034Y-93389685D01*
X78158286Y-93594079D01*
X78435469Y-93704926D01*
X79480395Y-92660000D01*
X78435469Y-91615074D01*
X78158286Y-91725921D01*
X78004911Y-92036840D01*
X77915140Y-92371705D01*
X77892424Y-92717650D01*
X74500004Y-92717650D01*
X74507576Y-92602350D01*
X74462366Y-92258620D01*
X74350966Y-91930315D01*
X74241714Y-91725921D01*
X73964531Y-91615074D01*
X72919605Y-92660000D01*
X72560395Y-92660000D01*
X72546253Y-92645858D01*
X72725858Y-92466253D01*
X72740000Y-92480395D01*
X73784926Y-91435469D01*
X73674079Y-91158286D01*
X73363160Y-91004911D01*
X73028295Y-90915140D01*
X72808789Y-90900726D01*
X73046029Y-90706029D01*
X73249346Y-90458286D01*
X73400425Y-90175638D01*
X73405569Y-90158681D01*
X73538000Y-90026250D01*
X73538000Y-89027000D01*
X73792000Y-89027000D01*
X73792000Y-90026250D01*
X73950750Y-90185000D01*
X74440000Y-90188072D01*
X74564482Y-90175812D01*
X74684180Y-90139502D01*
X74794494Y-90080537D01*
X74891185Y-90001185D01*
X74970537Y-89904494D01*
X75029502Y-89794180D01*
X75065812Y-89674482D01*
X75078072Y-89550000D01*
X75075000Y-89185750D01*
X74916250Y-89027000D01*
X73792000Y-89027000D01*
X73538000Y-89027000D01*
X73524872Y-89027000D01*
X73524872Y-88904778D01*
X73587813Y-88697289D01*
X73613163Y-88439906D01*
X73613163Y-88439899D01*
X73621639Y-88353838D01*
X73613163Y-88267777D01*
X73613163Y-87773750D01*
X73792000Y-87773750D01*
X73792000Y-88773000D01*
X74916250Y-88773000D01*
X75075000Y-88614250D01*
X75078072Y-88250000D01*
X75065812Y-88125518D01*
X75029502Y-88005820D01*
X74970537Y-87895506D01*
X74891185Y-87798815D01*
X74794494Y-87719463D01*
X74684180Y-87660498D01*
X74564482Y-87624188D01*
X74440000Y-87611928D01*
X73950750Y-87615000D01*
X73792000Y-87773750D01*
X73613163Y-87773750D01*
X73613163Y-87172827D01*
X73901687Y-86884303D01*
X74189180Y-86454039D01*
X74387209Y-85975956D01*
X74488163Y-85468425D01*
X74488163Y-84950951D01*
X74387209Y-84443420D01*
X74189180Y-83965337D01*
X73901687Y-83535073D01*
X73535778Y-83169164D01*
X73105514Y-82881671D01*
X72627431Y-82683642D01*
X72119900Y-82582688D01*
X71602426Y-82582688D01*
X71094895Y-82683642D01*
X71003111Y-82721660D01*
X71008686Y-82693635D01*
X71008686Y-82176161D01*
X70907732Y-81668630D01*
X70709703Y-81190547D01*
X70422210Y-80760283D01*
X70056301Y-80394374D01*
X69626037Y-80106881D01*
X69147954Y-79908852D01*
X68680921Y-79815954D01*
X68778738Y-79669560D01*
X68976767Y-79191477D01*
X69077721Y-78683946D01*
X69077721Y-78166472D01*
X68976767Y-77658941D01*
X68778738Y-77180858D01*
X68491245Y-76750594D01*
X68125336Y-76384685D01*
X67848935Y-76200000D01*
X68125336Y-76015315D01*
X68491245Y-75649406D01*
X68778738Y-75219142D01*
X68976767Y-74741059D01*
X69077721Y-74233528D01*
X69077721Y-73716054D01*
X68976767Y-73208523D01*
X68778738Y-72730440D01*
X68680921Y-72584046D01*
X69147954Y-72491148D01*
X69626037Y-72293119D01*
X70056301Y-72005626D01*
X70422210Y-71639717D01*
X70709703Y-71209453D01*
X70907732Y-70731370D01*
X71008686Y-70223839D01*
X71008686Y-69706365D01*
X71003111Y-69678340D01*
X71094895Y-69716358D01*
X71602426Y-69817312D01*
X72119900Y-69817312D01*
X72627431Y-69716358D01*
X73105514Y-69518329D01*
X73535778Y-69230836D01*
X73901687Y-68864927D01*
X74189180Y-68434663D01*
X74344514Y-68059653D01*
X74525385Y-68240524D01*
X74955649Y-68528017D01*
X75433732Y-68726046D01*
X75941263Y-68827000D01*
X76458737Y-68827000D01*
X76966268Y-68726046D01*
X77444351Y-68528017D01*
X77874615Y-68240524D01*
X78055486Y-68059653D01*
X78210820Y-68434663D01*
G37*
%TD.AperFunction*%
D20*
X78034477Y-53475927D02*
X79857056Y-53697228D01*
X81655919Y-54064468D01*
X83419397Y-54575266D01*
X85136055Y-55226309D01*
X86794759Y-56013374D01*
X87963612Y-56688211D01*
X87725474Y-56762721D01*
X87308228Y-56985742D01*
X87092106Y-57352501D01*
X88760000Y-59020395D01*
X88774143Y-59006253D01*
X88953748Y-59185858D01*
X88939605Y-59200000D01*
X90607499Y-60867894D01*
X90974258Y-60651772D01*
X91214938Y-60191895D01*
X91361275Y-59693902D01*
X91403952Y-59218135D01*
X92641973Y-60407270D01*
X93859444Y-61781510D01*
X94962386Y-63249260D01*
X95943647Y-64801000D01*
X96741090Y-66320401D01*
X96695074Y-66435469D01*
X96878959Y-66619354D01*
X97145616Y-67245221D01*
X96515469Y-66615074D01*
X96238286Y-66725921D01*
X96084911Y-67036840D01*
X95995140Y-67371705D01*
X95976784Y-67651250D01*
X95973560Y-67649915D01*
X95461199Y-67548000D01*
X94938801Y-67548000D01*
X94426440Y-67649915D01*
X94424397Y-67650761D01*
X94427576Y-67602350D01*
X94382366Y-67258620D01*
X94270966Y-66930315D01*
X94161714Y-66725921D01*
X93884531Y-66615074D01*
X92839605Y-67660000D01*
X92853748Y-67674143D01*
X92674143Y-67853748D01*
X92660000Y-67839605D01*
X92645858Y-67853748D01*
X92466253Y-67674143D01*
X92480395Y-67660000D01*
X91435469Y-66615074D01*
X91158286Y-66725921D01*
X91004911Y-67036840D01*
X90915140Y-67371705D01*
X90892424Y-67717650D01*
X90937634Y-68061380D01*
X90950060Y-68098000D01*
X90301711Y-68098000D01*
X90305812Y-68084482D01*
X90318072Y-67960000D01*
X90315000Y-67595750D01*
X90156250Y-67437000D01*
X89032000Y-67437000D01*
X89032000Y-67457000D01*
X88778000Y-67457000D01*
X88778000Y-67437000D01*
X88764872Y-67437000D01*
X88764872Y-67183000D01*
X88778000Y-67183000D01*
X88778000Y-66183750D01*
X89032000Y-66183750D01*
X89032000Y-67183000D01*
X90156250Y-67183000D01*
X90315000Y-67024250D01*
X90318072Y-66660000D01*
X90305812Y-66535518D01*
X90275463Y-66435469D01*
X91615074Y-66435469D01*
X92660000Y-67480395D01*
X93704926Y-66435469D01*
X93594079Y-66158286D01*
X93283160Y-66004911D01*
X92948295Y-65915140D01*
X92602350Y-65892424D01*
X92258620Y-65937634D01*
X91930315Y-66049034D01*
X91725921Y-66158286D01*
X91615074Y-66435469D01*
X90275463Y-66435469D01*
X90269502Y-66415820D01*
X90210537Y-66305506D01*
X90131185Y-66208815D01*
X90034494Y-66129463D01*
X89924180Y-66070498D01*
X89804482Y-66034188D01*
X89680000Y-66021928D01*
X89190750Y-66025000D01*
X89032000Y-66183750D01*
X88778000Y-66183750D01*
X88645569Y-66051319D01*
X88640425Y-66034362D01*
X88489346Y-65751714D01*
X88286029Y-65503971D01*
X88038286Y-65300654D01*
X87755638Y-65149575D01*
X87448948Y-65056542D01*
X87130000Y-65025128D01*
X85580000Y-65025128D01*
X85261052Y-65056542D01*
X84954362Y-65149575D01*
X84671714Y-65300654D01*
X84423971Y-65503971D01*
X84220654Y-65751714D01*
X84069575Y-66034362D01*
X83976542Y-66341052D01*
X83945128Y-66660000D01*
X83945128Y-67338102D01*
X83759577Y-67338102D01*
X83252046Y-67439056D01*
X83160262Y-67477074D01*
X83165837Y-67449049D01*
X83165837Y-66931575D01*
X83064883Y-66424044D01*
X82866854Y-65945961D01*
X82579361Y-65515697D01*
X82213452Y-65149788D01*
X81783188Y-64862295D01*
X81305105Y-64664266D01*
X80797574Y-64563312D01*
X80280100Y-64563312D01*
X79772569Y-64664266D01*
X79294486Y-64862295D01*
X78864222Y-65149788D01*
X78683351Y-65330659D01*
X78528017Y-64955649D01*
X78240524Y-64525385D01*
X77874615Y-64159476D01*
X77444351Y-63871983D01*
X76966268Y-63673954D01*
X76458737Y-63573000D01*
X75941263Y-63573000D01*
X75433732Y-63673954D01*
X74955649Y-63871983D01*
X74525385Y-64159476D01*
X74159476Y-64525385D01*
X73871983Y-64955649D01*
X73716649Y-65330659D01*
X73535778Y-65149788D01*
X73105514Y-64862295D01*
X72627431Y-64664266D01*
X72119900Y-64563312D01*
X71602426Y-64563312D01*
X71094895Y-64664266D01*
X70616812Y-64862295D01*
X70186548Y-65149788D01*
X69820639Y-65515697D01*
X69533146Y-65945961D01*
X69335117Y-66424044D01*
X69234163Y-66931575D01*
X69234163Y-67449049D01*
X69239738Y-67477074D01*
X69147954Y-67439056D01*
X68640423Y-67338102D01*
X68122949Y-67338102D01*
X67615418Y-67439056D01*
X67137335Y-67637085D01*
X66707071Y-67924578D01*
X66522000Y-68109649D01*
X66522000Y-68035702D01*
X69757993Y-64799709D01*
X69824845Y-64744845D01*
X70043783Y-64478069D01*
X70206469Y-64173705D01*
X70306650Y-63843452D01*
X70332000Y-63586069D01*
X70332000Y-63586061D01*
X70340476Y-63500000D01*
X70332000Y-63413939D01*
X70332000Y-63054872D01*
X71520000Y-63054872D01*
X71838948Y-63023458D01*
X72145638Y-62930425D01*
X72398938Y-62795033D01*
X72782070Y-62953732D01*
X73250961Y-63047000D01*
X73729039Y-63047000D01*
X74197930Y-62953732D01*
X74639615Y-62770779D01*
X74875000Y-62613500D01*
X75110385Y-62770779D01*
X75552070Y-62953732D01*
X76020961Y-63047000D01*
X76499039Y-63047000D01*
X76967930Y-62953732D01*
X77409615Y-62770779D01*
X77645000Y-62613500D01*
X77880385Y-62770779D01*
X78322070Y-62953732D01*
X78790961Y-63047000D01*
X79269039Y-63047000D01*
X79737930Y-62953732D01*
X80179615Y-62770779D01*
X80415000Y-62613500D01*
X80650385Y-62770779D01*
X81092070Y-62953732D01*
X81560961Y-63047000D01*
X82039039Y-63047000D01*
X82507930Y-62953732D01*
X82949615Y-62770779D01*
X83347122Y-62505174D01*
X83685174Y-62167122D01*
X83950779Y-61769615D01*
X84133732Y-61327930D01*
X84189513Y-61047499D01*
X87092106Y-61047499D01*
X87308228Y-61414258D01*
X87768105Y-61654938D01*
X88266098Y-61801275D01*
X88783071Y-61847648D01*
X89299159Y-61792273D01*
X89794526Y-61637279D01*
X90211772Y-61414258D01*
X90427894Y-61047499D01*
X88760000Y-59379605D01*
X87092106Y-61047499D01*
X84189513Y-61047499D01*
X84227000Y-60859039D01*
X84227000Y-60380961D01*
X84133732Y-59912070D01*
X83950779Y-59470385D01*
X83785530Y-59223071D01*
X86112352Y-59223071D01*
X86167727Y-59739159D01*
X86322721Y-60234526D01*
X86545742Y-60651772D01*
X86912501Y-60867894D01*
X88580395Y-59200000D01*
X86912501Y-57532106D01*
X86545742Y-57748228D01*
X86305062Y-58208105D01*
X86158725Y-58706098D01*
X86112352Y-59223071D01*
X83785530Y-59223071D01*
X83685174Y-59072878D01*
X83347122Y-58734826D01*
X82949615Y-58469221D01*
X82767462Y-58393770D01*
X82842000Y-58019039D01*
X82842000Y-57540961D01*
X82748732Y-57072070D01*
X82565779Y-56630385D01*
X82300174Y-56232878D01*
X81962122Y-55894826D01*
X81564615Y-55629221D01*
X81122930Y-55446268D01*
X80654039Y-55353000D01*
X80175961Y-55353000D01*
X79707070Y-55446268D01*
X79265385Y-55629221D01*
X78867878Y-55894826D01*
X78529826Y-56232878D01*
X78337793Y-56520276D01*
X78131004Y-56422429D01*
X77856816Y-56353700D01*
X77574488Y-56339783D01*
X77294870Y-56381213D01*
X77028708Y-56476397D01*
X76950735Y-56518074D01*
X76760174Y-56232878D01*
X76682000Y-56154704D01*
X76682000Y-55966069D01*
X76690477Y-55880000D01*
X76656650Y-55536548D01*
X76556469Y-55206295D01*
X76393783Y-54901931D01*
X76174845Y-54635155D01*
X75908069Y-54416217D01*
X75603705Y-54253531D01*
X75273452Y-54153350D01*
X75016069Y-54128000D01*
X75016068Y-54128000D01*
X74930000Y-54119523D01*
X74843931Y-54128000D01*
X71206061Y-54128000D01*
X71120000Y-54119524D01*
X71033939Y-54128000D01*
X71033931Y-54128000D01*
X70776548Y-54153350D01*
X70446295Y-54253531D01*
X70141931Y-54416217D01*
X69942008Y-54580289D01*
X69942002Y-54580295D01*
X69875155Y-54635155D01*
X69820295Y-54702003D01*
X66235302Y-58286996D01*
X66197279Y-58165474D01*
X65974258Y-57748228D01*
X65607499Y-57532106D01*
X63939605Y-59200000D01*
X63953748Y-59214143D01*
X63774143Y-59393748D01*
X63760000Y-59379605D01*
X62092106Y-61047499D01*
X62308228Y-61414258D01*
X62768105Y-61654938D01*
X63266098Y-61801275D01*
X63783071Y-61847648D01*
X64299159Y-61792273D01*
X64794526Y-61637279D01*
X65107990Y-61469730D01*
X65107990Y-61954308D01*
X62322003Y-64740295D01*
X62255156Y-64795155D01*
X62200296Y-64862002D01*
X62200289Y-64862009D01*
X62036217Y-65061932D01*
X61873532Y-65366295D01*
X61773350Y-65696549D01*
X61739524Y-66040000D01*
X61748001Y-66126071D01*
X61748000Y-75388427D01*
X61739524Y-75474488D01*
X61748000Y-75560549D01*
X61748000Y-75560556D01*
X61773350Y-75817939D01*
X61873531Y-76148192D01*
X61990242Y-76366542D01*
X62036217Y-76452556D01*
X62165965Y-76610654D01*
X62255155Y-76719333D01*
X62322008Y-76774198D01*
X62676473Y-77128663D01*
X62582786Y-77242820D01*
X62496099Y-77405000D01*
X62460498Y-77405000D01*
X62460498Y-77471605D01*
X62428402Y-77531652D01*
X62301750Y-77405000D01*
X62075000Y-77401928D01*
X61950518Y-77414188D01*
X61830820Y-77450498D01*
X61720506Y-77509463D01*
X61623815Y-77588815D01*
X61544463Y-77685506D01*
X61485498Y-77795820D01*
X61449188Y-77915518D01*
X61436928Y-78040000D01*
X61440000Y-78454250D01*
X61598750Y-78613000D01*
X62265128Y-78613000D01*
X62265128Y-78867000D01*
X61598750Y-78867000D01*
X61440000Y-79025750D01*
X61436928Y-79440000D01*
X61449188Y-79564482D01*
X61485498Y-79684180D01*
X61544463Y-79794494D01*
X61623815Y-79891185D01*
X61720506Y-79970537D01*
X61830820Y-80029502D01*
X61950518Y-80065812D01*
X62075000Y-80078072D01*
X62301750Y-80075000D01*
X62428402Y-79948348D01*
X62460498Y-80008395D01*
X62460498Y-80075000D01*
X62496099Y-80075000D01*
X62582786Y-80237180D01*
X62817194Y-80522806D01*
X63102820Y-80757214D01*
X63428689Y-80931395D01*
X63782278Y-81038655D01*
X64149998Y-81074872D01*
X64675002Y-81074872D01*
X65042722Y-81038655D01*
X65396311Y-80931395D01*
X65501181Y-80875341D01*
X65684453Y-80951255D01*
X66151486Y-81044153D01*
X66053669Y-81190547D01*
X65855640Y-81668630D01*
X65754686Y-82176161D01*
X65754686Y-82693635D01*
X65855640Y-83201166D01*
X66053669Y-83679249D01*
X66341162Y-84109513D01*
X66707071Y-84475422D01*
X67137335Y-84762915D01*
X67615418Y-84960944D01*
X68122949Y-85061898D01*
X68640423Y-85061898D01*
X69147954Y-84960944D01*
X69239738Y-84922926D01*
X69234163Y-84950951D01*
X69234163Y-85468425D01*
X69335117Y-85975956D01*
X69533146Y-86454039D01*
X69722322Y-86737160D01*
X69714362Y-86739575D01*
X69548931Y-86828000D01*
X69280656Y-86828000D01*
X69018457Y-86748463D01*
X68680000Y-86715128D01*
X68480000Y-86715128D01*
X68141543Y-86748463D01*
X67816093Y-86847187D01*
X67516157Y-87007507D01*
X67253260Y-87223260D01*
X67037507Y-87486157D01*
X66877187Y-87786093D01*
X66778463Y-88111543D01*
X66745128Y-88450000D01*
X66745128Y-88710000D01*
X66763841Y-88899999D01*
X66745128Y-89090000D01*
X66745128Y-89112427D01*
X66734533Y-89220000D01*
X66745128Y-89327573D01*
X66745128Y-89350000D01*
X66778463Y-89688457D01*
X66828000Y-89851759D01*
X66828000Y-90083939D01*
X66819524Y-90170000D01*
X66828000Y-90256061D01*
X66828000Y-90256069D01*
X66853350Y-90513452D01*
X66953531Y-90843705D01*
X67008557Y-90946650D01*
X67042869Y-91010842D01*
X66930315Y-91049034D01*
X66725921Y-91158286D01*
X66615074Y-91435469D01*
X67660000Y-92480395D01*
X67674143Y-92466253D01*
X67853748Y-92645858D01*
X67839605Y-92660000D01*
X67853748Y-92674143D01*
X67674143Y-92853748D01*
X67660000Y-92839605D01*
X66615074Y-93884531D01*
X66725921Y-94161714D01*
X67036840Y-94315089D01*
X67371705Y-94404860D01*
X67651250Y-94423216D01*
X67649915Y-94426440D01*
X67548000Y-94938801D01*
X67548000Y-95461199D01*
X67649915Y-95973560D01*
X67650761Y-95975603D01*
X67602350Y-95972424D01*
X67258620Y-96017634D01*
X66930315Y-96129034D01*
X66725921Y-96238286D01*
X66615074Y-96515469D01*
X67279009Y-97179404D01*
X67263945Y-97173691D01*
X66598173Y-96857778D01*
X66435469Y-96695074D01*
X66337689Y-96734177D01*
X65605241Y-96386626D01*
X64015248Y-95468644D01*
X63381973Y-95031526D01*
X63513006Y-94992130D01*
X64110530Y-94674639D01*
X64124692Y-94665177D01*
X64436876Y-94216481D01*
X62200000Y-91979605D01*
X62185858Y-91993748D01*
X62006253Y-91814143D01*
X62020395Y-91800000D01*
X62379605Y-91800000D01*
X64616481Y-94036876D01*
X65065177Y-93724692D01*
X65385612Y-93128741D01*
X65511423Y-92717650D01*
X65892424Y-92717650D01*
X65937634Y-93061380D01*
X66049034Y-93389685D01*
X66158286Y-93594079D01*
X66435469Y-93704926D01*
X67480395Y-92660000D01*
X66435469Y-91615074D01*
X66158286Y-91725921D01*
X66004911Y-92036840D01*
X65915140Y-92371705D01*
X65892424Y-92717650D01*
X65511423Y-92717650D01*
X65583626Y-92481727D01*
X65651610Y-91808516D01*
X65586949Y-91134977D01*
X65392130Y-90486994D01*
X65074639Y-89889470D01*
X65065177Y-89875308D01*
X64616481Y-89563124D01*
X62379605Y-91800000D01*
X62020395Y-91800000D01*
X59783519Y-89563124D01*
X59334823Y-89875308D01*
X59014388Y-90471259D01*
X58859240Y-90978209D01*
X58540556Y-90618490D01*
X57612536Y-89383519D01*
X59963124Y-89383519D01*
X62200000Y-91620395D01*
X64436876Y-89383519D01*
X64124692Y-88934823D01*
X63528741Y-88614388D01*
X62881727Y-88416374D01*
X62208516Y-88348390D01*
X61534977Y-88413051D01*
X60886994Y-88607870D01*
X60289470Y-88925361D01*
X60275308Y-88934823D01*
X59963124Y-89383519D01*
X57612536Y-89383519D01*
X57437614Y-89150740D01*
X56456353Y-87599000D01*
X55603137Y-85973333D01*
X54883500Y-84284282D01*
X54302108Y-82542802D01*
X53862733Y-80760186D01*
X53568223Y-78947995D01*
X53541461Y-78616481D01*
X53963124Y-78616481D01*
X54275308Y-79065177D01*
X54871259Y-79385612D01*
X55518273Y-79583626D01*
X56191484Y-79651610D01*
X56865023Y-79586949D01*
X57513006Y-79392130D01*
X58110530Y-79074639D01*
X58124692Y-79065177D01*
X58436876Y-78616481D01*
X56200000Y-76379605D01*
X53963124Y-78616481D01*
X53541461Y-78616481D01*
X53511693Y-78247751D01*
X53783519Y-78436876D01*
X56020395Y-76200000D01*
X56379605Y-76200000D01*
X58616481Y-78436876D01*
X59065177Y-78124692D01*
X59385612Y-77528741D01*
X59583626Y-76881727D01*
X59651610Y-76208516D01*
X59586949Y-75534977D01*
X59392130Y-74886994D01*
X59074639Y-74289470D01*
X59065177Y-74275308D01*
X58616481Y-73963124D01*
X56379605Y-76200000D01*
X56020395Y-76200000D01*
X53783519Y-73963124D01*
X53511693Y-74152249D01*
X53541460Y-73783519D01*
X53963124Y-73783519D01*
X56200000Y-76020395D01*
X58436876Y-73783519D01*
X58124692Y-73334823D01*
X57528741Y-73014388D01*
X56881727Y-72816374D01*
X56208516Y-72748390D01*
X55534977Y-72813051D01*
X54886994Y-73007870D01*
X54289470Y-73325361D01*
X54275308Y-73334823D01*
X53963124Y-73783519D01*
X53541460Y-73783519D01*
X53568223Y-73452005D01*
X53862733Y-71639814D01*
X54302108Y-69857198D01*
X54883500Y-68115718D01*
X55603137Y-66426667D01*
X56456353Y-64801000D01*
X57437614Y-63249260D01*
X58540556Y-61781510D01*
X59758027Y-60407270D01*
X61082130Y-59135452D01*
X61123221Y-59101902D01*
X61112352Y-59223071D01*
X61167727Y-59739159D01*
X61322721Y-60234526D01*
X61545742Y-60651772D01*
X61912501Y-60867894D01*
X63580395Y-59200000D01*
X63566253Y-59185858D01*
X63745858Y-59006253D01*
X63760000Y-59020395D01*
X65427894Y-57352501D01*
X65211772Y-56985742D01*
X64751895Y-56745062D01*
X64477552Y-56664445D01*
X65605241Y-56013374D01*
X67263945Y-55226309D01*
X68980603Y-54575266D01*
X70744081Y-54064468D01*
X72542944Y-53697228D01*
X74365523Y-53475927D01*
X76200000Y-53402000D01*
X78034477Y-53475927D01*
%TA.AperFunction,Conductor*%
D21*
G36*
X78034477Y-53475927D02*
G01*
X79857056Y-53697228D01*
X81655919Y-54064468D01*
X83419397Y-54575266D01*
X85136055Y-55226309D01*
X86794759Y-56013374D01*
X87963612Y-56688211D01*
X87725474Y-56762721D01*
X87308228Y-56985742D01*
X87092106Y-57352501D01*
X88760000Y-59020395D01*
X88774143Y-59006253D01*
X88953748Y-59185858D01*
X88939605Y-59200000D01*
X90607499Y-60867894D01*
X90974258Y-60651772D01*
X91214938Y-60191895D01*
X91361275Y-59693902D01*
X91403952Y-59218135D01*
X92641973Y-60407270D01*
X93859444Y-61781510D01*
X94962386Y-63249260D01*
X95943647Y-64801000D01*
X96741090Y-66320401D01*
X96695074Y-66435469D01*
X96878959Y-66619354D01*
X97145616Y-67245221D01*
X96515469Y-66615074D01*
X96238286Y-66725921D01*
X96084911Y-67036840D01*
X95995140Y-67371705D01*
X95976784Y-67651250D01*
X95973560Y-67649915D01*
X95461199Y-67548000D01*
X94938801Y-67548000D01*
X94426440Y-67649915D01*
X94424397Y-67650761D01*
X94427576Y-67602350D01*
X94382366Y-67258620D01*
X94270966Y-66930315D01*
X94161714Y-66725921D01*
X93884531Y-66615074D01*
X92839605Y-67660000D01*
X92853748Y-67674143D01*
X92674143Y-67853748D01*
X92660000Y-67839605D01*
X92645858Y-67853748D01*
X92466253Y-67674143D01*
X92480395Y-67660000D01*
X91435469Y-66615074D01*
X91158286Y-66725921D01*
X91004911Y-67036840D01*
X90915140Y-67371705D01*
X90892424Y-67717650D01*
X90937634Y-68061380D01*
X90950060Y-68098000D01*
X90301711Y-68098000D01*
X90305812Y-68084482D01*
X90318072Y-67960000D01*
X90315000Y-67595750D01*
X90156250Y-67437000D01*
X89032000Y-67437000D01*
X89032000Y-67457000D01*
X88778000Y-67457000D01*
X88778000Y-67437000D01*
X88764872Y-67437000D01*
X88764872Y-67183000D01*
X88778000Y-67183000D01*
X88778000Y-66183750D01*
X89032000Y-66183750D01*
X89032000Y-67183000D01*
X90156250Y-67183000D01*
X90315000Y-67024250D01*
X90318072Y-66660000D01*
X90305812Y-66535518D01*
X90275463Y-66435469D01*
X91615074Y-66435469D01*
X92660000Y-67480395D01*
X93704926Y-66435469D01*
X93594079Y-66158286D01*
X93283160Y-66004911D01*
X92948295Y-65915140D01*
X92602350Y-65892424D01*
X92258620Y-65937634D01*
X91930315Y-66049034D01*
X91725921Y-66158286D01*
X91615074Y-66435469D01*
X90275463Y-66435469D01*
X90269502Y-66415820D01*
X90210537Y-66305506D01*
X90131185Y-66208815D01*
X90034494Y-66129463D01*
X89924180Y-66070498D01*
X89804482Y-66034188D01*
X89680000Y-66021928D01*
X89190750Y-66025000D01*
X89032000Y-66183750D01*
X88778000Y-66183750D01*
X88645569Y-66051319D01*
X88640425Y-66034362D01*
X88489346Y-65751714D01*
X88286029Y-65503971D01*
X88038286Y-65300654D01*
X87755638Y-65149575D01*
X87448948Y-65056542D01*
X87130000Y-65025128D01*
X85580000Y-65025128D01*
X85261052Y-65056542D01*
X84954362Y-65149575D01*
X84671714Y-65300654D01*
X84423971Y-65503971D01*
X84220654Y-65751714D01*
X84069575Y-66034362D01*
X83976542Y-66341052D01*
X83945128Y-66660000D01*
X83945128Y-67338102D01*
X83759577Y-67338102D01*
X83252046Y-67439056D01*
X83160262Y-67477074D01*
X83165837Y-67449049D01*
X83165837Y-66931575D01*
X83064883Y-66424044D01*
X82866854Y-65945961D01*
X82579361Y-65515697D01*
X82213452Y-65149788D01*
X81783188Y-64862295D01*
X81305105Y-64664266D01*
X80797574Y-64563312D01*
X80280100Y-64563312D01*
X79772569Y-64664266D01*
X79294486Y-64862295D01*
X78864222Y-65149788D01*
X78683351Y-65330659D01*
X78528017Y-64955649D01*
X78240524Y-64525385D01*
X77874615Y-64159476D01*
X77444351Y-63871983D01*
X76966268Y-63673954D01*
X76458737Y-63573000D01*
X75941263Y-63573000D01*
X75433732Y-63673954D01*
X74955649Y-63871983D01*
X74525385Y-64159476D01*
X74159476Y-64525385D01*
X73871983Y-64955649D01*
X73716649Y-65330659D01*
X73535778Y-65149788D01*
X73105514Y-64862295D01*
X72627431Y-64664266D01*
X72119900Y-64563312D01*
X71602426Y-64563312D01*
X71094895Y-64664266D01*
X70616812Y-64862295D01*
X70186548Y-65149788D01*
X69820639Y-65515697D01*
X69533146Y-65945961D01*
X69335117Y-66424044D01*
X69234163Y-66931575D01*
X69234163Y-67449049D01*
X69239738Y-67477074D01*
X69147954Y-67439056D01*
X68640423Y-67338102D01*
X68122949Y-67338102D01*
X67615418Y-67439056D01*
X67137335Y-67637085D01*
X66707071Y-67924578D01*
X66522000Y-68109649D01*
X66522000Y-68035702D01*
X69757993Y-64799709D01*
X69824845Y-64744845D01*
X70043783Y-64478069D01*
X70206469Y-64173705D01*
X70306650Y-63843452D01*
X70332000Y-63586069D01*
X70332000Y-63586061D01*
X70340476Y-63500000D01*
X70332000Y-63413939D01*
X70332000Y-63054872D01*
X71520000Y-63054872D01*
X71838948Y-63023458D01*
X72145638Y-62930425D01*
X72398938Y-62795033D01*
X72782070Y-62953732D01*
X73250961Y-63047000D01*
X73729039Y-63047000D01*
X74197930Y-62953732D01*
X74639615Y-62770779D01*
X74875000Y-62613500D01*
X75110385Y-62770779D01*
X75552070Y-62953732D01*
X76020961Y-63047000D01*
X76499039Y-63047000D01*
X76967930Y-62953732D01*
X77409615Y-62770779D01*
X77645000Y-62613500D01*
X77880385Y-62770779D01*
X78322070Y-62953732D01*
X78790961Y-63047000D01*
X79269039Y-63047000D01*
X79737930Y-62953732D01*
X80179615Y-62770779D01*
X80415000Y-62613500D01*
X80650385Y-62770779D01*
X81092070Y-62953732D01*
X81560961Y-63047000D01*
X82039039Y-63047000D01*
X82507930Y-62953732D01*
X82949615Y-62770779D01*
X83347122Y-62505174D01*
X83685174Y-62167122D01*
X83950779Y-61769615D01*
X84133732Y-61327930D01*
X84189513Y-61047499D01*
X87092106Y-61047499D01*
X87308228Y-61414258D01*
X87768105Y-61654938D01*
X88266098Y-61801275D01*
X88783071Y-61847648D01*
X89299159Y-61792273D01*
X89794526Y-61637279D01*
X90211772Y-61414258D01*
X90427894Y-61047499D01*
X88760000Y-59379605D01*
X87092106Y-61047499D01*
X84189513Y-61047499D01*
X84227000Y-60859039D01*
X84227000Y-60380961D01*
X84133732Y-59912070D01*
X83950779Y-59470385D01*
X83785530Y-59223071D01*
X86112352Y-59223071D01*
X86167727Y-59739159D01*
X86322721Y-60234526D01*
X86545742Y-60651772D01*
X86912501Y-60867894D01*
X88580395Y-59200000D01*
X86912501Y-57532106D01*
X86545742Y-57748228D01*
X86305062Y-58208105D01*
X86158725Y-58706098D01*
X86112352Y-59223071D01*
X83785530Y-59223071D01*
X83685174Y-59072878D01*
X83347122Y-58734826D01*
X82949615Y-58469221D01*
X82767462Y-58393770D01*
X82842000Y-58019039D01*
X82842000Y-57540961D01*
X82748732Y-57072070D01*
X82565779Y-56630385D01*
X82300174Y-56232878D01*
X81962122Y-55894826D01*
X81564615Y-55629221D01*
X81122930Y-55446268D01*
X80654039Y-55353000D01*
X80175961Y-55353000D01*
X79707070Y-55446268D01*
X79265385Y-55629221D01*
X78867878Y-55894826D01*
X78529826Y-56232878D01*
X78337793Y-56520276D01*
X78131004Y-56422429D01*
X77856816Y-56353700D01*
X77574488Y-56339783D01*
X77294870Y-56381213D01*
X77028708Y-56476397D01*
X76950735Y-56518074D01*
X76760174Y-56232878D01*
X76682000Y-56154704D01*
X76682000Y-55966069D01*
X76690477Y-55880000D01*
X76656650Y-55536548D01*
X76556469Y-55206295D01*
X76393783Y-54901931D01*
X76174845Y-54635155D01*
X75908069Y-54416217D01*
X75603705Y-54253531D01*
X75273452Y-54153350D01*
X75016069Y-54128000D01*
X75016068Y-54128000D01*
X74930000Y-54119523D01*
X74843931Y-54128000D01*
X71206061Y-54128000D01*
X71120000Y-54119524D01*
X71033939Y-54128000D01*
X71033931Y-54128000D01*
X70776548Y-54153350D01*
X70446295Y-54253531D01*
X70141931Y-54416217D01*
X69942008Y-54580289D01*
X69942002Y-54580295D01*
X69875155Y-54635155D01*
X69820295Y-54702003D01*
X66235302Y-58286996D01*
X66197279Y-58165474D01*
X65974258Y-57748228D01*
X65607499Y-57532106D01*
X63939605Y-59200000D01*
X63953748Y-59214143D01*
X63774143Y-59393748D01*
X63760000Y-59379605D01*
X62092106Y-61047499D01*
X62308228Y-61414258D01*
X62768105Y-61654938D01*
X63266098Y-61801275D01*
X63783071Y-61847648D01*
X64299159Y-61792273D01*
X64794526Y-61637279D01*
X65107990Y-61469730D01*
X65107990Y-61954308D01*
X62322003Y-64740295D01*
X62255156Y-64795155D01*
X62200296Y-64862002D01*
X62200289Y-64862009D01*
X62036217Y-65061932D01*
X61873532Y-65366295D01*
X61773350Y-65696549D01*
X61739524Y-66040000D01*
X61748001Y-66126071D01*
X61748000Y-75388427D01*
X61739524Y-75474488D01*
X61748000Y-75560549D01*
X61748000Y-75560556D01*
X61773350Y-75817939D01*
X61873531Y-76148192D01*
X61990242Y-76366542D01*
X62036217Y-76452556D01*
X62165965Y-76610654D01*
X62255155Y-76719333D01*
X62322008Y-76774198D01*
X62676473Y-77128663D01*
X62582786Y-77242820D01*
X62496099Y-77405000D01*
X62460498Y-77405000D01*
X62460498Y-77471605D01*
X62428402Y-77531652D01*
X62301750Y-77405000D01*
X62075000Y-77401928D01*
X61950518Y-77414188D01*
X61830820Y-77450498D01*
X61720506Y-77509463D01*
X61623815Y-77588815D01*
X61544463Y-77685506D01*
X61485498Y-77795820D01*
X61449188Y-77915518D01*
X61436928Y-78040000D01*
X61440000Y-78454250D01*
X61598750Y-78613000D01*
X62265128Y-78613000D01*
X62265128Y-78867000D01*
X61598750Y-78867000D01*
X61440000Y-79025750D01*
X61436928Y-79440000D01*
X61449188Y-79564482D01*
X61485498Y-79684180D01*
X61544463Y-79794494D01*
X61623815Y-79891185D01*
X61720506Y-79970537D01*
X61830820Y-80029502D01*
X61950518Y-80065812D01*
X62075000Y-80078072D01*
X62301750Y-80075000D01*
X62428402Y-79948348D01*
X62460498Y-80008395D01*
X62460498Y-80075000D01*
X62496099Y-80075000D01*
X62582786Y-80237180D01*
X62817194Y-80522806D01*
X63102820Y-80757214D01*
X63428689Y-80931395D01*
X63782278Y-81038655D01*
X64149998Y-81074872D01*
X64675002Y-81074872D01*
X65042722Y-81038655D01*
X65396311Y-80931395D01*
X65501181Y-80875341D01*
X65684453Y-80951255D01*
X66151486Y-81044153D01*
X66053669Y-81190547D01*
X65855640Y-81668630D01*
X65754686Y-82176161D01*
X65754686Y-82693635D01*
X65855640Y-83201166D01*
X66053669Y-83679249D01*
X66341162Y-84109513D01*
X66707071Y-84475422D01*
X67137335Y-84762915D01*
X67615418Y-84960944D01*
X68122949Y-85061898D01*
X68640423Y-85061898D01*
X69147954Y-84960944D01*
X69239738Y-84922926D01*
X69234163Y-84950951D01*
X69234163Y-85468425D01*
X69335117Y-85975956D01*
X69533146Y-86454039D01*
X69722322Y-86737160D01*
X69714362Y-86739575D01*
X69548931Y-86828000D01*
X69280656Y-86828000D01*
X69018457Y-86748463D01*
X68680000Y-86715128D01*
X68480000Y-86715128D01*
X68141543Y-86748463D01*
X67816093Y-86847187D01*
X67516157Y-87007507D01*
X67253260Y-87223260D01*
X67037507Y-87486157D01*
X66877187Y-87786093D01*
X66778463Y-88111543D01*
X66745128Y-88450000D01*
X66745128Y-88710000D01*
X66763841Y-88899999D01*
X66745128Y-89090000D01*
X66745128Y-89112427D01*
X66734533Y-89220000D01*
X66745128Y-89327573D01*
X66745128Y-89350000D01*
X66778463Y-89688457D01*
X66828000Y-89851759D01*
X66828000Y-90083939D01*
X66819524Y-90170000D01*
X66828000Y-90256061D01*
X66828000Y-90256069D01*
X66853350Y-90513452D01*
X66953531Y-90843705D01*
X67008557Y-90946650D01*
X67042869Y-91010842D01*
X66930315Y-91049034D01*
X66725921Y-91158286D01*
X66615074Y-91435469D01*
X67660000Y-92480395D01*
X67674143Y-92466253D01*
X67853748Y-92645858D01*
X67839605Y-92660000D01*
X67853748Y-92674143D01*
X67674143Y-92853748D01*
X67660000Y-92839605D01*
X66615074Y-93884531D01*
X66725921Y-94161714D01*
X67036840Y-94315089D01*
X67371705Y-94404860D01*
X67651250Y-94423216D01*
X67649915Y-94426440D01*
X67548000Y-94938801D01*
X67548000Y-95461199D01*
X67649915Y-95973560D01*
X67650761Y-95975603D01*
X67602350Y-95972424D01*
X67258620Y-96017634D01*
X66930315Y-96129034D01*
X66725921Y-96238286D01*
X66615074Y-96515469D01*
X67279009Y-97179404D01*
X67263945Y-97173691D01*
X66598173Y-96857778D01*
X66435469Y-96695074D01*
X66337689Y-96734177D01*
X65605241Y-96386626D01*
X64015248Y-95468644D01*
X63381973Y-95031526D01*
X63513006Y-94992130D01*
X64110530Y-94674639D01*
X64124692Y-94665177D01*
X64436876Y-94216481D01*
X62200000Y-91979605D01*
X62185858Y-91993748D01*
X62006253Y-91814143D01*
X62020395Y-91800000D01*
X62379605Y-91800000D01*
X64616481Y-94036876D01*
X65065177Y-93724692D01*
X65385612Y-93128741D01*
X65511423Y-92717650D01*
X65892424Y-92717650D01*
X65937634Y-93061380D01*
X66049034Y-93389685D01*
X66158286Y-93594079D01*
X66435469Y-93704926D01*
X67480395Y-92660000D01*
X66435469Y-91615074D01*
X66158286Y-91725921D01*
X66004911Y-92036840D01*
X65915140Y-92371705D01*
X65892424Y-92717650D01*
X65511423Y-92717650D01*
X65583626Y-92481727D01*
X65651610Y-91808516D01*
X65586949Y-91134977D01*
X65392130Y-90486994D01*
X65074639Y-89889470D01*
X65065177Y-89875308D01*
X64616481Y-89563124D01*
X62379605Y-91800000D01*
X62020395Y-91800000D01*
X59783519Y-89563124D01*
X59334823Y-89875308D01*
X59014388Y-90471259D01*
X58859240Y-90978209D01*
X58540556Y-90618490D01*
X57612536Y-89383519D01*
X59963124Y-89383519D01*
X62200000Y-91620395D01*
X64436876Y-89383519D01*
X64124692Y-88934823D01*
X63528741Y-88614388D01*
X62881727Y-88416374D01*
X62208516Y-88348390D01*
X61534977Y-88413051D01*
X60886994Y-88607870D01*
X60289470Y-88925361D01*
X60275308Y-88934823D01*
X59963124Y-89383519D01*
X57612536Y-89383519D01*
X57437614Y-89150740D01*
X56456353Y-87599000D01*
X55603137Y-85973333D01*
X54883500Y-84284282D01*
X54302108Y-82542802D01*
X53862733Y-80760186D01*
X53568223Y-78947995D01*
X53541461Y-78616481D01*
X53963124Y-78616481D01*
X54275308Y-79065177D01*
X54871259Y-79385612D01*
X55518273Y-79583626D01*
X56191484Y-79651610D01*
X56865023Y-79586949D01*
X57513006Y-79392130D01*
X58110530Y-79074639D01*
X58124692Y-79065177D01*
X58436876Y-78616481D01*
X56200000Y-76379605D01*
X53963124Y-78616481D01*
X53541461Y-78616481D01*
X53511693Y-78247751D01*
X53783519Y-78436876D01*
X56020395Y-76200000D01*
X56379605Y-76200000D01*
X58616481Y-78436876D01*
X59065177Y-78124692D01*
X59385612Y-77528741D01*
X59583626Y-76881727D01*
X59651610Y-76208516D01*
X59586949Y-75534977D01*
X59392130Y-74886994D01*
X59074639Y-74289470D01*
X59065177Y-74275308D01*
X58616481Y-73963124D01*
X56379605Y-76200000D01*
X56020395Y-76200000D01*
X53783519Y-73963124D01*
X53511693Y-74152249D01*
X53541460Y-73783519D01*
X53963124Y-73783519D01*
X56200000Y-76020395D01*
X58436876Y-73783519D01*
X58124692Y-73334823D01*
X57528741Y-73014388D01*
X56881727Y-72816374D01*
X56208516Y-72748390D01*
X55534977Y-72813051D01*
X54886994Y-73007870D01*
X54289470Y-73325361D01*
X54275308Y-73334823D01*
X53963124Y-73783519D01*
X53541460Y-73783519D01*
X53568223Y-73452005D01*
X53862733Y-71639814D01*
X54302108Y-69857198D01*
X54883500Y-68115718D01*
X55603137Y-66426667D01*
X56456353Y-64801000D01*
X57437614Y-63249260D01*
X58540556Y-61781510D01*
X59758027Y-60407270D01*
X61082130Y-59135452D01*
X61123221Y-59101902D01*
X61112352Y-59223071D01*
X61167727Y-59739159D01*
X61322721Y-60234526D01*
X61545742Y-60651772D01*
X61912501Y-60867894D01*
X63580395Y-59200000D01*
X63566253Y-59185858D01*
X63745858Y-59006253D01*
X63760000Y-59020395D01*
X65427894Y-57352501D01*
X65211772Y-56985742D01*
X64751895Y-56745062D01*
X64477552Y-56664445D01*
X65605241Y-56013374D01*
X67263945Y-55226309D01*
X68980603Y-54575266D01*
X70744081Y-54064468D01*
X72542944Y-53697228D01*
X74365523Y-53475927D01*
X76200000Y-53402000D01*
X78034477Y-53475927D01*
G37*
%TD.AperFunction*%
D20*
X91435467Y-71695075D02*
X91158286Y-71805921D01*
X91004911Y-72116840D01*
X90915140Y-72451705D01*
X90892424Y-72797650D01*
X90937634Y-73141380D01*
X91049034Y-73469685D01*
X91158286Y-73674079D01*
X91435469Y-73784926D01*
X92480395Y-72740000D01*
X92466253Y-72725858D01*
X92645858Y-72546253D01*
X92660000Y-72560395D01*
X92674143Y-72546253D01*
X92853748Y-72725858D01*
X92839605Y-72740000D01*
X93884531Y-73784926D01*
X94161714Y-73674079D01*
X94315089Y-73363160D01*
X94404860Y-73028295D01*
X94423216Y-72748750D01*
X94426440Y-72750085D01*
X94938801Y-72852000D01*
X95461199Y-72852000D01*
X95973560Y-72750085D01*
X95975603Y-72749239D01*
X95972424Y-72797650D01*
X96017634Y-73141380D01*
X96129034Y-73469685D01*
X96238286Y-73674079D01*
X96515469Y-73784926D01*
X97560395Y-72740000D01*
X97546253Y-72725858D01*
X97725858Y-72546253D01*
X97740000Y-72560395D01*
X97754143Y-72546253D01*
X97933748Y-72725858D01*
X97919605Y-72740000D01*
X97933748Y-72754143D01*
X97754143Y-72933748D01*
X97740000Y-72919605D01*
X96695074Y-73964531D01*
X96805921Y-74241714D01*
X97116840Y-74395089D01*
X97451705Y-74484860D01*
X97797650Y-74507576D01*
X98141380Y-74462366D01*
X98469685Y-74350966D01*
X98674079Y-74241714D01*
X98784925Y-73964533D01*
X98880900Y-74060508D01*
X98979511Y-75282017D01*
X98979511Y-77117983D01*
X98880900Y-78339492D01*
X98784925Y-78435467D01*
X98674079Y-78158286D01*
X98363160Y-78004911D01*
X98028295Y-77915140D01*
X97682350Y-77892424D01*
X97338620Y-77937634D01*
X97010315Y-78049034D01*
X96805921Y-78158286D01*
X96695074Y-78435469D01*
X97740000Y-79480395D01*
X97754143Y-79466253D01*
X97933748Y-79645858D01*
X97919605Y-79660000D01*
X97933748Y-79674143D01*
X97754143Y-79853748D01*
X97740000Y-79839605D01*
X97725858Y-79853748D01*
X97546253Y-79674143D01*
X97560395Y-79660000D01*
X96515469Y-78615074D01*
X96238286Y-78725921D01*
X96084911Y-79036840D01*
X95995140Y-79371705D01*
X95976784Y-79651250D01*
X95973560Y-79649915D01*
X95461199Y-79548000D01*
X94938801Y-79548000D01*
X94426440Y-79649915D01*
X94424397Y-79650761D01*
X94427576Y-79602350D01*
X94382366Y-79258620D01*
X94270966Y-78930315D01*
X94161714Y-78725921D01*
X93884531Y-78615074D01*
X92839605Y-79660000D01*
X92853748Y-79674143D01*
X92674143Y-79853748D01*
X92660000Y-79839605D01*
X92645858Y-79853748D01*
X92466253Y-79674143D01*
X92480395Y-79660000D01*
X91435469Y-78615074D01*
X91184872Y-78715289D01*
X91184872Y-78435469D01*
X91615074Y-78435469D01*
X92660000Y-79480395D01*
X93704926Y-78435469D01*
X93594079Y-78158286D01*
X93283160Y-78004911D01*
X92948295Y-77915140D01*
X92602350Y-77892424D01*
X92258620Y-77937634D01*
X91930315Y-78049034D01*
X91725921Y-78158286D01*
X91615074Y-78435469D01*
X91184872Y-78435469D01*
X91184872Y-77970000D01*
X91153458Y-77651052D01*
X91060425Y-77344362D01*
X90909346Y-77061714D01*
X90706029Y-76813971D01*
X90458286Y-76610654D01*
X90175638Y-76459575D01*
X90158681Y-76454431D01*
X90026250Y-76322000D01*
X89027000Y-76322000D01*
X89027000Y-76335128D01*
X88773000Y-76335128D01*
X88773000Y-76322000D01*
X87773750Y-76322000D01*
X87667480Y-76428271D01*
X87623894Y-76384685D01*
X87347493Y-76200000D01*
X87623894Y-76015315D01*
X87672480Y-75966730D01*
X87773750Y-76068000D01*
X88773000Y-76068000D01*
X88773000Y-74943750D01*
X89027000Y-74943750D01*
X89027000Y-76068000D01*
X90026250Y-76068000D01*
X90185000Y-75909250D01*
X90188072Y-75420000D01*
X90175812Y-75295518D01*
X90139502Y-75175820D01*
X90080537Y-75065506D01*
X90001185Y-74968815D01*
X89904494Y-74889463D01*
X89794180Y-74830498D01*
X89674482Y-74794188D01*
X89550000Y-74781928D01*
X89185750Y-74785000D01*
X89027000Y-74943750D01*
X88773000Y-74943750D01*
X88614250Y-74785000D01*
X88457671Y-74783679D01*
X88475325Y-74741059D01*
X88576279Y-74233528D01*
X88576279Y-73964531D01*
X91615074Y-73964531D01*
X91725921Y-74241714D01*
X92036840Y-74395089D01*
X92371705Y-74484860D01*
X92717650Y-74507576D01*
X93061380Y-74462366D01*
X93389685Y-74350966D01*
X93594079Y-74241714D01*
X93704926Y-73964531D01*
X92660000Y-72919605D01*
X91615074Y-73964531D01*
X88576279Y-73964531D01*
X88576279Y-73716054D01*
X88475325Y-73208523D01*
X88277296Y-72730440D01*
X87989803Y-72300176D01*
X87623894Y-71934267D01*
X87250648Y-71684872D01*
X87440000Y-71684872D01*
X87630000Y-71666159D01*
X87820000Y-71684872D01*
X88080000Y-71684872D01*
X88418457Y-71651537D01*
X88581759Y-71602000D01*
X91342392Y-71602000D01*
X91435467Y-71695075D01*
%TA.AperFunction,Conductor*%
D21*
G36*
X91435467Y-71695075D02*
G01*
X91158286Y-71805921D01*
X91004911Y-72116840D01*
X90915140Y-72451705D01*
X90892424Y-72797650D01*
X90937634Y-73141380D01*
X91049034Y-73469685D01*
X91158286Y-73674079D01*
X91435469Y-73784926D01*
X92480395Y-72740000D01*
X92466253Y-72725858D01*
X92645858Y-72546253D01*
X92660000Y-72560395D01*
X92674143Y-72546253D01*
X92853748Y-72725858D01*
X92839605Y-72740000D01*
X93884531Y-73784926D01*
X94161714Y-73674079D01*
X94315089Y-73363160D01*
X94404860Y-73028295D01*
X94423216Y-72748750D01*
X94426440Y-72750085D01*
X94938801Y-72852000D01*
X95461199Y-72852000D01*
X95973560Y-72750085D01*
X95975603Y-72749239D01*
X95972424Y-72797650D01*
X96017634Y-73141380D01*
X96129034Y-73469685D01*
X96238286Y-73674079D01*
X96515469Y-73784926D01*
X97560395Y-72740000D01*
X97546253Y-72725858D01*
X97725858Y-72546253D01*
X97740000Y-72560395D01*
X97754143Y-72546253D01*
X97933748Y-72725858D01*
X97919605Y-72740000D01*
X97933748Y-72754143D01*
X97754143Y-72933748D01*
X97740000Y-72919605D01*
X96695074Y-73964531D01*
X96805921Y-74241714D01*
X97116840Y-74395089D01*
X97451705Y-74484860D01*
X97797650Y-74507576D01*
X98141380Y-74462366D01*
X98469685Y-74350966D01*
X98674079Y-74241714D01*
X98784925Y-73964533D01*
X98880900Y-74060508D01*
X98979511Y-75282017D01*
X98979511Y-77117983D01*
X98880900Y-78339492D01*
X98784925Y-78435467D01*
X98674079Y-78158286D01*
X98363160Y-78004911D01*
X98028295Y-77915140D01*
X97682350Y-77892424D01*
X97338620Y-77937634D01*
X97010315Y-78049034D01*
X96805921Y-78158286D01*
X96695074Y-78435469D01*
X97740000Y-79480395D01*
X97754143Y-79466253D01*
X97933748Y-79645858D01*
X97919605Y-79660000D01*
X97933748Y-79674143D01*
X97754143Y-79853748D01*
X97740000Y-79839605D01*
X97725858Y-79853748D01*
X97546253Y-79674143D01*
X97560395Y-79660000D01*
X96515469Y-78615074D01*
X96238286Y-78725921D01*
X96084911Y-79036840D01*
X95995140Y-79371705D01*
X95976784Y-79651250D01*
X95973560Y-79649915D01*
X95461199Y-79548000D01*
X94938801Y-79548000D01*
X94426440Y-79649915D01*
X94424397Y-79650761D01*
X94427576Y-79602350D01*
X94382366Y-79258620D01*
X94270966Y-78930315D01*
X94161714Y-78725921D01*
X93884531Y-78615074D01*
X92839605Y-79660000D01*
X92853748Y-79674143D01*
X92674143Y-79853748D01*
X92660000Y-79839605D01*
X92645858Y-79853748D01*
X92466253Y-79674143D01*
X92480395Y-79660000D01*
X91435469Y-78615074D01*
X91184872Y-78715289D01*
X91184872Y-78435469D01*
X91615074Y-78435469D01*
X92660000Y-79480395D01*
X93704926Y-78435469D01*
X93594079Y-78158286D01*
X93283160Y-78004911D01*
X92948295Y-77915140D01*
X92602350Y-77892424D01*
X92258620Y-77937634D01*
X91930315Y-78049034D01*
X91725921Y-78158286D01*
X91615074Y-78435469D01*
X91184872Y-78435469D01*
X91184872Y-77970000D01*
X91153458Y-77651052D01*
X91060425Y-77344362D01*
X90909346Y-77061714D01*
X90706029Y-76813971D01*
X90458286Y-76610654D01*
X90175638Y-76459575D01*
X90158681Y-76454431D01*
X90026250Y-76322000D01*
X89027000Y-76322000D01*
X89027000Y-76335128D01*
X88773000Y-76335128D01*
X88773000Y-76322000D01*
X87773750Y-76322000D01*
X87667480Y-76428271D01*
X87623894Y-76384685D01*
X87347493Y-76200000D01*
X87623894Y-76015315D01*
X87672480Y-75966730D01*
X87773750Y-76068000D01*
X88773000Y-76068000D01*
X88773000Y-74943750D01*
X89027000Y-74943750D01*
X89027000Y-76068000D01*
X90026250Y-76068000D01*
X90185000Y-75909250D01*
X90188072Y-75420000D01*
X90175812Y-75295518D01*
X90139502Y-75175820D01*
X90080537Y-75065506D01*
X90001185Y-74968815D01*
X89904494Y-74889463D01*
X89794180Y-74830498D01*
X89674482Y-74794188D01*
X89550000Y-74781928D01*
X89185750Y-74785000D01*
X89027000Y-74943750D01*
X88773000Y-74943750D01*
X88614250Y-74785000D01*
X88457671Y-74783679D01*
X88475325Y-74741059D01*
X88576279Y-74233528D01*
X88576279Y-73964531D01*
X91615074Y-73964531D01*
X91725921Y-74241714D01*
X92036840Y-74395089D01*
X92371705Y-74484860D01*
X92717650Y-74507576D01*
X93061380Y-74462366D01*
X93389685Y-74350966D01*
X93594079Y-74241714D01*
X93704926Y-73964531D01*
X92660000Y-72919605D01*
X91615074Y-73964531D01*
X88576279Y-73964531D01*
X88576279Y-73716054D01*
X88475325Y-73208523D01*
X88277296Y-72730440D01*
X87989803Y-72300176D01*
X87623894Y-71934267D01*
X87250648Y-71684872D01*
X87440000Y-71684872D01*
X87630000Y-71666159D01*
X87820000Y-71684872D01*
X88080000Y-71684872D01*
X88418457Y-71651537D01*
X88581759Y-71602000D01*
X91342392Y-71602000D01*
X91435467Y-71695075D01*
G37*
%TD.AperFunction*%
D20*
X77838748Y-57765858D02*
X77824605Y-57780000D01*
X77838748Y-57794143D01*
X77659143Y-57973748D01*
X77645000Y-57959605D01*
X77630858Y-57973748D01*
X77451253Y-57794143D01*
X77465395Y-57780000D01*
X77451253Y-57765858D01*
X77630858Y-57586253D01*
X77645000Y-57600395D01*
X77659143Y-57586253D01*
X77838748Y-57765858D01*
%TA.AperFunction,Conductor*%
D21*
G36*
X77838748Y-57765858D02*
G01*
X77824605Y-57780000D01*
X77838748Y-57794143D01*
X77659143Y-57973748D01*
X77645000Y-57959605D01*
X77630858Y-57973748D01*
X77451253Y-57794143D01*
X77465395Y-57780000D01*
X77451253Y-57765858D01*
X77630858Y-57586253D01*
X77645000Y-57600395D01*
X77659143Y-57586253D01*
X77838748Y-57765858D01*
G37*
%TD.AperFunction*%
%TD*%
M02*
