%TF.GenerationSoftware,KiCad,Pcbnew,5.1.10*%
%TF.CreationDate,2022-04-07T11:00:06+02:00*%
%TF.ProjectId,breakoutPcb,62726561-6b6f-4757-9450-63622e6b6963,rev?*%
%TF.SameCoordinates,Original*%
%TF.FileFunction,Copper,L1,Top*%
%TF.FilePolarity,Positive*%
%FSLAX46Y46*%
G04 Gerber Fmt 4.6, Leading zero omitted, Abs format (unit mm)*
G04 Created by KiCad (PCBNEW 5.1.10) date 2022-04-07 11:00:06*
%MOMM*%
%LPD*%
G01*
G04 APERTURE LIST*
%TA.AperFunction,ComponentPad*%
%ADD10C,5.600000*%
%TD*%
%TA.AperFunction,ComponentPad*%
%ADD11C,4.000000*%
%TD*%
%TA.AperFunction,ComponentPad*%
%ADD12C,1.600000*%
%TD*%
%TA.AperFunction,ComponentPad*%
%ADD13R,1.600000X1.600000*%
%TD*%
%TA.AperFunction,ComponentPad*%
%ADD14C,2.250000*%
%TD*%
%TA.AperFunction,ComponentPad*%
%ADD15C,2.050000*%
%TD*%
%TA.AperFunction,ComponentPad*%
%ADD16O,1.500000X1.500000*%
%TD*%
%TA.AperFunction,Conductor*%
%ADD17C,1.000000*%
%TD*%
%TA.AperFunction,Conductor*%
%ADD18C,0.250000*%
%TD*%
%TA.AperFunction,Conductor*%
%ADD19C,0.254000*%
%TD*%
%TA.AperFunction,Conductor*%
%ADD20C,0.100000*%
%TD*%
G04 APERTURE END LIST*
D10*
%TO.P,REF\u002A\u002A,1*%
%TO.N,GND*%
X62230000Y-91440000D03*
%TD*%
%TO.P,REF\u002A\u002A,1*%
%TO.N,GND*%
X90170000Y-91440000D03*
%TD*%
%TO.P,REF\u002A\u002A,1*%
%TO.N,GND*%
X55880000Y-76200000D03*
%TD*%
D11*
%TO.P,J1,0*%
%TO.N,GND*%
X63700000Y-60810000D03*
X88700000Y-60810000D03*
D12*
%TO.P,J1,9*%
%TO.N,Net-(CRT1-Pad12)*%
X80355000Y-59390000D03*
%TO.P,J1,8*%
%TO.N,GND*%
X77585000Y-59390000D03*
%TO.P,J1,7*%
%TO.N,Net-(CRT1-Pad5)*%
X74815000Y-59390000D03*
%TO.P,J1,6*%
%TO.N,Net-(CRT1-Pad4)*%
X72045000Y-59390000D03*
%TO.P,J1,5*%
%TO.N,Net-(CRT1-Pad14)*%
X81740000Y-62230000D03*
%TO.P,J1,4*%
%TO.N,Net-(CRT1-Pad1)*%
X78970000Y-62230000D03*
%TO.P,J1,3*%
%TO.N,Net-(CRT1-Pad2)*%
X76200000Y-62230000D03*
%TO.P,J1,2*%
%TO.N,Net-(CRT1-Pad3)*%
X73430000Y-62230000D03*
D13*
%TO.P,J1,1*%
%TO.N,Net-(CRT1-Pad6)*%
X70660000Y-62230000D03*
%TD*%
%TO.P,JP1,2*%
%TO.N,GND*%
%TA.AperFunction,SMDPad,CuDef*%
G36*
G01*
X63100000Y-82099998D02*
X63100000Y-83000002D01*
G75*
G02*
X62850002Y-83250000I-249998J0D01*
G01*
X62324998Y-83250000D01*
G75*
G02*
X62075000Y-83000002I0J249998D01*
G01*
X62075000Y-82099998D01*
G75*
G02*
X62324998Y-81850000I249998J0D01*
G01*
X62850002Y-81850000D01*
G75*
G02*
X63100000Y-82099998I0J-249998D01*
G01*
G37*
%TD.AperFunction*%
%TO.P,JP1,1*%
%TO.N,Net-(CRT1-Pad6)*%
%TA.AperFunction,SMDPad,CuDef*%
G36*
G01*
X64925000Y-82099998D02*
X64925000Y-83000002D01*
G75*
G02*
X64675002Y-83250000I-249998J0D01*
G01*
X64149998Y-83250000D01*
G75*
G02*
X63900000Y-83000002I0J249998D01*
G01*
X63900000Y-82099998D01*
G75*
G02*
X64149998Y-81850000I249998J0D01*
G01*
X64675002Y-81850000D01*
G75*
G02*
X64925000Y-82099998I0J-249998D01*
G01*
G37*
%TD.AperFunction*%
%TD*%
D14*
%TO.P,J5,2*%
%TO.N,GND*%
X92710000Y-85090000D03*
X92710000Y-80010000D03*
X97790000Y-80010000D03*
X97790000Y-85090000D03*
D15*
%TO.P,J5,1*%
%TO.N,Net-(C4-Pad1)*%
X95250000Y-82550000D03*
%TD*%
D14*
%TO.P,J4,2*%
%TO.N,GND*%
X92710000Y-72390000D03*
X92710000Y-67310000D03*
X97790000Y-67310000D03*
X97790000Y-72390000D03*
D15*
%TO.P,J4,1*%
%TO.N,Net-(C3-Pad1)*%
X95250000Y-69850000D03*
%TD*%
D14*
%TO.P,J3,2*%
%TO.N,GND*%
X68580000Y-97790000D03*
X68580000Y-92710000D03*
X73660000Y-92710000D03*
X73660000Y-97790000D03*
D15*
%TO.P,J3,1*%
%TO.N,Net-(C2-Pad1)*%
X71120000Y-95250000D03*
%TD*%
D14*
%TO.P,J2,2*%
%TO.N,GND*%
X78740000Y-97790000D03*
X78740000Y-92710000D03*
X83820000Y-92710000D03*
X83820000Y-97790000D03*
D15*
%TO.P,J2,1*%
%TO.N,Net-(C1-Pad1)*%
X81280000Y-95250000D03*
%TD*%
D16*
%TO.P,CRT1,14*%
%TO.N,Net-(CRT1-Pad14)*%
X80538837Y-67190312D03*
%TO.P,CRT1,13*%
%TO.N,Net-(C3-Pad2)*%
X84018314Y-69965102D03*
%TO.P,CRT1,12*%
%TO.N,Net-(CRT1-Pad12)*%
X85949279Y-73974791D03*
%TO.P,CRT1,11*%
%TO.N,Net-(C4-Pad2)*%
X85949279Y-78425209D03*
%TO.P,CRT1,9*%
%TO.N,Net-(C1-Pad2)*%
X80538837Y-85209688D03*
%TO.P,CRT1,7*%
%TO.N,Net-(C2-Pad2)*%
X71861163Y-85209688D03*
%TO.P,CRT1,6*%
%TO.N,Net-(CRT1-Pad6)*%
X68381686Y-82434898D03*
%TO.P,CRT1,5*%
%TO.N,Net-(CRT1-Pad5)*%
X66450721Y-78425209D03*
%TO.P,CRT1,4*%
%TO.N,Net-(CRT1-Pad4)*%
X66450721Y-73974791D03*
%TO.P,CRT1,3*%
%TO.N,Net-(CRT1-Pad3)*%
X68381686Y-69965102D03*
%TO.P,CRT1,2*%
%TO.N,Net-(CRT1-Pad2)*%
X71861163Y-67190312D03*
%TO.P,CRT1,1*%
%TO.N,Net-(CRT1-Pad1)*%
X76200000Y-66200000D03*
%TD*%
D17*
%TO.N,Net-(CRT1-Pad14)*%
X80538837Y-67190312D02*
X80538837Y-65511163D01*
X81740000Y-64310000D02*
X81740000Y-62230000D01*
X80538837Y-65511163D02*
X81740000Y-64310000D01*
D18*
%TO.N,Net-(CRT1-Pad12)*%
X82250000Y-59390000D02*
X80355000Y-59390000D01*
X87534070Y-64674070D02*
X82250000Y-59390000D01*
X87534070Y-72390000D02*
X87534070Y-64674070D01*
X85949279Y-73974791D02*
X87534070Y-72390000D01*
%TO.N,Net-(CRT1-Pad6)*%
X65924898Y-82434898D02*
X60960000Y-77470000D01*
X68381686Y-82434898D02*
X65924898Y-82434898D01*
X65809796Y-82550000D02*
X65924898Y-82434898D01*
X64412500Y-82550000D02*
X65809796Y-82550000D01*
X60960000Y-71930000D02*
X70660000Y-62230000D01*
X60960000Y-77470000D02*
X60960000Y-71930000D01*
%TO.N,Net-(CRT1-Pad3)*%
X68381686Y-69965102D02*
X68381686Y-67508314D01*
X68381686Y-67508314D02*
X71120000Y-64770000D01*
X71120000Y-64770000D02*
X72390000Y-64770000D01*
X72390000Y-64770000D02*
X73660000Y-63500000D01*
X73430000Y-63270000D02*
X73430000Y-62230000D01*
X73660000Y-63500000D02*
X73430000Y-63270000D01*
%TO.N,Net-(CRT1-Pad2)*%
X76200000Y-62851475D02*
X76200000Y-62230000D01*
X71861163Y-67190312D02*
X76200000Y-62851475D01*
D17*
%TO.N,Net-(CRT1-Pad1)*%
X76200000Y-66200000D02*
X77310000Y-66200000D01*
X78970000Y-64540000D02*
X78970000Y-62230000D01*
X77310000Y-66200000D02*
X78970000Y-64540000D01*
D18*
%TO.N,GND*%
X62587500Y-84732500D02*
X59690000Y-87630000D01*
X62587500Y-82550000D02*
X62587500Y-84732500D01*
X59690000Y-87630000D02*
X59690000Y-88900000D01*
X63500000Y-92710000D02*
X68580000Y-92710000D01*
X59690000Y-88900000D02*
X63500000Y-92710000D01*
%TD*%
D19*
%TO.N,GND*%
X78034477Y-53475927D02*
X79857056Y-53697228D01*
X81655919Y-54064468D01*
X83419397Y-54575266D01*
X85136055Y-55226309D01*
X86794759Y-56013374D01*
X88384752Y-56931356D01*
X89895722Y-57974304D01*
X91317870Y-59135452D01*
X92641973Y-60407270D01*
X93859444Y-61781510D01*
X94962386Y-63249260D01*
X95943647Y-64801000D01*
X96796863Y-66426667D01*
X96848679Y-66548284D01*
X96565469Y-66265074D01*
X96288286Y-66375921D01*
X96134911Y-66686840D01*
X96045140Y-67021705D01*
X96026784Y-67301250D01*
X96023560Y-67299915D01*
X95511199Y-67198000D01*
X94988801Y-67198000D01*
X94476440Y-67299915D01*
X94474397Y-67300761D01*
X94477576Y-67252350D01*
X94432366Y-66908620D01*
X94320966Y-66580315D01*
X94211714Y-66375921D01*
X93934531Y-66265074D01*
X92889605Y-67310000D01*
X92903748Y-67324143D01*
X92724143Y-67503748D01*
X92710000Y-67489605D01*
X91665074Y-68534531D01*
X91775921Y-68811714D01*
X92086840Y-68965089D01*
X92421705Y-69054860D01*
X92701250Y-69073216D01*
X92699915Y-69076440D01*
X92598000Y-69588801D01*
X92598000Y-70111199D01*
X92699915Y-70623560D01*
X92700761Y-70625603D01*
X92652350Y-70622424D01*
X92308620Y-70667634D01*
X91980315Y-70779034D01*
X91775921Y-70888286D01*
X91665074Y-71165469D01*
X92710000Y-72210395D01*
X92724143Y-72196253D01*
X92903748Y-72375858D01*
X92889605Y-72390000D01*
X93934531Y-73434926D01*
X94211714Y-73324079D01*
X94365089Y-73013160D01*
X94454860Y-72678295D01*
X94473216Y-72398750D01*
X94476440Y-72400085D01*
X94988801Y-72502000D01*
X95511199Y-72502000D01*
X96023560Y-72400085D01*
X96025603Y-72399239D01*
X96022424Y-72447650D01*
X96067634Y-72791380D01*
X96179034Y-73119685D01*
X96288286Y-73324079D01*
X96565469Y-73434926D01*
X97610395Y-72390000D01*
X97596253Y-72375858D01*
X97775858Y-72196253D01*
X97790000Y-72210395D01*
X97804143Y-72196253D01*
X97983748Y-72375858D01*
X97969605Y-72390000D01*
X97983748Y-72404143D01*
X97804143Y-72583748D01*
X97790000Y-72569605D01*
X96745074Y-73614531D01*
X96855921Y-73891714D01*
X97166840Y-74045089D01*
X97501705Y-74134860D01*
X97847650Y-74157576D01*
X98191380Y-74112366D01*
X98519685Y-74000966D01*
X98724079Y-73891714D01*
X98834925Y-73614533D01*
X98845773Y-73625381D01*
X98979511Y-75282017D01*
X98979511Y-77117983D01*
X98845773Y-78774619D01*
X98834925Y-78785467D01*
X98724079Y-78508286D01*
X98413160Y-78354911D01*
X98078295Y-78265140D01*
X97732350Y-78242424D01*
X97388620Y-78287634D01*
X97060315Y-78399034D01*
X96855921Y-78508286D01*
X96745074Y-78785469D01*
X97790000Y-79830395D01*
X97804143Y-79816253D01*
X97983748Y-79995858D01*
X97969605Y-80010000D01*
X97983748Y-80024143D01*
X97804143Y-80203748D01*
X97790000Y-80189605D01*
X97775858Y-80203748D01*
X97596253Y-80024143D01*
X97610395Y-80010000D01*
X96565469Y-78965074D01*
X96288286Y-79075921D01*
X96134911Y-79386840D01*
X96045140Y-79721705D01*
X96026784Y-80001250D01*
X96023560Y-79999915D01*
X95511199Y-79898000D01*
X94988801Y-79898000D01*
X94476440Y-79999915D01*
X94474397Y-80000761D01*
X94477576Y-79952350D01*
X94432366Y-79608620D01*
X94320966Y-79280315D01*
X94211714Y-79075921D01*
X93934531Y-78965074D01*
X92889605Y-80010000D01*
X92903748Y-80024143D01*
X92724143Y-80203748D01*
X92710000Y-80189605D01*
X91665074Y-81234531D01*
X91775921Y-81511714D01*
X92086840Y-81665089D01*
X92421705Y-81754860D01*
X92701250Y-81773216D01*
X92699915Y-81776440D01*
X92598000Y-82288801D01*
X92598000Y-82811199D01*
X92699915Y-83323560D01*
X92700761Y-83325603D01*
X92652350Y-83322424D01*
X92308620Y-83367634D01*
X91980315Y-83479034D01*
X91775921Y-83588286D01*
X91665074Y-83865469D01*
X92710000Y-84910395D01*
X92724143Y-84896253D01*
X92903748Y-85075858D01*
X92889605Y-85090000D01*
X93934531Y-86134926D01*
X94211714Y-86024079D01*
X94365089Y-85713160D01*
X94454860Y-85378295D01*
X94473216Y-85098750D01*
X94476440Y-85100085D01*
X94988801Y-85202000D01*
X95511199Y-85202000D01*
X96023560Y-85100085D01*
X96025603Y-85099239D01*
X96022424Y-85147650D01*
X96067634Y-85491380D01*
X96179034Y-85819685D01*
X96288286Y-86024079D01*
X96565469Y-86134926D01*
X96848679Y-85851716D01*
X96796863Y-85973333D01*
X95943647Y-87599000D01*
X94962386Y-89150740D01*
X93859444Y-90618490D01*
X93572969Y-90941853D01*
X93556949Y-90774977D01*
X93362130Y-90126994D01*
X93044639Y-89529470D01*
X93035177Y-89515308D01*
X92586481Y-89203124D01*
X90349605Y-91440000D01*
X90363748Y-91454143D01*
X90184143Y-91633748D01*
X90170000Y-91619605D01*
X87933124Y-93856481D01*
X88245308Y-94305177D01*
X88841259Y-94625612D01*
X89371151Y-94787782D01*
X88384752Y-95468644D01*
X86794759Y-96386626D01*
X85419641Y-97039128D01*
X85321714Y-96855921D01*
X85044531Y-96745074D01*
X84298131Y-97491474D01*
X83673894Y-97728216D01*
X83805858Y-97596253D01*
X83820000Y-97610395D01*
X84864926Y-96565469D01*
X84754079Y-96288286D01*
X84443160Y-96134911D01*
X84108295Y-96045140D01*
X83828750Y-96026784D01*
X83830085Y-96023560D01*
X83932000Y-95511199D01*
X83932000Y-94988801D01*
X83830085Y-94476440D01*
X83829239Y-94474397D01*
X83877650Y-94477576D01*
X84221380Y-94432366D01*
X84549685Y-94320966D01*
X84754079Y-94211714D01*
X84864926Y-93934531D01*
X83820000Y-92889605D01*
X83805858Y-92903748D01*
X83626253Y-92724143D01*
X83640395Y-92710000D01*
X83999605Y-92710000D01*
X85044531Y-93754926D01*
X85321714Y-93644079D01*
X85475089Y-93333160D01*
X85564860Y-92998295D01*
X85587576Y-92652350D01*
X85542366Y-92308620D01*
X85430966Y-91980315D01*
X85321714Y-91775921D01*
X85044531Y-91665074D01*
X83999605Y-92710000D01*
X83640395Y-92710000D01*
X82595469Y-91665074D01*
X82318286Y-91775921D01*
X82164911Y-92086840D01*
X82075140Y-92421705D01*
X82056784Y-92701250D01*
X82053560Y-92699915D01*
X81541199Y-92598000D01*
X81018801Y-92598000D01*
X80506440Y-92699915D01*
X80504397Y-92700761D01*
X80507576Y-92652350D01*
X80462366Y-92308620D01*
X80350966Y-91980315D01*
X80241714Y-91775921D01*
X79964531Y-91665074D01*
X78919605Y-92710000D01*
X78933748Y-92724143D01*
X78754143Y-92903748D01*
X78740000Y-92889605D01*
X77695074Y-93934531D01*
X77805921Y-94211714D01*
X78116840Y-94365089D01*
X78451705Y-94454860D01*
X78731250Y-94473216D01*
X78729915Y-94476440D01*
X78628000Y-94988801D01*
X78628000Y-95511199D01*
X78729915Y-96023560D01*
X78730761Y-96025603D01*
X78682350Y-96022424D01*
X78338620Y-96067634D01*
X78010315Y-96179034D01*
X77805921Y-96288286D01*
X77695074Y-96565469D01*
X78740000Y-97610395D01*
X78754143Y-97596253D01*
X78933748Y-97775858D01*
X78919605Y-97790000D01*
X78933748Y-97804143D01*
X78754143Y-97983748D01*
X78740000Y-97969605D01*
X78725858Y-97983748D01*
X78546253Y-97804143D01*
X78560395Y-97790000D01*
X77515469Y-96745074D01*
X77238286Y-96855921D01*
X77084911Y-97166840D01*
X76995140Y-97501705D01*
X76972424Y-97847650D01*
X77017634Y-98191380D01*
X77129034Y-98519685D01*
X77238286Y-98724079D01*
X77515467Y-98834925D01*
X77400782Y-98949610D01*
X76200000Y-98998000D01*
X74999218Y-98949610D01*
X74884533Y-98834925D01*
X75161714Y-98724079D01*
X75315089Y-98413160D01*
X75404860Y-98078295D01*
X75427576Y-97732350D01*
X75382366Y-97388620D01*
X75270966Y-97060315D01*
X75161714Y-96855921D01*
X74884531Y-96745074D01*
X73839605Y-97790000D01*
X73853748Y-97804143D01*
X73674143Y-97983748D01*
X73660000Y-97969605D01*
X73645858Y-97983748D01*
X73466253Y-97804143D01*
X73480395Y-97790000D01*
X73466253Y-97775858D01*
X73645858Y-97596253D01*
X73660000Y-97610395D01*
X74704926Y-96565469D01*
X74594079Y-96288286D01*
X74283160Y-96134911D01*
X73948295Y-96045140D01*
X73668750Y-96026784D01*
X73670085Y-96023560D01*
X73772000Y-95511199D01*
X73772000Y-94988801D01*
X73670085Y-94476440D01*
X73669239Y-94474397D01*
X73717650Y-94477576D01*
X74061380Y-94432366D01*
X74389685Y-94320966D01*
X74594079Y-94211714D01*
X74704926Y-93934531D01*
X73660000Y-92889605D01*
X73645858Y-92903748D01*
X73466253Y-92724143D01*
X73480395Y-92710000D01*
X73839605Y-92710000D01*
X74884531Y-93754926D01*
X75161714Y-93644079D01*
X75315089Y-93333160D01*
X75404860Y-92998295D01*
X75420004Y-92767650D01*
X76972424Y-92767650D01*
X77017634Y-93111380D01*
X77129034Y-93439685D01*
X77238286Y-93644079D01*
X77515469Y-93754926D01*
X78560395Y-92710000D01*
X77515469Y-91665074D01*
X77238286Y-91775921D01*
X77084911Y-92086840D01*
X76995140Y-92421705D01*
X76972424Y-92767650D01*
X75420004Y-92767650D01*
X75427576Y-92652350D01*
X75382366Y-92308620D01*
X75270966Y-91980315D01*
X75161714Y-91775921D01*
X74884531Y-91665074D01*
X73839605Y-92710000D01*
X73480395Y-92710000D01*
X72435469Y-91665074D01*
X72158286Y-91775921D01*
X72004911Y-92086840D01*
X71915140Y-92421705D01*
X71896784Y-92701250D01*
X71893560Y-92699915D01*
X71381199Y-92598000D01*
X70858801Y-92598000D01*
X70346440Y-92699915D01*
X70344397Y-92700761D01*
X70347576Y-92652350D01*
X70302366Y-92308620D01*
X70190966Y-91980315D01*
X70081714Y-91775921D01*
X69804531Y-91665074D01*
X68759605Y-92710000D01*
X68773748Y-92724143D01*
X68594143Y-92903748D01*
X68580000Y-92889605D01*
X67535074Y-93934531D01*
X67645921Y-94211714D01*
X67956840Y-94365089D01*
X68291705Y-94454860D01*
X68571250Y-94473216D01*
X68569915Y-94476440D01*
X68468000Y-94988801D01*
X68468000Y-95511199D01*
X68569915Y-96023560D01*
X68570761Y-96025603D01*
X68522350Y-96022424D01*
X68178620Y-96067634D01*
X67850315Y-96179034D01*
X67645921Y-96288286D01*
X67535074Y-96565469D01*
X68580000Y-97610395D01*
X68594143Y-97596253D01*
X68726106Y-97728216D01*
X68101869Y-97491474D01*
X67355469Y-96745074D01*
X67078286Y-96855921D01*
X66986479Y-97042031D01*
X65605241Y-96386626D01*
X64015248Y-95468644D01*
X63027771Y-94787038D01*
X63543006Y-94632130D01*
X64140530Y-94314639D01*
X64154692Y-94305177D01*
X64466876Y-93856481D01*
X62230000Y-91619605D01*
X62215858Y-91633748D01*
X62036253Y-91454143D01*
X62050395Y-91440000D01*
X62409605Y-91440000D01*
X64646481Y-93676876D01*
X65095177Y-93364692D01*
X65415612Y-92768741D01*
X65415945Y-92767650D01*
X66812424Y-92767650D01*
X66857634Y-93111380D01*
X66969034Y-93439685D01*
X67078286Y-93644079D01*
X67355469Y-93754926D01*
X68400395Y-92710000D01*
X67355469Y-91665074D01*
X67078286Y-91775921D01*
X66924911Y-92086840D01*
X66835140Y-92421705D01*
X66812424Y-92767650D01*
X65415945Y-92767650D01*
X65613626Y-92121727D01*
X65677878Y-91485469D01*
X67535074Y-91485469D01*
X68580000Y-92530395D01*
X69624926Y-91485469D01*
X72615074Y-91485469D01*
X73660000Y-92530395D01*
X74704926Y-91485469D01*
X77695074Y-91485469D01*
X78740000Y-92530395D01*
X79784926Y-91485469D01*
X82775074Y-91485469D01*
X83820000Y-92530395D01*
X84864926Y-91485469D01*
X84843338Y-91431484D01*
X86718390Y-91431484D01*
X86783051Y-92105023D01*
X86977870Y-92753006D01*
X87295361Y-93350530D01*
X87304823Y-93364692D01*
X87753519Y-93676876D01*
X89990395Y-91440000D01*
X87753519Y-89203124D01*
X87304823Y-89515308D01*
X86984388Y-90111259D01*
X86786374Y-90758273D01*
X86718390Y-91431484D01*
X84843338Y-91431484D01*
X84754079Y-91208286D01*
X84443160Y-91054911D01*
X84108295Y-90965140D01*
X83762350Y-90942424D01*
X83418620Y-90987634D01*
X83090315Y-91099034D01*
X82885921Y-91208286D01*
X82775074Y-91485469D01*
X79784926Y-91485469D01*
X79674079Y-91208286D01*
X79363160Y-91054911D01*
X79028295Y-90965140D01*
X78682350Y-90942424D01*
X78338620Y-90987634D01*
X78010315Y-91099034D01*
X77805921Y-91208286D01*
X77695074Y-91485469D01*
X74704926Y-91485469D01*
X74594079Y-91208286D01*
X74283160Y-91054911D01*
X73948295Y-90965140D01*
X73602350Y-90942424D01*
X73258620Y-90987634D01*
X72930315Y-91099034D01*
X72725921Y-91208286D01*
X72615074Y-91485469D01*
X69624926Y-91485469D01*
X69514079Y-91208286D01*
X69203160Y-91054911D01*
X68868295Y-90965140D01*
X68522350Y-90942424D01*
X68178620Y-90987634D01*
X67850315Y-91099034D01*
X67645921Y-91208286D01*
X67535074Y-91485469D01*
X65677878Y-91485469D01*
X65681610Y-91448516D01*
X65616949Y-90774977D01*
X65422130Y-90126994D01*
X65104639Y-89529470D01*
X65095177Y-89515308D01*
X64646481Y-89203124D01*
X62409605Y-91440000D01*
X62050395Y-91440000D01*
X59813519Y-89203124D01*
X59364823Y-89515308D01*
X59044388Y-90111259D01*
X58846374Y-90758273D01*
X58827753Y-90942668D01*
X58540556Y-90618490D01*
X57437614Y-89150740D01*
X57357165Y-89023519D01*
X59993124Y-89023519D01*
X62230000Y-91260395D01*
X64466876Y-89023519D01*
X87933124Y-89023519D01*
X90170000Y-91260395D01*
X92406876Y-89023519D01*
X92094692Y-88574823D01*
X91498741Y-88254388D01*
X90851727Y-88056374D01*
X90178516Y-87988390D01*
X89504977Y-88053051D01*
X88856994Y-88247870D01*
X88259470Y-88565361D01*
X88245308Y-88574823D01*
X87933124Y-89023519D01*
X64466876Y-89023519D01*
X64154692Y-88574823D01*
X63558741Y-88254388D01*
X62911727Y-88056374D01*
X62238516Y-87988390D01*
X61564977Y-88053051D01*
X60916994Y-88247870D01*
X60319470Y-88565361D01*
X60305308Y-88574823D01*
X59993124Y-89023519D01*
X57357165Y-89023519D01*
X56456353Y-87599000D01*
X55603137Y-85973333D01*
X54883500Y-84284282D01*
X54302108Y-82542802D01*
X53862733Y-80760186D01*
X53568223Y-78947995D01*
X53549055Y-78710553D01*
X53643125Y-78616483D01*
X53955308Y-79065177D01*
X54551259Y-79385612D01*
X55198273Y-79583626D01*
X55871484Y-79651610D01*
X56545023Y-79586949D01*
X57193006Y-79392130D01*
X57790530Y-79074639D01*
X57804692Y-79065177D01*
X58116876Y-78616481D01*
X55880000Y-76379605D01*
X55865858Y-76393748D01*
X55686253Y-76214143D01*
X55700395Y-76200000D01*
X56059605Y-76200000D01*
X58296481Y-78436876D01*
X58745177Y-78124692D01*
X59065612Y-77528741D01*
X59208000Y-77063486D01*
X59208000Y-77383939D01*
X59199524Y-77470000D01*
X59208000Y-77556061D01*
X59208000Y-77556068D01*
X59233350Y-77813451D01*
X59333531Y-78143704D01*
X59333532Y-78143705D01*
X59496217Y-78448068D01*
X59545637Y-78508286D01*
X59715155Y-78714845D01*
X59782008Y-78769710D01*
X62226275Y-81213977D01*
X62075000Y-81211928D01*
X61950518Y-81224188D01*
X61830820Y-81260498D01*
X61720506Y-81319463D01*
X61623815Y-81398815D01*
X61544463Y-81495506D01*
X61485498Y-81605820D01*
X61449188Y-81725518D01*
X61436928Y-81850000D01*
X61440000Y-82264250D01*
X61598750Y-82423000D01*
X62265128Y-82423000D01*
X62265128Y-82677000D01*
X61598750Y-82677000D01*
X61440000Y-82835750D01*
X61436928Y-83250000D01*
X61449188Y-83374482D01*
X61485498Y-83494180D01*
X61544463Y-83604494D01*
X61623815Y-83701185D01*
X61720506Y-83780537D01*
X61830820Y-83839502D01*
X61950518Y-83875812D01*
X62075000Y-83888072D01*
X62301750Y-83885000D01*
X62428402Y-83758348D01*
X62460498Y-83818395D01*
X62460498Y-83885000D01*
X62496099Y-83885000D01*
X62582786Y-84047180D01*
X62817194Y-84332806D01*
X63102820Y-84567214D01*
X63428689Y-84741395D01*
X63782278Y-84848655D01*
X64149998Y-84884872D01*
X64675002Y-84884872D01*
X65042722Y-84848655D01*
X65396311Y-84741395D01*
X65722180Y-84567214D01*
X66007806Y-84332806D01*
X66045155Y-84287296D01*
X66153248Y-84276650D01*
X66449121Y-84186898D01*
X66772101Y-84186898D01*
X66866437Y-84281234D01*
X67255754Y-84541368D01*
X67688341Y-84720551D01*
X68147572Y-84811898D01*
X68615800Y-84811898D01*
X69075031Y-84720551D01*
X69507618Y-84541368D01*
X69587159Y-84488220D01*
X69575510Y-84516343D01*
X69484163Y-84975574D01*
X69484163Y-85443802D01*
X69575510Y-85903033D01*
X69754693Y-86335620D01*
X70014827Y-86724937D01*
X70345914Y-87056024D01*
X70735231Y-87316158D01*
X71167818Y-87495341D01*
X71627049Y-87586688D01*
X72095277Y-87586688D01*
X72554508Y-87495341D01*
X72987095Y-87316158D01*
X73376412Y-87056024D01*
X73707499Y-86724937D01*
X73967633Y-86335620D01*
X74146816Y-85903033D01*
X74238163Y-85443802D01*
X74238163Y-84975574D01*
X78161837Y-84975574D01*
X78161837Y-85443802D01*
X78253184Y-85903033D01*
X78432367Y-86335620D01*
X78692501Y-86724937D01*
X79023588Y-87056024D01*
X79412905Y-87316158D01*
X79845492Y-87495341D01*
X80304723Y-87586688D01*
X80772951Y-87586688D01*
X81232182Y-87495341D01*
X81664769Y-87316158D01*
X82054086Y-87056024D01*
X82385173Y-86724937D01*
X82645307Y-86335620D01*
X82654042Y-86314531D01*
X91665074Y-86314531D01*
X91775921Y-86591714D01*
X92086840Y-86745089D01*
X92421705Y-86834860D01*
X92767650Y-86857576D01*
X93111380Y-86812366D01*
X93439685Y-86700966D01*
X93644079Y-86591714D01*
X93754926Y-86314531D01*
X92710000Y-85269605D01*
X91665074Y-86314531D01*
X82654042Y-86314531D01*
X82824490Y-85903033D01*
X82915837Y-85443802D01*
X82915837Y-85147650D01*
X90942424Y-85147650D01*
X90987634Y-85491380D01*
X91099034Y-85819685D01*
X91208286Y-86024079D01*
X91485469Y-86134926D01*
X92530395Y-85090000D01*
X91485469Y-84045074D01*
X91208286Y-84155921D01*
X91054911Y-84466840D01*
X90965140Y-84801705D01*
X90942424Y-85147650D01*
X82915837Y-85147650D01*
X82915837Y-84975574D01*
X82824490Y-84516343D01*
X82645307Y-84083756D01*
X82385173Y-83694439D01*
X82054086Y-83363352D01*
X81664769Y-83103218D01*
X81232182Y-82924035D01*
X80772951Y-82832688D01*
X80304723Y-82832688D01*
X79845492Y-82924035D01*
X79412905Y-83103218D01*
X79023588Y-83363352D01*
X78692501Y-83694439D01*
X78432367Y-84083756D01*
X78253184Y-84516343D01*
X78161837Y-84975574D01*
X74238163Y-84975574D01*
X74146816Y-84516343D01*
X73967633Y-84083756D01*
X73707499Y-83694439D01*
X73376412Y-83363352D01*
X72987095Y-83103218D01*
X72554508Y-82924035D01*
X72095277Y-82832688D01*
X71627049Y-82832688D01*
X71167818Y-82924035D01*
X70735231Y-83103218D01*
X70655690Y-83156366D01*
X70667339Y-83128243D01*
X70758686Y-82669012D01*
X70758686Y-82200784D01*
X70667339Y-81741553D01*
X70488156Y-81308966D01*
X70228022Y-80919649D01*
X69896935Y-80588562D01*
X69507618Y-80328428D01*
X69075031Y-80149245D01*
X68615800Y-80057898D01*
X68179617Y-80057898D01*
X68297057Y-79940458D01*
X68557191Y-79551141D01*
X68736374Y-79118554D01*
X68827721Y-78659323D01*
X68827721Y-78191095D01*
X68736374Y-77731864D01*
X68557191Y-77299277D01*
X68297057Y-76909960D01*
X67965970Y-76578873D01*
X67576653Y-76318739D01*
X67289991Y-76200000D01*
X67576653Y-76081261D01*
X67965970Y-75821127D01*
X68297057Y-75490040D01*
X68557191Y-75100723D01*
X68736374Y-74668136D01*
X68827721Y-74208905D01*
X68827721Y-73740677D01*
X68736374Y-73281446D01*
X68557191Y-72848859D01*
X68297057Y-72459542D01*
X68179617Y-72342102D01*
X68615800Y-72342102D01*
X69075031Y-72250755D01*
X69507618Y-72071572D01*
X69896935Y-71811438D01*
X70228022Y-71480351D01*
X70488156Y-71091034D01*
X70667339Y-70658447D01*
X70758686Y-70199216D01*
X70758686Y-69730988D01*
X70667339Y-69271757D01*
X70655690Y-69243634D01*
X70735231Y-69296782D01*
X71167818Y-69475965D01*
X71627049Y-69567312D01*
X72095277Y-69567312D01*
X72554508Y-69475965D01*
X72987095Y-69296782D01*
X73376412Y-69036648D01*
X73707499Y-68705561D01*
X73967633Y-68316244D01*
X74146816Y-67883657D01*
X74220081Y-67515329D01*
X74353664Y-67715249D01*
X74684751Y-68046336D01*
X75074068Y-68306470D01*
X75506655Y-68485653D01*
X75965886Y-68577000D01*
X76434114Y-68577000D01*
X76893345Y-68485653D01*
X77262757Y-68332638D01*
X77310000Y-68337291D01*
X77414485Y-68327000D01*
X77414487Y-68327000D01*
X77726965Y-68296224D01*
X78127906Y-68174599D01*
X78329142Y-68067036D01*
X78432367Y-68316244D01*
X78692501Y-68705561D01*
X79023588Y-69036648D01*
X79412905Y-69296782D01*
X79845492Y-69475965D01*
X80304723Y-69567312D01*
X80772951Y-69567312D01*
X81232182Y-69475965D01*
X81664769Y-69296782D01*
X81744310Y-69243634D01*
X81732661Y-69271757D01*
X81641314Y-69730988D01*
X81641314Y-70199216D01*
X81732661Y-70658447D01*
X81911844Y-71091034D01*
X82171978Y-71480351D01*
X82503065Y-71811438D01*
X82892382Y-72071572D01*
X83324969Y-72250755D01*
X83784200Y-72342102D01*
X84220383Y-72342102D01*
X84102943Y-72459542D01*
X83842809Y-72848859D01*
X83663626Y-73281446D01*
X83572279Y-73740677D01*
X83572279Y-74208905D01*
X83663626Y-74668136D01*
X83842809Y-75100723D01*
X84102943Y-75490040D01*
X84434030Y-75821127D01*
X84823347Y-76081261D01*
X85110009Y-76200000D01*
X84823347Y-76318739D01*
X84434030Y-76578873D01*
X84102943Y-76909960D01*
X83842809Y-77299277D01*
X83663626Y-77731864D01*
X83572279Y-78191095D01*
X83572279Y-78659323D01*
X83663626Y-79118554D01*
X83842809Y-79551141D01*
X84102943Y-79940458D01*
X84434030Y-80271545D01*
X84823347Y-80531679D01*
X85255934Y-80710862D01*
X85715165Y-80802209D01*
X86183393Y-80802209D01*
X86642624Y-80710862D01*
X87075211Y-80531679D01*
X87464528Y-80271545D01*
X87668423Y-80067650D01*
X90942424Y-80067650D01*
X90987634Y-80411380D01*
X91099034Y-80739685D01*
X91208286Y-80944079D01*
X91485469Y-81054926D01*
X92530395Y-80010000D01*
X91485469Y-78965074D01*
X91208286Y-79075921D01*
X91054911Y-79386840D01*
X90965140Y-79721705D01*
X90942424Y-80067650D01*
X87668423Y-80067650D01*
X87795615Y-79940458D01*
X88055749Y-79551141D01*
X88234932Y-79118554D01*
X88301186Y-78785469D01*
X91665074Y-78785469D01*
X92710000Y-79830395D01*
X93754926Y-78785469D01*
X93644079Y-78508286D01*
X93333160Y-78354911D01*
X92998295Y-78265140D01*
X92652350Y-78242424D01*
X92308620Y-78287634D01*
X91980315Y-78399034D01*
X91775921Y-78508286D01*
X91665074Y-78785469D01*
X88301186Y-78785469D01*
X88326279Y-78659323D01*
X88326279Y-78191095D01*
X88234932Y-77731864D01*
X88055749Y-77299277D01*
X87795615Y-76909960D01*
X87464528Y-76578873D01*
X87075211Y-76318739D01*
X86788549Y-76200000D01*
X87075211Y-76081261D01*
X87464528Y-75821127D01*
X87795615Y-75490040D01*
X88055749Y-75100723D01*
X88234932Y-74668136D01*
X88326279Y-74208905D01*
X88326279Y-74075494D01*
X88712068Y-73689705D01*
X88778915Y-73634845D01*
X88795586Y-73614531D01*
X91665074Y-73614531D01*
X91775921Y-73891714D01*
X92086840Y-74045089D01*
X92421705Y-74134860D01*
X92767650Y-74157576D01*
X93111380Y-74112366D01*
X93439685Y-74000966D01*
X93644079Y-73891714D01*
X93754926Y-73614531D01*
X92710000Y-72569605D01*
X91665074Y-73614531D01*
X88795586Y-73614531D01*
X88833775Y-73567998D01*
X88833781Y-73567992D01*
X88997853Y-73368069D01*
X89160538Y-73063706D01*
X89160539Y-73063705D01*
X89260720Y-72733452D01*
X89286070Y-72476069D01*
X89286070Y-72476061D01*
X89288868Y-72447650D01*
X90942424Y-72447650D01*
X90987634Y-72791380D01*
X91099034Y-73119685D01*
X91208286Y-73324079D01*
X91485469Y-73434926D01*
X92530395Y-72390000D01*
X91485469Y-71345074D01*
X91208286Y-71455921D01*
X91054911Y-71766840D01*
X90965140Y-72101705D01*
X90942424Y-72447650D01*
X89288868Y-72447650D01*
X89294546Y-72390000D01*
X89286070Y-72303939D01*
X89286070Y-67367650D01*
X90942424Y-67367650D01*
X90987634Y-67711380D01*
X91099034Y-68039685D01*
X91208286Y-68244079D01*
X91485469Y-68354926D01*
X92530395Y-67310000D01*
X91485469Y-66265074D01*
X91208286Y-66375921D01*
X91054911Y-66686840D01*
X90965140Y-67021705D01*
X90942424Y-67367650D01*
X89286070Y-67367650D01*
X89286070Y-66085469D01*
X91665074Y-66085469D01*
X92710000Y-67130395D01*
X93754926Y-66085469D01*
X93644079Y-65808286D01*
X93333160Y-65654911D01*
X92998295Y-65565140D01*
X92652350Y-65542424D01*
X92308620Y-65587634D01*
X91980315Y-65699034D01*
X91775921Y-65808286D01*
X91665074Y-66085469D01*
X89286070Y-66085469D01*
X89286070Y-64760127D01*
X89294546Y-64674069D01*
X89286070Y-64588011D01*
X89286070Y-64588001D01*
X89260720Y-64330618D01*
X89160539Y-64000365D01*
X88997853Y-63696001D01*
X88795834Y-63449841D01*
X89239159Y-63402273D01*
X89734526Y-63247279D01*
X90151772Y-63024258D01*
X90367894Y-62657499D01*
X88700000Y-60989605D01*
X88685858Y-61003748D01*
X88506253Y-60824143D01*
X88520395Y-60810000D01*
X88879605Y-60810000D01*
X90547499Y-62477894D01*
X90914258Y-62261772D01*
X91154938Y-61801895D01*
X91301275Y-61303902D01*
X91347648Y-60786929D01*
X91292273Y-60270841D01*
X91137279Y-59775474D01*
X90914258Y-59358228D01*
X90547499Y-59142106D01*
X88879605Y-60810000D01*
X88520395Y-60810000D01*
X86852501Y-59142106D01*
X86485742Y-59358228D01*
X86245062Y-59818105D01*
X86098725Y-60316098D01*
X86062100Y-60724398D01*
X84300203Y-58962501D01*
X87032106Y-58962501D01*
X88700000Y-60630395D01*
X90367894Y-58962501D01*
X90151772Y-58595742D01*
X89691895Y-58355062D01*
X89193902Y-58208725D01*
X88676929Y-58162352D01*
X88160841Y-58217727D01*
X87665474Y-58372721D01*
X87248228Y-58595742D01*
X87032106Y-58962501D01*
X84300203Y-58962501D01*
X83549710Y-58212008D01*
X83494845Y-58145155D01*
X83423249Y-58086397D01*
X83390241Y-58059308D01*
X83228069Y-57926217D01*
X82923705Y-57763531D01*
X82593452Y-57663350D01*
X82336069Y-57638000D01*
X82336061Y-57638000D01*
X82250000Y-57629524D01*
X82163939Y-57638000D01*
X82035296Y-57638000D01*
X81902122Y-57504826D01*
X81504615Y-57239221D01*
X81062930Y-57056268D01*
X80594039Y-56963000D01*
X80115961Y-56963000D01*
X79647070Y-57056268D01*
X79205385Y-57239221D01*
X78807878Y-57504826D01*
X78469826Y-57842878D01*
X78277793Y-58130276D01*
X78071004Y-58032429D01*
X77796816Y-57963700D01*
X77514488Y-57949783D01*
X77234870Y-57991213D01*
X76968708Y-58086397D01*
X76890735Y-58128074D01*
X76700174Y-57842878D01*
X76362122Y-57504826D01*
X75964615Y-57239221D01*
X75522930Y-57056268D01*
X75054039Y-56963000D01*
X74575961Y-56963000D01*
X74107070Y-57056268D01*
X73665385Y-57239221D01*
X73430000Y-57396500D01*
X73194615Y-57239221D01*
X72752930Y-57056268D01*
X72284039Y-56963000D01*
X71805961Y-56963000D01*
X71337070Y-57056268D01*
X70895385Y-57239221D01*
X70497878Y-57504826D01*
X70159826Y-57842878D01*
X69894221Y-58240385D01*
X69711268Y-58682070D01*
X69618000Y-59150961D01*
X69618000Y-59629039D01*
X69655052Y-59815314D01*
X69541052Y-59826542D01*
X69234362Y-59919575D01*
X68951714Y-60070654D01*
X68703971Y-60273971D01*
X68500654Y-60521714D01*
X68349575Y-60804362D01*
X68256542Y-61111052D01*
X68225128Y-61430000D01*
X68225128Y-62187170D01*
X59782003Y-70630295D01*
X59715156Y-70685155D01*
X59660296Y-70752002D01*
X59660289Y-70752009D01*
X59496217Y-70951932D01*
X59333532Y-71256295D01*
X59233350Y-71586549D01*
X59199524Y-71930000D01*
X59208001Y-72016071D01*
X59208000Y-75338909D01*
X59072130Y-74886994D01*
X58754639Y-74289470D01*
X58745177Y-74275308D01*
X58296481Y-73963124D01*
X56059605Y-76200000D01*
X55700395Y-76200000D01*
X55686253Y-76185858D01*
X55865858Y-76006253D01*
X55880000Y-76020395D01*
X58116876Y-73783519D01*
X57804692Y-73334823D01*
X57208741Y-73014388D01*
X56561727Y-72816374D01*
X55888516Y-72748390D01*
X55214977Y-72813051D01*
X54566994Y-73007870D01*
X53969470Y-73325361D01*
X53955308Y-73334823D01*
X53643125Y-73783517D01*
X53549055Y-73689447D01*
X53568223Y-73452005D01*
X53862733Y-71639814D01*
X54302108Y-69857198D01*
X54883500Y-68115718D01*
X55603137Y-66426667D01*
X56456353Y-64801000D01*
X57437614Y-63249260D01*
X57882293Y-62657499D01*
X62032106Y-62657499D01*
X62248228Y-63024258D01*
X62708105Y-63264938D01*
X63206098Y-63411275D01*
X63723071Y-63457648D01*
X64239159Y-63402273D01*
X64734526Y-63247279D01*
X65151772Y-63024258D01*
X65367894Y-62657499D01*
X63700000Y-60989605D01*
X62032106Y-62657499D01*
X57882293Y-62657499D01*
X58540556Y-61781510D01*
X59380800Y-60833071D01*
X61052352Y-60833071D01*
X61107727Y-61349159D01*
X61262721Y-61844526D01*
X61485742Y-62261772D01*
X61852501Y-62477894D01*
X63520395Y-60810000D01*
X63879605Y-60810000D01*
X65547499Y-62477894D01*
X65914258Y-62261772D01*
X66154938Y-61801895D01*
X66301275Y-61303902D01*
X66347648Y-60786929D01*
X66292273Y-60270841D01*
X66137279Y-59775474D01*
X65914258Y-59358228D01*
X65547499Y-59142106D01*
X63879605Y-60810000D01*
X63520395Y-60810000D01*
X61852501Y-59142106D01*
X61485742Y-59358228D01*
X61245062Y-59818105D01*
X61098725Y-60316098D01*
X61052352Y-60833071D01*
X59380800Y-60833071D01*
X59758027Y-60407270D01*
X61082130Y-59135452D01*
X61293956Y-58962501D01*
X62032106Y-58962501D01*
X63700000Y-60630395D01*
X65367894Y-58962501D01*
X65151772Y-58595742D01*
X64691895Y-58355062D01*
X64193902Y-58208725D01*
X63676929Y-58162352D01*
X63160841Y-58217727D01*
X62665474Y-58372721D01*
X62248228Y-58595742D01*
X62032106Y-58962501D01*
X61293956Y-58962501D01*
X62504278Y-57974304D01*
X64015248Y-56931356D01*
X65605241Y-56013374D01*
X67263945Y-55226309D01*
X68980603Y-54575266D01*
X70744081Y-54064468D01*
X72542944Y-53697228D01*
X74365523Y-53475927D01*
X76200000Y-53402000D01*
X78034477Y-53475927D01*
%TA.AperFunction,Conductor*%
D20*
G36*
X78034477Y-53475927D02*
G01*
X79857056Y-53697228D01*
X81655919Y-54064468D01*
X83419397Y-54575266D01*
X85136055Y-55226309D01*
X86794759Y-56013374D01*
X88384752Y-56931356D01*
X89895722Y-57974304D01*
X91317870Y-59135452D01*
X92641973Y-60407270D01*
X93859444Y-61781510D01*
X94962386Y-63249260D01*
X95943647Y-64801000D01*
X96796863Y-66426667D01*
X96848679Y-66548284D01*
X96565469Y-66265074D01*
X96288286Y-66375921D01*
X96134911Y-66686840D01*
X96045140Y-67021705D01*
X96026784Y-67301250D01*
X96023560Y-67299915D01*
X95511199Y-67198000D01*
X94988801Y-67198000D01*
X94476440Y-67299915D01*
X94474397Y-67300761D01*
X94477576Y-67252350D01*
X94432366Y-66908620D01*
X94320966Y-66580315D01*
X94211714Y-66375921D01*
X93934531Y-66265074D01*
X92889605Y-67310000D01*
X92903748Y-67324143D01*
X92724143Y-67503748D01*
X92710000Y-67489605D01*
X91665074Y-68534531D01*
X91775921Y-68811714D01*
X92086840Y-68965089D01*
X92421705Y-69054860D01*
X92701250Y-69073216D01*
X92699915Y-69076440D01*
X92598000Y-69588801D01*
X92598000Y-70111199D01*
X92699915Y-70623560D01*
X92700761Y-70625603D01*
X92652350Y-70622424D01*
X92308620Y-70667634D01*
X91980315Y-70779034D01*
X91775921Y-70888286D01*
X91665074Y-71165469D01*
X92710000Y-72210395D01*
X92724143Y-72196253D01*
X92903748Y-72375858D01*
X92889605Y-72390000D01*
X93934531Y-73434926D01*
X94211714Y-73324079D01*
X94365089Y-73013160D01*
X94454860Y-72678295D01*
X94473216Y-72398750D01*
X94476440Y-72400085D01*
X94988801Y-72502000D01*
X95511199Y-72502000D01*
X96023560Y-72400085D01*
X96025603Y-72399239D01*
X96022424Y-72447650D01*
X96067634Y-72791380D01*
X96179034Y-73119685D01*
X96288286Y-73324079D01*
X96565469Y-73434926D01*
X97610395Y-72390000D01*
X97596253Y-72375858D01*
X97775858Y-72196253D01*
X97790000Y-72210395D01*
X97804143Y-72196253D01*
X97983748Y-72375858D01*
X97969605Y-72390000D01*
X97983748Y-72404143D01*
X97804143Y-72583748D01*
X97790000Y-72569605D01*
X96745074Y-73614531D01*
X96855921Y-73891714D01*
X97166840Y-74045089D01*
X97501705Y-74134860D01*
X97847650Y-74157576D01*
X98191380Y-74112366D01*
X98519685Y-74000966D01*
X98724079Y-73891714D01*
X98834925Y-73614533D01*
X98845773Y-73625381D01*
X98979511Y-75282017D01*
X98979511Y-77117983D01*
X98845773Y-78774619D01*
X98834925Y-78785467D01*
X98724079Y-78508286D01*
X98413160Y-78354911D01*
X98078295Y-78265140D01*
X97732350Y-78242424D01*
X97388620Y-78287634D01*
X97060315Y-78399034D01*
X96855921Y-78508286D01*
X96745074Y-78785469D01*
X97790000Y-79830395D01*
X97804143Y-79816253D01*
X97983748Y-79995858D01*
X97969605Y-80010000D01*
X97983748Y-80024143D01*
X97804143Y-80203748D01*
X97790000Y-80189605D01*
X97775858Y-80203748D01*
X97596253Y-80024143D01*
X97610395Y-80010000D01*
X96565469Y-78965074D01*
X96288286Y-79075921D01*
X96134911Y-79386840D01*
X96045140Y-79721705D01*
X96026784Y-80001250D01*
X96023560Y-79999915D01*
X95511199Y-79898000D01*
X94988801Y-79898000D01*
X94476440Y-79999915D01*
X94474397Y-80000761D01*
X94477576Y-79952350D01*
X94432366Y-79608620D01*
X94320966Y-79280315D01*
X94211714Y-79075921D01*
X93934531Y-78965074D01*
X92889605Y-80010000D01*
X92903748Y-80024143D01*
X92724143Y-80203748D01*
X92710000Y-80189605D01*
X91665074Y-81234531D01*
X91775921Y-81511714D01*
X92086840Y-81665089D01*
X92421705Y-81754860D01*
X92701250Y-81773216D01*
X92699915Y-81776440D01*
X92598000Y-82288801D01*
X92598000Y-82811199D01*
X92699915Y-83323560D01*
X92700761Y-83325603D01*
X92652350Y-83322424D01*
X92308620Y-83367634D01*
X91980315Y-83479034D01*
X91775921Y-83588286D01*
X91665074Y-83865469D01*
X92710000Y-84910395D01*
X92724143Y-84896253D01*
X92903748Y-85075858D01*
X92889605Y-85090000D01*
X93934531Y-86134926D01*
X94211714Y-86024079D01*
X94365089Y-85713160D01*
X94454860Y-85378295D01*
X94473216Y-85098750D01*
X94476440Y-85100085D01*
X94988801Y-85202000D01*
X95511199Y-85202000D01*
X96023560Y-85100085D01*
X96025603Y-85099239D01*
X96022424Y-85147650D01*
X96067634Y-85491380D01*
X96179034Y-85819685D01*
X96288286Y-86024079D01*
X96565469Y-86134926D01*
X96848679Y-85851716D01*
X96796863Y-85973333D01*
X95943647Y-87599000D01*
X94962386Y-89150740D01*
X93859444Y-90618490D01*
X93572969Y-90941853D01*
X93556949Y-90774977D01*
X93362130Y-90126994D01*
X93044639Y-89529470D01*
X93035177Y-89515308D01*
X92586481Y-89203124D01*
X90349605Y-91440000D01*
X90363748Y-91454143D01*
X90184143Y-91633748D01*
X90170000Y-91619605D01*
X87933124Y-93856481D01*
X88245308Y-94305177D01*
X88841259Y-94625612D01*
X89371151Y-94787782D01*
X88384752Y-95468644D01*
X86794759Y-96386626D01*
X85419641Y-97039128D01*
X85321714Y-96855921D01*
X85044531Y-96745074D01*
X84298131Y-97491474D01*
X83673894Y-97728216D01*
X83805858Y-97596253D01*
X83820000Y-97610395D01*
X84864926Y-96565469D01*
X84754079Y-96288286D01*
X84443160Y-96134911D01*
X84108295Y-96045140D01*
X83828750Y-96026784D01*
X83830085Y-96023560D01*
X83932000Y-95511199D01*
X83932000Y-94988801D01*
X83830085Y-94476440D01*
X83829239Y-94474397D01*
X83877650Y-94477576D01*
X84221380Y-94432366D01*
X84549685Y-94320966D01*
X84754079Y-94211714D01*
X84864926Y-93934531D01*
X83820000Y-92889605D01*
X83805858Y-92903748D01*
X83626253Y-92724143D01*
X83640395Y-92710000D01*
X83999605Y-92710000D01*
X85044531Y-93754926D01*
X85321714Y-93644079D01*
X85475089Y-93333160D01*
X85564860Y-92998295D01*
X85587576Y-92652350D01*
X85542366Y-92308620D01*
X85430966Y-91980315D01*
X85321714Y-91775921D01*
X85044531Y-91665074D01*
X83999605Y-92710000D01*
X83640395Y-92710000D01*
X82595469Y-91665074D01*
X82318286Y-91775921D01*
X82164911Y-92086840D01*
X82075140Y-92421705D01*
X82056784Y-92701250D01*
X82053560Y-92699915D01*
X81541199Y-92598000D01*
X81018801Y-92598000D01*
X80506440Y-92699915D01*
X80504397Y-92700761D01*
X80507576Y-92652350D01*
X80462366Y-92308620D01*
X80350966Y-91980315D01*
X80241714Y-91775921D01*
X79964531Y-91665074D01*
X78919605Y-92710000D01*
X78933748Y-92724143D01*
X78754143Y-92903748D01*
X78740000Y-92889605D01*
X77695074Y-93934531D01*
X77805921Y-94211714D01*
X78116840Y-94365089D01*
X78451705Y-94454860D01*
X78731250Y-94473216D01*
X78729915Y-94476440D01*
X78628000Y-94988801D01*
X78628000Y-95511199D01*
X78729915Y-96023560D01*
X78730761Y-96025603D01*
X78682350Y-96022424D01*
X78338620Y-96067634D01*
X78010315Y-96179034D01*
X77805921Y-96288286D01*
X77695074Y-96565469D01*
X78740000Y-97610395D01*
X78754143Y-97596253D01*
X78933748Y-97775858D01*
X78919605Y-97790000D01*
X78933748Y-97804143D01*
X78754143Y-97983748D01*
X78740000Y-97969605D01*
X78725858Y-97983748D01*
X78546253Y-97804143D01*
X78560395Y-97790000D01*
X77515469Y-96745074D01*
X77238286Y-96855921D01*
X77084911Y-97166840D01*
X76995140Y-97501705D01*
X76972424Y-97847650D01*
X77017634Y-98191380D01*
X77129034Y-98519685D01*
X77238286Y-98724079D01*
X77515467Y-98834925D01*
X77400782Y-98949610D01*
X76200000Y-98998000D01*
X74999218Y-98949610D01*
X74884533Y-98834925D01*
X75161714Y-98724079D01*
X75315089Y-98413160D01*
X75404860Y-98078295D01*
X75427576Y-97732350D01*
X75382366Y-97388620D01*
X75270966Y-97060315D01*
X75161714Y-96855921D01*
X74884531Y-96745074D01*
X73839605Y-97790000D01*
X73853748Y-97804143D01*
X73674143Y-97983748D01*
X73660000Y-97969605D01*
X73645858Y-97983748D01*
X73466253Y-97804143D01*
X73480395Y-97790000D01*
X73466253Y-97775858D01*
X73645858Y-97596253D01*
X73660000Y-97610395D01*
X74704926Y-96565469D01*
X74594079Y-96288286D01*
X74283160Y-96134911D01*
X73948295Y-96045140D01*
X73668750Y-96026784D01*
X73670085Y-96023560D01*
X73772000Y-95511199D01*
X73772000Y-94988801D01*
X73670085Y-94476440D01*
X73669239Y-94474397D01*
X73717650Y-94477576D01*
X74061380Y-94432366D01*
X74389685Y-94320966D01*
X74594079Y-94211714D01*
X74704926Y-93934531D01*
X73660000Y-92889605D01*
X73645858Y-92903748D01*
X73466253Y-92724143D01*
X73480395Y-92710000D01*
X73839605Y-92710000D01*
X74884531Y-93754926D01*
X75161714Y-93644079D01*
X75315089Y-93333160D01*
X75404860Y-92998295D01*
X75420004Y-92767650D01*
X76972424Y-92767650D01*
X77017634Y-93111380D01*
X77129034Y-93439685D01*
X77238286Y-93644079D01*
X77515469Y-93754926D01*
X78560395Y-92710000D01*
X77515469Y-91665074D01*
X77238286Y-91775921D01*
X77084911Y-92086840D01*
X76995140Y-92421705D01*
X76972424Y-92767650D01*
X75420004Y-92767650D01*
X75427576Y-92652350D01*
X75382366Y-92308620D01*
X75270966Y-91980315D01*
X75161714Y-91775921D01*
X74884531Y-91665074D01*
X73839605Y-92710000D01*
X73480395Y-92710000D01*
X72435469Y-91665074D01*
X72158286Y-91775921D01*
X72004911Y-92086840D01*
X71915140Y-92421705D01*
X71896784Y-92701250D01*
X71893560Y-92699915D01*
X71381199Y-92598000D01*
X70858801Y-92598000D01*
X70346440Y-92699915D01*
X70344397Y-92700761D01*
X70347576Y-92652350D01*
X70302366Y-92308620D01*
X70190966Y-91980315D01*
X70081714Y-91775921D01*
X69804531Y-91665074D01*
X68759605Y-92710000D01*
X68773748Y-92724143D01*
X68594143Y-92903748D01*
X68580000Y-92889605D01*
X67535074Y-93934531D01*
X67645921Y-94211714D01*
X67956840Y-94365089D01*
X68291705Y-94454860D01*
X68571250Y-94473216D01*
X68569915Y-94476440D01*
X68468000Y-94988801D01*
X68468000Y-95511199D01*
X68569915Y-96023560D01*
X68570761Y-96025603D01*
X68522350Y-96022424D01*
X68178620Y-96067634D01*
X67850315Y-96179034D01*
X67645921Y-96288286D01*
X67535074Y-96565469D01*
X68580000Y-97610395D01*
X68594143Y-97596253D01*
X68726106Y-97728216D01*
X68101869Y-97491474D01*
X67355469Y-96745074D01*
X67078286Y-96855921D01*
X66986479Y-97042031D01*
X65605241Y-96386626D01*
X64015248Y-95468644D01*
X63027771Y-94787038D01*
X63543006Y-94632130D01*
X64140530Y-94314639D01*
X64154692Y-94305177D01*
X64466876Y-93856481D01*
X62230000Y-91619605D01*
X62215858Y-91633748D01*
X62036253Y-91454143D01*
X62050395Y-91440000D01*
X62409605Y-91440000D01*
X64646481Y-93676876D01*
X65095177Y-93364692D01*
X65415612Y-92768741D01*
X65415945Y-92767650D01*
X66812424Y-92767650D01*
X66857634Y-93111380D01*
X66969034Y-93439685D01*
X67078286Y-93644079D01*
X67355469Y-93754926D01*
X68400395Y-92710000D01*
X67355469Y-91665074D01*
X67078286Y-91775921D01*
X66924911Y-92086840D01*
X66835140Y-92421705D01*
X66812424Y-92767650D01*
X65415945Y-92767650D01*
X65613626Y-92121727D01*
X65677878Y-91485469D01*
X67535074Y-91485469D01*
X68580000Y-92530395D01*
X69624926Y-91485469D01*
X72615074Y-91485469D01*
X73660000Y-92530395D01*
X74704926Y-91485469D01*
X77695074Y-91485469D01*
X78740000Y-92530395D01*
X79784926Y-91485469D01*
X82775074Y-91485469D01*
X83820000Y-92530395D01*
X84864926Y-91485469D01*
X84843338Y-91431484D01*
X86718390Y-91431484D01*
X86783051Y-92105023D01*
X86977870Y-92753006D01*
X87295361Y-93350530D01*
X87304823Y-93364692D01*
X87753519Y-93676876D01*
X89990395Y-91440000D01*
X87753519Y-89203124D01*
X87304823Y-89515308D01*
X86984388Y-90111259D01*
X86786374Y-90758273D01*
X86718390Y-91431484D01*
X84843338Y-91431484D01*
X84754079Y-91208286D01*
X84443160Y-91054911D01*
X84108295Y-90965140D01*
X83762350Y-90942424D01*
X83418620Y-90987634D01*
X83090315Y-91099034D01*
X82885921Y-91208286D01*
X82775074Y-91485469D01*
X79784926Y-91485469D01*
X79674079Y-91208286D01*
X79363160Y-91054911D01*
X79028295Y-90965140D01*
X78682350Y-90942424D01*
X78338620Y-90987634D01*
X78010315Y-91099034D01*
X77805921Y-91208286D01*
X77695074Y-91485469D01*
X74704926Y-91485469D01*
X74594079Y-91208286D01*
X74283160Y-91054911D01*
X73948295Y-90965140D01*
X73602350Y-90942424D01*
X73258620Y-90987634D01*
X72930315Y-91099034D01*
X72725921Y-91208286D01*
X72615074Y-91485469D01*
X69624926Y-91485469D01*
X69514079Y-91208286D01*
X69203160Y-91054911D01*
X68868295Y-90965140D01*
X68522350Y-90942424D01*
X68178620Y-90987634D01*
X67850315Y-91099034D01*
X67645921Y-91208286D01*
X67535074Y-91485469D01*
X65677878Y-91485469D01*
X65681610Y-91448516D01*
X65616949Y-90774977D01*
X65422130Y-90126994D01*
X65104639Y-89529470D01*
X65095177Y-89515308D01*
X64646481Y-89203124D01*
X62409605Y-91440000D01*
X62050395Y-91440000D01*
X59813519Y-89203124D01*
X59364823Y-89515308D01*
X59044388Y-90111259D01*
X58846374Y-90758273D01*
X58827753Y-90942668D01*
X58540556Y-90618490D01*
X57437614Y-89150740D01*
X57357165Y-89023519D01*
X59993124Y-89023519D01*
X62230000Y-91260395D01*
X64466876Y-89023519D01*
X87933124Y-89023519D01*
X90170000Y-91260395D01*
X92406876Y-89023519D01*
X92094692Y-88574823D01*
X91498741Y-88254388D01*
X90851727Y-88056374D01*
X90178516Y-87988390D01*
X89504977Y-88053051D01*
X88856994Y-88247870D01*
X88259470Y-88565361D01*
X88245308Y-88574823D01*
X87933124Y-89023519D01*
X64466876Y-89023519D01*
X64154692Y-88574823D01*
X63558741Y-88254388D01*
X62911727Y-88056374D01*
X62238516Y-87988390D01*
X61564977Y-88053051D01*
X60916994Y-88247870D01*
X60319470Y-88565361D01*
X60305308Y-88574823D01*
X59993124Y-89023519D01*
X57357165Y-89023519D01*
X56456353Y-87599000D01*
X55603137Y-85973333D01*
X54883500Y-84284282D01*
X54302108Y-82542802D01*
X53862733Y-80760186D01*
X53568223Y-78947995D01*
X53549055Y-78710553D01*
X53643125Y-78616483D01*
X53955308Y-79065177D01*
X54551259Y-79385612D01*
X55198273Y-79583626D01*
X55871484Y-79651610D01*
X56545023Y-79586949D01*
X57193006Y-79392130D01*
X57790530Y-79074639D01*
X57804692Y-79065177D01*
X58116876Y-78616481D01*
X55880000Y-76379605D01*
X55865858Y-76393748D01*
X55686253Y-76214143D01*
X55700395Y-76200000D01*
X56059605Y-76200000D01*
X58296481Y-78436876D01*
X58745177Y-78124692D01*
X59065612Y-77528741D01*
X59208000Y-77063486D01*
X59208000Y-77383939D01*
X59199524Y-77470000D01*
X59208000Y-77556061D01*
X59208000Y-77556068D01*
X59233350Y-77813451D01*
X59333531Y-78143704D01*
X59333532Y-78143705D01*
X59496217Y-78448068D01*
X59545637Y-78508286D01*
X59715155Y-78714845D01*
X59782008Y-78769710D01*
X62226275Y-81213977D01*
X62075000Y-81211928D01*
X61950518Y-81224188D01*
X61830820Y-81260498D01*
X61720506Y-81319463D01*
X61623815Y-81398815D01*
X61544463Y-81495506D01*
X61485498Y-81605820D01*
X61449188Y-81725518D01*
X61436928Y-81850000D01*
X61440000Y-82264250D01*
X61598750Y-82423000D01*
X62265128Y-82423000D01*
X62265128Y-82677000D01*
X61598750Y-82677000D01*
X61440000Y-82835750D01*
X61436928Y-83250000D01*
X61449188Y-83374482D01*
X61485498Y-83494180D01*
X61544463Y-83604494D01*
X61623815Y-83701185D01*
X61720506Y-83780537D01*
X61830820Y-83839502D01*
X61950518Y-83875812D01*
X62075000Y-83888072D01*
X62301750Y-83885000D01*
X62428402Y-83758348D01*
X62460498Y-83818395D01*
X62460498Y-83885000D01*
X62496099Y-83885000D01*
X62582786Y-84047180D01*
X62817194Y-84332806D01*
X63102820Y-84567214D01*
X63428689Y-84741395D01*
X63782278Y-84848655D01*
X64149998Y-84884872D01*
X64675002Y-84884872D01*
X65042722Y-84848655D01*
X65396311Y-84741395D01*
X65722180Y-84567214D01*
X66007806Y-84332806D01*
X66045155Y-84287296D01*
X66153248Y-84276650D01*
X66449121Y-84186898D01*
X66772101Y-84186898D01*
X66866437Y-84281234D01*
X67255754Y-84541368D01*
X67688341Y-84720551D01*
X68147572Y-84811898D01*
X68615800Y-84811898D01*
X69075031Y-84720551D01*
X69507618Y-84541368D01*
X69587159Y-84488220D01*
X69575510Y-84516343D01*
X69484163Y-84975574D01*
X69484163Y-85443802D01*
X69575510Y-85903033D01*
X69754693Y-86335620D01*
X70014827Y-86724937D01*
X70345914Y-87056024D01*
X70735231Y-87316158D01*
X71167818Y-87495341D01*
X71627049Y-87586688D01*
X72095277Y-87586688D01*
X72554508Y-87495341D01*
X72987095Y-87316158D01*
X73376412Y-87056024D01*
X73707499Y-86724937D01*
X73967633Y-86335620D01*
X74146816Y-85903033D01*
X74238163Y-85443802D01*
X74238163Y-84975574D01*
X78161837Y-84975574D01*
X78161837Y-85443802D01*
X78253184Y-85903033D01*
X78432367Y-86335620D01*
X78692501Y-86724937D01*
X79023588Y-87056024D01*
X79412905Y-87316158D01*
X79845492Y-87495341D01*
X80304723Y-87586688D01*
X80772951Y-87586688D01*
X81232182Y-87495341D01*
X81664769Y-87316158D01*
X82054086Y-87056024D01*
X82385173Y-86724937D01*
X82645307Y-86335620D01*
X82654042Y-86314531D01*
X91665074Y-86314531D01*
X91775921Y-86591714D01*
X92086840Y-86745089D01*
X92421705Y-86834860D01*
X92767650Y-86857576D01*
X93111380Y-86812366D01*
X93439685Y-86700966D01*
X93644079Y-86591714D01*
X93754926Y-86314531D01*
X92710000Y-85269605D01*
X91665074Y-86314531D01*
X82654042Y-86314531D01*
X82824490Y-85903033D01*
X82915837Y-85443802D01*
X82915837Y-85147650D01*
X90942424Y-85147650D01*
X90987634Y-85491380D01*
X91099034Y-85819685D01*
X91208286Y-86024079D01*
X91485469Y-86134926D01*
X92530395Y-85090000D01*
X91485469Y-84045074D01*
X91208286Y-84155921D01*
X91054911Y-84466840D01*
X90965140Y-84801705D01*
X90942424Y-85147650D01*
X82915837Y-85147650D01*
X82915837Y-84975574D01*
X82824490Y-84516343D01*
X82645307Y-84083756D01*
X82385173Y-83694439D01*
X82054086Y-83363352D01*
X81664769Y-83103218D01*
X81232182Y-82924035D01*
X80772951Y-82832688D01*
X80304723Y-82832688D01*
X79845492Y-82924035D01*
X79412905Y-83103218D01*
X79023588Y-83363352D01*
X78692501Y-83694439D01*
X78432367Y-84083756D01*
X78253184Y-84516343D01*
X78161837Y-84975574D01*
X74238163Y-84975574D01*
X74146816Y-84516343D01*
X73967633Y-84083756D01*
X73707499Y-83694439D01*
X73376412Y-83363352D01*
X72987095Y-83103218D01*
X72554508Y-82924035D01*
X72095277Y-82832688D01*
X71627049Y-82832688D01*
X71167818Y-82924035D01*
X70735231Y-83103218D01*
X70655690Y-83156366D01*
X70667339Y-83128243D01*
X70758686Y-82669012D01*
X70758686Y-82200784D01*
X70667339Y-81741553D01*
X70488156Y-81308966D01*
X70228022Y-80919649D01*
X69896935Y-80588562D01*
X69507618Y-80328428D01*
X69075031Y-80149245D01*
X68615800Y-80057898D01*
X68179617Y-80057898D01*
X68297057Y-79940458D01*
X68557191Y-79551141D01*
X68736374Y-79118554D01*
X68827721Y-78659323D01*
X68827721Y-78191095D01*
X68736374Y-77731864D01*
X68557191Y-77299277D01*
X68297057Y-76909960D01*
X67965970Y-76578873D01*
X67576653Y-76318739D01*
X67289991Y-76200000D01*
X67576653Y-76081261D01*
X67965970Y-75821127D01*
X68297057Y-75490040D01*
X68557191Y-75100723D01*
X68736374Y-74668136D01*
X68827721Y-74208905D01*
X68827721Y-73740677D01*
X68736374Y-73281446D01*
X68557191Y-72848859D01*
X68297057Y-72459542D01*
X68179617Y-72342102D01*
X68615800Y-72342102D01*
X69075031Y-72250755D01*
X69507618Y-72071572D01*
X69896935Y-71811438D01*
X70228022Y-71480351D01*
X70488156Y-71091034D01*
X70667339Y-70658447D01*
X70758686Y-70199216D01*
X70758686Y-69730988D01*
X70667339Y-69271757D01*
X70655690Y-69243634D01*
X70735231Y-69296782D01*
X71167818Y-69475965D01*
X71627049Y-69567312D01*
X72095277Y-69567312D01*
X72554508Y-69475965D01*
X72987095Y-69296782D01*
X73376412Y-69036648D01*
X73707499Y-68705561D01*
X73967633Y-68316244D01*
X74146816Y-67883657D01*
X74220081Y-67515329D01*
X74353664Y-67715249D01*
X74684751Y-68046336D01*
X75074068Y-68306470D01*
X75506655Y-68485653D01*
X75965886Y-68577000D01*
X76434114Y-68577000D01*
X76893345Y-68485653D01*
X77262757Y-68332638D01*
X77310000Y-68337291D01*
X77414485Y-68327000D01*
X77414487Y-68327000D01*
X77726965Y-68296224D01*
X78127906Y-68174599D01*
X78329142Y-68067036D01*
X78432367Y-68316244D01*
X78692501Y-68705561D01*
X79023588Y-69036648D01*
X79412905Y-69296782D01*
X79845492Y-69475965D01*
X80304723Y-69567312D01*
X80772951Y-69567312D01*
X81232182Y-69475965D01*
X81664769Y-69296782D01*
X81744310Y-69243634D01*
X81732661Y-69271757D01*
X81641314Y-69730988D01*
X81641314Y-70199216D01*
X81732661Y-70658447D01*
X81911844Y-71091034D01*
X82171978Y-71480351D01*
X82503065Y-71811438D01*
X82892382Y-72071572D01*
X83324969Y-72250755D01*
X83784200Y-72342102D01*
X84220383Y-72342102D01*
X84102943Y-72459542D01*
X83842809Y-72848859D01*
X83663626Y-73281446D01*
X83572279Y-73740677D01*
X83572279Y-74208905D01*
X83663626Y-74668136D01*
X83842809Y-75100723D01*
X84102943Y-75490040D01*
X84434030Y-75821127D01*
X84823347Y-76081261D01*
X85110009Y-76200000D01*
X84823347Y-76318739D01*
X84434030Y-76578873D01*
X84102943Y-76909960D01*
X83842809Y-77299277D01*
X83663626Y-77731864D01*
X83572279Y-78191095D01*
X83572279Y-78659323D01*
X83663626Y-79118554D01*
X83842809Y-79551141D01*
X84102943Y-79940458D01*
X84434030Y-80271545D01*
X84823347Y-80531679D01*
X85255934Y-80710862D01*
X85715165Y-80802209D01*
X86183393Y-80802209D01*
X86642624Y-80710862D01*
X87075211Y-80531679D01*
X87464528Y-80271545D01*
X87668423Y-80067650D01*
X90942424Y-80067650D01*
X90987634Y-80411380D01*
X91099034Y-80739685D01*
X91208286Y-80944079D01*
X91485469Y-81054926D01*
X92530395Y-80010000D01*
X91485469Y-78965074D01*
X91208286Y-79075921D01*
X91054911Y-79386840D01*
X90965140Y-79721705D01*
X90942424Y-80067650D01*
X87668423Y-80067650D01*
X87795615Y-79940458D01*
X88055749Y-79551141D01*
X88234932Y-79118554D01*
X88301186Y-78785469D01*
X91665074Y-78785469D01*
X92710000Y-79830395D01*
X93754926Y-78785469D01*
X93644079Y-78508286D01*
X93333160Y-78354911D01*
X92998295Y-78265140D01*
X92652350Y-78242424D01*
X92308620Y-78287634D01*
X91980315Y-78399034D01*
X91775921Y-78508286D01*
X91665074Y-78785469D01*
X88301186Y-78785469D01*
X88326279Y-78659323D01*
X88326279Y-78191095D01*
X88234932Y-77731864D01*
X88055749Y-77299277D01*
X87795615Y-76909960D01*
X87464528Y-76578873D01*
X87075211Y-76318739D01*
X86788549Y-76200000D01*
X87075211Y-76081261D01*
X87464528Y-75821127D01*
X87795615Y-75490040D01*
X88055749Y-75100723D01*
X88234932Y-74668136D01*
X88326279Y-74208905D01*
X88326279Y-74075494D01*
X88712068Y-73689705D01*
X88778915Y-73634845D01*
X88795586Y-73614531D01*
X91665074Y-73614531D01*
X91775921Y-73891714D01*
X92086840Y-74045089D01*
X92421705Y-74134860D01*
X92767650Y-74157576D01*
X93111380Y-74112366D01*
X93439685Y-74000966D01*
X93644079Y-73891714D01*
X93754926Y-73614531D01*
X92710000Y-72569605D01*
X91665074Y-73614531D01*
X88795586Y-73614531D01*
X88833775Y-73567998D01*
X88833781Y-73567992D01*
X88997853Y-73368069D01*
X89160538Y-73063706D01*
X89160539Y-73063705D01*
X89260720Y-72733452D01*
X89286070Y-72476069D01*
X89286070Y-72476061D01*
X89288868Y-72447650D01*
X90942424Y-72447650D01*
X90987634Y-72791380D01*
X91099034Y-73119685D01*
X91208286Y-73324079D01*
X91485469Y-73434926D01*
X92530395Y-72390000D01*
X91485469Y-71345074D01*
X91208286Y-71455921D01*
X91054911Y-71766840D01*
X90965140Y-72101705D01*
X90942424Y-72447650D01*
X89288868Y-72447650D01*
X89294546Y-72390000D01*
X89286070Y-72303939D01*
X89286070Y-67367650D01*
X90942424Y-67367650D01*
X90987634Y-67711380D01*
X91099034Y-68039685D01*
X91208286Y-68244079D01*
X91485469Y-68354926D01*
X92530395Y-67310000D01*
X91485469Y-66265074D01*
X91208286Y-66375921D01*
X91054911Y-66686840D01*
X90965140Y-67021705D01*
X90942424Y-67367650D01*
X89286070Y-67367650D01*
X89286070Y-66085469D01*
X91665074Y-66085469D01*
X92710000Y-67130395D01*
X93754926Y-66085469D01*
X93644079Y-65808286D01*
X93333160Y-65654911D01*
X92998295Y-65565140D01*
X92652350Y-65542424D01*
X92308620Y-65587634D01*
X91980315Y-65699034D01*
X91775921Y-65808286D01*
X91665074Y-66085469D01*
X89286070Y-66085469D01*
X89286070Y-64760127D01*
X89294546Y-64674069D01*
X89286070Y-64588011D01*
X89286070Y-64588001D01*
X89260720Y-64330618D01*
X89160539Y-64000365D01*
X88997853Y-63696001D01*
X88795834Y-63449841D01*
X89239159Y-63402273D01*
X89734526Y-63247279D01*
X90151772Y-63024258D01*
X90367894Y-62657499D01*
X88700000Y-60989605D01*
X88685858Y-61003748D01*
X88506253Y-60824143D01*
X88520395Y-60810000D01*
X88879605Y-60810000D01*
X90547499Y-62477894D01*
X90914258Y-62261772D01*
X91154938Y-61801895D01*
X91301275Y-61303902D01*
X91347648Y-60786929D01*
X91292273Y-60270841D01*
X91137279Y-59775474D01*
X90914258Y-59358228D01*
X90547499Y-59142106D01*
X88879605Y-60810000D01*
X88520395Y-60810000D01*
X86852501Y-59142106D01*
X86485742Y-59358228D01*
X86245062Y-59818105D01*
X86098725Y-60316098D01*
X86062100Y-60724398D01*
X84300203Y-58962501D01*
X87032106Y-58962501D01*
X88700000Y-60630395D01*
X90367894Y-58962501D01*
X90151772Y-58595742D01*
X89691895Y-58355062D01*
X89193902Y-58208725D01*
X88676929Y-58162352D01*
X88160841Y-58217727D01*
X87665474Y-58372721D01*
X87248228Y-58595742D01*
X87032106Y-58962501D01*
X84300203Y-58962501D01*
X83549710Y-58212008D01*
X83494845Y-58145155D01*
X83423249Y-58086397D01*
X83390241Y-58059308D01*
X83228069Y-57926217D01*
X82923705Y-57763531D01*
X82593452Y-57663350D01*
X82336069Y-57638000D01*
X82336061Y-57638000D01*
X82250000Y-57629524D01*
X82163939Y-57638000D01*
X82035296Y-57638000D01*
X81902122Y-57504826D01*
X81504615Y-57239221D01*
X81062930Y-57056268D01*
X80594039Y-56963000D01*
X80115961Y-56963000D01*
X79647070Y-57056268D01*
X79205385Y-57239221D01*
X78807878Y-57504826D01*
X78469826Y-57842878D01*
X78277793Y-58130276D01*
X78071004Y-58032429D01*
X77796816Y-57963700D01*
X77514488Y-57949783D01*
X77234870Y-57991213D01*
X76968708Y-58086397D01*
X76890735Y-58128074D01*
X76700174Y-57842878D01*
X76362122Y-57504826D01*
X75964615Y-57239221D01*
X75522930Y-57056268D01*
X75054039Y-56963000D01*
X74575961Y-56963000D01*
X74107070Y-57056268D01*
X73665385Y-57239221D01*
X73430000Y-57396500D01*
X73194615Y-57239221D01*
X72752930Y-57056268D01*
X72284039Y-56963000D01*
X71805961Y-56963000D01*
X71337070Y-57056268D01*
X70895385Y-57239221D01*
X70497878Y-57504826D01*
X70159826Y-57842878D01*
X69894221Y-58240385D01*
X69711268Y-58682070D01*
X69618000Y-59150961D01*
X69618000Y-59629039D01*
X69655052Y-59815314D01*
X69541052Y-59826542D01*
X69234362Y-59919575D01*
X68951714Y-60070654D01*
X68703971Y-60273971D01*
X68500654Y-60521714D01*
X68349575Y-60804362D01*
X68256542Y-61111052D01*
X68225128Y-61430000D01*
X68225128Y-62187170D01*
X59782003Y-70630295D01*
X59715156Y-70685155D01*
X59660296Y-70752002D01*
X59660289Y-70752009D01*
X59496217Y-70951932D01*
X59333532Y-71256295D01*
X59233350Y-71586549D01*
X59199524Y-71930000D01*
X59208001Y-72016071D01*
X59208000Y-75338909D01*
X59072130Y-74886994D01*
X58754639Y-74289470D01*
X58745177Y-74275308D01*
X58296481Y-73963124D01*
X56059605Y-76200000D01*
X55700395Y-76200000D01*
X55686253Y-76185858D01*
X55865858Y-76006253D01*
X55880000Y-76020395D01*
X58116876Y-73783519D01*
X57804692Y-73334823D01*
X57208741Y-73014388D01*
X56561727Y-72816374D01*
X55888516Y-72748390D01*
X55214977Y-72813051D01*
X54566994Y-73007870D01*
X53969470Y-73325361D01*
X53955308Y-73334823D01*
X53643125Y-73783517D01*
X53549055Y-73689447D01*
X53568223Y-73452005D01*
X53862733Y-71639814D01*
X54302108Y-69857198D01*
X54883500Y-68115718D01*
X55603137Y-66426667D01*
X56456353Y-64801000D01*
X57437614Y-63249260D01*
X57882293Y-62657499D01*
X62032106Y-62657499D01*
X62248228Y-63024258D01*
X62708105Y-63264938D01*
X63206098Y-63411275D01*
X63723071Y-63457648D01*
X64239159Y-63402273D01*
X64734526Y-63247279D01*
X65151772Y-63024258D01*
X65367894Y-62657499D01*
X63700000Y-60989605D01*
X62032106Y-62657499D01*
X57882293Y-62657499D01*
X58540556Y-61781510D01*
X59380800Y-60833071D01*
X61052352Y-60833071D01*
X61107727Y-61349159D01*
X61262721Y-61844526D01*
X61485742Y-62261772D01*
X61852501Y-62477894D01*
X63520395Y-60810000D01*
X63879605Y-60810000D01*
X65547499Y-62477894D01*
X65914258Y-62261772D01*
X66154938Y-61801895D01*
X66301275Y-61303902D01*
X66347648Y-60786929D01*
X66292273Y-60270841D01*
X66137279Y-59775474D01*
X65914258Y-59358228D01*
X65547499Y-59142106D01*
X63879605Y-60810000D01*
X63520395Y-60810000D01*
X61852501Y-59142106D01*
X61485742Y-59358228D01*
X61245062Y-59818105D01*
X61098725Y-60316098D01*
X61052352Y-60833071D01*
X59380800Y-60833071D01*
X59758027Y-60407270D01*
X61082130Y-59135452D01*
X61293956Y-58962501D01*
X62032106Y-58962501D01*
X63700000Y-60630395D01*
X65367894Y-58962501D01*
X65151772Y-58595742D01*
X64691895Y-58355062D01*
X64193902Y-58208725D01*
X63676929Y-58162352D01*
X63160841Y-58217727D01*
X62665474Y-58372721D01*
X62248228Y-58595742D01*
X62032106Y-58962501D01*
X61293956Y-58962501D01*
X62504278Y-57974304D01*
X64015248Y-56931356D01*
X65605241Y-56013374D01*
X67263945Y-55226309D01*
X68980603Y-54575266D01*
X70744081Y-54064468D01*
X72542944Y-53697228D01*
X74365523Y-53475927D01*
X76200000Y-53402000D01*
X78034477Y-53475927D01*
G37*
%TD.AperFunction*%
D19*
X77778748Y-59375858D02*
X77764605Y-59390000D01*
X77778748Y-59404143D01*
X77599143Y-59583748D01*
X77585000Y-59569605D01*
X77570858Y-59583748D01*
X77391253Y-59404143D01*
X77405395Y-59390000D01*
X77391253Y-59375858D01*
X77570858Y-59196253D01*
X77585000Y-59210395D01*
X77599143Y-59196253D01*
X77778748Y-59375858D01*
%TA.AperFunction,Conductor*%
D20*
G36*
X77778748Y-59375858D02*
G01*
X77764605Y-59390000D01*
X77778748Y-59404143D01*
X77599143Y-59583748D01*
X77585000Y-59569605D01*
X77570858Y-59583748D01*
X77391253Y-59404143D01*
X77405395Y-59390000D01*
X77391253Y-59375858D01*
X77570858Y-59196253D01*
X77585000Y-59210395D01*
X77599143Y-59196253D01*
X77778748Y-59375858D01*
G37*
%TD.AperFunction*%
%TD*%
M02*
