%TF.GenerationSoftware,KiCad,Pcbnew,5.1.10*%
%TF.CreationDate,2022-04-07T13:38:10+02:00*%
%TF.ProjectId,breakoutPcb,62726561-6b6f-4757-9450-63622e6b6963,rev?*%
%TF.SameCoordinates,Original*%
%TF.FileFunction,Paste,Bot*%
%TF.FilePolarity,Positive*%
%FSLAX46Y46*%
G04 Gerber Fmt 4.6, Leading zero omitted, Abs format (unit mm)*
G04 Created by KiCad (PCBNEW 5.1.10) date 2022-04-07 13:38:10*
%MOMM*%
%LPD*%
G01*
G04 APERTURE LIST*
%ADD10R,1.550000X1.300000*%
%ADD11R,1.300000X1.550000*%
G04 APERTURE END LIST*
D10*
%TO.C,L4*%
X88905000Y-67310000D03*
X86355000Y-67310000D03*
%TD*%
D11*
%TO.C,L3*%
X88900000Y-76195000D03*
X88900000Y-78745000D03*
%TD*%
D10*
%TO.C,L2*%
X83825000Y-88900000D03*
X81275000Y-88900000D03*
%TD*%
%TO.C,L1*%
X73665000Y-88900000D03*
X71115000Y-88900000D03*
%TD*%
%TO.C,JP2*%
G36*
G01*
X63100000Y-78289998D02*
X63100000Y-79190002D01*
G75*
G02*
X62850002Y-79440000I-249998J0D01*
G01*
X62324998Y-79440000D01*
G75*
G02*
X62075000Y-79190002I0J249998D01*
G01*
X62075000Y-78289998D01*
G75*
G02*
X62324998Y-78040000I249998J0D01*
G01*
X62850002Y-78040000D01*
G75*
G02*
X63100000Y-78289998I0J-249998D01*
G01*
G37*
G36*
G01*
X64925000Y-78289998D02*
X64925000Y-79190002D01*
G75*
G02*
X64675002Y-79440000I-249998J0D01*
G01*
X64149998Y-79440000D01*
G75*
G02*
X63900000Y-79190002I0J249998D01*
G01*
X63900000Y-78289998D01*
G75*
G02*
X64149998Y-78040000I249998J0D01*
G01*
X64675002Y-78040000D01*
G75*
G02*
X64925000Y-78289998I0J-249998D01*
G01*
G37*
%TD*%
%TO.C,C4*%
G36*
G01*
X88714000Y-82449500D02*
X88714000Y-82650500D01*
G75*
G02*
X88634500Y-82730000I-79500J0D01*
G01*
X88475500Y-82730000D01*
G75*
G02*
X88396000Y-82650500I0J79500D01*
G01*
X88396000Y-82449500D01*
G75*
G02*
X88475500Y-82370000I79500J0D01*
G01*
X88634500Y-82370000D01*
G75*
G02*
X88714000Y-82449500I0J-79500D01*
G01*
G37*
G36*
G01*
X89404000Y-82449500D02*
X89404000Y-82650500D01*
G75*
G02*
X89324500Y-82730000I-79500J0D01*
G01*
X89165500Y-82730000D01*
G75*
G02*
X89086000Y-82650500I0J79500D01*
G01*
X89086000Y-82449500D01*
G75*
G02*
X89165500Y-82370000I79500J0D01*
G01*
X89324500Y-82370000D01*
G75*
G02*
X89404000Y-82449500I0J-79500D01*
G01*
G37*
%TD*%
%TO.C,C3*%
G36*
G01*
X87444000Y-69749500D02*
X87444000Y-69950500D01*
G75*
G02*
X87364500Y-70030000I-79500J0D01*
G01*
X87205500Y-70030000D01*
G75*
G02*
X87126000Y-69950500I0J79500D01*
G01*
X87126000Y-69749500D01*
G75*
G02*
X87205500Y-69670000I79500J0D01*
G01*
X87364500Y-69670000D01*
G75*
G02*
X87444000Y-69749500I0J-79500D01*
G01*
G37*
G36*
G01*
X88134000Y-69749500D02*
X88134000Y-69950500D01*
G75*
G02*
X88054500Y-70030000I-79500J0D01*
G01*
X87895500Y-70030000D01*
G75*
G02*
X87816000Y-69950500I0J79500D01*
G01*
X87816000Y-69749500D01*
G75*
G02*
X87895500Y-69670000I79500J0D01*
G01*
X88054500Y-69670000D01*
G75*
G02*
X88134000Y-69749500I0J-79500D01*
G01*
G37*
%TD*%
%TO.C,C2*%
G36*
G01*
X68680500Y-88714000D02*
X68479500Y-88714000D01*
G75*
G02*
X68400000Y-88634500I0J79500D01*
G01*
X68400000Y-88475500D01*
G75*
G02*
X68479500Y-88396000I79500J0D01*
G01*
X68680500Y-88396000D01*
G75*
G02*
X68760000Y-88475500I0J-79500D01*
G01*
X68760000Y-88634500D01*
G75*
G02*
X68680500Y-88714000I-79500J0D01*
G01*
G37*
G36*
G01*
X68680500Y-89404000D02*
X68479500Y-89404000D01*
G75*
G02*
X68400000Y-89324500I0J79500D01*
G01*
X68400000Y-89165500D01*
G75*
G02*
X68479500Y-89086000I79500J0D01*
G01*
X68680500Y-89086000D01*
G75*
G02*
X68760000Y-89165500I0J-79500D01*
G01*
X68760000Y-89324500D01*
G75*
G02*
X68680500Y-89404000I-79500J0D01*
G01*
G37*
%TD*%
%TO.C,C1*%
G36*
G01*
X78840500Y-88714000D02*
X78639500Y-88714000D01*
G75*
G02*
X78560000Y-88634500I0J79500D01*
G01*
X78560000Y-88475500D01*
G75*
G02*
X78639500Y-88396000I79500J0D01*
G01*
X78840500Y-88396000D01*
G75*
G02*
X78920000Y-88475500I0J-79500D01*
G01*
X78920000Y-88634500D01*
G75*
G02*
X78840500Y-88714000I-79500J0D01*
G01*
G37*
G36*
G01*
X78840500Y-89404000D02*
X78639500Y-89404000D01*
G75*
G02*
X78560000Y-89324500I0J79500D01*
G01*
X78560000Y-89165500D01*
G75*
G02*
X78639500Y-89086000I79500J0D01*
G01*
X78840500Y-89086000D01*
G75*
G02*
X78920000Y-89165500I0J-79500D01*
G01*
X78920000Y-89324500D01*
G75*
G02*
X78840500Y-89404000I-79500J0D01*
G01*
G37*
%TD*%
M02*
